<?xml version="1.0" encoding="utf-8"?>
<!-- Generator: Adobe Illustrator 23.0.2, SVG Export Plug-In . SVG Version: 6.00 Build 0)  -->
<svg version="1.1" id="Layer" xmlns="http://www.w3.org/2000/svg" xmlns:xlink="http://www.w3.org/1999/xlink" x="0px" y="0px"
	 viewBox="0 0 369.8 379.7" style="enable-background:new 0 0 369.8 379.7;" xml:space="preserve">
<style type="text/css">
	.st0{fill:#5455A8;}
	.st1{enable-background:new    ;}
	.st2{fill:#735F4F;}
	.st3{fill:#D1B7A3;}
	.st4{fill:#F2F2F2;}
	.st5{fill:#C5CEE3;}
	.st6{fill:#B4BCCF;}
	.st7{fill:#AD9887;}
	.st8{fill:#754600;}
	.st9{fill:#FFB78C;}
	.st10{fill:#FF5740;}
	.st11{fill:#D9D9D9;}
	.st12{fill:#FFAA00;}
	.st13{fill:#FFEA00;}
	.st14{fill:#EFF0F2;}
	.st15{fill:#DE2910;}
	.st16{fill:#FFE5CC;}
	.st17{fill:#33A0FC;}
	.st18{fill:#FFFFFF;}
	.st19{fill:#4D4D80;}
	.st20{fill:#B3B3B3;}
	.st21{fill:#D1BFA5;}
	.st22{fill:#FFC800;}
	.st23{fill:#786E5F;}
	.st24{fill:#FEDD6C;}
	.st25{fill:#E6E6E6;}
	.st26{fill:#434343;}
	.st27{fill:#30306B;}
	.st28{fill:#898BE6;}
	.st29{fill:#75C7EB;}
	.st30{fill:#4D4D4D;}
	.st31{fill:#BDBDBD;}
	.st32{fill:#FA8406;}
	.st33{fill:#FFE75C;}
	.st34{fill:#FABE19;}
	.st35{fill:#CED3DE;}
	.st36{fill:#6B6CB3;}
	.st37{fill:#B3BAC9;}
	.st38{fill:#A6A6A6;}
	.st39{fill:#ED341A;}
</style>
<g>
	<g>
		<ellipse transform="matrix(1 -5.421824e-03 5.421824e-03 1 -1.1448 0.7946)" class="st0" cx="146" cy="211.5" rx="29.4" ry="17"/>
		<g>
			<path class="st0" d="M56.1,241.1l112-64.9c2.8-1.6,2.4-4.4-0.8-6.3l-42.7-24.7c-3.2-1.9-8.1-2.1-10.9-0.5l-112,64.9
				c-2.8,1.6-2.4,4.4,0.8,6.3l42.7,24.7C48.5,242.5,53.3,242.7,56.1,241.1z"/>
			<g>
				<g>
					<g class="st1">
						<g>
							<polygon class="st2" points="125.9,151.8 131.1,148.8 131.3,103.6 126,106.7 							"/>
						</g>
						<g>
							<polygon class="st3" points="126,106.7 131.3,103.6 119.4,96.8 114.1,99.8 							"/>
						</g>
						<g>
							<polygon class="st2" points="114.1,99.8 114,145 125.9,151.8 126,106.7 							"/>
						</g>
					</g>
				</g>
				<g>
					<g class="st1">
						<g>
							<polygon class="st2" points="141.6,160.9 146.8,157.9 147,112.7 141.7,115.8 							"/>
						</g>
						<g>
							<polygon class="st3" points="141.7,115.8 147,112.7 135.1,105.8 129.8,108.9 							"/>
						</g>
						<g>
							<polygon class="st2" points="129.8,108.9 129.7,154 141.6,160.9 141.7,115.8 							"/>
						</g>
					</g>
				</g>
				<g>
					<g class="st1">
						<g>
							<polygon class="st4" points="147.5,86.1 145.8,85.1 142,87.3 143.7,88.2 							"/>
						</g>
						<g>
							<polygon class="st5" points="143.7,88.2 142,87.3 142,124.5 143.7,125.5 							"/>
						</g>
						<g>
							<polygon class="st6" points="147.5,86.1 143.7,88.2 143.7,125.5 147.5,123.3 							"/>
						</g>
					</g>
				</g>
				<g>
					<g class="st1">
						<g>
							<polygon class="st5" points="5.4,130.8 1.6,128.7 1.6,121.4 5.4,123.6 							"/>
						</g>
						<g>
							<polygon class="st4" points="5.4,123.6 1.6,121.4 111.5,58 115.3,60.2 							"/>
						</g>
						<g>
							<polygon class="st5" points="5.4,130.8 5.4,123.6 115.3,60.2 115.3,67.5 							"/>
						</g>
					</g>
				</g>
				<g>
					<g class="st1">
						<g>
							<polygon class="st6" points="143.7,88.2 147.5,86.1 147.5,78.8 143.7,81 							"/>
						</g>
						<g>
							<polygon class="st4" points="143.7,81 147.5,78.8 115.3,60.2 111.5,62.3 							"/>
						</g>
						<g>
							<polygon class="st5" points="143.7,88.2 143.7,81 111.5,62.3 111.5,69.6 							"/>
						</g>
					</g>
				</g>
				<g>
					<g class="st1">
						<g>
							<polygon class="st7" points="13.3,114.4 8.6,112.2 9.7,126.4 14.3,128.7 							"/>
						</g>
						<g>
							<polygon class="st3" points="112.1,57.3 107.5,55.1 8.6,112.2 13.3,114.4 							"/>
						</g>
						<g>
							<polygon class="st2" points="13.3,114.4 14.3,128.7 113.2,71.5 112.1,57.3 							"/>
						</g>
					</g>
				</g>
				<g>
					<g class="st1">
						<g>
							<polygon class="st2" points="156.8,169.7 162,166.6 162.2,121.5 156.9,124.5 							"/>
						</g>
						<g>
							<polygon class="st3" points="156.9,124.5 162.2,121.5 150.3,114.6 145,117.6 							"/>
						</g>
						<g>
							<polygon class="st2" points="145,117.6 144.9,162.8 156.8,169.7 156.9,124.5 							"/>
						</g>
					</g>
				</g>
				<g>
					<g>
						<g class="st1">
							<g>
								<polygon class="st5" points="155.2,173.9 156.9,172.9 156.9,130.6 155.2,131.6 								"/>
							</g>
							<g>
								<polygon class="st4" points="155.2,131.6 156.9,130.6 114.1,105.8 112.4,106.8 								"/>
							</g>
							<g>
								<polygon class="st6" points="155.2,173.9 155.2,131.6 112.4,106.8 112.4,149.1 								"/>
							</g>
						</g>
					</g>
					<g>
						<g class="st1">
							<g>
								<polygon class="st6" points="55.1,231.7 56.8,230.8 56.8,188.4 55.1,189.4 								"/>
							</g>
							<g>
								<polygon class="st4" points="55.1,189.4 56.8,188.4 14,163.7 12.3,164.6 								"/>
							</g>
							<g>
								<polygon class="st5" points="55.1,231.7 55.1,189.4 12.3,164.6 12.3,206.9 								"/>
							</g>
						</g>
					</g>
				</g>
				<g>
					<g class="st1">
						<g>
							<polygon class="st2" points="12.4,158.5 12.5,164.6 24.3,171.4 24.3,165.4 							"/>
						</g>
						<g>
							<polygon class="st2" points="24.3,165.4 24.3,171.4 126,112.7 126,106.7 							"/>
						</g>
						<g>
							<polygon class="st3" points="12.4,158.5 24.3,165.4 126,106.7 114.2,99.8 							"/>
						</g>
					</g>
				</g>
				<g>
					<g class="st1">
						<g>
							<polygon class="st2" points="18.9,213.5 24.2,210.5 24.3,165.4 19.1,168.4 							"/>
						</g>
						<g>
							<polygon class="st3" points="19.1,168.4 24.3,165.4 12.4,158.5 7.2,161.5 							"/>
						</g>
						<g>
							<polygon class="st7" points="7.2,161.5 7,206.7 18.9,213.5 19.1,168.4 							"/>
						</g>
					</g>
				</g>
				<g>
					<g class="st1">
						<g>
							<polygon class="st2" points="28.1,167.6 28.2,173.6 40,180.5 40,174.4 							"/>
						</g>
						<g>
							<polygon class="st2" points="40,174.4 40,180.5 141.7,121.8 141.7,115.8 							"/>
						</g>
						<g>
							<polygon class="st3" points="28.1,167.6 40,174.4 141.7,115.8 129.9,108.9 							"/>
						</g>
					</g>
				</g>
				<g>
					<g class="st1">
						<g>
							<polygon class="st2" points="34.6,222.6 39.9,219.6 40,174.4 34.8,177.5 							"/>
						</g>
						<g>
							<polygon class="st3" points="34.8,177.5 40,174.4 28.1,167.6 22.9,170.6 							"/>
						</g>
						<g>
							<polygon class="st7" points="22.9,170.6 22.7,215.7 34.6,222.6 34.8,177.5 							"/>
						</g>
					</g>
				</g>
				<g>
					<g class="st1">
						<g>
							<polygon class="st4" points="41.4,147.3 39.7,146.4 35.9,148.5 37.6,149.5 							"/>
						</g>
						<g>
							<polygon class="st5" points="37.6,149.5 35.9,148.5 35.9,185.7 37.6,186.7 							"/>
						</g>
						<g>
							<polygon class="st6" points="41.4,147.3 37.6,149.5 37.6,186.7 41.4,184.5 							"/>
						</g>
					</g>
				</g>
				<g>
					<g class="st1">
						<g>
							<polygon class="st6" points="37.6,149.5 41.4,147.3 41.4,140 37.6,142.2 							"/>
						</g>
						<g>
							<polygon class="st4" points="37.6,142.2 41.4,140 9.2,121.4 5.4,123.6 							"/>
						</g>
						<g>
							<polygon class="st5" points="37.6,149.5 37.6,142.2 5.4,123.6 5.4,130.8 							"/>
						</g>
					</g>
				</g>
				<g>
					<g class="st1">
						<g>
							<polygon class="st2" points="43.3,176.3 43.4,182.4 55.2,189.3 55.2,183.2 							"/>
						</g>
						<g>
							<polygon class="st2" points="55.2,183.2 55.2,189.3 156.9,130.6 156.9,124.5 							"/>
						</g>
						<g>
							<polygon class="st3" points="43.3,176.3 55.2,183.2 156.9,124.5 145.1,117.6 							"/>
						</g>
					</g>
				</g>
				<g>
					<g class="st1">
						<g>
							<polygon class="st2" points="49.8,231.4 55.1,228.3 55.2,183.2 50,186.2 							"/>
						</g>
						<g>
							<polygon class="st3" points="50,186.2 55.2,183.2 43.3,176.3 38.1,179.4 							"/>
						</g>
						<g>
							<polygon class="st7" points="38.1,179.4 37.9,224.5 49.8,231.4 50,186.2 							"/>
						</g>
					</g>
				</g>
			</g>
		</g>
		<g>
			<g>
				<path class="st8" d="M81.1,52.1c0,0.1,0,0.2-0.1,0.3c-1.6,0.6-3.1,1.8-3.5,3.5c-0.2,0.8-0.1,1.7-0.3,2.6
					c-1.3,0.5-2.4,1.5-3.2,2.7c-0.7,1.2-1,2.7-1,4.1c0,0.5,0.1,1.1,0.5,1.3c0.6,0.3,1.2-0.2,1.7-0.2c0.8,0,1.4,0.3,2.3,0.1
					c2.5-0.5,4.7-2.6,5.2-5.2c0.2,0.1,0.4-0.1,0.6-0.2c1.8-1.2,2.3-3.1,3-5c0-0.1,0.1-0.3,0.2-0.4c0.1-0.2,0.3-0.3,0.4-0.4
					c1.1-0.9,2.1-2.1,2.5-3.5c0.3-1.3,0-2.7-0.9-3.7c-0.9-1-2.4-1.4-3.6-1c-0.6,0.2-1.1,0.7-1.6,1.1C82.2,49.4,81.5,50.7,81.1,52.1z
					"/>
				<path class="st9" d="M111.7,80.7c0.1,1.7,0.4,3.4,0.7,5.1c0.8,4.1,1.9,8.1,3.3,12c0.1,0.2,0.2,0.5,0.1,0.7
					c0,0.3-0.2,0.5-0.4,0.7c-2.7,3.3-7.3,4.8-11.4,3.7c0.9-2.4,1.1-5,1-7.5c-0.1-2.5-0.6-5.1-0.8-7.6c-0.2-2.9-0.2-5.7,0.2-8.6
					c0.3-2.5,1-5.2,3-6.9c1.2-1.1,3.1-1.4,4.1,0.2c0.3,0.5,0.2,1,0.2,1.6c0,1,0,2,0,3.1C111.7,78.3,111.6,79.5,111.7,80.7z"/>
				<path class="st10" d="M110.2,66.1c0.1,0.3,0.3,0.6,0.4,0.9c0.7,1.7,1.3,3.4,1.9,5.1c0.3,0.9,0.6,1.7,0.8,2.6
					c0.6,2.1,0.3,3.6-1.2,5.2c-0.5,0.6-1.1,1.1-1.8,1.5c-0.7,0.4-1.5,0.6-2.3,0.4c-0.8-0.1-2.1-0.9-2.1-1.9c0.1-1.1,0.2-2.3,0.3-3.4
					c0.1-1.9-0.1-3.8-0.6-5.6c-0.4-1.6-1.2-3.2-1.5-4.8c-0.3-1.6-0.3-3.6,0.8-4.9c0.7-0.8,2.2,0.5,2.8,1
					C108.9,63.3,109.6,64.7,110.2,66.1z"/>
				<path class="st11" d="M164.6,204.2c1.4,1,2.7,2.1,3.6,3.6c0.9,1.6,1.6,4.1,0.2,5.5c-1.3,1.3-3.3,1.8-5.1,1.8
					c-0.8,0-1.6-0.2-2.3-0.3c-3-0.7-5.9-2.1-8.4-4c-2.1-1.6-3.9-3.6-6.4-4.5c-1.8-0.6-3.7-0.3-5.5-1c-2.9-1.2-3.3-5.3-2.2-7.8
					c0.7-1.6,1.6-3.2,2.9-4.4c1.4-1.3,3.4-2.2,5.4-2.3c1.8,0,3,1.5,4.2,2.7c1.3,1.4,2.9,2.5,4.4,3.6c2.9,2.2,5.9,4.4,8.8,6.6
					C164.3,204,164.5,204.1,164.6,204.2z"/>
				<path class="st12" d="M102.4,111.8c0.5,0.2,0.9,0.4,1.3,0.6c2.2,1,4.2,2.3,6.3,3.5c2,1.2,4.1,2.5,6.1,3.8
					c5.8,3.6,11.5,7.3,17,11.5c2.7,2.1,5.3,4.3,7.8,6.6c2.1,2,4.4,4,4.8,7.1c0.3,1.9,1.2,10.7,1.5,13.1c1,7.6,1.9,15.2,2.9,22.8
					c0.5,4.2,1.1,8.4,1.6,12.7c0,0.4,0.1,0.8-0.1,1.2c-0.2,0.3-0.5,0.5-0.8,0.7c-3.2,1.7-7.1,1.8-10.4,0.5c-0.2-0.1-0.3-0.1-0.5-0.3
					c-0.2-0.2-0.2-0.5-0.3-0.8c-0.7-7.7-2.5-15.2-4.6-22.6c-0.7-2.3-1.3-4.7-1.7-7.1c-0.5-3.4-0.3-6.9-0.2-10.3
					c0.1-1.8,0.2-3.5,0.4-5.3c-5.7-4.3-12-7.6-18.4-10.8c-4-2-8.2-4-11.6-7c-3.4-2.9-6.2-7-6.5-11.5c-0.2-2.2,0.4-4.5,1.4-6.4
					c0.4-0.8,1.1-2,2-2.2C100.9,111.3,101.7,111.5,102.4,111.8z"/>
				<path class="st4" d="M155.1,215.4c0.9,1.1,1.7,2.5,1.6,4c-0.3,3.2-3.7,4-6.4,4c-6.1-0.1-12.2-2.9-16.2-7.6
					c-0.8-0.9-1.6-2-2.7-2.6c-1.1-0.6-2.4-0.6-3.5-1.1c-1.3-0.6-2.3-1.9-2.8-3.3c-0.3-1.2-0.4-2.5,0-3.6c0.2-0.8,0.9-1.7,1.3-2.5
					c0.9-1.8,2.1-3.4,4-4.1c1.9-0.7,4-0.6,5.8,0.2c1.8,0.8,2.9,2,4.2,3.3c3,3,6.4,5.5,9.6,8.3C152,211.8,153.7,213.5,155.1,215.4z"
					/>
				<path class="st13" d="M69.7,125.6c6.8,0.9,13.9-0.6,19.7-4.1c2.3-1.4,4.6-3.1,7.3-3.1c2.8,0,7,2.1,8.5,4.6
					c0.7,1,0.8,8.4,0.2,8.2c2.8,0.9,5.7,1.9,8.5,2.9c4.7,1.7,9.3,3.4,13.7,5.8c3.9,2.2,7.9,4.3,9.9,8.6c1.1,2.4,1.6,5.1,1.6,7.7
					c0,5-0.9,10-1.5,15c-1.1,9-0.6,17.9,1,26.9c0.1,0.8,0.3,1.7,0.6,2.5c0.2,0.6-0.1,1-0.6,1.3c-3.1,1.9-7.1,2.5-10.4,1
					c-1.6-0.7-1.3-2.3-1.4-3.8c-0.2-1.8-0.4-3.5-0.8-5.2c-0.7-3.5-1.6-6.9-2.5-10.3c-0.6-2.3-1.1-4.7-1.6-7.1
					c-0.7-4.2-1-8.4-0.9-12.7c0-1,0.1-2,0.2-3.1c0.4-5.3-5.6-6.3-9.6-6.6c-10.2-0.8-20.4-2.8-30-6.4c-2.3-0.9-4.5-1.8-6.5-3.3
					C69.5,140.2,67.1,132.1,69.7,125.6z"/>
				<path class="st6" d="M132.4,140.9c0,0,6.3-10.3,12.2-13.1c0,0-3.4-5.9-23.2-11.2c0,0-9.6,8.1-12.2,13L132.4,140.9z"/>
				<path class="st6" d="M132.4,140.9c0,0-6.3,2.1-10.2,5.3l-23.9-12.6c0,0,5.6-5.4,11-4.1L132.4,140.9z"/>
				<path class="st14" d="M109.2,129.6c3.7-8.3,11.8-14.3,11.8-14.3c15,3.9,22.4,10.1,22.4,10.1c-7.5,3.3-11,15.5-11,15.5
					L109.2,129.6z"/>
				<path class="st9" d="M116.4,100.3c0.2,0.9,0.3,1.8,0.5,2.6c0.5,2.3,0.9,4.7,1.2,7.1c0.6,4.9,1.6,9.7,2.5,14.5
					c0.2,1,0.3,2.2-0.2,3.1c-0.5,0.8-1.4,1.2-2.3,1.6c-0.5,0.2-1,0.4-1.5,0.3c-0.7-0.2-1.1-1-1.3-1.7c-1.6-4.3-3.3-8.6-4.9-12.9
					c-1.3-3.4-2.6-6.8-3.4-10.4c-0.4-1.8-0.7-3.7-0.3-5.6c0.3-1.8,1.4-3.6,3-4.5c1-0.5,2.1-0.7,3.1-0.4c0.9,0.3,1.6,1.1,2.1,2
					c0,0,0,0,0,0.1C115.7,97.3,116.1,98.8,116.4,100.3z"/>
				<g>
					<path class="st15" d="M108.4,63.3c0.8,1.4,0.8,3.1,0.8,4.8c0,3-0.1,6.1,0.6,9.1c0.9,3.7,3,7.4,2.1,11.1
						c-0.4,1.7-1.5,3.3-2.3,4.9c-1.9,3.8-1.5,8.1-1,12.3c0.4,4.2,1.4,8.3,2.7,12.2c0.4,1.1,0.8,2.2,0.9,3.3c0.3,2.1-0.7,3.8-2,5.4
						c-3.9,4.7-10.2,6.6-16.1,7.5c-3.9,0.6-7.9,1-11.9,0.6c-4-0.4-7.9-1.5-11.3-3.6c-1-0.7-2.3-1.7-2.7-2.9
						c-0.5-1.3,0.2-3.4,0.4-4.7c0.4-3.7,0.7-7.4,1-11.1c0.5-7.4,0.6-14.9,0.4-22.3c-0.1-1.9-0.1-3.7-0.2-5.6c-0.1-2-0.3-4.2-1.6-5.8
						c-0.6-0.7-1.2-1.5-1.3-2.4c-0.1-2.2,1.7-4.7,3-6.3c4-4.8,8.6-9,14.1-12c1-0.6,2.2-1.3,3.4-1.5c1.2-0.2,2.5,0.1,3.7,0.5
						c3.5,1.2,7,2.4,10.5,3.7c1.4,0.5,2.4,0.7,3.8,0.8C106.1,61.3,108.4,62.1,108.4,63.3z"/>
				</g>
				<path class="st16" d="M65.8,79.7c1.1-2.8,2.5-5.6,4.9-7.5c1-0.8,2.3-1.7,3.6-1.7c1.3,0,2.4,1,3.1,1.9c1.1,1.3,1.9,2.9,2.2,4.5
					c0.6,2.7,0.3,5.5-0.1,8.2c-0.3,1.9-0.5,3.8-0.9,5.8c-0.6,3.7-1.3,7.4-2,11c-0.5,2.7-1.8,6-0.9,8.8c0.4,1.2,1,1.8,1.9,2.7
					c3.2,3.1,6.4,6.2,9.8,9.1c1.8,1.5,3.5,3.1,5.3,4.6c1.7,1.4,3.6,2.7,5.7,3.4c1.7,0.6,3.6,0.5,5.3,1.2c1.9,0.8,3.4,2.3,5.3,3.2
					c1,0.5,2.2,0.7,3.1,1.5c0.3,0.2,0.5,0.6,0.4,0.9c-0.1,0.1-0.2,0.2-0.3,0.3c-0.6,0.3-1.2,0.3-1.9,0.2c-1.8-0.2-3.5-0.8-5.2-1.4
					c-0.3-0.1-0.5-0.2-0.8-0.1c-0.3,0-0.5,0.2-0.5,0.5c0,0.4,0.4,0.6,0.8,0.7c1.7,0.5,3.4,0.9,5,1.5c1.7,0.6,3.3,1.4,4.5,2.6
					c0.3,0.3,0.6,0.7,0.4,1.1c-0.2,0.3-0.6,0.3-0.9,0.2c-1-0.2-1.8-0.8-2.8-0.9c-0.8-0.1-1.7,0.1-2.5,0.4c-2,0.5-4,0.7-6.1,0.9
					c-0.4,0-0.8,0.1-1.2,0c-0.5-0.1-0.9-0.5-1.3-0.9c-1.5-1.5-2.9-3.1-4.3-4.7c-1.5-1.6-3.2-2.9-5-4.1c-2.3-1.5-4.7-2.7-7.1-3.9
					c-5.6-2.9-10.9-6.5-15.7-10.7c-1.1-0.9-2.1-1.9-2.8-3.1c-1.1-1.8-1-3.6-1.1-5.6C62.8,99.9,62.2,89.3,65.8,79.7z"/>
				<path class="st9" d="M97.2,69.9c0,0.1-0.1,0.2-0.1,0.3c-0.1,0.1-0.2,0.2-0.4,0.2c-1.2,0.3-2.5,0.1-3.7-0.2
					C88.5,69,84.6,66,82.2,62c-0.3-0.5-0.6-1-0.7-1.6c-0.1-0.3-0.1-0.7,0-1c0.2-0.4,0.6-0.7,1-0.9c2.7-1.5,5.1-3.8,6.6-6.6
					c0.1-0.2,0.3-0.3,0.4-0.2c0.1,0.1,0.1,0.2,0.1,0.3c-0.5,2.1,0.4,4.2,1.9,5.7c1.7,1.6,4,2.3,6.2,2.5c0.4,0,1,0.1,1.2,0.5
					c0.1,0.1,0.1,0.3,0.1,0.5C99.1,62.6,97.2,69.7,97.2,69.9z"/>
				<g>
					<g>
						<g class="st1">
							<g>
								<path class="st13" d="M112.1,42.3l1.2-0.5c0.6-0.2,1.4-0.1,2.1,0.5c1.6,1.2,2.6,3.7,2.4,5.7c-0.1,1-0.6,1.6-1.2,1.9
									l-1.2,0.5c0.6-0.2,1-0.9,1.2-1.9c0.3-2-0.8-4.5-2.4-5.7C113.5,42.2,112.7,42.1,112.1,42.3z"/>
							</g>
							<g>
								<path class="st17" d="M111,44.2c0.3-2,1.7-2.6,3.3-1.4c1.6,1.2,2.6,3.7,2.4,5.7c-0.3,2-1.7,2.6-3.3,1.4
									C111.8,48.7,110.7,46.2,111,44.2z"/>
							</g>
						</g>
					</g>
					<g>
						<g>
							<g class="st1">
								<g>
									<path class="st12" d="M107.1,42.3l3.3-1.4c0.9-0.4,2-0.1,3.1,0.7c2.3,1.8,3.9,5.5,3.5,8.4c-0.2,1.4-0.8,2.4-1.7,2.8
										l-3.3,1.4c0.9-0.4,1.5-1.3,1.7-2.8c0.4-2.9-1.2-6.6-3.5-8.4C109.1,42.2,108,42,107.1,42.3z"/>
								</g>
								<g>
									<path class="st17" d="M105.4,45.1c0.4-2.9,2.5-3.8,4.8-2c2.3,1.8,3.9,5.5,3.5,8.4c-0.4,2.9-2.5,3.8-4.8,2
										C106.5,51.7,105,48,105.4,45.1z"/>
								</g>
							</g>
						</g>
					</g>
				</g>
				<path class="st16" d="M111.7,55.6c-0.6,0.6-1.4,1.2-1.7,2c-0.2,0.5-0.2,1-0.3,1.5c-0.1,1.2-0.1,2.3-0.2,3.5c0,0.7-0.2,1.7-1,1.8
					c-0.4,0.1-0.9-0.2-1.3-0.3c-0.8-0.2-1.7,0.3-2.3,0.8c-0.6,0.6-1.2,1.2-1.9,1.7c-1.5,1-3.4,0.9-5,0.2s-2.9-1.9-4.2-3.1
					c-1.9-1.9-3.8-4.1-3.7-6.8c-1.2-0.6-2.1-1.8-2.5-3.1s-0.6-2.7-0.6-4c-0.1-3,0.3-6.2,1.6-8.9c1.1-2.3,2.8-4.2,4.8-5.7
					c0.9-0.6,1.9-1.2,3-1.5c3.5-1,8.5-0.8,11.6,1.1c1.2,0.8,2.3,1.9,3.2,3c0.9,1.1,1.8,2.3,2.3,3.6
					C115.4,45.7,115.1,52.2,111.7,55.6z"/>
				<path class="st8" d="M86.3,45.4c0.2-2,0.6-3.9,1.5-5.8c1.8-4,5.4-7.3,9.7-8c1.4-0.2,2.8-0.2,4.2,0c5.7,0.7,10.5,4.3,13,9.4
					c0.7,1.5,1.3,3.4,1.2,5.1c-0.1,1-0.3,1.6-1.1,2.1c-0.8,0.5-1.8,0.7-2.7,0.5c-0.2,0.7-1,1.2-1.7,1.4c-3.2,1.2-6.7,0.4-10,0.8
					c-0.6,0.1-1.2,0.2-1.7,0.5c-1,0.5-1.6,1.7-2.7,1.9c-0.2-1.2-1-2.2-2-2.7c-1-0.5-2.3-0.6-3.4-0.1c-0.5,0.3-1,0.7-1.3,1.2
					c-0.6,1.2-0.7,2.9-0.4,4.2c-1.2-0.7-1.6-2.2-1.9-3.5C86.2,50.2,86,47.8,86.3,45.4z"/>
				<g>
					<g>
						<g class="st1">
							<g>
								<path class="st12" d="M87.1,49.6l3.3-1.4c0.9-0.4,2-0.1,3.1,0.7c2.3,1.8,3.9,5.5,3.5,8.4c-0.2,1.4-0.8,2.4-1.7,2.8L92,61.5
									c0.9-0.4,1.5-1.3,1.7-2.8c0.4-2.9-1.2-6.6-3.5-8.4C89.1,49.4,88,49.2,87.1,49.6z"/>
							</g>
							<path class="st13" d="M85.4,52.4c0.2-1.5,0.9-2.4,1.8-2.8l0.1-0.7c0,0,4.8-20.1,17.6-16.7c1.4,0.6,2.8,1.4,4,2.3
								c-10.9-6-16,8.8-17.2,14.6c-0.3,1.3-0.4,2.2-0.4,2.2l0,0.1c1.7,1.9,2.8,5,2.5,7.4c-0.4,2.9-2.5,3.8-4.8,2
								C86.6,59,85,55.2,85.4,52.4z"/>
						</g>
					</g>
					<g>
						<g class="st1">
							<g>
								<path class="st12" d="M86.4,52.2l1.2-0.5c0.6-0.2,1.4-0.1,2.1,0.5c1.6,1.2,2.6,3.7,2.4,5.7c-0.1,1-0.6,1.6-1.2,1.9l-1.2,0.5
									c0.6-0.2,1-0.9,1.2-1.9c0.3-2-0.8-4.5-2.4-5.7C87.8,52.1,87,51.9,86.4,52.2z"/>
							</g>
							<g>
								<path class="st13" d="M85.3,54c0.3-2,1.7-2.6,3.3-1.4c1.6,1.2,2.6,3.7,2.4,5.7c-0.3,2-1.7,2.6-3.3,1.4
									C86.1,58.6,85,56,85.3,54z"/>
							</g>
						</g>
					</g>
				</g>
				<path class="st9" d="M118.4,124.8c0.5-0.1,1-0.1,1.5-0.1c0.2,0,0.6,0.1,0.7,0.3c0.1,0.1,0.1,0.2,0.1,0.3
					c0.1,0.3,0.2,0.6,0.5,0.9c0.2,0.2,0.4,0.2,0.7,0.2c0.8,0.1,1.5,0.2,2.3,0.3c0.2,0,0.4,0.1,0.6,0.2c0.2,0.1,0.3,0.3,0.5,0.4
					c0.4,0.4,0.9,0.7,1.3,1.2c0.4,0.5,0.7,1.1,0.9,1.6c0.4,1.2,0.7,2.4,0.9,3.7c0.1,0.5,0.2,1,0.1,1.5c-0.1,0.6-0.5,1.1-1,1.4
					c-0.5,0.4-1,0.6-1.5,0.9c-0.9,0.4-1.9,0.9-3,0.8c-0.8-0.1-1.5-0.5-2.3-0.8c-0.8-0.3-1.6-0.4-2.4-0.6c-0.8-0.2-1.6-0.6-2.1-1.2
					c-0.1-0.2-0.2-0.3-0.3-0.6c0-0.2,0-0.4,0.2-0.5c0.1-0.1,0.3-0.1,0.5-0.1c0.4,0,0.9,0,1.3,0c0.1,0,0.3,0,0.4-0.1
					c0.1-0.1,0.1-0.3,0-0.4c-0.1-0.1-0.2-0.2-0.3-0.3c-1.1-0.8-1.8-2-2.1-3.3c-0.1-0.4,0-0.8-0.1-1.1c-0.1-0.2-0.2-0.3-0.2-0.5
					c-0.3-0.5-0.4-1.2-0.2-1.7c0.2-0.5,0.4-0.9,0.8-1.3C116.8,125.3,117.6,125,118.4,124.8z"/>
				<path class="st18" d="M125.3,119.9c0-0.1,0-0.2-0.1-0.2c-0.1-0.1-0.2-0.2-0.3-0.1c-0.1,0-0.2,0.2-0.2,0.3
					c-0.1,0.1-0.1,0.3-0.2,0.4c-0.1,0.3-0.2,0.5-0.2,0.8c0,0.1,0,0.1,0,0.2c0,0.1,0.2,0.1,0.2,0.2c0.1,0.1,0.3,0.1,0.4,0.1
					c0.1-0.1,0.1-0.2,0.2-0.3C125.3,120.7,125.3,120.3,125.3,119.9z"/>
				<path class="st19" d="M123.1,135.7c-0.2,1.4-0.5,2.9-1.6,3.9c-0.2-1.1-0.1-2.3,0-3.4c0.4-3.9,2.2-13.6,2.5-14.6
					c0.1-0.4,0.6-1,1.1-0.6c0.2,0.2,0.3,0.5,0.3,0.8C125.4,122.9,123.3,134.5,123.1,135.7z"/>
				<path class="st16" d="M124.5,127.7c0-0.1,0.1-0.2,0.1-0.2c0.1,0,0.2,0,0.2,0c0.6,0,1.1,0.4,1.5,0.8c0.4,0.5,0.7,0.9,1,1.5
					c0.3,0.4,0.5,0.9,0.6,1.3c0,0.2,0.1,0.3,0.1,0.5c0,0.3-0.2,0.5-0.4,0.7c-0.9,1-2.6,1.3-3.2,2.5c-0.2,0.3-0.3,0.7-0.5,1
					c-0.2,0.3-0.6,0.6-1,0.4c-0.4-0.1-0.5-0.6-0.6-1c-0.1-0.3-0.1-0.7-0.1-1.1c0.1-0.7,0.7-1.2,1.2-1.7c0.5-0.5,1-1.1,1-1.8
					c0-0.3-0.1-0.5-0.2-0.7c-0.1-0.2,0-0.5,0-0.7C124.1,128.8,124.3,128.3,124.5,127.7z"/>
				<path class="st16" d="M122,132.1c0.2,1,0.2,2,0,2.9c-0.1,0.3-0.3,0.7-0.6,0.8c-0.2,0-0.4-0.1-0.6-0.3c-0.3-0.2-0.5-0.5-0.6-0.9
					c-0.3-0.7-0.4-1.6-1-2.2c-0.3-0.3-0.6-0.4-1-0.5c-0.2,0-0.3-0.1-0.5-0.2c-0.2-0.2-0.3-0.4-0.4-0.7c-0.1-0.7-0.1-1.4,0.2-2
					c0.2-0.2,0.4-0.4,0.6-0.6c0.2-0.2,0.4-0.3,0.7-0.4c0.8-0.3,1.8,0,2,0.9C121.1,129.9,121.7,131,122,132.1z"/>
				<path class="st10" d="M81.4,79.8c0.4,4.1-0.6,8.2-1.6,12.2c-0.1,0.6-0.3,1.1-0.7,1.6c-0.6,0.7-1.5,0.8-2.4,0.9
					c-2,0.1-3.9-0.2-5.8-0.7c-1.6-0.4-3.1-0.8-4.6-1.5c-1.4-0.7-2.8-1.7-3.6-3c-0.1-0.2-0.2-0.4-0.3-0.6c-0.1-0.3,0-0.5,0-0.8
					c0.7-5.6,2.5-10.8,5.4-15.7c0.6-1,1.2-1.9,2-2.7c0.8-0.8,1.8-1.4,2.9-1.5c2.9-0.3,4.9,1.9,6.3,4.1C80.4,74.6,81.1,77,81.4,79.8z
					"/>
			</g>
		</g>
		<g>
			<path class="st0" d="M89.3,242.4l-17.1-9.9c-1.1-0.6-0.9-1.7,0.3-2.4l23.8-13.9c1.2-0.7,3.1-0.8,4.1-0.2l17.1,9.9
				c1.1,0.6,0.9,1.7-0.3,2.4l-23.8,13.9C92.2,243,90.3,243,89.3,242.4z"/>
			<g>
				<g>
					<g>
						<g>
							<path class="st20" d="M86.4,192.7l-0.2,0.4l-0.3-0.1l-1.1-0.6c-1.4-0.7-2.9-0.8-4.3-0.2c-0.2,0.1-0.5,0.2-0.7,0.3
								c0,0,0,0-0.1,0c-0.2,0.1-0.4,0.2-0.5,0.4c-1.2,1-1.8,2.4-1.8,3.9v24.5c0,2,1.1,3.8,2.8,4.8l3.3,1.9l-0.2,0.4l-3.3-1.9
								c-1.8-1.1-3-3.1-3-5.2v-24.5c0-1.2,0.4-2.3,1-3.2c0.2-0.3,0.5-0.6,0.8-0.9c0.1-0.1,0.2-0.2,0.3-0.2l0,0
								c0.2-0.1,0.4-0.3,0.6-0.4h0c0,0,0,0,0,0c1.7-1,3.7-1.1,5.4-0.2L86.4,192.7z"/>
						</g>
					</g>
					<polygon class="st4" points="76.4,224.9 77.8,224.1 78.4,225 79.6,226.1 80.6,226.6 79.4,227.7 77.5,226.5 76.4,225.3 					"/>
					<polygon class="st20" points="78.4,193.1 77.7,194.6 77.2,196.3 77.2,198.5 77.2,221.6 77.9,224.2 76.3,225 75.7,223 
						75.7,218.6 75.7,212.6 75.7,197.1 76.1,195.7 77.2,194.1 					"/>
					<path class="st4" d="M86.4,192.7l-0.5,0.3l-1,0.6l-0.6-0.1l-1-0.5l-2.3-0.4l-1.2,0.1l-0.2,0l-0.8,0.2l-0.4,0.1l1.2-0.7h0
						c0,0,0,0,0,0c1.7-1,3.7-1.1,5.4-0.2L86.4,192.7z"/>
					<g>
						<g>
							<path class="st11" d="M81.7,229.3l-3.3-1.9c-1.8-1.1-3-3.1-3-5.2v-24.5c0-2,1-3.7,2.7-4.7c1.7-1,3.7-1.1,5.4-0.2l1.4,0.7
								l-0.2,0.4l-1.4-0.7c-1.6-0.8-3.5-0.8-5,0.2c-1.5,0.9-2.4,2.6-2.4,4.3v24.5c0,2,1.1,3.8,2.8,4.8l3.3,1.9L81.7,229.3z"/>
						</g>
					</g>
				</g>
				<g>
					<g>
						<g>
							<path class="st20" d="M97.8,186.1l-0.2,0.4l-0.3-0.1l-1.1-0.6c-1.4-0.7-2.9-0.8-4.3-0.2c-0.2,0.1-0.5,0.2-0.7,0.3
								c0,0,0,0-0.1,0c-0.2,0.1-0.4,0.2-0.5,0.4c-1.2,1-1.8,2.4-1.8,3.9v24.5c0,2,1.1,3.8,2.8,4.8l3.3,1.9l-0.2,0.4l-3.3-1.9
								c-1.8-1.1-3-3.1-3-5.2v-24.5c0-1.2,0.4-2.3,1-3.2c0.2-0.3,0.5-0.6,0.8-0.9c0.1-0.1,0.2-0.2,0.3-0.2l0,0
								c0.2-0.1,0.4-0.3,0.6-0.4h0c0,0,0,0,0,0c1.7-1,3.7-1.1,5.4-0.2L97.8,186.1z"/>
						</g>
					</g>
					<polygon class="st21" points="87.8,218.4 89.2,217.5 89.8,218.4 91,219.6 91.9,220.1 90.7,221.1 88.9,219.9 87.8,218.7 					
						"/>
					<polygon class="st20" points="89.7,186.5 89.1,188.1 88.5,189.7 88.5,191.9 88.5,215.1 89.2,217.6 87.7,218.5 87.1,216.4 
						87.1,212.1 87.1,206.1 87.1,190.5 87.5,189.1 88.5,187.6 					"/>
					<path class="st4" d="M97.8,186.1l-0.5,0.3l-1,0.6l-0.6-0.1l-1-0.5l-2.3-0.4l-1.2,0.1l-0.2,0l-0.8,0.2l-0.4,0.1l1.2-0.7h0
						c0,0,0,0,0,0c1.7-1,3.7-1.1,5.4-0.2L97.8,186.1z"/>
					<g>
						<path class="st11" d="M93.1,222.7l-3.3-1.9c-1.8-1.1-3-3.1-3-5.2v-24.5c0-2,1-3.7,2.7-4.7c1.7-1,3.7-1.1,5.4-0.2l1.4,0.7
							l-0.2,0.4l-1.4-0.7c-1.6-0.8-3.4-0.8-5,0.2c-1.5,0.9-2.4,2.6-2.4,4.3v24.5c0,2,1.1,3.8,2.8,4.8l3.3,1.9L93.1,222.7z"/>
					</g>
				</g>
				<path class="st11" d="M110.6,191.7l-3.1,4.8l-0.2,0.3l-0.4,0.2l-5.5,2v20.8l-6,3.5l-4.9,15.3l-10.9-6.3v-31.1
					c0-1.3,0.4-2.7,1-3.9c0.7-1.4,1.7-2.6,2.8-3.2l14.2-8.2c0.9-0.5,1.6-0.6,2.3-0.3l0,0c0.1,0.1,0.3,0.1,0.4,0.2L110.6,191.7z"/>
				<path class="st4" d="M110.6,191.7l-3.1,4.8l-0.6,0.4l-5.5,3.8l-6.2,4.3l-14.5-7.7c0.7-1.4,1.7-2.6,2.8-3.2l14.2-8.2
					c0.9-0.5,1.6-0.6,2.3-0.3l0,0c0.1,0.1,0.3,0.1,0.4,0.2L110.6,191.7z"/>
				<path class="st20" d="M112.1,225.9l-21.7,12.5v-31.1c0-2.8,1.7-6,3.7-7.2l14.2-8.2c2.1-1.2,3.7,0.1,3.7,2.8V225.9z"/>
				<g>
					<g>
						<path class="st20" d="M105.3,188.7c-0.1,0-0.2-0.1-0.3-0.1c-0.5-0.1-1.2,0-1.8,0.4l-14.2,8.2c-2.1,1.2-3.7,4.4-3.7,7.2v31.1
							l-1.3-0.7v-31.1c0-2.8,1.7-6,3.7-7.2l14.2-8.2c0.9-0.5,1.6-0.6,2.3-0.3v0l0,0c0.1,0.1,0.3,0.1,0.4,0.2l0.5,0.3L105.3,188.7z"
							/>
					</g>
				</g>
				<path class="st20" d="M105,188.5L105,188.5c-0.6,0-1.2,0.1-1.9,0.5l-14.2,8.2c-2.1,1.2-3.7,4.4-3.7,7.2v9.4l-1.3-1.3v-8.8
					c0-2.8,1.7-6,3.7-7.2l14.2-8.2c0.9-0.5,1.6-0.6,2.3-0.3v0l0,0c0.1,0.1,0.3,0.1,0.4,0.2L105,188.5z"/>
				<path class="st4" d="M103.5,187.8c-0.4,0-0.9,0.2-1.3,0.4l-14.2,8.2c-2.1,1.2-3.7,4.4-3.7,7.2v8.9l-0.3-0.1v-8.7
					c0-2.8,1.7-6,3.7-7.2l14.2-8.2C102.4,187.9,103,187.8,103.5,187.8z"/>
				<g>
					<g>
						<polygon class="st12" points="84,234.8 83.8,234.6 85,233.7 83.7,232.1 85,230.8 83.7,228.7 85,227.6 83.7,226 84.8,224.9 
							83.7,223.6 85,222.6 83.7,221.4 85,220.3 83.7,219.2 84.9,218.4 83.7,217.3 85,216.4 83.4,214.4 84.9,213.3 85,213.5 
							83.7,214.4 85.3,216.4 84.1,217.3 85.3,218.4 84.1,219.2 85.3,220.3 84.1,221.4 85.3,222.7 84,223.6 85.1,224.9 84,226 
							85.3,227.6 84,228.7 85.3,230.8 84,232.1 85.3,233.7 						"/>
					</g>
					<g>
						<polygon class="st12" points="85,235.5 83.7,233.4 85,232.2 83.7,230.5 85,229.3 83.7,227.3 85,226.1 83.7,224.8 85,223.7 
							83.7,222.4 85,221.5 83.7,220.1 85,219.3 83.7,218.2 85,217.3 83.6,216.2 85,215.1 85.2,215.3 84,216.2 85.3,217.3 
							84.1,218.2 85.3,219.3 84.1,220.2 85.3,221.5 84.1,222.4 85.3,223.7 84,224.8 85.3,226.1 84,227.4 85.3,229.3 84,230.5 
							85.3,232.2 84,233.4 85.2,235.4 						"/>
					</g>
				</g>
				<g>
					<path class="st22" d="M109.4,196.2c0,0,0,0.1,0,0.1v5.1l-15.1,8.7l0.3,0.9l-1.5,3.1l-1.5-0.8v-5.1c0-1.4,0.5-3,1.3-4.3
						c0.6-0.9,1.2-1.6,2-2l12.6-7.3c0.8-0.5,1.6-0.5,2.1-0.2l1.6,0.9L109.4,196.2z"/>
					<path class="st13" d="M109.4,196.2c0,0,0,0.1,0,0.1v1.4l-14,7.6l-2.5-1.4c0.6-0.9,1.2-1.6,2-2l12.6-7.3
						c0.8-0.5,1.6-0.5,2.1-0.2l1.6,0.9L109.4,196.2z"/>
					<path class="st12" d="M112.3,203.1L93,214.2v-5.1c0-2.4,1.5-5.3,3.3-6.3l12.6-7.3c1.8-1.1,3.3,0.1,3.3,2.5V203.1z"/>
				</g>
				<g>
					<path class="st23" d="M104.7,188.5c0.2,0,0.4,0,0.6,0.1l-0.2-0.1C105,188.5,104.9,188.5,104.7,188.5z"/>
				</g>
				<g>
					<polygon class="st22" points="85.3,216.2 83.3,215 83.7,212.2 84.9,212.9 					"/>
					<polygon class="st13" points="84.9,212.9 85.1,212.8 84,212.1 83.7,212.2 					"/>
					<polygon class="st12" points="85.3,216.2 85.6,216.1 85.1,212.8 84.9,212.9 					"/>
				</g>
				<polygon class="st11" points="111.2,200.3 94.8,209.7 94.8,208.8 111.2,199.3 				"/>
				<g>
					<polygon class="st20" points="110,202.6 111.5,201.7 111.2,199.5 110.3,200 					"/>
					<polygon class="st4" points="110.3,200 110.1,199.9 111,199.4 111.2,199.5 					"/>
					<polygon class="st11" points="110,202.6 109.8,202.5 110.1,199.9 110.3,200 					"/>
				</g>
				<g>
					<path class="st12" d="M99.4,188l-0.7-0.4l-0.7-0.3l0,0.1c-0.4-0.3-0.7-0.4-0.7-0.4c-4-2.3-9.6,5.2-10.8,6.9h-0.2v0.3l1.9,1.2
						c0,0,4.3-6.4,8.3-7.5c0.9-0.2,1.9-0.1,2.8,0.4l0.6,0.4v-0.3L99.4,188z"/>
					<g>
						<path class="st22" d="M99.9,188.3l-0.6-0.4c-0.8-0.5-1.8-0.7-2.8-0.4c-1.6,0.4-3.3,1.7-4.7,3.1c-2.1,2.1-3.7,4.4-3.7,4.4
							l-1.9-1.2c0,0,1.5-2.3,3.6-4.4c2.2-2.2,5.1-4.2,7.4-2.9C97.2,186.6,99.6,188.1,99.9,188.3z"/>
					</g>
					<path class="st13" d="M99.9,188.3l-0.6-0.4c-0.8-0.5-1.8-0.7-2.8-0.4c-1.6,0.4-3.3,1.7-4.7,3.1l-2-1.1c2.2-2.2,5.1-4.2,7.4-2.9
						C97.2,186.6,99.6,188.1,99.9,188.3z"/>
				</g>
			</g>
		</g>
		<g>
			<g>
				<g>
					<polygon class="st24" points="70.9,172.6 86,163.9 86,162.9 62.4,150.3 47.3,158 47.3,159 					"/>
					<polygon class="st14" points="62.4,149.3 81,160.1 83.6,158.6 86.3,157.5 86.9,160.4 86.7,162.5 86,162.9 70.9,171.6 47.3,158 
											"/>
					<path class="st18" d="M47.8,153.2v4.4l22.6,13.1l14.5-8.4c0.2-0.1,0.4-0.4,0.5-0.6c0.2-0.8,0.5-2.5-0.5-3.8
						c-1.4-1.7-20.9-6.2-20.9-6.2L47.8,153.2z"/>
					<polygon class="st25" points="70.5,167.5 85.7,159.8 70.5,167.9 					"/>
					<polygon class="st25" points="70.5,170.7 70.5,165.3 47.8,153.2 47.8,157.7 					"/>
					<polygon class="st18" points="70.5,168.9 62.6,165.1 70.5,169.5 					"/>
					<polygon class="st15" points="70.9,171.6 70.9,172.6 47.3,159 47.3,158 					"/>
				</g>
				<g>
					<polygon class="st24" points="70.9,166.5 86,157.8 86,156.8 62.4,144.2 47.3,151.9 47.3,152.9 					"/>
					<polygon class="st10" points="70.9,165.5 86.6,157.1 62.4,143.2 47.3,151.9 					"/>
					<polygon class="st15" points="70.9,165.5 70.9,166.5 47.3,152.9 47.3,151.9 					"/>
				</g>
				<path class="st15" d="M85.6,158.1l-1.3,0.8l-13.4,7.7v-1l13.4-7.7l1.2-0.7c0.2-0.1,0.4-0.2,0.6-0.2c0.6,0,1.2,0.5,1.2,1.2v4
					c0,0.7-0.4,1.3-1,1.7l-2,1.1v0l-13.4,7.7v-1l13.4-7.7l1.2-0.7c0,0,0.1,0,0.1-0.1l0.2-0.1c0.5-0.3,0.7-0.7,0.7-1.3v-3.3
					C86.4,158.1,86,157.8,85.6,158.1z"/>
				<path class="st12" d="M76.9,164.5c0.1,0,0.1,0.1,0.2,0.1c0.2,0.2,0.3,0.4,0.5,0.6c0,0.1,0.1,0.2,0.1,0.2c0.2,0.5,0.4,1,0.7,1.5
					c0.4,0.7,1.1,1.3,1.8,1.6l-0.1-1.1l1.9,0c-0.7-0.3-1.4-0.9-1.8-1.6c-0.3-0.5-0.5-1-0.7-1.5c0-0.1-0.1-0.2-0.1-0.3
					c-0.1-0.2-0.3-0.5-0.5-0.6c-0.1-0.1-0.1-0.1-0.2-0.1L76.9,164.5z"/>
			</g>
			<g>
				<g>
					<polygon class="st24" points="66.2,167 81.3,158.3 81.3,157.3 57.7,144.7 42.6,152.4 42.6,153.4 					"/>
					<polygon class="st14" points="57.7,143.7 76.4,154.5 79,153 81.7,151.9 82.3,154.8 82.1,156.9 81.3,157.3 66.2,166 42.6,152.4 
											"/>
					<path class="st18" d="M43.2,147.6v4.4l22.6,13.1l14.5-8.4c0.2-0.1,0.4-0.4,0.5-0.6c0.2-0.8,0.5-2.5-0.5-3.8
						c-1.4-1.7-20.9-6.2-20.9-6.2L43.2,147.6z"/>
					<polygon class="st25" points="65.8,161.9 81,154.2 65.8,162.3 					"/>
					<polygon class="st25" points="65.8,165.1 65.8,159.7 43.2,147.6 43.2,152.1 					"/>
					<polygon class="st18" points="43.2,148.7 51.2,153 43.2,149 					"/>
					<polygon class="st18" points="65.8,163.3 57.9,159.5 65.8,163.9 					"/>
					<polygon class="st12" points="66.2,166 66.2,167 42.6,153.4 42.6,152.4 					"/>
				</g>
				<g>
					<polygon class="st24" points="66.2,160.9 81.3,152.2 81.3,151.2 57.7,138.6 42.6,146.3 42.6,147.3 					"/>
					<polygon class="st13" points="66.2,159.9 81.9,151.5 57.7,137.6 42.6,146.3 					"/>
					<polygon class="st12" points="66.2,159.9 66.2,160.9 42.6,147.3 42.6,146.3 					"/>
				</g>
				<path class="st12" d="M80.9,152.4l-1.3,0.8l-13.4,7.7v-1l13.4-7.7l1.2-0.7c0.2-0.1,0.4-0.2,0.6-0.2c0.6,0,1.2,0.5,1.2,1.2v4
					c0,0.7-0.4,1.3-1,1.7l-2,1.1v0L66.2,167v-1l13.4-7.7l1.2-0.7c0,0,0.1,0,0.1-0.1l0.2-0.1c0.5-0.3,0.7-0.7,0.7-1.3V153
					C81.8,152.5,81.3,152.2,80.9,152.4z"/>
				<path class="st19" d="M77.2,156.3c0.1,0,0.1,0.1,0.2,0.1c0.2,0.2,0.3,0.4,0.5,0.6c0,0.1,0.1,0.2,0.1,0.2c0.2,0.5,0.4,1,0.7,1.5
					c0.4,0.7,1.1,1.3,1.8,1.6l-0.1-1.1l1.9,0c-0.7-0.3-1.4-0.9-1.8-1.6c-0.3-0.5-0.5-1-0.7-1.5c0-0.1-0.1-0.2-0.1-0.3
					c-0.1-0.2-0.3-0.5-0.5-0.6c-0.1-0.1-0.1-0.1-0.2-0.1L77.2,156.3z"/>
			</g>
		</g>
		<g>
			<g>
				<g class="st1">
					<g>
						<path class="st4" d="M74.9,13.3l-2.4-1.4c-0.5-0.3-1.1-0.2-1.9,0.2l2.4,1.4C73.7,13.1,74.4,13.1,74.9,13.3z"/>
					</g>
					<g>
						<path class="st4" d="M35.6,59.2l2.4,1.4c-0.5-0.3-0.8-0.9-0.8-1.7l-2.4-1.4C34.8,58.3,35.1,58.9,35.6,59.2z"/>
					</g>
					<g>
						<polygon class="st4" points="37.2,37.3 34.7,35.8 34.8,57.5 37.2,58.9 						"/>
					</g>
					<g>
						<polygon class="st4" points="73,13.5 70.6,12.1 37.4,31.3 39.8,32.7 						"/>
					</g>
					<g>
						<path class="st4" d="M39.8,32.7l-2.4-1.4c-1.5,0.8-2.6,2.9-2.6,4.6l2.4,1.4C37.2,35.6,38.4,33.5,39.8,32.7z"/>
					</g>
					<g>
						<path class="st6" d="M39.8,32.7c-1.5,0.8-2.6,2.9-2.6,4.6l0.1,21.7c0,1.7,1.2,2.4,2.7,1.5l20.6-11.9l11.8,6.7l0-13.5l0.8-0.5
							c1.5-0.8,2.6-2.9,2.6-4.6L75.7,15c0-1.7-1.2-2.4-2.7-1.5L39.8,32.7z"/>
					</g>
				</g>
			</g>
			<g>
				<path class="st19" d="M62,39.4c0,1,0.7,1.4,1.6,0.9c0.9-0.5,1.6-1.7,1.6-2.8s-0.7-1.4-1.6-0.9C62.7,37.2,62,38.4,62,39.4z"/>
				<path class="st19" d="M57.5,42c0,1,0.7,1.4,1.6,0.9c0.9-0.5,1.6-1.7,1.6-2.8c0-1-0.7-1.4-1.6-0.9C58.3,39.8,57.5,41,57.5,42z"/>
				<path class="st19" d="M53.1,44.6c0,1,0.7,1.4,1.6,0.9c0.9-0.5,1.6-1.7,1.6-2.8s-0.7-1.4-1.6-0.9C53.8,42.4,53.1,43.6,53.1,44.6z
					"/>
				<path class="st19" d="M48.6,47.2c0,1,0.7,1.4,1.6,0.9c0.9-0.5,1.6-1.7,1.6-2.8s-0.7-1.4-1.6-0.9C49.3,44.9,48.6,46.2,48.6,47.2z
					"/>
			</g>
		</g>
	</g>
	<g>
		<path class="st0" d="M358.4,375.7l-6,3.5c-1.1,0.7-3.1,0.6-4.4-0.2L187,286.2c-1.3-0.8-1.5-1.9-0.3-2.6l6-3.5
			c1.1-0.7,3.1-0.6,4.4,0.2l160.9,92.8C359.4,373.9,359.5,375.1,358.4,375.7z"/>
		<g>
			<path class="st4" d="M192.4,270.6l153.2,88.4l6.1,4.8l-4,7l-7.2-2.9l-153.2-88.4c-2.4-1.4-3.3-4.5-1.9-7v0
				C186.9,270.1,190,269.2,192.4,270.6z"/>
			<g>
				<g class="st1">
					<g>
						<path class="st26" d="M195.2,282.5c0,0.8,0.2,1.4,0.5,1.8l8.5,4.9c0,0,0,0,0,0c-0.1-0.2-0.3-0.5-0.3-0.8c0-0.1,0-0.1,0-0.2
							c0-0.1,0-0.3-0.1-0.4c0-0.1,0-0.3,0-0.4c0-2.4,1.7-5.4,3.8-6.6c0.3-0.2,0.6-0.3,0.9-0.4c0.2-0.1,0.4-0.1,0.5-0.1
							c0,0,0,0,0.1,0l-8.5-4.9c-0.5,0-1,0.2-1.6,0.5C196.9,277.1,195.2,280,195.2,282.5z"/>
					</g>
				</g>
			</g>
			<path class="st6" d="M187.3,279.5l153.2,88.4l7.2,2.9l1.5-2.6L185,273.4C184.3,275.7,185.2,278.3,187.3,279.5z"/>
			<path class="st26" d="M346.4,368.8c0-1.8,1.3-4.1,2.9-5c1-0.6,1.8-0.5,2.3,0l0,0l0,0.1c0,0,0,0,0,0l7.2,8.1
				c0.2,0.2,0.2,0.5,0.1,0.8c-0.1,0.2-0.4,0.4-0.7,0.3l-10.7-2.2l0,0C346.9,370.6,346.4,369.9,346.4,368.8z"/>
		</g>
	</g>
	<g>
		<path class="st0" d="M352.8,354.3l-135-77.8c-2.1-1.2-1.9-3.4,0.6-4.8l4.4-2.6c2.5-1.4,6.2-1.6,8.3-0.3l135,77.8
			c2.1,1.2,1.9,3.4-0.6,4.8l-4.4,2.6C358.7,355.4,355,355.6,352.8,354.3z"/>
		<g>
			<g>
				<g class="st1">
					<g>
						<path class="st27" d="M365.4,328.3l-7.3,4.3c1.4-0.8,2.2-2.5,2.2-4.9l7.3-4.3C367.6,325.9,366.8,327.6,365.4,328.3z"/>
					</g>
					<g>
						<polygon class="st27" points="360.9,120.5 368.2,116.2 367.6,323.5 360.3,327.8 						"/>
					</g>
					<path class="st28" d="M360.7,103.1L230.1,27.7c-2.1-1.2-4-1.3-5.4-0.5l-7.3,4.3c1.4-0.8,3.3-0.7,5.4,0.5l130.6,75.4
						c4.2,2.4,7.6,8.3,7.5,13.1l7.3-4.3C368.2,111.4,364.8,105.6,360.7,103.1z"/>
					<g>
						<path class="st19" d="M353.3,107.4c4.2,2.4,7.6,8.3,7.5,13.1l-0.6,207.3c0,4.8-3.4,6.7-7.6,4.3l-130.6-75.4
							c-4.2-2.4-7.5-8.3-7.5-13.1l0.6-207.3c0-4.8,3.4-6.7,7.6-4.3L353.3,107.4z"/>
					</g>
					<g>
						<path class="st14" d="M352.6,108.2c4.1,2.4,7.5,8.2,7.5,12.9l-0.6,205.1c0,4.7-3.4,6.7-7.5,4.3l-129.2-74.6
							c-4.1-2.4-7.5-8.2-7.5-12.9l0.6-205.1c0-4.7,3.4-6.7,7.5-4.3L352.6,108.2z"/>
					</g>
					<g>
						<path class="st29" d="M344.9,125c3.6,2.1,6.6,7.2,6.6,11.4l-0.5,165.5c0,4.2-3,5.9-6.6,3.8l-113.8-65.7
							c-3.6-2.1-6.6-7.2-6.6-11.4l0.5-165.5c0-4.2,3-5.9,6.6-3.8L344.9,125z"/>
					</g>
				</g>
			</g>
			<path class="st30" d="M268,71.5c0,1-0.7,1.4-1.6,0.9c-0.9-0.5-1.6-1.7-1.6-2.7c0-1,0.7-1.4,1.6-0.9C267.3,69.2,268,70.4,268,71.5
				z"/>
			<path class="st31" d="M306.4,96l-33.2-19.2c-0.9-0.5-1.7-1.9-1.7-3.2v-0.4c0-1.2,0.7-1.8,1.7-1.3l33.2,19.2
				c0.9,0.5,1.7,1.9,1.7,3.2v0.4C308.1,96,307.3,96.5,306.4,96z"/>
			<g>
				
					<ellipse transform="matrix(0.8633 -0.5047 0.5047 0.8633 -102.387 179.2011)" class="st19" cx="279.6" cy="278.6" rx="4.8" ry="8.2"/>
				<path class="st14" d="M284.5,281.1c0,2.7-1.9,3.8-4.3,2.4c-2.4-1.4-4.3-4.7-4.3-7.4s1.9-3.8,4.3-2.4
					C282.6,275.1,284.5,278.4,284.5,281.1z"/>
			</g>
			<g>
				<g>
					<g class="st1">
						<g>
							<path class="st3" d="M273.4,95.2l-6.2-3.6c-1.2-0.7-2.8-0.6-4.5,0.4l6.2,3.6C270.7,94.6,272.3,94.5,273.4,95.2z"/>
						</g>
						<g>
							<path class="st7" d="M236.1,243.1l-5.5-3.2c-0.2-0.1-0.4-0.3-0.7-0.4l-0.4-121.2l6.2,3.6L236.1,243.1z"/>
						</g>
						<g>
							<g>
								<polygon class="st3" points="268.9,95.7 262.7,92.1 235.9,107.3 242.1,110.9 								"/>
							</g>
						</g>
						<g>
							<path class="st3" d="M242.1,110.9l-6.2-3.6c-3.5,2-6.4,7-6.4,11l6.2,3.6C235.7,117.9,238.5,112.9,242.1,110.9z"/>
						</g>
						<g>
							<path class="st2" d="M275.8,266l-39.7-22.9l-0.4-121.2c0-4,2.8-9,6.4-11l26.8-15.2c3.5-2,6.4-0.4,6.4,3.6L275.8,266z"/>
						</g>
					</g>
				</g>
				<g>
					<g class="st1">
						<g>
							<path class="st7" d="M242.7,231.3l0-7.1c0,1.3,0.9,2.6,2.6,3.7l0,7.1C243.5,233.9,242.7,232.6,242.7,231.3z"/>
						</g>
						<g>
							<path class="st3" d="M335.1,251.9l0,7.1c0,1.3-0.9,2.7-2.7,3.7l0-7.1C334.2,254.6,335.1,253.2,335.1,251.9z"/>
						</g>
						<g>
							<polygon class="st7" points="306.2,263.5 306.2,270.6 245.3,234.9 245.3,227.8 							"/>
						</g>
						<g>
							<polygon class="st2" points="332.4,255.6 332.4,262.7 318.9,270.6 318.9,263.5 							"/>
						</g>
						<g>
							<path class="st2" d="M318.9,263.5l0,7.1c-3.5,2-9.2,2-12.7,0l0-7.1C309.6,265.5,315.3,265.5,318.9,263.5z"/>
						</g>
						<g>
							<path class="st3" d="M318.9,263.5c-3.5,2-9.2,2-12.7,0l-60.9-35.7c-3.5-2-3.5-5.3,0-7.4l13.6-7.9c3.5-2,9.2-2,12.7,0
								l60.9,35.7c3.5,2,3.5,5.3,0,7.4L318.9,263.5z"/>
						</g>
					</g>
				</g>
				<g>
					<polygon class="st32" points="264.5,190.5 264.6,208.3 253.3,204.2 249.3,199.4 250.5,198.1 					"/>
					<polygon class="st25" points="267.7,194.3 264,192.1 250.3,200 253.3,201.7 255.1,201.5 					"/>
					<path class="st33" d="M249.1,199l0,27l0,0.1c0,0.4,0.2,0.7,0.6,0.9l3.3,1.9l0-0.8l0-4l0-1l0-21.1l-3.3-2.4L249.1,199z"/>
					<path class="st34" d="M256.7,201l-3.8,1.1l0,21.1l0,1l0,4l0,0.8c0.6,0.3,1.3,0.3,1.9,0l1.9-1.1l0,0l0-1l0-4.9l0-1L256.7,201z"
						/>
					<path class="st4" d="M250.3,198.8l1.3-0.8l12.9-7.5l-0.8-0.5l-12.9,7.5l-1.2,0.7c-0.2,0.1-0.3,0.2-0.4,0.4
						c-0.3,0.5-0.2,1.2,0.4,1.6l3.3,1.9c0.6,0.3,1.3,0.3,1.9,0l1.9-1.1l0,0l12.9-7.5l-0.8-0.5l-12.9,7.5l-1.2,0.7c0,0-0.1,0-0.1,0.1
						l-0.2,0.1c-0.4,0.3-1,0.3-1.4,0l-2.7-1.6C249.9,199.5,249.9,199,250.3,198.8z"/>
					<polygon class="st32" points="269.6,193.5 256.7,201 256.7,227.9 269.6,220.4 					"/>
				</g>
				<g>
					<polygon class="st32" points="273.3,196.3 273.3,214 262.1,210 258.1,205.1 259.3,203.8 					"/>
					<polygon class="st25" points="276.5,200 272.8,197.9 259.1,205.8 262.1,207.5 263.9,207.2 					"/>
					<path class="st33" d="M257.8,204.8l0,27l0,0.1c0,0.4,0.2,0.7,0.6,0.9l3.3,1.9l0-0.8l0-4l0-1l0-21.1l-3.3-2.4L257.8,204.8z"/>
					<path class="st34" d="M265.5,206.7l-3.8,1.1l0,21.1l0,1l0,4l0,0.8c0.6,0.3,1.3,0.3,1.9,0l1.9-1.1l0,0l0-1l0-4.9l0-1
						L265.5,206.7z"/>
					<path class="st4" d="M259.1,204.5l1.3-0.8l12.9-7.5l-0.8-0.5l-12.9,7.5l-1.2,0.7c-0.2,0.1-0.3,0.2-0.4,0.4
						c-0.3,0.5-0.2,1.2,0.4,1.6l3.3,1.9c0.6,0.3,1.3,0.3,1.9,0l1.9-1.1l0,0l12.9-7.5l-0.8-0.5l-12.9,7.5l-1.2,0.7c0,0-0.1,0-0.1,0.1
						l-0.2,0.1c-0.4,0.3-1,0.3-1.4,0l-2.7-1.6C258.7,205.3,258.7,204.7,259.1,204.5z"/>
					<polygon class="st32" points="278.4,199.3 265.5,206.7 265.5,233.6 278.4,226.2 					"/>
				</g>
				<g>
					<g class="st1">
						<g>
							<path class="st7" d="M242.7,188.8l0-7.1c0,1.3,0.9,2.6,2.6,3.7l0,7.1C243.5,191.4,242.7,190.1,242.7,188.8z"/>
						</g>
						<g>
							<path class="st3" d="M335.1,209.3l0,7.1c0,1.3-0.9,2.7-2.7,3.7l0-7.1C334.2,212,335.1,210.7,335.1,209.3z"/>
						</g>
						<g>
							<polygon class="st7" points="306.2,220.9 306.2,228.1 245.3,192.4 245.3,185.3 							"/>
						</g>
						<g>
							<polygon class="st2" points="332.4,213 332.4,220.2 318.9,228.1 318.9,220.9 							"/>
						</g>
						<g>
							<path class="st2" d="M318.9,220.9l0,7.1c-3.5,2-9.2,2-12.7,0l0-7.1C309.6,223,315.3,223,318.9,220.9z"/>
						</g>
						<g>
							<path class="st3" d="M318.9,220.9c-3.5,2-9.2,2-12.7,0l-60.9-35.7c-3.5-2-3.5-5.3,0-7.4l13.6-7.9c3.5-2,9.2-2,12.7,0
								l60.9,35.7c3.5,2,3.5,5.3,0,7.4L318.9,220.9z"/>
						</g>
					</g>
				</g>
				<g>
					<polygon class="st32" points="254.8,186.4 270.5,177.3 272.7,189.3 270.4,195.3 268.6,195 					"/>
					<polygon class="st25" points="256.5,181.6 256.5,186 270.4,194.1 270.4,190.6 269.3,189.1 					"/>
					<path class="st33" d="M270.2,195.8l24-13.8l0.1,0c0.3-0.2,0.5-0.5,0.5-1V177l-0.7,0.4l-3.6,2.1l-0.9,0.5l-18.7,10.8l-0.4,4.1
						L270.2,195.8z"/>
					<path class="st34" d="M268,188l2.9,2.8l18.7-10.8l0.9-0.5l3.6-2.1l0.7-0.4c0-0.7-0.4-1.3-1-1.7l-1.9-1.1l0,0l-0.9,0.5l-4.4,2.5
						l-0.9,0.5L268,188z"/>
					<path class="st4" d="M269.4,194.8L268,194l-13.2-7.6v1L268,195l1.2,0.7c0.2,0.1,0.4,0.2,0.5,0.2c0.6,0,1.2-0.5,1.2-1.1v-3.9
						c0-0.7-0.4-1.3-1-1.7L268,188v0l-13.2-7.6v1L268,189l1.2,0.7c0,0,0.1,0,0.1,0.1l0.2,0.1c0.5,0.3,0.7,0.7,0.7,1.3v3.2
						C270.2,194.7,269.7,195,269.4,194.8z"/>
					<polygon class="st32" points="254.8,180.3 268,188 291.9,174.2 278.7,166.6 					"/>
				</g>
				<g>
					<polygon class="st32" points="273.3,239.9 289,230.8 291.2,242.9 288.9,248.9 287.2,248.5 					"/>
					<polygon class="st25" points="275,235.2 275,239.6 289,247.6 289,244.2 287.8,242.7 					"/>
					<path class="st33" d="M288.7,249.3l24-13.8l0.1,0c0.3-0.2,0.5-0.5,0.5-1v-3.9l-0.7,0.4l-3.6,2.1l-0.9,0.5l-18.7,10.8l-0.4,4.1
						L288.7,249.3z"/>
					<path class="st34" d="M286.6,241.5l2.9,2.8l18.7-10.8l0.9-0.5l3.6-2.1l0.7-0.4c0-0.7-0.4-1.3-1-1.7l-1.9-1.1l0,0l-0.9,0.5
						l-4.4,2.5l-0.9,0.5L286.6,241.5z"/>
					<path class="st4" d="M287.9,248.3l-1.3-0.8l-13.2-7.6v1l13.2,7.6l1.2,0.7c0.2,0.1,0.4,0.2,0.5,0.2c0.6,0,1.2-0.5,1.2-1.1v-3.9
						c0-0.7-0.4-1.3-1-1.7l-1.9-1.1v0l-13.2-7.6v1l13.2,7.6l1.2,0.7c0,0,0.1,0,0.1,0.1l0.2,0.1c0.5,0.3,0.7,0.7,0.7,1.3v3.2
						C288.8,248.3,288.3,248.5,287.9,248.3z"/>
					<polygon class="st32" points="273.3,233.9 286.6,241.5 310.4,227.7 297.2,220.1 					"/>
				</g>
				<g>
					<polygon class="st32" points="302.4,169.4 302.4,187.2 291.2,183.1 287.2,178.2 288.3,177 					"/>
					<polygon class="st25" points="305.6,173.2 301.9,171 288.2,178.9 291.1,180.6 293,180.4 					"/>
					<path class="st33" d="M286.9,177.9l0,27l0,0.1c0,0.4,0.2,0.7,0.6,0.9l3.3,1.9l0-0.8l0-4l0-1l0-21.1l-3.3-2.4L286.9,177.9z"/>
					<path class="st34" d="M294.6,179.8l-3.8,1.1l0,21.1l0,1l0,4l0,0.8c0.6,0.3,1.3,0.3,1.9,0l1.9-1.1l0,0l0-1l0-4.9l0-1
						L294.6,179.8z"/>
					<path class="st4" d="M288.2,177.6l1.3-0.8l12.9-7.5l-0.8-0.5l-12.9,7.5l-1.2,0.7c-0.2,0.1-0.3,0.2-0.4,0.4
						c-0.3,0.5-0.2,1.2,0.4,1.6l3.3,1.9c0.6,0.3,1.3,0.3,1.9,0l1.9-1.1l0,0l12.9-7.5l-0.8-0.5l-12.9,7.5l-1.2,0.7c0,0-0.1,0-0.1,0.1
						l-0.2,0.1c-0.4,0.3-1,0.3-1.4,0l-2.7-1.6C287.8,178.4,287.8,177.9,288.2,177.6z"/>
					<polygon class="st32" points="307.5,172.4 294.6,179.8 294.6,206.8 307.5,199.3 					"/>
				</g>
				<g>
					<polygon class="st32" points="311.2,175.2 311.2,192.9 299.9,188.9 296,184 297.1,182.7 					"/>
					<polygon class="st25" points="314.4,178.9 310.6,176.8 297,184.7 299.9,186.4 301.8,186.1 					"/>
					<path class="st33" d="M295.7,183.6l0,27l0,0.1c0,0.4,0.2,0.7,0.6,0.9l3.3,1.9l0-0.8l0-4l0-1l0-21.1l-3.3-2.4L295.7,183.6z"/>
					<path class="st34" d="M303.4,185.6l-3.8,1.1l0,21.1l0,1l0,4l0,0.8c0.6,0.3,1.3,0.3,1.9,0l1.9-1.1l0,0l0-1l0-4.9l0-1
						L303.4,185.6z"/>
					<path class="st4" d="M296.9,183.4l1.3-0.8l12.9-7.5l-0.8-0.5l-12.9,7.5l-1.2,0.7c-0.2,0.1-0.3,0.2-0.4,0.4
						c-0.3,0.5-0.2,1.2,0.4,1.6l3.3,1.9c0.6,0.3,1.3,0.3,1.9,0l1.9-1.1l0,0l12.9-7.5l-0.8-0.5l-12.9,7.5l-1.2,0.7c0,0-0.1,0-0.1,0.1
						l-0.2,0.1c-0.4,0.3-1,0.3-1.4,0l-2.7-1.6C296.6,184.2,296.6,183.6,296.9,183.4z"/>
					<polygon class="st32" points="316.3,178.1 303.4,185.6 303.4,212.5 316.3,205.1 					"/>
				</g>
				<g>
					<g class="st1">
						<g>
							<path class="st7" d="M242.7,146.2l0-7.1c0,1.3,0.9,2.6,2.6,3.7l0,7.1C243.5,148.9,242.7,147.5,242.7,146.2z"/>
						</g>
						<g>
							<path class="st3" d="M335.1,166.8l0,7.1c0,1.3-0.9,2.7-2.7,3.7l0-7.1C334.2,169.5,335.1,168.1,335.1,166.8z"/>
						</g>
						<g>
							<polygon class="st7" points="306.2,178.4 306.2,185.6 245.3,149.9 245.3,142.7 							"/>
						</g>
						<g>
							<polygon class="st2" points="332.4,170.5 332.4,177.7 318.9,185.6 318.9,178.4 							"/>
						</g>
						<g>
							<path class="st2" d="M318.9,178.4l0,7.1c-3.5,2-9.2,2-12.7,0l0-7.1C309.6,180.4,315.3,180.4,318.9,178.4z"/>
						</g>
						<g>
							<path class="st3" d="M318.9,178.4c-3.5,2-9.2,2-12.7,0l-60.9-35.7c-3.5-2-3.5-5.3,0-7.4l13.6-7.9c3.5-2,9.2-2,12.7,0
								l60.9,35.7c3.5,2,3.5,5.3,0,7.4L318.9,178.4z"/>
						</g>
					</g>
				</g>
				<g>
					<polygon class="st32" points="269.7,101.4 269.7,121.2 257.2,116.7 252.7,111.2 254,109.8 					"/>
					<polygon class="st25" points="273.3,105.6 269.1,103.2 253.9,112 257.2,113.9 259.2,113.6 					"/>
					<path class="st33" d="M252.4,110.8l0,30.2l0,0.1c0,0.4,0.2,0.8,0.6,1.1l3.7,2.1l0-0.9l0-4.5l0-1.1l0-23.6l-3.7-2.6L252.4,110.8
						z"/>
					<path class="st34" d="M261,113l-4.2,1.2l0,23.6l0,1.1l0,4.5l0,0.9c0.7,0.4,1.5,0.4,2.1,0l2.1-1.2l0,0l0-1.1l0-5.5l0-1.1
						L261,113z"/>
					<path class="st4" d="M253.8,110.6l1.5-0.8l14.4-8.3l-0.9-0.5l-14.4,8.3l-1.3,0.8c-0.2,0.1-0.3,0.3-0.4,0.4
						c-0.3,0.6-0.2,1.4,0.4,1.7l3.7,2.1c0.7,0.4,1.5,0.4,2.1,0l2.1-1.2l0,0l14.4-8.3l-0.9-0.5l-14.4,8.3l-1.3,0.8
						c0,0-0.1,0.1-0.1,0.1l-0.2,0.1c-0.5,0.3-1.1,0.3-1.6,0l-3-1.8C253.4,111.4,253.4,110.8,253.8,110.6z"/>
					<polygon class="st32" points="275.4,104.7 261,113 261,143.1 275.4,134.7 					"/>
				</g>
				<g>
					<polygon class="st33" points="278.5,158.9 294.2,149.8 296.4,161.8 294.1,167.8 292.3,167.5 					"/>
					<polygon class="st25" points="280.2,154.1 280.2,158.5 294.1,166.6 294.1,163.1 293,161.6 					"/>
					<path class="st32" d="M293.9,168.3l24-13.8l0.1,0c0.3-0.2,0.5-0.5,0.5-1v-3.9l-0.7,0.4l-3.6,2.1l-0.9,0.5l-18.7,10.8l-0.4,4.1
						L293.9,168.3z"/>
					<path class="st34" d="M291.7,160.5l2.9,2.8l18.7-10.8l0.9-0.5l3.6-2.1l0.7-0.4c0-0.7-0.4-1.3-1-1.7l-1.9-1.1l0,0l-0.9,0.5
						l-4.4,2.5l-0.9,0.5L291.7,160.5z"/>
					<path class="st4" d="M293.1,167.3l-1.3-0.8l-13.2-7.6v1l13.2,7.6l1.2,0.7c0.2,0.1,0.4,0.2,0.5,0.2c0.6,0,1.2-0.5,1.2-1.1v-3.9
						c0-0.7-0.4-1.3-1-1.7l-1.9-1.1v0l-13.2-7.6v1l13.2,7.6l1.2,0.7c0,0,0.1,0,0.1,0.1l0.2,0.1c0.5,0.3,0.7,0.7,0.7,1.3v3.2
						C293.9,167.2,293.4,167.5,293.1,167.3z"/>
					<polygon class="st33" points="278.5,152.8 291.7,160.5 315.6,146.7 302.4,139.1 					"/>
				</g>
				<g>
					<polygon class="st33" points="282.4,152.3 298.1,143.2 300.3,155.3 298,161.3 296.3,160.9 					"/>
					<polygon class="st25" points="284.1,147.6 284.1,152 298,160 298,156.6 296.9,155 					"/>
					<path class="st32" d="M297.8,161.7l24-13.8l0.1,0c0.3-0.2,0.5-0.5,0.5-1v-3.9l-0.7,0.4l-3.6,2.1l-0.9,0.5l-18.7,10.8l-0.4,4.1
						L297.8,161.7z"/>
					<path class="st34" d="M295.6,153.9l2.9,2.8l18.7-10.8l0.9-0.5l3.6-2.1l0.7-0.4c0-0.7-0.4-1.3-1-1.7l-1.9-1.1l0,0l-0.9,0.5
						l-4.4,2.5l-0.9,0.5L295.6,153.9z"/>
					<path class="st4" d="M297,160.7l-1.3-0.8l-13.2-7.6v1l13.2,7.6l1.2,0.7c0.2,0.1,0.4,0.2,0.5,0.2c0.6,0,1.2-0.5,1.2-1.1v-3.9
						c0-0.7-0.4-1.3-1-1.7l-1.9-1.1v0l-13.2-7.6v1l13.2,7.6l1.2,0.7c0,0,0.1,0,0.1,0.1l0.2,0.1c0.5,0.3,0.7,0.7,0.7,1.3v3.2
						C297.8,160.7,297.4,160.9,297,160.7z"/>
					<polygon class="st33" points="282.4,146.3 295.6,153.9 319.5,140.1 306.3,132.5 					"/>
				</g>
				<g>
					<g class="st1">
						<g>
							<path class="st3" d="M343.4,135.6l-6.2-3.6c-1.2-0.7-2.8-0.6-4.5,0.4l6.2,3.6C340.6,135,342.2,134.9,343.4,135.6z"/>
						</g>
						<g>
							<polygon class="st7" points="306,283.5 299.8,279.9 299.5,158.7 305.6,162.3 							"/>
						</g>
						<g>
							<g>
								<polygon class="st3" points="338.9,136.1 332.7,132.5 305.8,147.7 312,151.3 								"/>
							</g>
						</g>
						<g>
							<path class="st3" d="M312,151.3l-6.2-3.6c-3.5,2-6.4,7-6.4,11l6.2,3.6C305.6,158.3,308.5,153.3,312,151.3z"/>
						</g>
						<g>
							<path class="st2" d="M345.7,306.2c-0.4-0.1-0.9-0.3-1.4-0.6L306,283.5l-0.4-121.2c0-4,2.8-9,6.4-11l26.8-15.2
								c3.5-2,6.4-0.4,6.4,3.6L345.7,306.2z"/>
						</g>
					</g>
				</g>
			</g>
		</g>
	</g>
	<g>
		<g>
			<g class="st1">
				<g>
					<path class="st35" d="M307.7,2.4l3.8-2.2c0.7-0.4,1.8-0.4,2.9,0.3l-3.8,2.2C309.5,2,308.4,2,307.7,2.4z"/>
				</g>
				<g>
					<path class="st35" d="M368.4,73.1l-3.8,2.2c0.7-0.4,1.2-1.3,1.2-2.6l3.8-2.2C369.5,71.8,369.1,72.7,368.4,73.1z"/>
				</g>
				<g>
					<polygon class="st35" points="365.9,39.3 369.6,37.1 369.5,70.5 365.8,72.7 					"/>
				</g>
				<g>
					<polygon class="st35" points="310.6,2.7 314.4,0.5 365.6,30.1 361.8,32.2 					"/>
				</g>
				<g>
					<path class="st35" d="M361.8,32.2l3.8-2.2c2.3,1.3,4.1,4.5,4.1,7.1l-3.8,2.2C365.9,36.7,364,33.5,361.8,32.2z"/>
				</g>
				<g>
					<path class="st4" d="M361.8,32.2c2.3,1.3,4.1,4.5,4.1,7.1l-0.1,33.4c0,2.6-1.8,3.6-4.1,2.3l-31.8-18.3l-18.2,10.4l0-20.8
						l-1.3-0.7c-2.3-1.3-4.1-4.5-4.1-7.1L306.5,5c0-2.6,1.8-3.6,4.1-2.3L361.8,32.2z"/>
				</g>
			</g>
		</g>
	</g>
	<g>
		
			<ellipse transform="matrix(5.421195e-03 -1 1 5.421195e-03 -142.8795 572.5969)" class="st0" cx="216.4" cy="358.1" rx="21.5" ry="37.3"/>
		<g>
			<g>
				<path class="st9" d="M262.5,150.1c-0.2-0.3-0.5-0.3-0.8-0.3c-0.3,0.1-0.5,0.3-0.8,0.4c-1.2,0.9-2.4,1.7-3.7,2.5
					c-0.9,0.5-1.8,0.9-2.7,1.4c-0.5,0.3-1,0.6-1.3,1c-0.8,0.9-0.9,2.3-1,3.5c-0.1,0.8-0.2,1.8-0.6,2.5c-1,0.3-1.8,0.8-2.7,1.4
					c-4.6,2.9-9.3,5.5-14.1,8c-2.2,1.1-4.4,2.5-6.5,3.8c-2.2,1.5-4.3,3.1-6.3,4.9c-2.4,2.1-5,3.9-7.8,5.2c-2.2,1.1-5.8,1.6-5.6,4.8
					c0.1,1.9,1.6,3.3,2.5,4.9c0.7,1.3,1.2,2.7,1.3,4.2c4.9-3.7,9.8-7.2,14.9-10.6c2.7-1.8,13.6-9.8,14.8-10.8
					c4.5-3.5,9-7.1,12.4-11.6c0,0,0.1-0.1,0.1-0.1c0.3-0.2,0.6-0.4,1-0.6c0.3-0.2,0.6-0.3,0.8-0.5c0.6-0.7,0.6-1.8,0.6-2.6
					c0-0.9,0.2-1.8,0.4-2.7c0.2-1,0.5-2,1-2.9c1-1.9,3.1-3,4.2-4.9C262.5,150.7,262.6,150.4,262.5,150.1z"/>
				<path class="st11" d="M187.4,364.2c0,0.2,0,0.4,0,0.6c0.1,1,0.5,2.6,1.6,3.1c0.3,0.1,0.6,0.2,0.9,0.2c1.3,0,2.5-0.8,3.4-1.8
					c0.9-1,1.6-2.1,2.5-3.1c1.7-1.9,4.1-3,6.5-3.8c1.2-0.4,2.5-0.8,3.7-1.4c1.3-0.8,2.3-2.1,2.8-3.5c0.5-1.4,0.7-2.9-1-3.4
					c-1.2-0.4-2.4-0.2-3.6,0c-1.6,0.3-3.3,0.6-4.9,0.8c-1.4,0.2-2.9,0.3-4.3,0.6c-1.3,0.3-2.5,0.4-3.5,1.4c-2,2-3.1,4.8-3.7,7.6
					C187.6,362.4,187.4,363.3,187.4,364.2z"/>
				<path class="st12" d="M216.4,269.3c-0.1-1.6-0.5-3.1-1-4.7c-1.1-3.8-2.2-7.6-3.3-11.4c-0.6-2.1-1.2-4.2-2.3-6.2
					c-1.1-1.9-2.7-3.6-4.7-4.4c-4.3-1.7-8.1,1-9.8,4.7c-2.2,4.7-4,9.6-4.5,14.8c-0.3,2.9-0.2,5.8,0.4,8.6c0.4,2.1,1.1,4.1,1.6,6.1
					c0.9,4.2,0.8,8.5,0.7,12.8c-0.1,5.2-1.1,10.7-2.2,15.8c-0.9,4.1-2.5,8-4,11.9c-1.6,4.2-1.5,8.8-1.3,13.3c0.1,3.7,0.4,7.3,0.7,11
					c0.5,5.7,0.8,11.5,2.2,17.1c0.1,0.3,0.3,0.6,0.6,0.6c2.5,0.5,5.1-0.8,6.9-2.7c0.6-0.6,1.1-1.4,1.3-2.2c0.2-0.7,0.1-1.5,0.1-2.2
					c-0.2-5.2,0.6-10.3,1.6-15.4c0.7-4,1.5-7.9,2.3-11.9c0.8-4.3,2.4-8.3,3.7-12.5c1.3-4.3,2.8-8.5,4.1-12.7
					c2.1-6.7,3.9-13.6,5.4-20.5c0.4-1.7,0.7-3.3,1.1-5C216.1,272.7,216.5,271,216.4,269.3z"/>
				<path class="st4" d="M220.1,356.3c-0.1,1.2,0.2,2.5,1,3.4c0.9,0.9,2.3,1.2,3.6,1c1.3-0.1,2.5-0.7,3.7-1.1
					c1.8-0.7,3.6-1.3,5.5-1.8c1.9-0.4,3.9-0.7,5.7-1.5c1.4-0.6,2.6-1.6,3.7-2.7c0.9-1,1.7-2.1,2.1-3.4c0.3-1.1,0.5-2.1,0.2-3.2
					c-0.2-0.8-0.8-1.2-1.5-1.6c-0.3-0.1-0.6-0.2-0.9-0.2c-2.5-0.1-4.9,0.8-7.4,1.2c-1.9,0.3-3.8,0.3-5.7,0.4
					c-1.9,0.1-3.8,0.4-5.5,1.3c-1.5,0.8-2.7,2-3.3,3.6c-0.2,0.6-0.3,1.2-0.5,1.8C220.5,354.5,220.2,355.4,220.1,356.3z"/>
				<path class="st13" d="M236.4,280.5c0.5-10.6-1.1-21.6-5.4-31c-1.8,1.6-4.5,1.5-6.9,1c-3-0.7-5.8-1.8-8.4-3.5
					c-2.3-1.4-4.5-3.3-7.2-3.5c-1.9-0.1-4.1,2.6-5.2,4c-1.3,1.8-2.2,4-2.7,6.2c-0.4,1.7-0.6,3.7-0.7,5.7c0,3.4,0.6,7,2.2,9.6
					c2.1,3.3,5.4,5.5,7.7,8.6c3.2,4.4,3.9,10,4.1,15.4c0.2,5.2,0,10.8,2,15.7c1.8,4.3-0.4,9.9-0.5,14.5c-0.1,3.3,0.7,6.6,1.5,9.9
					c1.6,6.5,3.2,12.9,4.1,19.5c0,0.2,0.1,0.4,0.2,0.6c0.1,0.1,0.3,0.2,0.5,0.2c1.8,0.4,3.7,0,5.3-0.7c1.7-0.8,3.1-1.9,4.5-3.1
					c0.3-0.2,0.6-0.5,0.7-0.8c0.1-0.4,0-0.7-0.1-1.1c-2.7-8.5-0.8-17.6-0.4-26.3c0.2-4.4-0.3-8.6,0.2-12.9c0.6-4.7,1.4-9.4,2.5-14.1
					C235.5,290,236.1,285.3,236.4,280.5z"/>
				<path class="st19" d="M189.9,201.9c0.3,4.5,2.1,8.8,3.3,13.2c1.9,6.7,2.5,13.7,2.1,20.7c-0.2,3.5-0.7,6.9-1.4,10.3
					c-0.3,1.4-1,3-0.8,4.4c0.2,1.5,0.9,2.9,1.8,4.1c4.4,6,13.5,7.4,20.4,7.4c4,0,7.9-0.2,11.8-0.9c1.7-0.3,3.5-0.8,5-1.7
					c1.7-1,2.8-2,2.1-4.1c-2.7-7.8-5.1-15.9-4.7-24.1c0.3-5.1,1.6-10.1,2.1-15.2c0.5-5.1,0.2-10.5-2.7-14.8
					c-0.7-1.1-1.6-2.1-2.7-2.8c-1.4-0.9-3-1.3-4.5-1.7c-4.9-1.3-9.6-2.8-14.3-4.7c-3.6-1.5-7.4-3.1-11.4-2.6
					c-2.9,0.4-4.8,3.8-5.6,6.3C190,197.8,189.8,199.9,189.9,201.9z"/>
				<path class="st16" d="M217.5,169.6c0,0.9-0.2,1.9,0,2.8c0.1,0.5,0.4,0.9,0.6,1.3c0.5,1.2,0.5,2.7,0.4,4
					c-0.2,1.9-0.4,3.7-0.9,5.5c-0.2,0.7-0.4,1.4-0.8,1.8c-0.9,0.9-2.5,0.7-3.3,1.6c-0.7,0.7-0.8,2.1-0.8,3c0,1.2,0.2,2.4,0.7,3.5
					c0.2,0.5,0.8,2-0.3,1.6c-0.5-0.2-1-0.3-1.5-0.4c-1-0.1-2.1,0-3.1,0.1c-1.3,0.1-2.5,0.2-3.8,0.4c-1.4,0.2-2.9,0.5-4.3,0.6
					c-1.5,0.1-2.9,0-4.3-0.7c-0.3-0.1-0.6-0.3-0.8-0.5c-0.8-0.9-0.4-2.2-0.3-3.3c0.2-1.7,0.1-3.4-0.2-5.1c-0.1-0.5-0.2-0.9-0.4-1.4
					c-0.3-0.6-0.8-1.2-1.1-1.8c-1.7-3.6-2.6-7.3-2.2-11.4c0.1-1.4,0.6-2.8,1.1-4.1c0.6-1.5,1.4-3,2.5-4.2c1.1-1.2,2.5-2,3.9-2.7
					c3.3-1.5,7-1.9,10.5-1.3c2.2,0.4,4.3,1.3,5.4,3.3c0.6,1.1,1.4,2,2,3.1C217,166.8,217.5,168.2,217.5,169.6z"/>
				<path class="st8" d="M196.8,159c-1.9,1.1-3.7,2.7-4.9,4.4c-1.6,2.3-2.2,4.7-2.5,7.5c-0.3,3.4,0.1,6.8,1,10.1
					c0.5,1.6,1.2,3.1,1.8,4.7c0.5,1.3,1,2.5,2.4,3.1c0.7,0.3,1.4,0.4,2.2,0.3c1.8,0,3.6-0.5,5.3-1.1c1.7-0.7,3.4-1.6,4.8-2.8
					c5.2-4.5,9.2-11,9.1-18c0-3.2-1.3-6.5-4.1-8.2c-3.2-1.9-7.1-2.5-10.7-1.9C199.7,157.6,198.2,158.2,196.8,159z"/>
				<path class="st8" d="M192.3,190.2c0.2,0.3,0.4,0.6,0.4,0.9c0,0.3-0.1,0.6-0.3,0.9c-1,2.2-0.9,4.7-0.8,7.1c0,0.9,0.1,1.9,0.1,2.8
					c0.1,1.7,0.2,3.5,0.9,5c0.2,0.4,0.5,0.9,0.6,1.4c0.1,0.5,0,1,0,1.5c-0.3,2.4-0.3,5.2,1.4,7c-1.1,2.2-0.5,5.2,1.5,6.7
					c-1.6,1.3-1.6,4.1,0,5.4c-1.7,3.4-3,7.1-2.9,11c0.1,3.8,1.8,7.7,4.9,9.9c0-5.7,2.6-11.5,1-17c-0.4-1.2-0.9-2.4-0.5-3.6
					c0.2-0.7,0.8-1.3,1-2c0.5-1.4-0.3-2.8-0.3-4.3c0-0.8,0.2-1.7,0.1-2.5c0-0.8-0.5-1.8-1.3-2c1.1-2.7,0.6-5.9-1.2-8.2
					c1.6-2.4,1.3-6-0.8-8.1c2.4-2.6,3.1-6.5,1.7-9.8c1.5-1.5,2.1-3.8,1.5-5.8c-0.6-2.1-3.6-5-6-3.9
					C191.1,183.9,191.3,188.4,192.3,190.2z"/>
				<g>
					<polygon class="st32" points="272.7,120.7 272.8,140.7 260.1,136.1 255.7,130.6 257,129.2 					"/>
					<polygon class="st25" points="276.3,124.9 272.2,122.5 256.8,131.4 260.1,133.3 262.2,133 					"/>
					<path class="st33" d="M255.4,130.2l0,30.4l0,0.1c0,0.4,0.2,0.8,0.6,1.1l3.7,2.2l0-0.9l0-4.5l0-1.1l0-23.8L256,131L255.4,130.2z
						"/>
					<path class="st34" d="M264,132.4l-4.3,1.2l0,23.8l0,1.1l0,4.5l0,0.9c0.7,0.4,1.5,0.4,2.1,0l2.1-1.2l0,0l0-1.1l0-5.6l0-1.1
						L264,132.4z"/>
					<path class="st4" d="M256.8,130l1.5-0.8l14.5-8.4l-0.9-0.5l-14.5,8.4l-1.3,0.8c-0.2,0.1-0.3,0.3-0.4,0.4
						c-0.3,0.6-0.2,1.4,0.5,1.7l3.7,2.2c0.7,0.4,1.5,0.4,2.1,0l2.1-1.2l0,0l14.5-8.4l-0.9-0.5l-14.5,8.4l-1.3,0.8
						c0,0-0.1,0.1-0.1,0.1l-0.2,0.1c-0.5,0.3-1.1,0.3-1.6,0l-3.1-1.8C256.3,130.8,256.3,130.2,256.8,130z"/>
					<polygon class="st32" points="278.5,124 264,132.4 264,162.7 278.5,154.3 					"/>
				</g>
				<path class="st16" d="M265.1,140.3c-0.4,0.1-0.7,0.3-1.1,0.4c-1.5,0.7-3,1.5-4.4,2.3c-0.7,0.4-1.4,0.8-2.2,1.2
					c-0.4,0.2-0.7,0.4-1.1,0.6c-0.3,0.1-0.7,0.4-1,0.3c0,0,0,0-0.1,0c0,0,0,0,0-0.1c0-0.6,0-1.1,0-1.7c0.1-0.5,0.2-1.1,0-1.6
					c0-0.1-0.1-0.2-0.2-0.2c-0.1,0-0.1,0-0.2,0.1c-0.4,0.4-0.8,0.9-1.2,1.3c-0.5,0.5-0.9,0.9-1.4,1.3c-0.6,0.5-1.2,1-1.6,1.6
					c-0.5,0.6-0.8,1.3-1.1,2c-1,2.4-1.9,4.8-2.3,7.4c-0.7,5-1.4,10.1-3.2,14.8c-0.7,1.7-1.5,3.4-2.1,5.2c-0.5,1.6-0.8,3.5-0.6,5.3
					c-1.1,1.2-2.1,2.4-3.2,3.5c-2.4,2.6-5,5.1-7.9,7.3c-2.1,1.6-4.1,3.7-3.7,6.5c0.2,1.5,0.9,2.9,1.2,4.4c0.3,1.9-0.2,3.7-0.7,5.6
					c-0.3,1.1-0.6,2.2-0.9,3.3c4.2-0.6,7.5-3.7,10.3-6.9c3-3.5,5.8-7.3,8.2-11.3c1.2-2,2.3-4.1,3.4-6.1c2.6-5.2,4.5-10.2,4.9-16.1
					c0.2-2.5,0.2-4.9,0.3-7.4c0.1-2.3,0-5,1.1-7c0.6-1.1,2-1.6,3.1-2c3.2-1.4,6.2-3.4,8.9-5.7c0.4-0.4,0.8-0.8,1.2-1.2
					c0.3-0.3,0.5-0.7,0.4-1.1c-0.1-0.4-0.8-0.5-0.9-0.2c0.5-0.7,0.9-1.4,1.1-2.2c0.2-0.7,0.1-1.6-0.5-1.9c0.1-0.7-0.6-1.2-1.2-1.6
					c-0.2-0.1-0.4-0.3-0.6-0.3C265.5,140.1,265.3,140.2,265.1,140.3z"/>
				<path class="st36" d="M225.4,193.6c-2.1,0.6-4.4,0.9-6.4,1.9c-0.7,0.4-1.4,0.8-1.9,1.4c-2.6,2.9-1.3,8.1,0.3,11.1
					c0.8,1.4,1.8,2.7,3.3,3.4c2.5,1.2,5.5,0.9,8-0.1c2.8-1.2,5.1-3.4,7.4-5.3c0.3-0.2,0.6-0.5,0.8-0.8c0.3-0.8,0.2-2,0.2-2.8
					c0-1.1-0.1-2.1-0.3-3.2c-0.3-1.7-0.7-3.3-1.5-4.8c-0.7-1.4-1.2-2.5-2.7-3.3c-1.3-0.7-1.7-0.4-2.8,0.4
					C228.6,192.6,227,193.2,225.4,193.6z"/>
			</g>
		</g>
	</g>
	<g>
		<path class="st0" d="M73.6,378.6L3.3,338c-2.6-1.5-2.2-4.1,0.7-5.8l46.5-26.9c3-1.7,7.4-1.9,10-0.4l70.2,40.6
			c2.6,1.5,2.2,4.1-0.7,5.8l-46.5,26.9C80.6,379.9,76.1,380.1,73.6,378.6z"/>
		<g>
			<g>
				<g>
					<polygon class="st24" points="76.6,374.3 122.1,348.1 122.1,345.1 55.8,309.8 10.3,333.1 10.3,336.1 					"/>
					<polygon class="st36" points="55.8,306.8 107.2,336.5 114.9,332 123,328.8 124.8,337.4 124.2,343.7 122.1,345.1 76.6,371.3 
						10.3,333.1 					"/>
					<path class="st35" d="M12.1,318.7V332l63.3,36.6l43.7-25.3c0.7-0.4,1.3-1.1,1.5-1.9c0.6-2.4,1.5-7.6-1.6-11.5
						c-4.1-5.2-58.1-15.8-58.1-15.8L12.1,318.7z"/>
					<polygon class="st14" points="75.4,359 121.1,335.7 75.4,360.1 					"/>
					<polygon class="st14" points="75.4,368.6 75.4,352.3 12.1,318.7 12.1,332 					"/>
					<polygon class="st35" points="12.1,321.8 36.1,335 12.1,322.8 					"/>
					<polygon class="st35" points="75.4,363.1 51.6,351.7 75.4,365 					"/>
					<polygon class="st35" points="76.6,371.3 76.6,374.3 10.3,336.1 10.3,333.1 					"/>
				</g>
				<g>
					<polygon class="st24" points="76.6,356 122.1,329.7 122.1,326.7 55.8,291.4 10.3,314.7 10.3,317.7 					"/>
					<polygon class="st14" points="76.6,353 123.8,327.7 55.8,288.5 10.3,314.7 					"/>
					<polygon class="st35" points="76.6,353 76.6,356 10.3,317.7 10.3,314.7 					"/>
				</g>
				<path class="st37" d="M120.8,330.4l-4,2.3L76.6,356v-3l40.2-23.2l3.6-2.1c0.5-0.3,1.1-0.5,1.7-0.5c1.8,0,3.6,1.4,3.6,3.5v12
					c0,2.1-1.1,4-2.9,5.1l-5.9,3.4v0l-40.2,23.2v-3l40.2-23.2l3.6-2.1c0.1-0.1,0.2-0.1,0.4-0.2l0.5-0.3c1.4-0.8,2.2-2.2,2.2-3.8V332
					C123.4,330.6,122,329.8,120.8,330.4z"/>
				<path class="st10" d="M109.5,341.9c0.2,0.1,0.4,0.3,0.6,0.4c0.6,0.5,1,1.2,1.4,1.9c0.1,0.2,0.3,0.5,0.4,0.8
					c0.7,1.5,1.3,3.1,2.1,4.6c1.2,2.1,3.2,3.8,5.4,4.8l-0.4-3.3l5.8,0.1c-2.3-1-4.2-2.7-5.4-4.8c-0.8-1.5-1.4-3.1-2.1-4.6
					c-0.1-0.3-0.2-0.5-0.4-0.8c-0.4-0.7-0.8-1.4-1.4-1.9c-0.2-0.2-0.4-0.3-0.5-0.4L109.5,341.9z"/>
			</g>
			<g>
				<g>
					<polygon class="st24" points="67,344.5 108,320.8 108,318.2 44,283.9 3,304.8 3,307.5 					"/>
					<polygon class="st10" points="44,281.2 94.6,310.4 101.5,306.4 108.9,303.5 110.5,311.3 110,316.9 108,318.2 67,341.8 3,304.8 
											"/>
					<path class="st35" d="M4.6,291.9v12L66,339.3l39.4-22.8c0.7-0.4,1.1-1,1.3-1.7c0.6-2.2,1.3-6.8-1.4-10.4
						c-3.7-4.7-56.6-16.7-56.6-16.7L4.6,291.9z"/>
					<polygon class="st25" points="66,330.7 107.1,309.7 66,331.7 					"/>
					<polygon class="st14" points="66,339.3 66,324.7 4.6,291.9 4.6,303.9 					"/>
					<polygon class="st38" points="4.6,294.7 26.3,306.6 4.6,295.6 					"/>
					<polygon class="st18" points="66,334.4 44.5,324.1 66,336.1 					"/>
					<polygon class="st39" points="67,341.8 67,344.5 3,307.5 3,304.8 					"/>
				</g>
				<g>
					<polygon class="st24" points="67,328 108,304.3 108,301.6 44,267.3 3,288.3 3,291 					"/>
					<polygon class="st10" points="67,325.3 109.6,302.5 44,264.6 3,288.3 					"/>
					<polygon class="st39" points="67,325.3 67,328 3,291 3,288.3 					"/>
				</g>
				<path class="st15" d="M106.9,305l-3.6,2.1L67,328v-2.7l36.2-20.9l3.3-1.9c0.5-0.3,1-0.4,1.5-0.4c1.7,0,3.2,1.3,3.2,3.1V316
					c0,1.9-1,3.6-2.6,4.6l-5.3,3.1v0L67,344.5v-2.7l36.2-20.9l3.3-1.9c0.1-0.1,0.2-0.1,0.3-0.2l0.4-0.2c1.2-0.7,2-2,2-3.4v-8.8
					C109.2,305.1,107.9,304.4,106.9,305z"/>
				<path class="st32" d="M83.3,322.4c0.2,0.1,0.4,0.3,0.5,0.4c0.5,0.5,0.9,1.1,1.2,1.7c0.1,0.2,0.2,0.4,0.3,0.7
					c0.7,1.4,1.1,2.8,1.9,4.2c1.1,1.9,2.9,3.4,4.9,4.3l-0.4-3l5.2,0.1c-2-0.9-3.8-2.4-4.9-4.3c-0.8-1.3-1.2-2.8-1.9-4.1
					c-0.1-0.2-0.2-0.5-0.3-0.7c-0.3-0.6-0.7-1.2-1.2-1.7c-0.1-0.1-0.3-0.3-0.5-0.4L83.3,322.4z"/>
			</g>
			<g>
				<g>
					<polygon class="st24" points="88.2,335.5 129.2,311.8 129.2,309.2 65.1,274.9 24.2,295.8 24.2,298.5 					"/>
					<polygon class="st13" points="65.1,272.2 115.7,301.4 122.7,297.4 130,294.5 131.7,302.3 131.1,307.9 129.2,309.2 88.2,332.8 
						24.2,295.8 					"/>
					<path class="st25" d="M25.8,282.9v12l61.4,35.4l39.4-22.8c0.7-0.4,1.1-1,1.3-1.7c0.6-2.2,1.3-6.8-1.4-10.4
						c-3.7-4.7-56.6-16.7-56.6-16.7L25.8,282.9z"/>
					<polygon class="st18" points="87.1,321.7 128.3,300.7 87.1,322.7 					"/>
					<polygon class="st18" points="87.1,330.4 87.1,315.7 25.8,282.9 25.8,294.9 					"/>
					<polygon class="st25" points="25.8,285.7 47.4,297.6 25.8,286.6 					"/>
					<polygon class="st25" points="87.1,325.4 65.7,315.1 87.1,327.1 					"/>
					<polygon class="st12" points="88.2,332.8 88.2,335.5 24.2,298.5 24.2,295.8 					"/>
				</g>
				<g>
					<polygon class="st24" points="88.2,319 129.2,295.3 129.2,292.6 65.1,258.3 24.2,279.3 24.2,282 					"/>
					<polygon class="st13" points="88.2,316.3 130.8,293.5 65.1,255.6 24.2,279.3 					"/>
					<polygon class="st12" points="88.2,316.3 88.2,319 24.2,282 24.2,279.3 					"/>
				</g>
				<path class="st12" d="M128,296l-3.6,2.1L88.2,319v-2.7l36.2-20.9l3.3-1.9c0.5-0.3,1-0.4,1.5-0.4c1.7,0,3.2,1.3,3.2,3.1V307
					c0,1.9-1,3.6-2.6,4.6l-5.3,3.1v0l-36.2,20.9v-2.7l36.2-20.9l3.3-1.9c0.1-0.1,0.2-0.1,0.3-0.2l0.4-0.2c1.2-0.7,2-2,2-3.4v-8.8
					C130.4,296.1,129.1,295.4,128,296z"/>
				<path class="st19" d="M117.9,306.3c0.2,0.1,0.4,0.3,0.5,0.4c0.5,0.5,0.9,1.1,1.2,1.7c0.1,0.2,0.2,0.4,0.3,0.7
					c0.7,1.4,1.1,2.8,1.9,4.2c1.1,1.9,2.9,3.4,4.9,4.3l-0.4-3l5.2,0.1c-2-0.9-3.8-2.4-4.9-4.3c-0.8-1.3-1.2-2.8-1.9-4.1
					c-0.1-0.2-0.2-0.5-0.3-0.7c-0.3-0.6-0.7-1.2-1.2-1.7c-0.1-0.1-0.3-0.3-0.5-0.4L117.9,306.3z"/>
			</g>
		</g>
	</g>
</g>
</svg>
