<?xml version="1.0" encoding="utf-8"?>
<svg xmlns="http://www.w3.org/2000/svg" width="480" height="480" viewBox="0 0 512 512">
  <path fill="#BCBCBC" d="M308.6,111.2c-9.2,6-17.9,12.6-27,18.7c-12.1,8.1-25,15.1-37.6,22.5c-27.6,16.3-55.1,32.6-82.7,48.9c-20.4,12.1-43.4,21.7-60.6,38.5c14.4,1.4,28.6,4.3,43.1,4.4c16,0.1,32,0,48,0.9c32.3,1.8,64.6,3,96.9,3.1c12.9-26.7,22.2-54.9,33.1-82.5c5.9-14.8,10.1-30.1,14.8-45.4c2.2-7.2,2.4-15.8,5.2-23C330.3,98.2,318.1,105,308.6,111.2z" />
  <path fill="#D6E5E5" d="M108.2,283.7c-8.3-11.8-17.9-23.1-22.3-37.1c-0.8-2.5,0.2-4.6,1.7-5.9c-0.4-1.5,0-3.1,1.3-4.6c18-19.6,42.8-29.9,65.2-43.3c-4.8-1.6-9.2-4.7-13.7-6.7c-6.5-2.9-13.1-5.5-20-7.4c-10.3-3-21.7-7.1-32.6-5.7c-23.8,3-31.1,32.2-33.4,52c-1.4,12.7-2,25.6-2.8,38.4c-0.5,7.8-0.7,15.6-0.7,23.3c-0.1,6.6,0.5,13.4-0.6,19.8c-1.2,6.7-3.2,13.8-2.6,20.7c0.4,4.2,3.2,10.8,8.5,10c10.3-1.6,15-18.7,17.7-27c1.8-5.4,10.8-6.1,10.9,0.6c0.1,6.6,1.9,16.8,10.7,16c8.1-0.7,14.3-7.2,17.9-14.1c2.3-4.4,10.7-3.7,10.4,2c-0.2,4.4,2.1,8.1,5.8,8c0.3-0.8,0.9-1.4,1.5-2c-3.8-5.8-7.5-11.6-11.1-17.5C116.2,296.9,112.7,290,108.2,283.7z" />
  <path fill="#BCBCBC" d="M447.6,252.9c-0.8-1-1.1-1.9-1.2-2.9c-0.3-0.3-0.6-0.7-0.8-1.1c-14.2-26.3-31.4-50.6-47-76c-7.4-12.1-14.5-24.3-20.4-37.2c-4.3-9.4-7.9-19.5-14.1-27.9c-3.2-4.4-7-7.2-11-8.8c-2.2,3.6-2.8,8.8-3.5,12.7c-1.1,6.2-2.7,12.1-4.5,18.2c-4.2,14.4-8.7,28.6-14.2,42.5c-11,28.1-20.5,56.8-33.9,83.8c-0.8,1.6-2.6,3-4.5,3c-34,0-67.9-1.5-101.8-3.2c-16.6-0.8-33.3-0.1-49.9-0.9c-13.9-0.7-27.5-3.1-41.3-4.4c5.4,11,13.8,20.3,20.4,30.6c4.3,6.8,8.1,13.9,12.4,20.7c4.6,7.3,9.3,14.4,13.9,21.7c18.9,30.1,33.3,63,48.2,95.2c0.6,1.3,0.6,2.6,0.3,3.6c0,0,0.1,0.1,0.1,0.1c1.3,2.2,2.9,3.1,6,3c5-0.1,9.8-1.5,14.4-3.2c12.8-4.8,24.7-11.6,36.3-18.8c13.1-8,25.7-16.7,38.5-25.1c6.3-4.1,13.1-7.3,19.6-11.2c12.6-7.6,24.4-16.2,36.3-24.9c12.2-8.9,24.6-17.5,37.6-25.2c6.8-4.1,13.8-8,19.9-13.1c5.2-4.3,10.1-8.9,15.3-13.3c8.2-6.9,17.3-11.9,25.8-18.3c2.7-2,6.7-4.9,7.5-8.5C452.9,259.7,450.3,256.1,447.6,252.9z" />
  <path fill="#D6E5E5" d="M504.5,59.5c-1.4-3.2-4.3-5.8-7.4-7.4c-8.8-4.9-19-6.8-28.9-8.2c-11.3-1.6-22.6-3.3-34-4.5c-16.4-1.7-32.9-2.2-49.4-1.8c-11.9,0.3-24.1,1.3-34.9,6.7c-9.6,4.8-16.9,13-20.4,23.2c-1.6,4.4-3.1,8.9-4.1,13.5c-0.5,2.5-2.1,7.1-0.3,9.3c14.4-5.5,30.4-7.1,42.3,4.5c7.9,7.8,12.5,17.8,17,27.8c6.1,13.6,12.8,26.7,20.5,39.4c7.2,12,14.9,23.7,22.4,35.4c2.3-1.2,4.5-2.7,6.1-4.7c1.3-1.7,3.4-5.6,2.5-7.8c-1.6-4.3-7.5-6.9-11-9.4c-5.1-3.6,0-9.8,4.7-9.5c7.5,0.4,20.4-2.2,22.2-11.1c2-10.6-7.4-15.3-16.3-17.1c-6-1.2-5.7-10.9,0.6-10.9c13.9-0.1,35.8-1.3,43.9-14.9c7.9-13.3-13.4-21.7-22.9-25.7c-5.2-2.2-3.2-10,2-10.4c9-0.7,18.1-1.4,26.9-3.4c5.8-1.3,14.2-2.9,18.1-7.8C505.3,63.2,505.6,61.9,504.5,59.5z" />
  <path d="M505.9,44.7c-16.1-11.9-39-11.8-58.1-14.7c-15.9-2.4-32-3.3-48.1-3.5c-13.7-0.2-27.5-0.1-40.9,3C342,33.5,328,44.2,320.6,59.9c-2.6,5.5-4.2,12-5.7,17.9c-1.3,5.1-2.7,12.1,0,17.1c-2.2,1.2-4.4,2.3-6.4,3.5c-9.8,5.7-18.9,12.5-28.1,19.1c-10.9,7.7-22.6,14.1-34,20.9c-27.1,16-54.6,31.6-81.5,48.1c-0.4-1.8-1.7-3.2-4.2-3.4c-3.4-0.3-6.2-2.1-9.1-3.7c-3-1.6-6.1-3-9.2-4.4c-6.9-3-14.1-5.4-21.4-7.5c-11-3.2-22.2-6.5-33.8-5.4c-24.9,2.3-37.2,28-41.6,49.7c-2.6,13.2-3,26.7-3.8,40c-0.9,15.1-1.6,30.2-1.6,45.4c0,13.3-7.1,28-0.4,40.7c5.8,10.9,18.1,13.4,27.9,6.2c5-3.7,8.5-9.1,11.2-14.9c3.1,4.9,7.9,8.4,14.7,8.8c9.1,0.6,17.2-3.9,23.2-10.4c3,4,7.6,6.6,12.9,6.6c2.7,0,6-0.7,8.6-2.2c16.8,27.4,30.2,56.9,43.6,86.1c-0.6,2.1,0,4.4,2.5,5.6c0.1,0.1,0.2,0.2,0.3,0.3c0.1,0.2,0.3,0.4,0.5,0.5c-0.4,1.4-0.4,2.9,0.5,4.5c6.4,11.2,21.6,8,31.6,4.6c15.9-5.4,30.8-14.5,45-23.4c12.3-7.7,24.2-16.1,36.5-23.9c8-5.1,16.5-9.1,24.5-14.2c12.4-7.9,24-16.8,35.9-25.4c13-9.4,26.6-17.5,40.2-25.9c12.9-8.1,23.2-19.4,35.5-28.4c8-5.8,17.3-10,23.7-17.7c7.3-8.8,5-19.4-1.8-27.7c-0.4-0.5-0.8-0.9-1.3-1.2c0-0.9-0.2-1.9-0.7-2.8c-6.7-12.3-14-24.3-21.5-36.1c7.2-4.1,12.6-10.4,13.7-19.2c0.7-5.1-1.3-8.9-4.4-12.2c9.3-2.5,17.2-8.2,20-18.4c2.3-8.6-0.7-15.5-6.1-20.7c13.7-2.4,26.7-8.1,34-20.4c7.7-12.9-1.1-23.4-12.1-30.8c8.2-1.1,16.2-2.8,23.7-6c6.3-2.7,12.2-7,13.9-14.1C517.7,57,511.8,49.1,505.9,44.7z M161.3,201.4c27.5-16.3,55.1-32.7,82.7-48.9c12.5-7.4,25.5-14.4,37.6-22.5c9.1-6.1,17.8-12.8,27-18.7c9.5-6.2,21.8-13,33.2-13.8c-2.8,7.3-3,15.9-5.2,23c-4.7,15.3-8.9,30.5-14.8,45.4c-10.9,27.6-20.2,55.8-33.1,82.5c-32.3-0.1-64.6-1.3-96.9-3.1c-16-0.9-32-0.8-48-0.9c-14.4-0.1-28.7-3-43.1-4.4C117.9,223.1,140.9,213.5,161.3,201.4z M129.8,323c-3.7,0.1-6-3.6-5.8-8c0.3-5.8-8.1-6.5-10.4-2c-3.6,6.9-9.7,13.4-17.9,14.1c-8.8,0.7-10.6-9.4-10.7-16c-0.1-6.8-9.1-6-10.9-0.6c-2.8,8.2-7.4,25.4-17.7,27c-5.3,0.8-8.2-5.8-8.5-10c-0.6-6.9,1.4-14,2.6-20.7c1.1-6.5,0.5-13.3,0.6-19.8c0.1-7.8,0.3-15.6,0.7-23.3c0.8-12.8,1.4-25.7,2.8-38.4c2.2-19.8,9.6-49,33.4-52c10.9-1.4,22.3,2.8,32.6,5.7c6.8,2,13.5,4.5,20,7.4c4.5,2,8.9,5.2,13.7,6.7c-22.4,13.4-47.2,23.7-65.2,43.3c-1.4,1.5-1.7,3.1-1.3,4.6c-1.6,1.3-2.5,3.4-1.7,5.9c4.4,14,13.9,25.3,22.3,37.1c4.5,6.3,8,13.2,12,19.8c3.6,5.9,7.3,11.7,11.1,17.5C130.6,321.5,130.1,322.2,129.8,323z M445.6,248.9c0.2,0.4,0.5,0.8,0.8,1.1c0.1,0.9,0.4,1.9,1.2,2.9c2.7,3.3,5.3,6.8,4.4,11.2c-0.8,3.6-4.8,6.5-7.5,8.5c-8.5,6.4-17.7,11.4-25.8,18.3c-5.2,4.4-10.1,9-15.3,13.3c-6.2,5-13.1,9-19.9,13.1c-13,7.7-25.4,16.3-37.6,25.2c-11.9,8.6-23.7,17.3-36.3,24.9c-6.5,3.9-13.2,7.1-19.6,11.2c-12.8,8.4-25.4,17.1-38.5,25.1c-11.6,7.1-23.5,14-36.3,18.8c-4.6,1.7-9.4,3.1-14.4,3.2c-3.1,0.1-4.8-0.8-6-3c0,0-0.1-0.1-0.1-0.1c0.4-1,0.3-2.3-0.3-3.6c-14.9-32.2-29.2-65.1-48.2-95.2c-4.6-7.3-9.3-14.4-13.9-21.7c-4.3-6.8-8-14-12.4-20.7c-6.6-10.3-15.1-19.6-20.4-30.6c13.8,1.3,27.5,3.7,41.3,4.4c16.6,0.8,33.3,0.1,49.9,0.9c33.9,1.7,67.8,3.2,101.8,3.2c1.9,0,3.7-1.4,4.5-3c13.4-27,23-55.7,33.9-83.8c5.5-14,10-28.1,14.2-42.5c1.8-6.1,3.4-11.9,4.5-18.2c0.7-3.9,1.3-9.1,3.5-12.7c4,1.6,7.7,4.4,11,8.8c6.2,8.4,9.8,18.5,14.1,27.9c5.9,12.9,13,25.2,20.4,37.2C414.2,198.3,431.4,222.6,445.6,248.9z M504.1,64.7c-4,4.9-12.4,6.5-18.1,7.8c-8.8,2-17.9,2.7-26.9,3.4c-5.2,0.4-7.2,8.2-2,10.4c9.4,4,30.8,12.4,22.9,25.7c-8.1,13.6-30,14.8-43.9,14.9c-6.3,0-6.6,9.7-0.6,10.9c8.9,1.7,18.3,6.4,16.3,17.1c-1.7,9-14.7,11.6-22.2,11.1c-4.7-0.3-9.8,6-4.7,9.5c3.6,2.5,9.4,5.1,11,9.4c0.8,2.2-1.2,6.1-2.5,7.8c-1.6,2-3.8,3.6-6.1,4.7c-7.6-11.7-15.2-23.5-22.4-35.4c-7.7-12.7-14.4-25.8-20.5-39.4c-4.5-10-9.1-20-17-27.8c-11.9-11.6-27.9-10-42.3-4.5c-1.8-2.1-0.2-6.8,0.3-9.3c1-4.6,2.6-9,4.1-13.5c3.6-10.1,10.8-18.3,20.4-23.2c10.9-5.4,23-6.4,34.9-6.7c16.5-0.5,33,0,49.4,1.8c11.3,1.2,22.7,2.9,34,4.5c9.9,1.4,20,3.3,28.9,8.2c3.1,1.7,6,4.2,7.4,7.4C505.6,61.9,505.3,63.2,504.1,64.7z" />
</svg>