<svg id="Layer_1" data-name="Layer 1" xmlns="http://www.w3.org/2000/svg" viewBox="0 0 533.54 533.54"><defs><style>.cls-1{fill:#fbc036;}.cls-2{fill:#434c4f;}.cls-3{fill:#fff;}</style></defs><title>hiup-logo</title><circle class="cls-1" cx="266.77" cy="266.77" r="266.77"/><path class="cls-2" d="M141.51,262h.43c9.06-11.44,19.21-16.62,31.51-16.62,18.13,0,36.48,11,36.48,38v63.46H178.64V290c0-14.89-6.48-21.8-16.19-21.8-7.34,0-13.59,4.54-20.93,15.11v63.46h-31.3V199.56h31.3Z" transform="translate(-35.23 -22.93)"/><path class="cls-2" d="M262.17,346.77H230.88v-99.5h31.29Zm1.51-131.88a17.27,17.27,0,1,1-17.27-17.26,17.32,17.32,0,0,1,17.27,17.26" transform="translate(-35.23 -22.93)"/><path class="cls-3" d="M352,332.53C342,344,332.32,348.71,319.8,348.71c-19.64,0-36.48-12.09-36.48-37.77V247.27h31.3v61.52c0,14,7.55,19,15.76,19,9.49,0,18.12-7.34,21.37-17.05V247.27h31.51v99.5H352Z" transform="translate(-35.23 -22.93)"/><path class="cls-3" d="M434.41,321.31c6.26,4.53,11.88,6.48,18.14,6.48,15.32,0,24.82-11.66,24.82-30.22,0-19-8.63-30-23.53-30-6.69,0-11.65,1.94-19.43,8Zm0-65.4c8.85-7.33,17.7-10.58,28.49-10.58,25.91,0,46.19,22,46.19,50.51,0,31.94-19.42,52.88-49,52.88a52.59,52.59,0,0,1-25.69-6.91v54.61H403.12V247.27h31.29Z" transform="translate(-35.23 -22.93)"/></svg>