<?xml version="1.0" encoding="utf-8"?>
<!-- Generator: Adobe Illustrator 23.0.2, SVG Export Plug-In . SVG Version: 6.00 Build 0)  -->
<svg version="1.1" id="Layer_1" xmlns="http://www.w3.org/2000/svg" xmlns:xlink="http://www.w3.org/1999/xlink" x="0px" y="0px"
	 viewBox="0 0 500 368.8" style="enable-background:new 0 0 500 368.8;" xml:space="preserve">
<style type="text/css">
	.st0{fill:#ECECEC;}
	.st1{fill:#F0F0F0;}
	.st2{fill:#FAFAFA;}
	.st3{fill:#E7E7E7;}
	.st4{fill:#E1E1E1;}
	.st5{fill:#F5F5F5;}
	.st6{fill:#1A2E35;}
	.st7{opacity:0.5;}
	.st8{fill:#FFFFFF;}
	.st9{opacity:0.7;fill:#FFFFFF;}
	.st10{fill:#007CFF;}
	.st11{opacity:0.4;fill:#FFFFFF;}
	.st12{opacity:0.5;fill:#FFFFFF;}
	.st13{opacity:0.2;fill:#FFFFFF;}
	.st14{opacity:0.4;}
	.st15{opacity:0.3;}
	.st16{opacity:0.3;fill:#FFFFFF;}
	.st17{fill:#E9B276;}
	.st18{opacity:0.6;fill:#FFFFFF;}
	.st19{opacity:0.2;}
	.st20{opacity:0.9;fill:#FFFFFF;}
	.st21{opacity:0.1;}
	.st22{opacity:0.2;enable-background:new    ;}
	.st23{fill:#D28546;}
	.st24{fill:#BA221F;}
</style>
<rect x="416.8" y="343.5" class="st0" width="33.1" height="0.3"/>
<rect x="322.5" y="346.3" class="st0" width="8.7" height="0.3"/>
<rect x="396.6" y="334.3" class="st0" width="19.2" height="0.3"/>
<rect x="52.5" y="335.9" class="st0" width="43.2" height="0.3"/>
<rect x="104.6" y="335.9" class="st0" width="6.3" height="0.3"/>
<rect x="131.5" y="340.2" class="st0" width="93.7" height="0.3"/>
<g>
	<path class="st0" d="M238.4,282.8H45.3c-3.1,0-5.7-2.6-5.7-5.7V5.7c0-3.1,2.6-5.7,5.7-5.7h193.1c3.1,0,5.7,2.6,5.7,5.7v271.4
		C244.1,280.3,241.5,282.8,238.4,282.8z M45.3,0.3c-3,0-5.5,2.4-5.5,5.5v271.4c0,3,2.4,5.5,5.5,5.5h193.1c3,0,5.5-2.4,5.5-5.5V5.7
		c0-3-2.4-5.5-5.5-5.5H45.3z"/>
	<path class="st0" d="M454.7,282.8H261.6c-3.1,0-5.7-2.6-5.7-5.7V5.7c0-3.1,2.6-5.7,5.7-5.7h193.1c3.1,0,5.7,2.6,5.7,5.7v271.4
		C460.4,280.3,457.8,282.8,454.7,282.8z M261.6,0.3c-3,0-5.5,2.4-5.5,5.5v271.4c0,3,2.4,5.5,5.5,5.5h193.1c3,0,5.5-2.4,5.5-5.5V5.7
		c0-3-2.4-5.5-5.5-5.5H261.6z"/>
</g>
<rect y="327.4" class="st0" width="500" height="0.3"/>
<g>
	<g>
		<path class="st1" d="M404.4,94.1h-26.9c-8.5,0-15.4-6.9-15.4-15.4l0-26.9c0-8.5,6.9-15.4,15.4-15.4h26.9c8.5,0,15.4,6.9,15.4,15.4
			l0,26.9C419.8,87.2,412.9,94.1,404.4,94.1z"/>
		<g>
			<path class="st2" d="M398.2,57.1c0,4.9-2.5,8.9-7.4,8.9c-4.9,0-7.4-4-7.4-8.9c0-4.9,2.5-8.9,7.4-8.9
				C395.6,48.2,398.2,52.2,398.2,57.1z"/>
			<path class="st2" d="M390.7,82.3h13.7l0-8.2c0-4.5-6.1-8.2-13.7-8.2c-7.6,0-13.7,3.7-13.7,8.2l0,8.2H390.7z"/>
		</g>
	</g>
	<g>
		<path class="st3" d="M151.5,96.1h-18.8c-6,0-10.8-4.8-10.8-10.8l0-18.8c0-6,4.8-10.8,10.8-10.8h18.8c6,0,10.8,4.8,10.8,10.8
			l0,18.8C162.3,91.3,157.4,96.1,151.5,96.1z"/>
		<g>
			<path class="st2" d="M141.3,78.1c0.5-0.7,1.2-1.5,2.1-2.3c0.7-0.6,1.2-1.1,1.5-1.5c0.3-0.4,0.5-0.9,0.5-1.4
				c0-0.8-0.3-1.3-0.9-1.8c-0.6-0.4-1.4-0.7-2.4-0.7c-1,0-1.8,0.2-2.5,0.6c-0.7,0.4-1.4,1-1.9,1.7l-3.7-2.2c0.9-1.3,2-2.3,3.5-3
				c1.5-0.7,3.2-1.1,5.2-1.1c2.3,0,4.2,0.5,5.6,1.5c1.4,1,2.1,2.4,2.1,4.2c0,0.8-0.1,1.6-0.4,2.2c-0.3,0.6-0.6,1.2-1,1.6
				c-0.4,0.4-0.9,0.9-1.5,1.5c-0.8,0.7-1.3,1.2-1.6,1.7c-0.3,0.5-0.5,1-0.5,1.7h-4.6C140.6,79.7,140.8,78.8,141.3,78.1z M140.8,87.6
				c-0.6-0.5-0.8-1.2-0.8-2c0-0.8,0.3-1.4,0.8-1.9c0.5-0.5,1.3-0.8,2.1-0.8c0.9,0,1.6,0.3,2.1,0.8c0.5,0.5,0.8,1.2,0.8,1.9
				c0,0.8-0.3,1.4-0.8,2c-0.6,0.5-1.3,0.8-2.1,0.8S141.3,88.1,140.8,87.6z"/>
		</g>
	</g>
	<path class="st0" d="M416.2,225.1h-14.5c-4.6,0-8.3-3.7-8.3-8.3v-14.5c0-4.6,3.7-8.3,8.3-8.3h14.5c4.6,0,8.3,3.7,8.3,8.3l0,14.5
		C424.5,221.3,420.8,225.1,416.2,225.1z"/>
	<g>
		<path class="st2" d="M408.3,211.1c0.4-0.5,0.9-1.1,1.6-1.8c0.5-0.5,0.9-0.9,1.1-1.2c0.2-0.3,0.4-0.7,0.4-1.1c0-0.6-0.2-1-0.7-1.4
			c-0.5-0.3-1.1-0.5-1.9-0.5c-0.7,0-1.4,0.2-2,0.5c-0.6,0.3-1.1,0.7-1.5,1.3l-2.9-1.7c0.7-1,1.6-1.8,2.7-2.3c1.1-0.6,2.5-0.8,4-0.8
			c1.8,0,3.3,0.4,4.4,1.2c1.1,0.8,1.6,1.8,1.6,3.2c0,0.6-0.1,1.2-0.3,1.7c-0.2,0.5-0.5,0.9-0.8,1.2c-0.3,0.3-0.7,0.7-1.2,1.2
			c-0.6,0.5-1,1-1.3,1.3c-0.3,0.4-0.4,0.8-0.4,1.3h-3.6C407.7,212.3,407.9,211.7,408.3,211.1z M407.9,218.5
			c-0.4-0.4-0.6-0.9-0.6-1.5c0-0.6,0.2-1.1,0.6-1.5c0.4-0.4,1-0.6,1.6-0.6c0.7,0,1.2,0.2,1.6,0.6c0.4,0.4,0.6,0.9,0.6,1.5
			c0,0.6-0.2,1.1-0.6,1.5c-0.4,0.4-1,0.6-1.6,0.6C408.9,219.1,408.3,218.9,407.9,218.5z"/>
	</g>
	<g>
		<path class="st0" d="M117.1,156.6H98.3c-6,0-10.8-4.8-10.8-10.8V127c0-6,4.8-10.8,10.8-10.8h18.8c6,0,10.8,4.8,10.8,10.8l0,18.8
			C127.9,151.8,123.1,156.6,117.1,156.6z"/>
		<path class="st2" d="M107.7,125c-5,0-9.1,4.1-9.1,9.1c0,5,4.1,17.1,9.1,17.1s9.1-12.1,9.1-17.1C116.8,129.1,112.8,125,107.7,125z
			 M107.7,136.9c-1.5,0-2.8-1.2-2.8-2.8c0-1.5,1.2-2.8,2.8-2.8s2.8,1.2,2.8,2.8C110.5,135.7,109.2,136.9,107.7,136.9z"/>
	</g>
	<path class="st0" d="M111.7,191.5c0.1-0.9,0.2-1.8,0.2-2.8s-0.1-1.9-0.2-2.8l-2.8-0.4c-0.2-1-0.6-2-1-3l2.1-1.9
		c-0.9-1.7-2-3.2-3.3-4.5l-2.5,1.4c-0.8-0.7-1.6-1.3-2.5-1.8l0.5-2.8c-1.6-0.8-3.4-1.4-5.3-1.7l-1.2,2.6c-0.5-0.1-1-0.1-1.6-0.1
		c-0.5,0-1.1,0-1.6,0.1l-1.2-2.6c-1.9,0.3-3.7,0.9-5.3,1.7l0.5,2.8c-0.9,0.5-1.7,1.1-2.5,1.8l-2.5-1.4c-1.3,1.3-2.4,2.8-3.3,4.5
		l2.1,1.9c-0.4,0.9-0.8,1.9-1,3l-2.8,0.4c-0.1,0.9-0.2,1.8-0.2,2.8c0,1,0.1,1.9,0.2,2.8l2.8,0.4c0.2,1,0.6,2,1,3l-2.1,1.9
		c0.9,1.7,2,3.2,3.3,4.5l2.5-1.4c0.8,0.7,1.6,1.3,2.5,1.8l-0.5,2.8c1.6,0.8,3.4,1.4,5.3,1.7l1.2-2.6c0.5,0.1,1,0.1,1.6,0.1
		c0.5,0,1.1,0,1.6-0.1l1.2,2.6c1.9-0.3,3.7-0.9,5.3-1.7l-0.5-2.8c0.9-0.5,1.7-1.1,2.5-1.8l2.5,1.4c1.3-1.3,2.4-2.8,3.3-4.5l-2.1-1.9
		c0.4-0.9,0.8-1.9,1-3L111.7,191.5z M94.1,194.9c-3.4,0-6.2-2.8-6.2-6.2c0-3.4,2.8-6.2,6.2-6.2c3.4,0,6.2,2.8,6.2,6.2
		C100.4,192.1,97.6,194.9,94.1,194.9z"/>
	<path class="st4" d="M120.8,211.6c0.1-0.5,0.1-0.9,0.1-1.4s0-0.9-0.1-1.4l-1.4-0.2c-0.1-0.5-0.3-1-0.5-1.5l1-1
		c-0.4-0.8-1-1.6-1.6-2.3l-1.2,0.7c-0.4-0.3-0.8-0.7-1.3-0.9l0.3-1.4c-0.8-0.4-1.7-0.7-2.7-0.9l-0.6,1.3c-0.3,0-0.5,0-0.8,0
		c-0.3,0-0.5,0-0.8,0l-0.6-1.3c-0.9,0.1-1.8,0.4-2.7,0.9l0.3,1.4c-0.5,0.3-0.9,0.6-1.3,0.9l-1.2-0.7c-0.7,0.7-1.2,1.4-1.6,2.3l1,1
		c-0.2,0.5-0.4,1-0.5,1.5l-1.4,0.2c-0.1,0.5-0.1,0.9-0.1,1.4s0,0.9,0.1,1.4l1.4,0.2c0.1,0.5,0.3,1,0.5,1.5l-1,1
		c0.4,0.8,1,1.6,1.6,2.3l1.2-0.7c0.4,0.3,0.8,0.7,1.3,0.9l-0.3,1.4c0.8,0.4,1.7,0.7,2.7,0.9l0.6-1.3c0.3,0,0.5,0,0.8,0
		c0.3,0,0.5,0,0.8,0l0.6,1.3c0.9-0.1,1.8-0.4,2.7-0.9l-0.3-1.4c0.5-0.3,0.9-0.6,1.3-0.9l1.2,0.7c0.7-0.7,1.2-1.4,1.6-2.3l-1-1
		c0.2-0.5,0.4-1,0.5-1.5L120.8,211.6z M112,213.3c-1.7,0-3.1-1.4-3.1-3.1c0-1.7,1.4-3.1,3.1-3.1c1.7,0,3.1,1.4,3.1,3.1
		C115.1,211.9,113.7,213.3,112,213.3z"/>
	<path class="st1" d="M429.7,191.4c0.4-0.3,0.7-0.6,1.1-0.9c0.3-0.3,0.6-0.7,0.9-1.1l-0.9-1.1c0.3-0.4,0.5-0.9,0.7-1.4l1.4,0
		c0.3-0.9,0.4-1.8,0.4-2.8l-1.4-0.4c0-0.5-0.1-1-0.2-1.5l1.2-0.8c-0.3-0.9-0.7-1.7-1.3-2.5l-1.3,0.5c-0.2-0.2-0.3-0.4-0.5-0.6
		c-0.2-0.2-0.4-0.4-0.6-0.5l0.5-1.3c-0.8-0.6-1.6-1-2.5-1.3l-0.8,1.2c-0.5-0.1-1-0.2-1.5-0.2l-0.4-1.4c-0.9,0-1.9,0.1-2.8,0.4l0,1.4
		c-0.5,0.2-1,0.4-1.4,0.7l-1.1-0.9c-0.4,0.3-0.7,0.6-1.1,0.9c-0.3,0.3-0.6,0.7-0.9,1.1l0.9,1.1c-0.3,0.4-0.5,0.9-0.7,1.4l-1.4,0
		c-0.3,0.9-0.4,1.8-0.4,2.8l1.4,0.4c0,0.5,0.1,1,0.2,1.5L416,187c0.3,0.9,0.7,1.7,1.3,2.5l1.3-0.5c0.2,0.2,0.3,0.4,0.5,0.6
		c0.2,0.2,0.4,0.4,0.6,0.5l-0.5,1.3c0.8,0.6,1.6,1,2.5,1.3l0.8-1.2c0.5,0.1,1,0.2,1.5,0.2l0.4,1.4c0.9,0,1.9-0.1,2.8-0.4l0-1.4
		c0.5-0.2,1-0.4,1.4-0.7L429.7,191.4z M422.3,186.4c-1.2-1.2-1.2-3.2,0-4.4c1.2-1.2,3.2-1.2,4.4,0c1.2,1.2,1.2,3.2,0,4.4
		C425.5,187.6,423.5,187.6,422.3,186.4z"/>
</g>
<ellipse id="_x3C_Path_x3E__1_" class="st5" cx="250" cy="357.4" rx="193.9" ry="11.3"/>
<g>
	<g>
		<g>
			<polygon class="st6" points="285.6,58.8 285.6,43.2 293.2,42.1 293.2,57.7 			"/>
			<polygon class="st6" points="260.1,67.5 254.3,58.4 259.2,54.8 265,64 			"/>
			<polygon class="st6" points="313.8,57.1 319.5,46.4 324.4,48.5 318.7,59.2 			"/>
		</g>
		<g class="st7">
			<polygon class="st8" points="285.6,58.8 285.6,43.2 293.2,42.1 293.2,57.7 			"/>
			<polygon class="st8" points="260.1,67.5 254.3,58.4 259.2,54.8 265,64 			"/>
			<polygon class="st8" points="313.8,57.1 319.5,46.4 324.4,48.5 318.7,59.2 			"/>
		</g>
		<path class="st6" d="M294.3,44.7l-9.8,1.4c-1.6,0.2-2.9-0.9-2.9-2.5l0,0c0-1.6,1.3-3.1,2.9-3.3l9.8-1.4c1.6-0.2,2.9,0.9,2.9,2.5
			l0,0C297.2,43,295.9,44.4,294.3,44.7z"/>
		<path class="st6" d="M260.8,54.6l-7.3,5.2c-0.7,0.5-1.7,0.4-2.1-0.3l0,0c-0.4-0.7-0.2-1.6,0.6-2.2l7.3-5.2
			c0.7-0.5,1.7-0.4,2.1,0.3l0,0C261.8,53.1,261.6,54.1,260.8,54.6z"/>
		<path class="st6" d="M325.2,49.8l-7.3-3.2c-0.7-0.3-1-1.2-0.6-2l0,0c0.4-0.8,1.4-1.2,2.1-0.9l7.3,3.2c0.7,0.3,1,1.2,0.6,2l0,0
			C326.9,49.7,326,50.1,325.2,49.8z"/>
		<path class="st9" d="M294.3,44.7l-9.8,1.4c-1.6,0.2-2.9-0.9-2.9-2.5l0,0c0-1.6,1.3-3.1,2.9-3.3l9.8-1.4c1.6-0.2,2.9,0.9,2.9,2.5
			l0,0C297.2,43,295.9,44.4,294.3,44.7z"/>
		<path class="st9" d="M260.8,54.6l-7.3,5.2c-0.7,0.5-1.7,0.4-2.1-0.3l0,0c-0.4-0.7-0.2-1.6,0.6-2.2l7.3-5.2
			c0.7-0.5,1.7-0.4,2.1,0.3l0,0C261.8,53.1,261.6,54.1,260.8,54.6z"/>
		<path class="st9" d="M325.2,49.8l-7.3-3.2c-0.7-0.3-1-1.2-0.6-2l0,0c0.4-0.8,1.4-1.2,2.1-0.9l7.3,3.2c0.7,0.3,1,1.2,0.6,2l0,0
			C326.9,49.7,326,50.1,325.2,49.8z"/>
	</g>
	<path class="st10" d="M289.4,156.3c-26.6,3.7-48.2-14.8-48.2-41.4c0-26.6,21.6-51.3,48.2-55c26.6-3.7,48.2,14.8,48.2,41.4l6.6-0.9
		c0-30.3-24.5-51.4-54.8-47.1s-54.8,32.2-54.8,62.5s24.5,51.4,54.8,47.1V156.3z"/>
	<g>
		<g>
			<g>
				
					<rect x="265.3" y="145.2" transform="matrix(0.471 -0.8821 0.8821 0.471 13.5482 314.6602)" class="st6" width="7.6" height="1.6"/>
			</g>
			<g>
				
					<rect x="305.8" y="69.4" transform="matrix(0.471 -0.8821 0.8821 0.471 101.8343 310.2715)" class="st6" width="7.6" height="1.6"/>
			</g>
		</g>
		<g>
			
				<rect x="253.5" y="89.4" transform="matrix(0.4003 -0.9164 0.9164 0.4003 67.4742 288.7293)" class="st6" width="1.6" height="6.8"/>
		</g>
		<g>
			
				<rect x="268.3" y="72.5" transform="matrix(0.8467 -0.532 0.532 0.8467 0.8653 154.8309)" class="st6" width="1.6" height="6.8"/>
		</g>
		<g>
			<g>
				
					<rect x="250.5" y="132.5" transform="matrix(0.8125 -0.583 0.583 0.8125 -30.0178 173.2795)" class="st6" width="7.7" height="1.6"/>
			</g>
			<g>
				
					<rect x="320.6" y="82.2" transform="matrix(0.8125 -0.583 0.583 0.8125 12.4754 204.7046)" class="st6" width="7.7" height="1.6"/>
			</g>
		</g>
		<g>
			
				<rect x="245.3" y="112" transform="matrix(0.9903 -0.1392 0.1392 0.9903 -13.3843 35.9181)" class="st6" width="9.7" height="3.2"/>
		</g>
		<g>
			<rect x="287.8" y="64" class="st6" width="3.2" height="9.6"/>
		</g>
		<g>
			<rect x="287.8" y="142.6" class="st6" width="3.2" height="9.6"/>
		</g>
	</g>
	<g>
		<path class="st10" d="M277,97.7L277,97.7c-0.8,0.9-0.8,2.1,0,2.8l10.7,9.2l2.8-3.2l-10.7-9.2C279,96.7,277.7,96.8,277,97.7z"/>
		<path class="st11" d="M277,97.7L277,97.7c-0.8,0.9-0.8,2.1,0,2.8l10.7,9.2l2.8-3.2l-10.7-9.2C279,96.7,277.7,96.8,277,97.7z"/>
	</g>
	<polygon class="st10" points="348.9,99 340.9,109.7 332.9,101.2 	"/>
	<g>
		<path class="st6" d="M310.3,147.3l12.5-1.8l-1.1,5.8l-22.5,3.2l0.9-4.6l13.6-12.5c1.6-1.6,2.8-2.8,3.4-3.8s1-2,1-3
			c0-1-0.4-1.7-1.1-2.2c-0.8-0.5-1.8-0.6-3.3-0.4c-1.2,0.2-2.3,0.6-3.4,1.3c-1.1,0.7-2.1,1.6-2.9,2.7l-4.6-2.7
			c1.2-1.8,2.9-3.4,5-4.7c2.1-1.3,4.4-2.1,7-2.4c2.1-0.3,3.9-0.2,5.5,0.3c1.6,0.5,2.8,1.2,3.7,2.3c0.9,1.1,1.3,2.4,1.3,3.9
			c0,1.8-0.5,3.6-1.5,5.4c-1,1.8-2.8,3.8-5.3,6.1L310.3,147.3z"/>
		<path class="st6" d="M352.6,140.7l-4.9,0.7l-1.2,6.4l-6.7,0.9l1.3-6.4l-16,2.3l0.9-4.8l17.5-21.3l7.5-1.1l-16.3,20.2l7.8-1.1
			l1.1-5.7l6.4-0.9l-1.1,5.7l4.9-0.7L352.6,140.7z"/>
		<path class="st6" d="M372.2,108.4l6.2-0.9l-21.8,43.1l-6.2,0.9L372.2,108.4z"/>
		<path class="st6" d="M302.6,184.1c-1.1-0.2-2-0.5-2.7-0.9l1.5-3c0.7,0.4,1.5,0.7,2.4,0.9c0.9,0.2,1.8,0.2,2.7,0
			c1-0.1,1.8-0.4,2.4-0.8c0.6-0.4,0.9-0.9,0.9-1.5c0-0.5-0.2-0.8-0.7-1c-0.5-0.2-1.2-0.3-2.2-0.5c-1-0.2-1.8-0.3-2.5-0.5
			c-0.6-0.2-1.2-0.5-1.7-1c-0.5-0.5-0.7-1.2-0.7-2.1c0-1,0.3-2,0.9-2.9c0.6-0.9,1.4-1.6,2.5-2.2c1.1-0.6,2.3-1,3.7-1.2
			c1.1-0.1,2-0.2,3-0.1c0.9,0.1,1.7,0.3,2.4,0.6l-1.4,2.9c-0.6-0.3-1.2-0.5-2-0.6c-0.7-0.1-1.5-0.1-2.3,0c-1,0.1-1.8,0.4-2.4,0.9
			c-0.6,0.4-0.9,0.9-0.9,1.5c0,0.3,0.1,0.6,0.4,0.8c0.3,0.2,0.6,0.3,1,0.4c0.4,0.1,0.9,0.2,1.6,0.3c1,0.1,1.8,0.3,2.4,0.5
			c0.6,0.2,1.2,0.5,1.6,1c0.5,0.5,0.7,1.1,0.7,2c0,1.1-0.3,2-0.9,2.9c-0.6,0.9-1.4,1.6-2.5,2.2c-1.1,0.6-2.3,1-3.8,1.2
			C304.9,184.3,303.7,184.3,302.6,184.1z"/>
		<path class="st6" d="M320.9,169.1l-0.7,3.5l7.2-1l-0.6,2.9l-7.2,1l-0.7,3.7l8.5-1.2l-0.6,3l-12,1.7l3.1-16l11.7-1.6l-0.6,3
			L320.9,169.1z"/>
		<path class="st6" d="M344,171.5c-0.8,1.1-1.9,2-3.3,2.7l2.7,4.4l-3.8,0.5l-2.4-4l-3.1,0.4l-0.9,4.5l-3.6,0.5l3.1-16l6.3-0.9
			c1.9-0.3,3.4-0.1,4.5,0.6c1.1,0.7,1.6,1.8,1.6,3.3C345.2,169.1,344.8,170.4,344,171.5z M340.6,170.9c0.7-0.6,1-1.5,1-2.5
			c0-0.7-0.3-1.3-0.8-1.6c-0.5-0.3-1.2-0.4-2.2-0.3l-2.8,0.4l-1.1,5.5l3.1-0.4C339,172,339.9,171.6,340.6,170.9z"/>
		<path class="st6" d="M364,160.1l-9.8,16.9l-3.5,0.5l-3.6-15l3.7-0.5l2.5,10.7l7-12.1L364,160.1z"/>
		<path class="st6" d="M365.3,160l3.6-0.5l-3.1,16l-3.6,0.5L365.3,160z"/>
		<path class="st6" d="M373.6,173.8c-1.2-0.4-2.1-1.1-2.7-2c-0.6-0.9-0.9-2.1-0.9-3.4c0-1.8,0.4-3.4,1.2-4.9
			c0.8-1.5,1.9-2.8,3.4-3.8c1.5-1,3.1-1.7,5-1.9c1.4-0.2,2.6-0.1,3.7,0.2c1.1,0.3,1.9,0.9,2.4,1.7l-2.6,2.5
			c-0.8-1.1-2.1-1.5-3.7-1.3c-1.1,0.2-2.1,0.6-3,1.2c-0.9,0.7-1.5,1.5-2,2.5c-0.5,1-0.7,2-0.7,3.2c0,1.2,0.4,2.1,1.1,2.7
			c0.8,0.6,1.8,0.8,3.2,0.6c1.6-0.2,3-1,4.1-2.4l2.1,1.9c-1.5,2-3.7,3.2-6.6,3.6C376.1,174.2,374.8,174.2,373.6,173.8z"/>
		<path class="st6" d="M391.9,159.1l-0.7,3.5l7.2-1l-0.6,2.9l-7.2,1l-0.7,3.7l8.5-1.2l-0.6,3l-12,1.7l3.1-16l11.7-1.6l-0.6,3
			L391.9,159.1z"/>
		<g>
			<path class="st6" d="M374.2,133.5l6.1-0.5c0,0.3,0,0.5,0,0.7c0,1.5,0.3,2.6,1,3.3c0.7,0.7,1.5,1.1,2.6,1.1c1.5,0,2.8-0.7,4-2.1
				c1.2-1.4,1.8-3.4,1.8-5.8c0-1.5-0.3-2.6-1-3.3s-1.6-1.1-2.7-1.1c-0.8,0-1.6,0.2-2.4,0.6c-0.8,0.4-1.5,0.9-2.2,1.7l-5.1-0.4
				l4.8-16.3h16l-1.2,5.7h-10.6l-1.5,4.9c0.6-0.3,1.2-0.5,1.8-0.6c0.6-0.1,1.2-0.2,1.8-0.2c2.4,0,4.4,0.8,6,2.5
				c1.6,1.6,2.3,3.8,2.3,6.6c0,2.2-0.5,4.4-1.6,6.5c-1.1,2.1-2.6,3.8-4.5,4.9s-4,1.7-6.1,1.7c-2.7,0-4.9-0.9-6.7-2.6
				C375.1,138.8,374.2,136.4,374.2,133.5z"/>
		</g>
	</g>
	<path class="st10" d="M307.7,87L307.7,87c-0.8-0.7-2-0.5-2.8,0.4L290.3,104c-1.4-0.2-3,0.3-4.2,1.6c-1.6,1.9-1.6,4.5,0,6
		c1.6,1.4,4.3,1,6-0.8c1.1-1.3,1.5-3,1-4.3l14.5-16.6C308.4,88.9,308.4,87.7,307.7,87z"/>
</g>
<g>
	<path class="st10" d="M196.5,89.5c-10.7,0-19.4,6.3-19.4,14.1c0,5.7,4.6,10.5,11.2,12.8c-0.7,3.3-1.9,6.4-3.6,9.2
		c5-0.7,9.2-3.7,11.5-7.9c0.1,0,0.1,0,0.2,0c10.7,0,19.4-6.3,19.4-14.1C215.8,95.8,207.2,89.5,196.5,89.5z"/>
	<path class="st9" d="M196.5,89.5c-10.7,0-19.4,6.3-19.4,14.1c0,5.7,4.6,10.5,11.2,12.8c-0.7,3.3-1.9,6.4-3.6,9.2
		c5-0.7,9.2-3.7,11.5-7.9c0.1,0,0.1,0,0.2,0c10.7,0,19.4-6.3,19.4-14.1C215.8,95.8,207.2,89.5,196.5,89.5z"/>
	<g>
		<circle class="st6" cx="187.9" cy="104.3" r="2"/>
		<path class="st6" d="M198.3,104.3c0,1.1-0.9,2-2,2c-1.1,0-2-0.9-2-2c0-1.1,0.9-2,2-2C197.4,102.4,198.3,103.3,198.3,104.3z"/>
		<circle class="st6" cx="204.7" cy="104.3" r="2"/>
	</g>
</g>
<g>
	<g>
		<g>
			<rect x="161.3" y="262.7" class="st6" width="6.6" height="43.2"/>
			<rect x="161.3" y="262.7" class="st12" width="6.6" height="43.2"/>
		</g>
		<path class="st6" d="M184.5,338.2l-15.4-2.8v-30.9c0-1-0.8-1.7-1.7-1.7h-5.7c-1,0-1.7,0.8-1.7,1.7v30.9l-15.4,2.8
			c-2.2,0.4-3.9,2.3-3.9,4.6l23.8-2.2l23.8,2.2C188.4,340.5,186.8,338.6,184.5,338.2z"/>
		<g>
			<path class="st10" d="M145.8,347.5c0,2.8-2.2,5-5,5c-2.8,0-5-2.2-5-5s2.2-5,5-5C143.5,342.5,145.8,344.7,145.8,347.5z"/>
			<path class="st10" d="M193.4,347.5c0,2.8-2.2,5-5,5s-5-2.2-5-5s2.2-5,5-5S193.4,344.7,193.4,347.5z"/>
		</g>
		<path class="st10" d="M168.5,347.5c0,2.8-1.1,5-3.9,5c-2.8,0-3.9-2.2-3.9-5s1.1-5,3.9-5C167.3,342.5,168.5,344.7,168.5,347.5z"/>
		<g class="st7">
			<polygon points="169.3,335.4 169.3,341.1 171.2,341.2 171.2,335.8 			"/>
			<polygon points="158,335.8 158,341.2 159.9,341.1 159.9,335.4 			"/>
		</g>
	</g>
	<g>
		<path class="st6" d="M121.7,223.4c-1.8,0-3.1,1.6-2.8,3.3l6.1,32.9c0.6,3.1,3.3,5.3,6.4,5.3h29.9h36.4h29.9c2.4,0,4.3-1.9,4.3-4.3
			c0-3.4-2.7-6.1-6.1-6.1h-29.9h-25c-3,0-5.6-2-6.3-4.9l-4.9-19.8c-0.9-3.7-4.2-6.3-8.1-6.3H121.7z"/>
		<path class="st6" d="M134.7,249.5l-4.9-19.8c-0.9-3.7-4.2-6.3-8.1-6.3l0,0c-1.8,0-3.1,1.6-2.8,3.3l6.1,32.9
			c0.6,3.1,3.3,5.3,6.4,5.3h66.2c2.4,0,4.3-1.9,4.3-4.3l0,0c0-3.4-2.7-6.1-6.1-6.1H141C138,254.4,135.4,252.4,134.7,249.5z"/>
		<path class="st13" d="M134.7,249.5l-4.9-19.8c-0.9-3.7-4.2-6.3-8.1-6.3l0,0c-1.8,0-3.1,1.6-2.8,3.3l6.1,32.9
			c0.6,3.1,3.3,5.3,6.4,5.3h66.2c2.4,0,4.3-1.9,4.3-4.3l0,0c0-3.4-2.7-6.1-6.1-6.1H141C138,254.4,135.4,252.4,134.7,249.5z"/>
	</g>
</g>
<g>
	<g>
		<path class="st10" d="M372,305.1c0,0,0.1-13.4-4.7-11.6C362.4,295.3,372,305.1,372,305.1z"/>
		<path class="st10" d="M377.2,292.7c0,0,6.4-10.7,0.6-12.2C372,279,377.2,292.7,377.2,292.7z"/>
		<path class="st10" d="M402.7,285.2c0,0,13.4-0.7,10.3-5.7C410,274.5,402.7,285.2,402.7,285.2z"/>
		<path class="st10" d="M381.5,288.7c0,0,14-3.2,11.4,4.7C390.3,301.3,381.5,288.7,381.5,288.7z"/>
		<g>
			<path class="st10" d="M371.4,317.2c0,0-5.4-12.1-8.4-7.8C360,313.7,371.4,317.2,371.4,317.2z"/>
			<path class="st10" d="M386.6,286.2c0,0,14.3-3.7,9.8-9C392,272,386.6,286.2,386.6,286.2z"/>
			<path class="st10" d="M397.4,284.8c0,0,11.3,5.5,6.1,9.2C398.3,297.5,397.4,284.8,397.4,284.8z"/>
			<path class="st10" d="M373.4,299.7c0,0,7.8-9.4,10.2-2.6C386,304,373.4,299.7,373.4,299.7z"/>
		</g>
		<g class="st14">
			<path class="st8" d="M371.4,317.2c0,0-5.4-12.1-8.4-7.8C360,313.7,371.4,317.2,371.4,317.2z"/>
			<path class="st8" d="M386.6,286.2c0,0,14.3-3.7,9.8-9C392,272,386.6,286.2,386.6,286.2z"/>
			<path class="st8" d="M397.4,284.8c0,0,11.3,5.5,6.1,9.2C398.3,297.5,397.4,284.8,397.4,284.8z"/>
			<path class="st8" d="M373.4,299.7c0,0,7.8-9.4,10.2-2.6C386,304,373.4,299.7,373.4,299.7z"/>
		</g>
		<path class="st10" d="M371.3,311.9c0,0,5.6-12,10.1-6C385.9,312,371.3,311.9,371.3,311.9z"/>
		<g>
			<path class="st10" d="M371.4,324.5c-1.6-7.6-1.6-16.2,0.7-23.6c4.6-15,18.6-18.5,32.8-16.3c1.1,0.2,0.6,1.9-0.5,1.7
				c-7.5-1.2-16-1.3-22.6,3.2c-4.7,3.3-7.4,8.5-8.6,14c-1.5,6.6-1.5,13.9-0.1,20.5C373.3,325.2,371.6,325.7,371.4,324.5L371.4,324.5
				z"/>
		</g>
		<g class="st15">
			<path d="M371.4,324.5c-1.6-7.6-1.6-16.2,0.7-23.6c4.6-15,18.6-18.5,32.8-16.3c1.1,0.2,0.6,1.9-0.5,1.7c-7.5-1.2-16-1.3-22.6,3.2
				c-4.7,3.3-7.4,8.5-8.6,14c-1.5,6.6-1.5,13.9-0.1,20.5C373.3,325.2,371.6,325.7,371.4,324.5L371.4,324.5z"/>
		</g>
	</g>
	<g>
		<path class="st10" d="M360.2,301c0,0-7-16.3-11.5-12.1C344.1,293.2,360.2,301,360.2,301z"/>
		<path class="st10" d="M359.6,283.7c0,0,1.7-15.8-5.8-15.1C346.4,269.2,359.6,283.7,359.6,283.7z"/>
		<path class="st10" d="M384.6,263.4c0,0,14.9-6.7,8.8-11.4C387.3,247.2,384.6,263.4,384.6,263.4z"/>
		<path class="st10" d="M362.4,277c0,0,14.3-10,15.5,0.8C379,288.4,362.4,277,362.4,277z"/>
		<g>
			<path class="st10" d="M365.9,316c0,0-12.6-12.4-13.7-5.8C351.1,316.7,365.9,316,365.9,316z"/>
			<path class="st10" d="M366.9,271.7c0,0,14.3-10.8,6.4-15.2C365.4,252,366.9,271.7,366.9,271.7z"/>
			<path class="st10" d="M378.4,265.2c0,0,15.8,1.8,11.8,8.5C386.1,280.3,378.4,265.2,378.4,265.2z"/>
			<path class="st10" d="M359,293.9c0,0,3.9-14.9,10.3-7.6C375.7,293.5,359,293.9,359,293.9z"/>
		</g>
		<g class="st14">
			<path class="st8" d="M365.9,316c0,0-12.6-12.4-13.7-5.8C351.1,316.7,365.9,316,365.9,316z"/>
			<path class="st8" d="M366.9,271.7c0,0,14.3-10.8,6.4-15.2C365.4,252,366.9,271.7,366.9,271.7z"/>
			<path class="st8" d="M378.4,265.2c0,0,15.8,1.8,11.8,8.5C386.1,280.3,378.4,265.2,378.4,265.2z"/>
			<path class="st8" d="M359,293.9c0,0,3.9-14.9,10.3-7.6C375.7,293.5,359,293.9,359,293.9z"/>
		</g>
		<path class="st10" d="M363.1,309.7c0,0,0-17.1,8.3-11.7C379.8,303.4,363.1,309.7,363.1,309.7z"/>
		<g>
			<path class="st10" d="M369.9,325c-5.9-8.6-10.4-19-11.7-29.1c-2.7-20.2,11.4-30.7,28.8-34.1c1.4-0.3,1.7,2,0.3,2.3
				c-9.2,1.8-19,5.4-24,13.8c-3.6,6.1-3.9,13.6-2.4,20.8c1.7,8.7,5.7,17.6,10.8,25C372.4,324.9,370.7,326.2,369.9,325L369.9,325z"/>
		</g>
		<g class="st15">
			<path d="M369.9,325c-5.9-8.6-10.4-19-11.7-29.1c-2.7-20.2,11.4-30.7,28.8-34.1c1.4-0.3,1.7,2,0.3,2.3c-9.2,1.8-19,5.4-24,13.8
				c-3.6,6.1-3.9,13.6-2.4,20.8c1.7,8.7,5.7,17.6,10.8,25C372.4,324.9,370.7,326.2,369.9,325L369.9,325z"/>
		</g>
	</g>
	<g>
		<path class="st10" d="M358.6,305.3c0,0,3.3-11.1,6.9-8.4C369,299.7,358.6,305.3,358.6,305.3z"/>
		<path class="st10" d="M357.4,293.8c0,0-2.6-10.5,2.6-10.2C365.2,283.8,357.4,293.8,357.4,293.8z"/>
		<path class="st10" d="M338.3,281c0,0-10.9-4-7.1-7.4C335,270.3,338.3,281,338.3,281z"/>
		<path class="st10" d="M354.9,289.4c0,0-10.8-6.2-10.6,1C344.4,297.5,354.9,289.4,354.9,289.4z"/>
		<g>
			<path class="st10" d="M356,315.5c0,0,7.6-8.6,8.9-4.3C366.3,315.5,356,315.5,356,315.5z"/>
			<path class="st10" d="M351.3,286c0,0-10.8-6.8-5.8-10C350.6,272.8,351.3,286,351.3,286z"/>
			<path class="st10" d="M342.8,282c0,0-10.7,1.7-7.4,6C338.8,292.3,342.8,282,342.8,282z"/>
			<path class="st10" d="M358.8,300.5c0,0-4-9.8-7.8-4.7C347.2,300.8,358.8,300.5,358.8,300.5z"/>
		</g>
		<g class="st14">
			<path class="st8" d="M356,315.5c0,0,7.6-8.6,8.9-4.3C366.3,315.5,356,315.5,356,315.5z"/>
			<path class="st8" d="M351.3,286c0,0-10.8-6.8-5.8-10C350.6,272.8,351.3,286,351.3,286z"/>
			<path class="st8" d="M342.8,282c0,0-10.7,1.7-7.4,6C338.8,292.3,342.8,282,342.8,282z"/>
			<path class="st8" d="M358.8,300.5c0,0-4-9.8-7.8-4.7C347.2,300.8,358.8,300.5,358.8,300.5z"/>
		</g>
		<path class="st10" d="M357.4,311.2c0,0-1.5-11.4-6.8-7.5C345.3,307.5,357.4,311.2,357.4,311.2z"/>
		<g>
			<path class="st10" d="M354.1,321.6c3.3-5.9,5.5-13,5.5-19.7c0.1-13.6-10.6-20.1-22.9-21.9c-1-0.1-1,1.4,0,1.5
				c6.5,0.9,13.6,3,17.8,8.5c3,3.9,3.9,8.9,3.5,13.8c-0.4,5.8-2.3,11.9-5.2,17C352.3,321.6,353.6,322.4,354.1,321.6L354.1,321.6z"/>
		</g>
		<g class="st15">
			<path d="M354.1,321.6c3.3-5.9,5.5-13,5.5-19.7c0.1-13.6-10.6-20.1-22.9-21.9c-1-0.1-1,1.4,0,1.5c6.5,0.9,13.6,3,17.8,8.5
				c3,3.9,3.9,8.9,3.5,13.8c-0.4,5.8-2.3,11.9-5.2,17C352.3,321.6,353.6,322.4,354.1,321.6L354.1,321.6z"/>
		</g>
	</g>
	<path class="st10" d="M385.2,318.7l-3.9,29.2c-0.5,3.8-3.7,6.6-7.5,6.6h-24.1c-3.8,0-7-2.8-7.5-6.6l-3.9-29.2H385.2z"/>
	<path class="st16" d="M385.2,318.7l-3.9,29.2c-0.5,3.8-3.7,6.6-7.5,6.6h-24.1c-3.8,0-7-2.8-7.5-6.6l-3.9-29.2H385.2z"/>
</g>
<g>
	<path class="st6" d="M175.3,129.3c0,0,10.9,3.3,5.8,11.3l-4.8-6.9L175.3,129.3z"/>
	<polygon class="st17" points="214.7,171 219.5,164 224.2,165.5 225,167.4 219.2,175.8 	"/>
	<path class="st10" d="M221.8,172.8c-4.8,7.5-12.3,18.4-15.2,17.8c-8.5-1.9-20.1-9.9-26.1-18.7c-1.9-2.8-1.3-6.5,1.3-8.6l0-0.1
		c2.7-2.2,6.8-1.8,9,0.9c0.1,0.1,0.2,0.3,0.3,0.4c5.3,7.6,12,14.8,13.1,15.4c1.3,0.7,4.6-2.4,11.7-11.4L221.8,172.8z"/>
	<path class="st18" d="M221.8,172.8c-4.8,7.5-12.3,18.4-15.2,17.8c-8.5-1.9-20.1-9.9-26.1-18.7c-1.9-2.8-1.3-6.5,1.3-8.6l0-0.1
		c2.7-2.2,6.8-1.8,9,0.9c0.1,0.1,0.2,0.3,0.3,0.4c5.3,7.6,12,14.8,13.1,15.4c1.3,0.7,4.6-2.4,11.7-11.4L221.8,172.8z"/>
	<path class="st17" d="M221.9,166.8l9.4,1.9l-4.4-7.9c0,0-5.7,0-7.5,3.3L221.9,166.8z"/>
	<path class="st19" d="M194.5,185.1c-6.8-4.7-7.8-15.7-7.8-15.7l-3.9-1.8l-1.8,4.9C184.4,177.4,189.4,181.8,194.5,185.1z"/>
	<polygon class="st17" points="238,165.2 234,158.8 226.9,160.7 231.3,168.6 	"/>
	<path class="st10" d="M185.5,209.2l-33.5,2.2c0,0-0.2-9-1.4-17.3c-0.4-2.9-0.9-5.7-1.7-8.5c-0.9-2.9-2-6.1-3.3-9.8
		c-0.2-0.5-0.3-0.9-0.5-1.4c-0.4-1.2-0.9-2.4-1.4-3.6v-0.1c-1-2.6,0.3-5.4,2.9-6.4c0.2-0.1,0.5-0.2,0.7-0.2c2.1-0.5,4.3-0.9,6.5-1.2
		l1.9-0.3c5-0.7,10.1-1.2,15.2-1.4c2.6,0,5.4,0.1,7.8,0.2l2,0.1c2.5,0.2,4.3,0.3,4.3,0.3s1.1,0.2,1.7,6.1c0,0.3,0.1,0.6,0.1,1
		c0.1,1.2,0.2,2.8,0.2,4.6C187,181.1,186.6,193.8,185.5,209.2z"/>
	<path class="st18" d="M185.5,209.2l-33.5,2.2c0,0-0.2-9-1.4-17.3c-0.4-2.9-0.9-5.7-1.7-8.5c-0.9-2.9-2-6.1-3.3-9.8
		c-0.2-0.5-0.3-0.9-0.5-1.4c-0.4-1.2-0.9-2.4-1.4-3.6v-0.1c-1-2.6,0.3-5.4,2.9-6.4c0.2-0.1,0.5-0.2,0.7-0.2c2.1-0.5,4.3-0.9,6.5-1.2
		l1.9-0.3c5-0.7,10.1-1.2,15.2-1.4c2.6,0,5.4,0.1,7.8,0.2l2,0.1c2.5,0.2,4.3,0.3,4.3,0.3s1.1,0.2,1.7,6.1c0,0.3,0.1,0.6,0.1,1
		c0.1,1.2,0.2,2.8,0.2,4.6C187,181.1,186.6,193.8,185.5,209.2z"/>
	<path class="st10" d="M156.7,162.4l8.4,11.1l6-5.1l7.8,3.8l-4.2-10.9c-1.3,0-2.6-0.1-3.9-0.1C166.1,161.4,161.4,161.8,156.7,162.4z
		"/>
	<path class="st20" d="M156.7,162.4l8.4,11.1l6-5.1l7.8,3.8l-4.2-10.9c-1.3,0-2.6-0.1-3.9-0.1C166.1,161.4,161.4,161.8,156.7,162.4z
		"/>
	<polygon class="st17" points="230.7,343.6 223.6,343.6 226.9,289.8 240.2,289.8 	"/>
	<path class="st6" d="M222.8,342.9c-0.1-0.7,8.4-1.3,8.4-1.3s5.9,4.6,11.1,5c5.2,0.5,2.8,3.9-2.8,4.7l-13.9,1.9
		C221.6,353.9,223.6,350.1,222.8,342.9z"/>
	<path class="st10" d="M235.5,343.2c-1.1-0.1-2.2-0.3-3.2-0.6c0,0-0.1,0-0.1-0.1l0,0l0,0c0-0.1,0-0.1,0-0.2c0-0.1,0.5-2.2,1.6-2.8
		c0.3-0.2,0.7-0.2,1.1-0.1c0.5,0.2,0.7,0.5,0.7,0.7c0,0.4-0.4,0.9-1,1.4c0.6-0.2,1.2-0.2,1.7,0c0.3,0.1,0.5,0.3,0.6,0.5
		c0.2,0.3,0.1,0.7-0.1,1C236.4,343.2,236,343.3,235.5,343.2z M233.2,342.3c1.3,0.3,2.8,0.6,3.1,0.2c0.1-0.1,0.1-0.2,0-0.4
		c0-0.1-0.1-0.2-0.3-0.2C235.1,341.8,234.1,341.9,233.2,342.3z M234.4,339.8c-0.1,0-0.3,0-0.4,0.1c-0.6,0.5-1,1.2-1.2,1.9
		c1.1-0.6,2.2-1.4,2.2-1.8c0-0.1-0.1-0.1-0.3-0.2C234.6,339.8,234.5,339.8,234.4,339.8z"/>
	<polygon class="st19" points="226.3,299.2 238.5,299.6 240.2,289.8 226.9,289.8 	"/>
	<polygon class="st17" points="196.5,344.5 189.7,343.6 200.5,284 214,287.9 	"/>
	<path class="st6" d="M188.8,342.7c0-0.7,8.5,0,8.5,0s5.2,5.4,10.2,6.6c5.1,1.2,2.2,4.3-3.5,4.2l-14.1-0.2
		C185.9,353.3,188.5,349.8,188.8,342.7z"/>
	<path class="st10" d="M201.8,344.9c-1.2-0.2-2.5-0.5-3.6-1.1l-0.1-0.1l0,0c0,0,0-0.1,0-0.1c0-0.1,0-0.1,0-0.2c0-0.1,0.8-2.1,2-2.6
		c0.4-0.2,0.7-0.2,1.1,0c0.5,0.3,0.6,0.6,0.6,0.8c0,0.4-0.5,0.8-1.2,1.2c0.6-0.1,1.2,0,1.7,0.3c0.2,0.1,0.4,0.3,0.5,0.6
		c0.1,0.3,0,0.7-0.2,0.9C202.3,344.8,202.1,344.9,201.8,344.9z M199.1,343.6c1.2,0.5,2.7,1,3,0.7c0.1-0.1,0.1-0.2,0-0.4
		c0-0.1-0.1-0.2-0.2-0.3C201,343.3,200,343.4,199.1,343.6z M200.5,341.3c-0.1,0-0.2,0-0.3,0.1c-0.6,0.4-1.1,1-1.4,1.7
		c1.2-0.5,2.4-1.1,2.4-1.4c0-0.1-0.1-0.2-0.3-0.2C200.8,341.4,200.7,341.3,200.5,341.3L200.5,341.3z"/>
	<polygon class="st19" points="214,287.9 200.5,284 198.4,295.8 210.9,298 	"/>
	<path class="st10" d="M223.3,294.4l17.2,0.9c4.4-20.2,8.8-42.5,7.9-47.4c-1.6-9.4-14.4-18.9-63.8-27l-23,34.6
		c0,0,33.6-1.6,64.3-1.6C225.9,253.9,224.2,273.2,223.3,294.4z"/>
	<path class="st21" d="M223.3,294.4l17.2,0.9c4.4-20.2,8.8-42.5,7.9-47.4c-1.6-9.4-14.4-18.9-63.8-27l-23,34.6
		c0,0,33.6-1.6,64.3-1.6C225.9,253.9,224.2,273.2,223.3,294.4z"/>
	<polygon class="st10" points="222.2,291.7 222.7,296.2 241.5,296.9 242.4,292.7 	"/>
	<path class="st17" d="M173.6,161.3c-1,0-1.9,0-2.9,0c-4.2,0.1-8.3,0.5-12.4,1c1.8,2.1,7.4,5.5,11.2,5.5
		C174.7,167.7,173.5,163.8,173.6,161.3z"/>
	<path class="st10" d="M196.7,290.9l17.5,2.9c7.1-19.9,14.2-41.1,14.1-45.9c-0.2-9.5-2.3-14.5-36.8-22.1c0,0-1.8-2.7-6-16.5
		l-33.5,2.2c0,0-15.3,28.2-3.5,40.2c2.6,2.7,7.8,3.9,13,3.8c0,0,12.1,0.1,42-1.3C203.5,254.2,200,271.2,196.7,290.9z"/>
	<polygon class="st10" points="196,287.9 216.3,291.3 214.4,295.6 195.9,292.5 	"/>
	<polygon class="st21" points="222.2,291.7 222.7,296.2 241.5,296.9 242.4,292.7 	"/>
	<path class="st17" d="M171.1,158.4c-0.4,2.5-0.3,5,0.3,7.4l-9.2-1.3c-0.8-0.1-1.3-1-1-1.8c1.3-2.9,1.8-8.6,2.1-11.3
		c0.2-1.6,0.2-3.1,0.3-4.1c0-1,0-1.4,0-1.4l4.1,1.9l6.7,3.1C172.8,153.1,171.7,155.7,171.1,158.4z"/>
	<path class="st22" d="M174.4,150.8c-1.6,2.3-2.7,4.8-3.3,7.5c-3.4-1.3-6.1-3.8-7.8-7c0.2-1.6,0.2-3.1,0.3-4.1
		c1.5,0.1,2.8,0.3,4.1,0.5L174.4,150.8z"/>
	<g>
		<path class="st10" d="M174.9,144.3c-0.3,3.1,1.3,5.6,3.5,5.6c2.2,0,4.2-2.5,4.5-5.6c0.3-3.1-1.3-5.6-3.5-5.6
			C177.1,138.7,175.1,141.2,174.9,144.3z"/>
		<path class="st7" d="M174.5,144.3c-0.3,3.1,1.3,5.6,3.5,5.6c2.2,0,4.2-2.5,4.5-5.6c0.3-3.1-1.3-5.6-3.5-5.6
			C176.7,138.7,174.7,141.2,174.5,144.3z"/>
	</g>
	<path class="st17" d="M159.1,138.9c1.6,7.5,2.2,12,6.7,15.4c6.7,5.2,15.5,0.6,16.2-7.2c0.6-7-2.2-18.1-10.1-20.3
		C164,124.7,157.4,131.3,159.1,138.9z"/>
	<path class="st17" d="M157.3,146.7c1.3,1.6,3.2,2.6,4.8,2.8c2.4,0.4,2.9-1.8,1.7-3.9c-1.1-1.9-3.6-4.4-5.7-3.9
		C156,142.3,155.8,144.9,157.3,146.7z"/>
	<path class="st6" d="M170.9,139.6c0.1,0.6,0.5,1.1,0.9,1c0.4,0,0.7-0.6,0.6-1.2c-0.1-0.6-0.5-1.1-0.9-1
		C171.1,138.5,170.8,139,170.9,139.6z"/>
	<path class="st6" d="M177.9,138.8c0.1,0.6,0.5,1.1,0.9,1c0.4,0,0.7-0.6,0.6-1.2c-0.1-0.6-0.5-1.1-0.9-1
		C178.1,137.6,177.9,138.2,177.9,138.8z"/>
	<path class="st23" d="M175.8,139.3c0,0,2,3.4,3.8,4.9c-0.9,1.1-2.9,0.9-2.9,0.9L175.8,139.3z"/>
	<path class="st6" d="M168.4,137.6c-0.1,0-0.1,0-0.2,0c-0.2-0.1-0.2-0.3-0.1-0.5c1-1.8,2.7-1.9,2.7-1.9c0.2,0,0.4,0.1,0.4,0.3
		c0,0.2-0.1,0.4-0.3,0.4c-0.1,0-1.4,0.1-2.1,1.5C168.7,137.5,168.6,137.6,168.4,137.6z"/>
	<path class="st6" d="M180.6,136c-0.1,0-0.2-0.1-0.3-0.2c-0.9-1.4-2.3-1.4-2.3-1.4c-0.2,0-0.4-0.2-0.4-0.4c0-0.2,0.2-0.4,0.4-0.4
		c0,0,0,0,0,0c0.1,0,1.8,0,2.9,1.7c0.1,0.2,0.1,0.4-0.1,0.5C180.7,136,180.7,136,180.6,136z"/>
	<path class="st6" d="M160.5,148.8c0,0,4.8-4.9,2.4-16.9c0,0,3.8,3.3,12.8,0.9c0,0-5.3,0.5-7.7-2c0,0,4.9,2.3,12.9,0
		c0,0-1.4-8.1-10-8.5c0,0,2.8-2.3,5.4-1.9c0,0-2.7-2.4-9.7,2.2l-2.7,1.1c0,0-7.7-2.8-12,3.8C148.6,132.6,150.3,148.9,160.5,148.8z"
		/>
	<g>
		<path class="st6" d="M178.1,146.5c0,0-2.4-0.6-9.2-0.8c0.8,2.1,2.2,3.8,5.7,3.8C178,149.6,178.1,146.5,178.1,146.5z"/>
		<path class="st24" d="M173,148c1.7,0,2.9,0.4,3.8,1.1c-0.5,0.3-1.2,0.6-2.2,0.6c-1.7,0-2.9-0.4-3.8-1.1
			C171.3,148.2,172,147.9,173,148z"/>
		<path class="st8" d="M177.8,146.5c-0.2,0.4-0.4,0.9-1.1,1c-1.4,0.1-5.1-0.4-6-0.6c-0.6-0.1-1.2-0.3-1.5-1
			C174.4,145.9,176.9,146.3,177.8,146.5z"/>
	</g>
	<g>
		<path class="st10" d="M156.8,141.5v-8.1c0-5,3.3-9.3,7.9-10.6l2.7-0.5c-4.7,1.4-8.1,5.8-8.1,10.9v8.3H156.8z"/>
		<path class="st10" d="M163.1,145.4c0.3,3.1-1.3,5.6-3.5,5.6c-2.2,0-4.2-2.5-4.5-5.6c-0.3-3.1,1.3-5.6,3.5-5.6
			C160.8,139.8,162.8,142.3,163.1,145.4z"/>
		<path class="st7" d="M163.1,145.4c0.3,3.1-1.3,5.6-3.5,5.6c-2.2,0-4.2-2.5-4.5-5.6c-0.3-3.1,1.3-5.6,3.5-5.6
			C160.8,139.8,162.8,142.3,163.1,145.4z"/>
		<path class="st10" d="M161.8,145.4c0.3,3.1-1.3,5.6-3.5,5.6s-4.2-2.5-4.5-5.6c-0.3-3.1,1.3-5.6,3.5-5.6
			C159.5,139.8,161.5,142.3,161.8,145.4z"/>
		<path class="st16" d="M159,146.2l-0.2-1.6h0.3c-0.4-1.6-1.5-2.8-2.7-2.8c-1.2,0-2.1,1.2-2.3,2.8h0.2l0.2,1.6h-0.2
			c0.4,1.6,1.5,2.8,2.7,2.8c1.2,0,2.1-1.2,2.3-2.8H159z"/>
	</g>
	<g>
		<g>
			<g>
				<path class="st17" d="M144.6,146l4.4-8.6l3.5,8.3c0,0-3.5,4.5-7.2,3.8L144.6,146z"/>
				<polygon class="st17" points="155.8,134.3 158.4,141.4 152.5,145.8 149,137.4 				"/>
			</g>
			<polygon class="st17" points="145.8,155.3 150,148.2 149.5,145.4 145.8,144 140.6,152.3 			"/>
		</g>
		<path class="st10" d="M148.8,150.9l-7.7,16.9c0,0,3.7-3.3,5.8-3.8c3.3-0.8,13.2,2.2,3.1,13.1c0,0-19.9,12.4-23.9,7.6
			c-3.1-3.7,10.2-26.5,16.4-36.4L148.8,150.9z"/>
		<path class="st18" d="M148.8,150.9l-7.7,16.9c0,0,3.7-3.3,5.8-3.8c3.3-0.8,13.2,2.2,3.1,13.1c0,0-19.9,12.4-23.9,7.6
			c-3.1-3.7,10.2-26.5,16.4-36.4L148.8,150.9z"/>
		<path class="st19" d="M141.1,167.8l-2.2,6.6l6.3-9.7C143.3,165.9,141.1,167.8,141.1,167.8z"/>
	</g>
	<g>
		<g>
			<g>
				<path class="st10" d="M169.9,152.8c-1,0-1.9,0-2.5-0.2c-1.7-0.4-6-2.7-6.2-2.8l0.4-0.7c0,0,4.4,2.4,6,2.8c1.5,0.3,6.4,0,6.4,0
					l0.1,0.8C173.9,152.7,171.8,152.8,169.9,152.8z"/>
			</g>
			<path class="st10" d="M170.8,153l4-0.3c0,0-0.1-1.2-2-1.2C170.9,151.5,170.8,153,170.8,153z"/>
		</g>
		<g class="st7">
			<g>
				<path d="M169.9,152.8c-1,0-1.9,0-2.5-0.2c-1.7-0.4-6-2.7-6.2-2.8l0.4-0.7c0,0,4.4,2.4,6,2.8c1.5,0.3,6.4,0,6.4,0l0.1,0.8
					C173.9,152.7,171.8,152.8,169.9,152.8z"/>
			</g>
			<path d="M170.8,153l4-0.3c0,0-0.1-1.2-2-1.2C170.9,151.5,170.8,153,170.8,153z"/>
		</g>
	</g>
</g>
<g>
	<g>
		<g>
			<path class="st10" d="M330.1,353.6c-0.8,0.1-1.6-0.6-1.7-1.6l-10-115.8c-0.2-2.2-1.8-3.9-3.7-3.9h-47.2c-1.9,0-3.5,1.7-3.7,3.9
				l-10,115.8c-0.1,1-0.8,1.7-1.7,1.6l0,0c-0.8-0.1-1.4-1-1.4-1.9l10-115.8c0.4-4,3.2-7.1,6.7-7.1h47.2c3.5,0,6.4,3.1,6.7,7.1
				l10,115.8C331.5,352.6,330.9,353.5,330.1,353.6L330.1,353.6z"/>
		</g>
		<g class="st14">
			<path d="M330.1,353.6c-0.8,0.1-1.6-0.6-1.7-1.6l-10-115.8c-0.2-2.2-1.8-3.9-3.7-3.9h-47.2c-1.9,0-3.5,1.7-3.7,3.9l-10,115.8
				c-0.1,1-0.8,1.7-1.7,1.6l0,0c-0.8-0.1-1.4-1-1.4-1.9l10-115.8c0.4-4,3.2-7.1,6.7-7.1h47.2c3.5,0,6.4,3.1,6.7,7.1l10,115.8
				C331.5,352.6,330.9,353.5,330.1,353.6L330.1,353.6z"/>
		</g>
		<path class="st6" d="M329.4,234.4H201c-1.1,0-2-0.9-2-2v-6.6c0-1.1,0.9-2,2-2h128.4c1.1,0,2,0.9,2,2v6.6
			C331.4,233.5,330.5,234.4,329.4,234.4z"/>
		<path class="st13" d="M329.4,234.4h-56.1v-10.6h56.1c1.1,0,2,0.9,2,2v6.6C331.4,233.5,330.5,234.4,329.4,234.4z"/>
		<g>
			<g>
				<path class="st10" d="M278.3,353.6c-0.8,0.1-1.6-0.6-1.7-1.6l-10-115.8c-0.2-2.2-1.8-3.9-3.7-3.9h-47.2c-1.9,0-3.5,1.7-3.7,3.9
					L202,352c-0.1,1-0.8,1.7-1.7,1.6l0,0c-0.8-0.1-1.4-1-1.4-1.9l10-115.8c0.4-4,3.2-7.1,6.7-7.1h47.2c3.5,0,6.4,3.1,6.7,7.1
					l10,115.8C279.8,352.6,279.2,353.5,278.3,353.6L278.3,353.6z"/>
			</g>
			<g class="st14">
				<path d="M278.3,353.6c-0.8,0.1-1.6-0.6-1.7-1.6l-10-115.8c-0.2-2.2-1.8-3.9-3.7-3.9h-47.2c-1.9,0-3.5,1.7-3.7,3.9L202,352
					c-0.1,1-0.8,1.7-1.7,1.6l0,0c-0.8-0.1-1.4-1-1.4-1.9l10-115.8c0.4-4,3.2-7.1,6.7-7.1h47.2c3.5,0,6.4,3.1,6.7,7.1l10,115.8
					C279.8,352.6,279.2,353.5,278.3,353.6L278.3,353.6z"/>
			</g>
		</g>
	</g>
	<g>
		<g>
			<path class="st6" d="M276.6,223.8h-33.6c-1,0-1.8-0.8-1.8-1.8v-3.5h37.1v3.5C278.4,223,277.6,223.8,276.6,223.8z"/>
			<path class="st13" d="M276.6,223.8h-33.6c-1,0-1.8-0.8-1.8-1.8v-3.5h37.1v3.5C278.4,223,277.6,223.8,276.6,223.8z"/>
		</g>
		<g>
			<path class="st6" d="M250.4,223.8h-33.6c-1,0-1.8-0.8-1.8-1.8v-3.5h37.1v3.5C252.2,223,251.4,223.8,250.4,223.8z"/>
			<path class="st18" d="M250.4,223.8h-33.6c-1,0-1.8-0.8-1.8-1.8v-3.5h37.1v3.5C252.2,223,251.4,223.8,250.4,223.8z"/>
			<rect x="244.5" y="220.5" class="st6" width="3.4" height="1.2"/>
			<rect x="238.9" y="220.5" class="st6" width="3.4" height="1.2"/>
		</g>
		<g>
			<path class="st6" d="M281,223.8l1.8,0c1,0,1.9-0.7,2.1-1.7l6-36.9c0.2-1.3-0.8-2.4-2-2.4l-28.8-0.1l-7.8,41l1.8,0L281,223.8z"/>
			<path class="st18" d="M281,223.8l1.8,0c1,0,1.9-0.7,2.1-1.7l6-36.9c0.2-1.3-0.8-2.4-2-2.4l-28.8-0.1l-7.8,41l1.8,0L281,223.8z"/>
			<path class="st19" d="M252.7,221.1l-0.5,2.6l1.8,0l27,0l1.8,0c1,0,1.9-0.7,2.1-1.7l0.1-0.9L252.7,221.1z"/>
			<path class="st6" d="M252.2,223.8h1.8c1,0,1.9-0.7,2-1.7l5.9-36.9c0.2-1.3-0.8-2.4-2-2.4l0,0L252.2,223.8z"/>
			<path class="st16" d="M252.2,223.8h1.8c1,0,1.9-0.7,2-1.7l5.9-36.9c0.2-1.3-0.8-2.4-2-2.4l0,0L252.2,223.8z"/>
		</g>
	</g>
</g>
</svg>
