<?xml version="1.0" encoding="utf-8"?>
<!-- Generator: Adobe Illustrator 23.0.2, SVG Export Plug-In . SVG Version: 6.00 Build 0)  -->
<svg version="1.1" id="Layer_1" xmlns="http://www.w3.org/2000/svg" xmlns:xlink="http://www.w3.org/1999/xlink" x="0px" y="0px"
	 viewBox="0 0 635.5 429" style="enable-background:new 0 0 635.5 429;" xml:space="preserve">
<style type="text/css">
	.st0{fill:none;stroke:#D3C6FC;stroke-width:1.0481;stroke-miterlimit:10;}
	.st1{fill:#8F9AF8;}
	.st2{fill:#B8C3FF;}
	.st3{fill:#FFFFFF;}
	.st4{fill:#FFFFFF;stroke:#BBABF8;stroke-width:1.0481;stroke-miterlimit:10;}
	.st5{fill:#DAE0FF;}
	.st6{fill:#FAAF3B;}
	.st7{fill:#E8ECFF;}
	.st8{fill:#BBABF8;}
	.st9{fill:#E6DFFC;}
	.st10{fill:#FF7AA9;}
	.st11{fill:#FDFDFE;}
	.st12{clip-path:url(#SVGID_2_);}
	.st13{fill:#452828;}
	.st14{fill:#915046;}
	.st15{fill:#994F39;}
	.st16{fill:#AB6955;}
	.st17{fill:#B57A68;}
	.st18{fill:none;stroke:#A15545;stroke-width:1.8647;stroke-linecap:round;stroke-linejoin:round;stroke-miterlimit:10;}
	.st19{fill:#383757;}
	.st20{fill:none;stroke:#474463;stroke-width:1.8647;stroke-linecap:round;stroke-miterlimit:10;}
	.st21{fill:#474463;}
	.st22{fill:#615F7F;}
	.st23{fill:none;stroke:#383757;stroke-width:1.8647;stroke-miterlimit:10;}
	.st24{fill:none;stroke:#383757;stroke-width:1.8647;stroke-linecap:round;stroke-miterlimit:10;}
	.st25{fill:none;stroke:#915046;stroke-width:1.2164;stroke-linecap:round;stroke-miterlimit:10;}
	.st26{fill:#FF7A7A;}
	.st27{fill:none;stroke:#452828;stroke-width:1.8231;stroke-linecap:round;stroke-miterlimit:10;}
</style>
<g>
	<g>
		<line class="st0" x1="9.3" y1="405.3" x2="591.8" y2="405.3"/>
		<path class="st1" d="M453.5,399.2H282.8c-6.3,0-11.4,5.1-11.4,11.4h182.1V399.2z"/>
		<path class="st2" d="M508.8,322.7H390.7c-3.3,0-6.2,2-7.5,5L350.5,404c-1.3,3.1,1,6.6,4.4,6.6h122c3.3,0,6.2-2,7.5-5l31.1-72.8
			C517.6,328,514,322.7,508.8,322.7z"/>
		<path class="st3" d="M447.6,368.3c-1.8,7.3-9.2,13.3-16.5,13.3c-7.3,0-11.8-5.9-10-13.3c1.8-7.3,9.2-13.3,16.5-13.3
			C444.9,355,449.4,361,447.6,368.3z"/>
	</g>
	<line class="st0" x1="271" y1="416.4" x2="478.4" y2="416.4"/>
	<line class="st0" x1="359.6" y1="422.3" x2="469.5" y2="422.3"/>
</g>
<g>
	<g>
		<path class="st4" d="M554.6,137.2H284c-12.2,0-22.1,9.9-22.1,22.1v115.1c0,12.2,9.9,22.1,22.1,22.1h104.1l18.6,18.6l18.6-18.6
			h129.2c12.2,0,22.1-9.9,22.1-22.1V159.4C576.7,147.2,566.8,137.2,554.6,137.2z"/>
		<g>
			<g>
				
					<ellipse transform="matrix(0.9216 -0.3881 0.3881 0.9216 -46.7512 135.6787)" class="st5" cx="312.5" cy="183.6" rx="23.1" ry="23.1"/>
				<polygon class="st6" points="360.7,162.6 364.9,175.3 378.3,175.2 367.5,183.2 371.8,195.9 360.9,188.1 350.1,196 354.1,183.3 
					343.2,175.5 356.6,175.4 				"/>
				<polygon class="st6" points="403.4,162.6 407.6,175.3 421,175.2 410.3,183.2 414.5,195.9 403.6,188.1 392.8,196 396.8,183.3 
					385.9,175.5 399.3,175.4 				"/>
				<polygon class="st6" points="446.1,162.6 450.4,175.3 463.8,175.2 453,183.2 457.2,195.9 446.3,188.1 435.5,196 439.6,183.3 
					428.7,175.5 442.1,175.4 				"/>
				<polygon class="st7" points="488.8,162.6 493.1,175.3 506.5,175.2 495.7,183.2 499.9,195.9 489,188.1 478.2,196 482.3,183.3 
					471.4,175.5 484.8,175.4 				"/>
				<polygon class="st7" points="531.5,162.6 535.8,175.3 549.2,175.2 538.4,183.2 542.7,195.9 531.7,188.1 521,196 525,183.3 
					514.1,175.5 527.5,175.4 				"/>
			</g>
			<g>
				<g>
					<rect x="288.1" y="217" class="st8" width="20.4" height="5.5"/>
					<rect x="313.6" y="217" class="st8" width="30.6" height="5.5"/>
				</g>
				<g>
					<g>
						<rect x="288.1" y="233.2" class="st9" width="44" height="5.5"/>
						<rect x="350.1" y="233.2" class="st9" width="103" height="5.5"/>
						<rect x="471.1" y="233.2" class="st9" width="79.3" height="5.5"/>
					</g>
					<g>
						<rect x="288.1" y="250.6" class="st9" width="98.5" height="5.5"/>
						<rect x="501.2" y="250.6" class="st9" width="49.2" height="5.5"/>
						<rect x="403.4" y="250.6" class="st9" width="86.3" height="5.5"/>
					</g>
					<g>
						<rect x="288.1" y="267.9" class="st9" width="125.7" height="5.5"/>
					</g>
				</g>
			</g>
		</g>
	</g>
	<g>
		<path class="st4" d="M608.9,49.7H432.3c-8,0-14.4,6.5-14.4,14.4v35.3c0,8,6.5,14.4,14.4,14.4h176.6c8,0,14.4-6.5,14.4-14.4V64.2
			C623.4,56.2,616.9,49.7,608.9,49.7z"/>
		<polygon class="st6" points="485.8,70.9 488.6,79.2 497.3,79.1 490.3,84.3 493.1,92.6 485.9,87.6 478.9,92.8 481.5,84.4 
			474.4,79.3 483.2,79.2 		"/>
		<polygon class="st6" points="513.7,70.9 516.5,79.2 525.2,79.1 518.2,84.3 521,92.6 513.8,87.6 506.8,92.8 509.4,84.4 502.3,79.3 
			511.1,79.2 		"/>
		<polygon class="st6" points="541.6,70.9 544.4,79.2 553.1,79.1 546.1,84.3 548.8,92.6 541.7,87.6 534.7,92.8 537.3,84.4 
			530.2,79.3 538.9,79.2 		"/>
		<polygon class="st6" points="569.5,70.9 572.2,79.2 581,79.1 573.9,84.3 576.7,92.6 569.6,87.6 562.6,92.8 565.2,84.4 558.1,79.3 
			566.8,79.2 		"/>
		<polygon class="st7" points="597.4,70.9 600.1,79.2 608.9,79.1 601.8,84.3 604.6,92.6 597.5,87.6 590.4,92.8 593.1,84.4 586,79.3 
			594.7,79.2 		"/>
		<g>
			
				<ellipse transform="matrix(0.1595 -0.9872 0.9872 0.1595 300.0727 510.4186)" class="st5" cx="449.8" cy="79" rx="12.9" ry="12.9"/>
			<g>
				<rect x="434.3" y="94.5" class="st8" width="11.4" height="3"/>
				<rect x="448.5" y="94.5" class="st8" width="17.1" height="3"/>
			</g>
		</g>
	</g>
	<g>
		<path class="st4" d="M155,108.5H33.8c-5.5,0-9.9,4.4-9.9,9.9v24.3c0,5.5,4.4,9.9,9.9,9.9H155c5.5,0,9.9-4.4,9.9-9.9v-24.3
			C165,112.9,160.5,108.5,155,108.5z"/>
		<polygon class="st6" points="70.5,123 72.4,128.7 78.4,128.7 73.6,132.2 75.5,137.9 70.6,134.5 65.7,138 67.6,132.3 62.7,128.8 
			68.7,128.7 		"/>
		<polygon class="st6" points="89.6,123 91.5,128.7 97.6,128.7 92.7,132.2 94.6,137.9 89.7,134.5 84.9,138 86.7,132.3 81.8,128.8 
			87.8,128.7 		"/>
		<polygon class="st6" points="108.8,123 110.7,128.7 116.7,128.7 111.9,132.2 113.8,137.9 108.9,134.5 104,138 105.9,132.3 
			101,128.8 107,128.7 		"/>
		<polygon class="st6" points="127.9,123 129.8,128.7 135.8,128.7 131,132.2 132.9,137.9 128,134.5 123.2,138 125,132.3 
			120.1,128.8 126.1,128.7 		"/>
		<polygon class="st7" points="147.1,123 149,128.7 155,128.7 150.2,132.2 152.1,137.9 147.2,134.5 142.3,138 144.1,132.3 
			139.3,128.8 145.3,128.7 		"/>
		<g>
			
				<ellipse transform="matrix(0.1621 -0.9868 0.9868 0.1621 -88.5155 152.8882)" class="st5" cx="45.8" cy="128.6" rx="8.8" ry="8.8"/>
			<g>
				<rect x="35.1" y="139.2" class="st8" width="7.8" height="2.1"/>
				<rect x="44.9" y="139.2" class="st8" width="11.7" height="2.1"/>
			</g>
		</g>
	</g>
</g>
<g>
	<g>
		<circle class="st10" cx="564.9" cy="343.5" r="26.9"/>
		<path class="st3" d="M572.9,333.3c-4.5,0-8.1,3.6-8.1,8.1c0-4.5-3.6-8.1-8.1-8.1c-4.5,0-8.1,3.6-8.1,8.1
			c0,10.1,16.2,18.6,16.2,18.6s16.2-8.5,16.2-18.6C581,336.9,577.4,333.3,572.9,333.3z"/>
	</g>
	<g>
		
			<ellipse transform="matrix(0.1615 -0.9869 0.9869 0.1615 -181.2261 256.7995)" class="st10" cx="60.5" cy="235.1" rx="26.9" ry="26.9"/>
		<path class="st3" d="M68.6,224.9c-4.5,0-8.1,3.6-8.1,8.1c0-4.5-3.6-8.1-8.1-8.1s-8.1,3.6-8.1,8.1c0,10.1,16.2,18.6,16.2,18.6
			s16.2-8.5,16.2-18.6C76.7,228.5,73.1,224.9,68.6,224.9z"/>
	</g>
	<g>
		<polygon class="st8" points="207.4,45.8 213.9,65.9 235.1,65.9 218,78.4 224.5,98.5 207.4,86 190.3,98.5 196.8,78.4 179.7,65.9 
			200.9,65.9 		"/>
		<polygon class="st8" points="239.7,94 244.7,109.4 260.8,109.4 247.7,118.9 252.7,134.2 239.7,124.7 226.6,134.2 231.6,118.9 
			218.5,109.4 234.7,109.4 		"/>
		<polygon class="st8" points="218.6,140.6 221.5,149.5 230.9,149.5 223.3,155.1 226.2,164 218.6,158.5 211,164 213.9,155.1 
			206.3,149.5 215.7,149.5 		"/>
	</g>
	<g>
		
			<ellipse transform="matrix(0.7071 -0.7071 0.7071 0.7071 17.0539 484.5246)" class="st8" cx="593.4" cy="221.7" rx="34.8" ry="34.8"/>
		<polygon class="st3" points="575.7,204.5 575.7,216.6 600.1,222.2 575.7,227.8 575.7,239.8 620.9,222.2 		"/>
	</g>
	<g>
		<path class="st8" d="M387.5,61.7c0,28.1-22.8,51-50.7,50.9c-28.3-0.1-48-21.7-50.7-44.6c-1.8-15.1,2.3-28.6,12.3-40
			c10-11.5,23-17.4,38.3-17.4C364.4,10.6,387.7,33.1,387.5,61.7z"/>
		<g>
			<path class="st11" d="M343.7,80.7c-4.5,0-9,0-13.5,0c-1.6,0-2.2-0.5-2.2-2.1c0.1-7-0.3-14,0.2-21c0.3-4.5,2.1-8.5,4.9-12.1
				c1.9-2.4,3.8-4.8,6-6.9c0.7-0.7,1.1-1.5,1.1-2.5c0-1.2,0.1-2.4,0.1-3.6c0-1.5,0.5-2.7,1.9-3.3c1.5-0.6,2.9-0.3,4.1,0.8
				c1.2,1.1,1.6,2.5,2,4c0.9,3.8,0.2,7.4-1.3,10.8c-0.5,1.2-1,2.4-1.6,3.5c-0.4,0.7-0.1,1,0.6,1.1c0.3,0.1,0.7,0,1,0
				c4,0,8.1,0,12.1,0c2.2,0,3.7,1,4.2,2.9c0.6,2.1-0.3,4.5-2,5.5c-0.8,0.4-0.8,0.6-0.1,1.1c1.5,1,2.5,2.3,2.2,4.3
				c-0.2,1.5-1,2.5-2.4,3c-0.3,0.1-0.7,0.1-0.8,0.4c-0.1,0.4,0.4,0.4,0.6,0.6c1.9,1.4,2.2,5.3-0.6,6.5c-0.5,0.2-0.8,0.4-0.2,0.9
				c1.2,1.2,1.3,2.7,0.7,4.2c-0.6,1.4-1.8,1.9-3.3,1.9C352.7,80.7,348.2,80.7,343.7,80.7C343.7,80.7,343.7,80.7,343.7,80.7z"/>
			<path class="st11" d="M322.6,84.7c-3.7,0-7.4,0-11.1,0c-1.1,0-1.6-0.6-1.7-1.6c-0.1-0.5,0-1.1,0-1.6c0-7.8,0-15.6,0-23.3
				c0-1.9,0.5-2.4,2.4-2.4c3.3,0,6.7,0,10,0c1.3,0,2,0.6,2,1.9c0,8.2,0,16.3,0,24.5c0,0,0,0.1,0,0.1c-0.2,0.1-0.2,0.1,0,0.2
				c0.1,0.9,0,1.7-1,2.1c0-0.2-0.1-0.5-0.4-0.4C322.4,84.3,322.7,84.5,322.6,84.7z"/>
		</g>
	</g>
</g>
<g>
	<defs>
		<rect id="SVGID_1_" x="8.9" y="173.3" width="359.5" height="232.7"/>
	</defs>
	<clipPath id="SVGID_2_">
		<use xlink:href="#SVGID_1_"  style="overflow:visible;"/>
	</clipPath>
	<g class="st12">
		<path class="st13" d="M204.3,209.6c1.4,7.2,1,14.5,1.6,21.8c0.5,7.3,2.2,14.8,7,20.3c4.1,4.7,10.1,7.6,13,13.1
			c2.2,4.2,2.2,9.3,0.5,13.7c-1.6,4.4-4.7,8.2-8.4,11.2c-12.4,10.4-31,12-45.7,5.3c-14.7-6.8-25.3-21.2-28.7-37
			c-3.5-15.8-0.2-32.7,7.6-46.9c4.4-8,10.5-15.4,18.6-19.6c6.8-3.4,16.9-4.7,23.7-0.6C199.3,194.4,203,203.3,204.3,209.6z"/>
		<g>
			<g>
				<g>
					<path class="st14" d="M321.3,372.1c0,0-2.6,5.7-9.4,2.3l-4.4,8.3l11,5.8l8-15l-3.1-14.8c0,0-3,1.2-2.9,4.4
						C320.5,366.2,321.3,372.1,321.3,372.1z"/>
					<path class="st15" d="M331.3,391.5c0.1-3.5-1.8-6.7-4.9-8.3l-11.5-6.1l-2.4,4.5L331.3,391.5z"/>
					<path class="st16" d="M334.6,396.7c0.1-3.5-1.8-6.7-4.9-8.3l-13.2-7l-2.4,4.5L334.6,396.7z"/>
					<polygon class="st6" points="319.1,344.6 323,356 335,355.9 325.3,363.1 329.1,374.6 319.3,367.6 309.6,374.7 313.2,363.2 
						303.4,356.2 315.5,356.1 					"/>
					<path class="st17" d="M311.7,374.3l0.6-4l4.6-3.7c1.4-1.1,2.2-2.8,2.2-4.6l0-0.5l-14.2,5.1l-6.2,7.3l-4,7.5l21.4,11.3l1.5-2.7
						c2.9-5.4,0.8-12.2-4.6-15L311.7,374.3z"/>
					<path class="st17" d="M331.3,400.8c0.1-3.5-1.8-6.7-4.9-8.3l-13.2-7l-2.4,4.5L331.3,400.8z"/>
					<path class="st18" d="M311.5,373.9c-1.3,2.1-3.1,3.9-5,5.4"/>
				</g>
				<polygon class="st17" points="234.9,373.8 300.2,374.9 299.9,383.8 222.3,395.7 				"/>
			</g>
			<path class="st19" d="M174.6,290h19.1c9,0,17.1,5.7,20,14.3l27.8,81.3c0,0-1.9,15-13.7,16.4c-4.4,0.5-8.7-1.9-10.7-5.8
				l-42.5-80.6V290z"/>
			<g>
				<path class="st19" d="M223,372.5l62.9,2.1l-20.7,26.2l-39.8,2.4c-5.3,0.3-9.3-4.6-8-9.7l2.6-9.9L223,372.5z"/>
				<path class="st20" d="M234.9,373.8c-5.1,3.1-10.9,7.9-13.6,13.3"/>
				<path class="st20" d="M234.9,373.8c-6.7,0.3-14.9,1.2-19.8,5.7"/>
			</g>
		</g>
		<g>
			<path class="st3" d="M188.8,466.5c-10.2,1-20.9,0.8-31.2-0.2c-16.4-1.6-30.8-9.3-44.9-17.1c-2-1.1-4.1-2.3-6.1-3.5
				c7.4-11.8,16.9-23.9,27.8-31.6h54.4l17.6,48.2C200.9,464.8,194.6,466,188.8,466.5z"/>
			<path class="st21" d="M125.8,411.6L110,302.7l7.9-12.8h72.3l19.9,53.5c0,0-16.6,51.5-16.6,70.6l18.3,53.1l-21.6,8.3l-16.6-51
				l-18.3,50.7l-56.9-23.7L125.8,411.6z"/>
			<polygon class="st19" points="110,302.7 118.1,289.7 128.4,289.7 131.5,315.6 121.5,381.6 			"/>
			<polygon class="st3" points="186.9,290.3 186.9,351.5 135.6,290.3 			"/>
			<path class="st17" d="M155.5,305c-3.6-0.9-7.1-2.1-10.5-3.6l-9.8-11.7h51.7v9C179.7,307.3,165.9,307.5,155.5,305z"/>
			<polygon class="st22" points="135.2,289.7 135.2,328 157.1,328 144.9,353.7 188.5,353.4 			"/>
			<polygon class="st22" points="186.9,289.7 190.2,289.7 215.9,328 195.6,328 217.5,353.7 188.5,353.7 187.2,353.7 			"/>
			<path class="st23" d="M187.1,353.7c-4.9,23.3-8.6,47-13.5,70.3"/>
			<path class="st23" d="M197.9,428.8c-4.2,1.4-8.7,2.1-13.2,2"/>
			<path class="st23" d="M150.1,430.3c-8.1-0.4-16.1-2.5-23.4-6.1"/>
		</g>
		<path class="st21" d="M131.5,289.7h-19.1c-9,0-17.1,5.7-20,14.3l-27.8,81.3c0,0,0.3,6,3.1,11.2c4.4,8.2,15.4,10.3,19.8,2.1
			l44-83.2V289.7z"/>
		<g>
			<path class="st14" d="M158.1,377.1l5.3,4.5l12.6,2.9l-0.1-0.5c-0.2-1.8-1.3-3.3-2.8-4.3l-3.2-2.5l0.9-3.5l5.3-4.4l-6.4-5.5
				l-13.7,9L158.1,377.1z"/>
			<polygon class="st6" points="170.3,368.2 179.1,376.5 189.7,370.8 184.5,381.7 193.2,390 181.2,388.4 176,399.3 173.8,387.4 
				161.8,385.8 172.5,380.1 			"/>
			<path class="st14" d="M178.2,372.6c0,0-2.7-4.2-7.6-0.8l-4.4-6.1l8.9-6.2l7.9,11l-1.8,10.1c0,0-2.5-0.6-2.8-3.1
				C178.2,375,178.2,372.6,178.2,372.6z"/>
			<path class="st17" d="M158.6,378l-5.2-7l19.4-15l1.8,2.5c3.6,5,3.4,9.5,0.3,11.9l-4.2,3.3L158.6,378z"/>
			<path class="st17" d="M187.1,362.5c0.6-0.1,1,0.4,0.8,1c-0.9,2.1-2.8,3.8-5.1,4.4l-11.8,2.9l-1-4L187.1,362.5z"/>
			<path class="st17" d="M185.5,345.8c0.6-0.4,1.4-0.1,1.4,0.7c0.1,2.9-1.1,5.7-3.5,7.6l-11.7,9.4l-3.2-4L185.5,345.8z"/>
			<path class="st17" d="M188,354c0.6-0.3,1.4,0.2,1.2,0.9c-0.5,2.8-2.3,5.3-5,6.6l-11.7,5.8l-2.3-4.6L188,354z"/>
		</g>
		<g>
			<path class="st21" d="M85.1,368.9l64.2-0.4l-20,27.9l-49.7,7.5c-6.4,1-11.9-4.7-10.7-11.1C70.6,382.5,74.9,369.7,85.1,368.9z"/>
			<line class="st24" x1="102.5" y1="368.8" x2="81.5" y2="369.2"/>
			<line class="st24" x1="102.5" y1="368.8" x2="80.6" y2="374.6"/>
		</g>
		<g>
			<path class="st17" d="M147.8,238.5l2.3,56.5c0.1,2.3,2,4.1,4.2,4.1h27.8c3.5,0,5.1-4.2,2.7-6.6c-5.3-5.2-10.7-14.2-10.7-29v-23.8
				L147.8,238.5z"/>
			<path class="st14" d="M160.6,239.1l13.4,0.6v23.8c0,6.5,1,11.9,2.7,16.3C161.3,274.6,156.1,253.9,160.6,239.1z"/>
		</g>
		<g>
			<g>
				<g>
					<path class="st17" d="M154.6,259.7c-1.9-1.3-3.7-2.8-5.5-4.5c-8.9-8.7-14.2-20.4-15.5-32.8c-1.2-11.5,1.1-23,10.7-30.6
						c10.2-8.1,26.2-8.8,37.7-3.2c11,5.4,17.1,15.7,19.3,27.4c1.1,5.8,1.4,11.8,1.5,17.7c0.1,11.1-1.6,32.4-14.3,35.1
						C174.8,271.7,164.8,266.5,154.6,259.7z"/>
				</g>
				<path class="st13" d="M197.4,211.1c3.7,5.2,4.7,11.8,5.7,18.1c2.3-8.1,2.3-16.8,0-24.9c-1.1-3.8-2.7-7.5-5.3-10.4
					c-2.6-2.9-6.4-5-10.3-4.9c-6.2,0.1-13.6,8.6-7.2,13.7c1.9,1.6,5.2,1.2,7.5,1.9C191.7,205.5,195.1,207.8,197.4,211.1z"/>
				<path class="st13" d="M182.6,215.8c-4.2,3.8-9.3,6.3-14.8,7.4c-5.6,1.2-12.4,0.9-16.7,5.4c-12.8,13.7-2,30.1,4.5,43.9
					c3.3,6.9,6.7,15,4.9,22.8c-2.3,10-12.1,14.8-21.7,14.8c-15.6,0.1-27.7-11.5-30.9-26.5c-1.6-7.7-0.5-15.4,2.5-22.7
					c2.8-6.7,7.2-12.5,9.4-19.4c3.5-11-1.5-22.7,2.1-33.9c7.1-22.3,41.4-44.2,62.3-26C196.5,192.2,192.6,206.8,182.6,215.8z"/>
				<path class="st13" d="M152,220.7c-2.8,2.7-4.6,6.4-5,10.3c-0.5,4.4,0.7,8.8,2.9,12.7l2.9-0.5c0.3-5,1.6-10,3.1-14.7
					c0.7-2.2,1.6-4.3,2.6-6.4C157.7,218.1,154.5,218.3,152,220.7z"/>
			</g>
			<g>
				<path class="st25" d="M189.8,231.9c0.8,3.7,2.3,7.3,4.4,10.4c0.7,1.1,1.6,2.4,1.3,3.7c-0.3,1.2-1.5,2-2.6,2.6"/>
				<g>
					
						<ellipse transform="matrix(0.9379 -0.3469 0.3469 0.9379 -76.9134 81.3111)" class="st26" cx="188.6" cy="255.5" rx="3.2" ry="3.2"/>
					<path class="st25" d="M193.5,253.7c-3.3,2-7.5,2.2-11,0.7"/>
				</g>
				<g>
					<path class="st27" d="M200.9,221.8c-2.8-1.6-5.8-1.2-8,1.1"/>
				</g>
				<g>
					<path class="st27" d="M178.8,224.6c-4-1.3-8.2-0.6-11.5,1.9"/>
				</g>
				<path class="st13" d="M178.1,233.4c0.3,1.5-0.8,3-2.3,3.3c-1.5,0.3-3-0.8-3.3-2.3c-0.3-1.5,0.8-3,2.3-3.3
					C176.4,230.9,177.8,231.9,178.1,233.4z"/>
				
					<ellipse transform="matrix(0.1626 -0.9867 0.9867 0.1626 -63.5607 387.9926)" class="st13" cx="196.8" cy="231.4" rx="2.8" ry="2.8"/>
			</g>
			<g>
				<path class="st17" d="M149.2,236.9c-1.9-1.6-4.7-2.5-7-1.6c-1.9,0.8-3.2,2.6-3.7,4.6c-0.5,2-0.1,4.1,0.5,6
					c2.2,6.1,8.3,10.6,14.7,10.9c1.3,0.1,0.6-10.7,0.4-11.7C153.6,242.1,151.6,238.9,149.2,236.9z"/>
				<path class="st3" d="M151.9,254c0.3,1.5-0.7,3-2.3,3.2c-1.5,0.3-3-0.7-3.2-2.3c-0.3-1.5,0.7-3,2.3-3.2
					C150.2,251.4,151.7,252.4,151.9,254z"/>
				<path class="st25" d="M142.7,239.7c1.1-0.9,2.8-1.1,4.1-0.5c1.3,0.6,2.3,1.7,3,3c0.6,1.3,0.9,2.8,1,4.2
					c-0.7-0.7-1.9-0.8-2.7-0.2c-0.8,0.6-1.1,1.7-0.7,2.6c0.4,0.9,1.5,1.4,2.5,1.1"/>
			</g>
		</g>
	</g>
</g>
</svg>
