<?xml version="1.0" encoding="utf-8"?>
<!-- Generator: Adobe Illustrator 23.0.2, SVG Export Plug-In . SVG Version: 6.00 Build 0)  -->
<svg version="1.1" id="Layer_1" xmlns="http://www.w3.org/2000/svg" xmlns:xlink="http://www.w3.org/1999/xlink" x="0px" y="0px"
	 viewBox="0 0 506.8 388.4" style="enable-background:new 0 0 506.8 388.4;" xml:space="preserve">
<style type="text/css">
	.st0{fill:#ECECEC;}
	.st1{fill:#F0F0F0;}
	.st2{fill:#E1E1E1;}
	.st3{fill:#FAFAFA;}
	.st4{fill:#F5F5F5;}
	.st5{fill:#E7E7E7;}
	.st6{fill:#FFFFFF;}
	.st7{fill:#007CFF;}
	.st8{fill:#1A2E35;}
	.st9{fill:#903C38;}
	.st10{fill:#740606;}
	.st11{opacity:0.2;}
	.st12{opacity:0.5;fill:#FFFFFF;}
	.st13{opacity:0.5;}
	.st14{opacity:0.3;}
	.st15{opacity:0.2;fill:#007CFF;}
</style>
<g>
	<rect x="6.8" y="343.3" class="st0" width="500" height="0.3"/>
	<rect x="338.9" y="350.1" class="st0" width="97.6" height="0.3"/>
	<rect x="295.8" y="355.9" class="st0" width="46.7" height="0.3"/>
	<rect x="437.5" y="359.4" class="st0" width="19.2" height="0.3"/>
	<rect x="133.3" y="356" class="st0" width="92.5" height="0.3"/>
	<rect x="104.5" y="356" class="st0" width="19.9" height="0.3"/>
	<rect x="64.6" y="351.8" class="st0" width="32.9" height="0.3"/>
	<path class="st0" d="M243.8,298.7H50.8c-3.1,0-5.7-2.6-5.7-5.7V21.5c0-3.1,2.6-5.7,5.7-5.7h193.1c3.1,0,5.7,2.6,5.7,5.7V293
		C249.6,296.1,247,298.7,243.8,298.7z M50.8,16.1c-3,0-5.5,2.4-5.5,5.5V293c0,3,2.4,5.5,5.5,5.5h193.1c3,0,5.5-2.4,5.5-5.5V21.5
		c0-3-2.4-5.5-5.5-5.5H50.8z"/>
	<path class="st0" d="M460.1,298.7H267c-3.1,0-5.7-2.6-5.7-5.7V21.5c0-3.1,2.6-5.7,5.7-5.7h193.1c3.1,0,5.7,2.6,5.7,5.7V293
		C465.9,296.1,463.3,298.7,460.1,298.7z M267,16.1c-3,0-5.5,2.4-5.5,5.5V293c0,3,2.4,5.5,5.5,5.5h193.1c3,0,5.5-2.4,5.5-5.5V21.5
		c0-3-2.4-5.5-5.5-5.5H267z"/>
</g>
<g>
	<g>
		<polygon class="st1" points="397.9,334.1 95.9,334.1 77.9,129.2 379.9,129.2 		"/>
		<polygon class="st2" points="90.5,340.6 95.9,334.1 77.9,129.2 72.5,135.8 		"/>
		<path class="st3" d="M99.9,326.3L83.3,137.6c-0.2-2,1.4-3.7,3.4-3.7h285.9c1.8,0,3.2,1.3,3.4,3.1l16.6,188.7
			c0.2,2-1.4,3.7-3.4,3.7H103.2C101.5,329.4,100,328,99.9,326.3z"/>
		<polygon class="st2" points="138.3,334.1 92.8,334.1 89.6,343.3 135.1,343.3 		"/>
		<polygon class="st4" points="138.3,334.1 437.5,334.1 434.3,343.3 135.1,343.3 		"/>
		<polygon class="st2" points="261.5,334.1 318.9,334.1 318.3,340.1 260.9,340.1 		"/>
	</g>
	<g>
		<path class="st2" d="M348.5,115.7h72.5c6,39.8-21.8,72.5-61.5,72.5c-12.7,0-25.7-3.3-37.7-9.7L348.5,115.7z"/>
		<path class="st0" d="M348.5,115.7l38.2-55.5c9.1,6.8,16.9,15.3,22.9,24.9c5.9,9.6,9.8,20,11.4,30.6H348.5z"/>
		<path class="st5" d="M348.5,115.7l-10.9-72.5c8.5,0,17.1,1.5,25.4,4.4c8.4,2.9,16.4,7.2,23.7,12.6L348.5,115.7z"/>
		<path class="st1" d="M348.5,115.7l-26.8,62.8c-24.3-12.9-41.8-36.9-45.7-62.8c-6-39.8,21.8-72.5,61.5-72.5L348.5,115.7z"/>
	</g>
	<g>
		<path class="st0" d="M259,245.1h64.3c0.8,5.6,1,11.2,0.3,16.6c-0.6,5.4-2,10.6-4.1,15.5L259,245.1z"/>
		<path class="st2" d="M259,245.1l1.6-63.3c15.3,2.6,29.9,10.4,41.4,22c11.5,11.6,19,26.2,21.3,41.3H259z"/>
		<path class="st1" d="M259,245.1l-57.1,22c-3.6-7-6.1-14.5-7.2-22c-5.3-35.3,19.3-64.3,54.6-64.3c3.7,0,7.5,0.3,11.3,1L259,245.1z"
			/>
		<path class="st6" d="M259,245.1l60.5,32.1c-8.5,19.9-27.9,32.1-50.8,32.1c-27,0-53.7-17-66.8-42.3L259,245.1z"/>
	</g>
</g>
<ellipse id="_x3C_Path_x3E__297_" class="st4" cx="256.8" cy="377.1" rx="193.9" ry="11.3"/>
<g>
	<g>
		<g>
			<path class="st6" d="M247.4,200.3h-90.1c-5.7,0-10.8-4.7-11.2-10.4l-4.5-55.4c-0.5-5.7,3.8-10.4,9.5-10.4h90.1
				c5.7,0,10.8,4.7,11.2,10.4l4.5,55.4C257.4,195.6,253.1,200.3,247.4,200.3z"/>
			<path class="st7" d="M247.4,200.7h-90.1c-6,0-11.2-4.8-11.7-10.8l-4.5-55.4c-0.2-2.9,0.7-5.6,2.6-7.7c1.9-2.1,4.5-3.2,7.4-3.2
				h90.1c6,0,11.2,4.8,11.7,10.8l4.5,55.4c0.2,2.9-0.7,5.6-2.6,7.7C252.9,199.6,250.3,200.7,247.4,200.7z M151.1,124.5
				c-2.6,0-5,1-6.8,2.9c-1.7,1.9-2.6,4.4-2.4,7l4.5,55.4c0.4,5.5,5.3,10,10.8,10h90.1c2.6,0,5-1,6.8-2.9c1.7-1.9,2.6-4.4,2.4-7
				l-4.5-55.4c-0.4-5.5-5.3-10-10.8-10H151.1z"/>
		</g>
		<g>
			<path class="st2" d="M223,184.1c-3.5,3.8-8.1,6.6-13.2,8l-1.5-4.3c11.1-3,18.6-13.4,17.6-25.7c-0.6-7.3-4.1-14-9.3-18.8l2.9-3.1
				C232.4,152.3,234,172.1,223,184.1z"/>
			<path class="st8" d="M219.4,140.3l-2.9,3.1c-5.2-4.8-12.1-7.8-19.4-7.8c-7.3,0-13.7,3-18.1,7.8l-3.4-3.1c5.3-5.8,13-9.1,21.2-9.1
				C205,131.2,213.1,134.4,219.4,140.3z"/>
			<path class="st7" d="M209.7,192.1c-10.4,2.9-22.1-0.2-30.6-8c-13-12-14.6-31.8-3.6-43.8l3.4,3.1c-4.4,4.8-6.8,11.4-6.2,18.8
				c1.2,14.7,14.1,26.6,28.7,26.6c2.4,0,4.7-0.3,6.8-0.9L209.7,192.1z"/>
		</g>
	</g>
	<g>
		<rect x="117.5" y="34.6" class="st7" width="7.2" height="0.9"/>
		<rect x="94.1" y="34.6" class="st7" width="16.4" height="0.9"/>
		<g>
			<path class="st6" d="M187,114.2H96.9c-5.7,0-10.8-4.7-11.2-10.4l-4.5-55.4C80.7,42.7,85,38,90.7,38h90.1
				c5.7,0,10.8,4.7,11.2,10.4l4.5,55.4C197,109.5,192.7,114.2,187,114.2z"/>
			<path class="st7" d="M187,114.6H96.9c-6,0-11.2-4.8-11.7-10.8l-4.5-55.4c-0.2-2.9,0.7-5.6,2.6-7.7c1.9-2.1,4.5-3.2,7.4-3.2h90.1
				c6,0,11.2,4.8,11.7,10.8l4.5,55.4c0.2,2.9-0.7,5.6-2.6,7.7C192.5,113.5,189.9,114.6,187,114.6z M90.7,38.4c-2.6,0-5,1-6.8,2.9
				c-1.7,1.9-2.6,4.4-2.4,7l4.5,55.4c0.4,5.5,5.3,10,10.8,10H187c2.6,0,5-1,6.8-2.9c1.7-1.9,2.6-4.4,2.4-7l-4.5-55.4
				c-0.4-5.5-5.3-10-10.8-10H90.7z"/>
		</g>
		<g>
			<polygon class="st2" points="89.3,53.9 137,53.9 136.7,49.2 88.9,49.2 			"/>
			<polygon class="st7" points="184.8,53.9 137,53.9 136.7,49.2 184.4,49.2 			"/>
			<polygon class="st2" points="90.3,66.2 103.9,66.2 103.5,61.4 89.9,61.4 			"/>
			<polygon class="st7" points="185.8,66.2 103.9,66.2 103.5,61.4 185.4,61.4 			"/>
			<polygon class="st2" points="91.3,78.4 133.8,78.4 133.4,73.7 90.9,73.7 			"/>
			<polygon class="st7" points="186.8,78.4 133.8,78.4 133.4,73.7 186.4,73.7 			"/>
			<polygon class="st2" points="92.3,90.7 164.8,90.7 164.4,86 91.9,86 			"/>
			<polygon class="st7" points="187.8,90.7 164.8,90.7 164.4,86 187.4,86 			"/>
			<polygon class="st2" points="93.3,103 126.8,103 126.5,98.3 92.9,98.3 			"/>
			<polygon class="st7" points="188.8,103 126.8,103 126.5,98.3 188.4,98.3 			"/>
		</g>
	</g>
	<g>
		<g>
			<path class="st6" d="M310.1,114.2H220c-5.7,0-10.8-4.7-11.2-10.4l-4.5-55.4c-0.5-5.7,3.8-10.4,9.5-10.4h90.1
				c5.7,0,10.8,4.7,11.2,10.4l4.5,55.4C320.1,109.5,315.8,114.2,310.1,114.2z"/>
			<path class="st7" d="M310.1,114.6H220c-6,0-11.2-4.8-11.7-10.8l-4.5-55.4c-0.2-2.9,0.7-5.6,2.6-7.7c1.9-2.1,4.5-3.2,7.4-3.2h90.1
				c6,0,11.2,4.8,11.7,10.8l4.5,55.4c0.2,2.9-0.7,5.6-2.6,7.7C315.6,113.5,313,114.6,310.1,114.6z M213.8,38.4c-2.6,0-5,1-6.8,2.9
				c-1.7,1.9-2.6,4.4-2.4,7l4.5,55.4c0.4,5.5,5.3,10,10.8,10h90.1c2.6,0,5-1,6.8-2.9c1.7-1.9,2.6-4.4,2.4-7l-4.5-55.4
				c-0.4-5.5-5.3-10-10.8-10H213.8z"/>
		</g>
		<g>
			<polygon class="st2" points="265,103 263.4,103 259,49.2 260.6,49.2 			"/>
			<polygon class="st7" points="267.4,80.6 257.3,80.6 255.6,59.6 265.7,59.6 			"/>
			<polygon class="st2" points="245.2,103 243.6,103 239.2,49.2 240.8,49.2 			"/>
			<polygon class="st7" points="248,85.3 238,85.3 236.5,66.9 246.5,66.9 			"/>
			<polygon class="st2" points="225.5,103 223.9,103 219.5,49.2 221.1,49.2 			"/>
			<polygon class="st8" points="227,70.1 217,70.1 216,57.5 226,57.5 			"/>
			<polygon class="st2" points="284.7,103 283.1,103 278.7,49.2 280.3,49.2 			"/>
			<polygon class="st8" points="288.1,92.6 278,92.6 275.4,59.6 285.4,59.6 			"/>
			<polygon class="st2" points="304.5,103 302.9,103 298.5,49.2 300.1,49.2 			"/>
			<polygon class="st7" points="308.1,96.5 298.1,96.5 296,70.1 306,70.1 			"/>
		</g>
	</g>
	<g>
		<g>
			<path class="st6" d="M213.7,285.6h-90.1c-5.7,0-10.8-4.7-11.2-10.4l-4.5-55.4c-0.5-5.7,3.8-10.4,9.5-10.4h90.1
				c5.7,0,10.8,4.7,11.2,10.4l4.5,55.4C223.7,281,219.4,285.6,213.7,285.6z"/>
			<path class="st7" d="M213.7,286.1h-90.1c-6,0-11.2-4.8-11.7-10.8l-4.5-55.4c-0.2-2.9,0.7-5.6,2.6-7.7c1.9-2.1,4.5-3.2,7.4-3.2
				h90.1c6,0,11.2,4.8,11.7,10.8l4.5,55.4c0.2,2.9-0.7,5.6-2.6,7.7C219.2,284.9,216.6,286.1,213.7,286.1z M117.4,209.9
				c-2.6,0-5,1-6.8,2.9c-1.7,1.9-2.6,4.4-2.4,7l4.5,55.4c0.4,5.5,5.3,10,10.8,10h90.1c2.6,0,5-1,6.8-2.9c1.7-1.9,2.6-4.4,2.4-7
				l-4.5-55.4c-0.4-5.5-5.3-10-10.8-10H117.4z"/>
		</g>
		<g>
			<polygon class="st7" points="129.6,246.2 149,268.7 171.3,234.3 185.1,252.1 188.4,246.9 210.9,273.9 124.5,273.8 			"/>
			<polygon class="st2" points="194.4,247.6 185.4,266.9 156.6,221.3 143.1,250.3 138.7,243.4 124.5,273.9 210.9,273.8 			"/>
		</g>
	</g>
</g>
<g>
	<path class="st7" d="M379.7,119.9c2.4,4.5,4.5,9,6.4,13.6c1.9,4.7,3.7,9.4,5,14.4c0.4,1.2,0.7,2.5,0.9,3.8c0.1,0.4,0.4,1.8,0.4,2.7
		c0,1,0,1.9-0.2,2.7c-0.5,3.3-1.7,5.9-3,8.3c-2.6,4.8-5.7,8.7-9.3,12.4c-1.1,1.1-2.9,1.1-4,0.1c-0.9-0.9-1.1-2.2-0.5-3.3l0.1-0.1
		c2.1-4.1,4.3-8.5,5.7-12.7c0.7-2.1,1.2-4.2,1.2-5.7c0-0.4,0-0.7-0.1-0.9c0-0.1,0-0.2-0.1-0.3l-0.2-0.6c-0.3-1.1-0.7-2.2-1.1-3.2
		c-1.5-4.3-3.4-8.7-5.3-13c-1.9-4.3-4-8.7-6.1-12.9l0-0.1c-1.4-2.8-0.2-6.2,2.6-7.6C374.9,116.1,378.3,117.2,379.7,119.9z"/>
	<path class="st9" d="M376.6,174.1l-4.8,1.5l5.6,6.6c0,0,2.2-1.9,2.9-4.7c0.3-0.9-0.1-1.9-0.9-2.5l-0.8-0.6
		C378.1,174,377.3,173.9,376.6,174.1z"/>
	<polygon class="st9" points="365.2,179.6 371.3,184.4 377.4,182.2 371.8,175.6 	"/>
	<path class="st8" d="M344.7,86.5c-0.1,0.6-0.5,1-0.9,0.9c-0.4-0.1-0.6-0.6-0.5-1.2c0.1-0.6,0.5-1,0.9-0.9
		C344.6,85.3,344.8,85.9,344.7,86.5z"/>
	<path class="st10" d="M344.2,87.5c0,0-2,3.1-3.9,4.5c0.8,1.2,2.7,1.1,2.7,1.1L344.2,87.5z"/>
	<path class="st8" d="M347.5,83.6c0.1,0,0.2,0,0.2-0.1c0.1-0.1,0.2-0.4,0-0.5c-1.3-1.4-2.9-1.2-3-1.2c-0.2,0-0.3,0.2-0.3,0.4
		c0,0.2,0.2,0.3,0.4,0.3l0,0c0.1,0,1.3-0.2,2.4,1C347.3,83.6,347.4,83.6,347.5,83.6z"/>
	<path class="st9" d="M361.1,97.3c-1.1,5.5-1.7,13.1,2.1,16.7c0,0-1.5,5.6-11.7,5.6c-11.2,0-5.4-4.9-5.4-4.9c4.6-1.4,4.6-6.7,3.5-11
		L361.1,97.3z"/>
	<path class="st7" d="M344.2,113.8c0,0,1.6-3.9,3.3-4.5c1.7-0.7,12.3-2.4,14.7-0.9c2.4,1.5,4.1,6.5,4.1,6.5L344.2,113.8z"/>
	<path class="st7" d="M355.4,369.8c-1,0-1.9-0.1-2.2-0.6c-0.1-0.2-0.2-0.4,0-0.8c0.1-0.2,0.3-0.3,0.6-0.4c1.2-0.3,3.9,1.2,4,1.2
		c0.1,0,0.1,0.1,0.1,0.2c0,0.1-0.1,0.1-0.1,0.1C357.2,369.7,356.3,369.8,355.4,369.8z M354.2,368.4c-0.1,0-0.2,0-0.3,0
		c-0.2,0-0.3,0.1-0.3,0.2c-0.1,0.2-0.1,0.3,0,0.4c0.3,0.5,2.2,0.5,3.6,0.3C356.5,369,355.1,368.4,354.2,368.4z"/>
	<path class="st7" d="M357.7,369.6C357.7,369.6,357.6,369.6,357.7,369.6c-1-0.4-2.8-2-2.6-2.9c0-0.2,0.2-0.4,0.7-0.5
		c0.4,0,0.7,0.1,1,0.3c1,0.8,1.2,2.8,1.2,2.9c0,0.1,0,0.1-0.1,0.2C357.8,369.6,357.7,369.6,357.7,369.6z M355.9,366.6
		c0,0-0.1,0-0.1,0c-0.3,0-0.3,0.2-0.3,0.2c-0.1,0.5,1.1,1.8,2.1,2.3c-0.1-0.6-0.4-1.8-1-2.3C356.3,366.7,356.1,366.6,355.9,366.6z"
		/>
	<polygon class="st9" points="365.9,369.5 358.4,369.5 357.7,352.1 365.2,352.1 	"/>
	<path class="st8" d="M358.5,368.6h8.2c0.3,0,0.6,0.2,0.6,0.5l1.5,6.7c0.2,0.7-0.4,1.3-1.1,1.3c-2.9,0-7.2-0.2-10.9-0.2
		c-4.3,0-4.9,0.2-9.9,0.2c-3.1,0-3.9-3.1-2.6-3.4c5.9-1.3,7.4-1.4,12.5-4.5C357.2,368.8,357.8,368.6,358.5,368.6z"/>
	<path class="st8" d="M376.6,114c7,1.6,11.6,20.5,11.6,20.5l-11.7,8.8c0,0-6.4-4-8.7-12.9C365.5,121,369.5,112.3,376.6,114z"/>
	<path class="st11" d="M370.6,127.2c3.8,3.8,6.3,9.7,6.6,15.7l-0.6,0.5c0,0-6.4-4-8.7-12.9c-0.1-0.6-0.3-1.1-0.4-1.7L370.6,127.2z"
		/>
	<g>
		<g>
			
				<rect x="351.3" y="151.9" transform="matrix(0.9286 -0.3711 0.3711 0.9286 -37.5418 154.1882)" class="st7" width="61.2" height="45.5"/>
			
				<rect x="351.3" y="152.1" transform="matrix(0.9286 -0.3711 0.3711 0.9286 -37.6336 154.0447)" class="st12" width="60.3" height="45.5"/>
		</g>
		<g class="st13">
			
				<rect x="350.5" y="166" transform="matrix(0.9286 -0.3711 0.3711 0.9286 -37.1279 143.1397)" class="st7" width="5.7" height="4"/>
			
				<rect x="359.3" y="162.5" transform="matrix(0.9286 -0.3711 0.3711 0.9286 -35.2047 146.1382)" class="st7" width="5.7" height="4"/>
			<rect x="368" y="159" transform="matrix(0.9286 -0.3711 0.3711 0.9286 -33.2815 149.1367)" class="st7" width="5.7" height="4"/>
			
				<rect x="376.8" y="155.5" transform="matrix(0.9286 -0.3711 0.3711 0.9286 -31.3583 152.1352)" class="st7" width="5.7" height="4"/>
			
				<rect x="385.5" y="152" transform="matrix(0.9286 -0.3711 0.3711 0.9286 -29.4351 155.1337)" class="st7" width="5.7" height="4"/>
			
				<rect x="394.3" y="148.5" transform="matrix(0.9286 -0.3711 0.3711 0.9286 -27.5118 158.1391)" class="st7" width="5.7" height="4"/>
			
				<rect x="353" y="172.2" transform="matrix(0.9286 -0.3711 0.3711 0.9286 -39.2532 144.5004)" class="st7" width="5.7" height="4"/>
			
				<rect x="361.8" y="168.7" transform="matrix(0.9286 -0.3711 0.3711 0.9286 -37.3302 147.5014)" class="st7" width="5.7" height="4"/>
			
				<rect x="370.5" y="165.2" transform="matrix(0.9286 -0.3711 0.3711 0.9286 -35.407 150.4999)" class="st7" width="5.7" height="4"/>
			
				<rect x="379.3" y="161.7" transform="matrix(0.9286 -0.3711 0.3711 0.9286 -33.4838 153.4984)" class="st7" width="5.7" height="4"/>
			
				<rect x="388" y="158.2" transform="matrix(0.9286 -0.3711 0.3711 0.9286 -31.5606 156.4969)" class="st7" width="5.7" height="4"/>
			
				<rect x="396.8" y="154.7" transform="matrix(0.9286 -0.3711 0.3711 0.9286 -29.6374 159.4954)" class="st7" width="5.7" height="4"/>
			
				<rect x="355.5" y="178.4" transform="matrix(0.9286 -0.3711 0.3711 0.9286 -41.3788 145.8662)" class="st7" width="5.7" height="4"/>
			
				<rect x="364.2" y="174.9" transform="matrix(0.9286 -0.3711 0.3711 0.9286 -39.4554 148.862)" class="st7" width="5.7" height="4"/>
			
				<rect x="373" y="171.4" transform="matrix(0.9286 -0.3711 0.3711 0.9286 -37.5324 151.8632)" class="st7" width="5.7" height="4"/>
			
				<rect x="381.7" y="167.9" transform="matrix(0.9286 -0.3711 0.3711 0.9286 -35.6092 154.8616)" class="st7" width="5.7" height="4"/>
			
				<rect x="390.5" y="164.4" transform="matrix(0.9286 -0.3711 0.3711 0.9286 -33.6861 157.8671)" class="st7" width="5.7" height="4"/>
			
				<rect x="399.2" y="160.9" transform="matrix(0.9286 -0.3711 0.3711 0.9286 -31.7628 160.8657)" class="st7" width="5.7" height="4"/>
			
				<rect x="358" y="184.6" transform="matrix(0.9286 -0.3711 0.3711 0.9286 -43.5042 147.2294)" class="st7" width="5.7" height="4"/>
			
				<rect x="366.7" y="181.1" transform="matrix(0.9286 -0.3711 0.3711 0.9286 -41.581 150.2279)" class="st7" width="5.7" height="4"/>
			
				<rect x="375.5" y="177.6" transform="matrix(0.9286 -0.3711 0.3711 0.9286 -39.6577 153.2237)" class="st7" width="5.7" height="4"/>
			
				<rect x="384.2" y="174.1" transform="matrix(0.9286 -0.3711 0.3711 0.9286 -37.7346 156.2249)" class="st7" width="5.7" height="4"/>
			
				<rect x="393" y="170.6" transform="matrix(0.9286 -0.3711 0.3711 0.9286 -35.8114 159.2234)" class="st7" width="5.7" height="4"/>
			
				<rect x="401.7" y="167.1" transform="matrix(0.9286 -0.3711 0.3711 0.9286 -33.8882 162.2218)" class="st7" width="5.7" height="4"/>
			
				<rect x="360.4" y="190.8" transform="matrix(0.9286 -0.3711 0.3711 0.9286 -45.6294 148.59)" class="st7" width="5.7" height="4"/>
			
				<rect x="369.2" y="187.3" transform="matrix(0.9286 -0.3711 0.3711 0.9286 -43.7065 151.5911)" class="st7" width="5.7" height="4"/>
			
				<rect x="377.9" y="183.8" transform="matrix(0.9286 -0.3711 0.3711 0.9286 -41.7833 154.5896)" class="st7" width="5.7" height="4"/>
			
				<rect x="386.7" y="180.3" transform="matrix(0.9286 -0.3711 0.3711 0.9286 -39.8603 157.5923)" class="st7" width="5.7" height="4"/>
			
				<rect x="395.5" y="176.8" transform="matrix(0.9286 -0.3711 0.3711 0.9286 -37.9372 160.5937)" class="st7" width="5.7" height="4"/>
			
				<rect x="404.2" y="173.3" transform="matrix(0.9286 -0.3711 0.3711 0.9286 -36.0137 163.5851)" class="st7" width="5.7" height="4"/>
			
				<rect x="362.9" y="197" transform="matrix(0.9286 -0.3711 0.3711 0.9286 -47.7551 149.9559)" class="st7" width="5.7" height="4"/>
			
				<rect x="371.7" y="193.5" transform="matrix(0.9286 -0.3711 0.3711 0.9286 -45.8319 152.9544)" class="st7" width="5.7" height="4"/>
			
				<rect x="380.4" y="190" transform="matrix(0.9286 -0.3711 0.3711 0.9286 -43.9087 155.9528)" class="st7" width="5.7" height="4"/>
			
				<rect x="389.2" y="186.5" transform="matrix(0.9286 -0.3711 0.3711 0.9286 -41.9855 158.9513)" class="st7" width="5.7" height="4"/>
			
				<rect x="397.9" y="183.1" transform="matrix(0.9286 -0.3711 0.3711 0.9286 -40.0622 161.947)" class="st7" width="5.7" height="4"/>
			
				<rect x="406.7" y="179.6" transform="matrix(0.9286 -0.3711 0.3711 0.9286 -38.1391 164.9483)" class="st7" width="5.7" height="4"/>
		</g>
		<g>
			<path class="st6" d="M397.1,155.6c-0.3-0.8,0.1-1.7,0.9-2.1c0.8-0.3,1.7,0.1,2.1,0.9c0.3,0.8-0.1,1.7-0.9,2.1
				C398.4,156.8,397.5,156.4,397.1,155.6z"/>
			<path class="st6" d="M395.8,177.7c-0.3-0.8,0.1-1.7,0.9-2.1c0.8-0.3,1.7,0.1,2.1,0.9c0.3,0.8-0.1,1.7-0.9,2.1
				C397.1,178.9,396.2,178.5,395.8,177.7z"/>
			<path class="st6" d="M375.8,178.5c-0.3-0.8,0.1-1.7,0.9-2.1c0.8-0.3,1.7,0.1,2.1,0.9c0.3,0.8-0.1,1.7-0.9,2.1
				C377.1,179.7,376.2,179.3,375.8,178.5z"/>
			<path class="st6" d="M363.3,197.9c-0.3-0.8,0.1-1.7,0.9-2.1c0.8-0.3,1.7,0.1,2.1,0.9c0.3,0.8-0.1,1.7-0.9,2.1
				C364.5,199.1,363.6,198.7,363.3,197.9z"/>
			<path class="st6" d="M364.8,197.9c-0.1,0-0.2,0-0.3-0.1c-0.3-0.2-0.4-0.5-0.2-0.8l12.5-19.4c0.1-0.2,0.3-0.3,0.5-0.3l19.5-0.8
				l1.3-21.6c0-0.3,0.3-0.6,0.6-0.6c0.3,0,0.6,0.3,0.6,0.6l-1.3,22.1c0,0.3-0.3,0.5-0.6,0.6l-19.7,0.8l-12.4,19.1
				C365.2,197.8,365,197.9,364.8,197.9z"/>
		</g>
	</g>
	<path class="st8" d="M332.3,121.5c-1.5,8.1-2.5,24.7,2,57.6h40c-0.7-5.7-3.6-36.1,2.3-65.1c0,0-6.9-1.4-13.4-1.7
		c-5.1-0.2-12.5-0.4-17,0c-1.9,0.2-3.7,0.4-5.4,0.7C336.5,113.8,333.1,117.2,332.3,121.5z"/>
	<path class="st11" d="M338.6,133.9l-7.5,0.6c-0.3,9.7,0.4,23.9,3.2,44.5h0.4C339.1,164.2,345.1,143,338.6,133.9z"/>
	<g>
		<polygon class="st11" points="357.7,352.1 358.1,361.1 365.6,361.1 365.2,352.1 		"/>
	</g>
	<path class="st9" d="M364.7,89.2c-1.9,7.2-2.7,11.5-7.1,14.5c-6.7,4.5-15-0.7-15.2-8.3c-0.2-6.8,3-17.4,10.7-18.9
		C360.6,75.1,366.6,82.1,364.7,89.2z"/>
	<path class="st8" d="M347.9,89.3l-3.9,1l3.6-9.4c-0.4-0.7-1.4-4-0.3-7.2c0.3-0.9,1.1-1.4,2-1.5c8.1-0.2,16.5,4.4,20.7,7.8
		c0.8,0.7,1,1.8,0.5,2.7c-0.9,1.5-2.1,2.7-3.7,4.2c-0.1,2.6-4.4,14.5-6.7,15.8c-2.4,1.3-6.9,0.8-8.1-1.4
		C350.7,99.2,346.6,96.4,347.9,89.3z"/>
	<path class="st9" d="M351.5,89.4c-0.4,1.9-1.6,3.5-2.9,4.5c-1.9,1.5-3.4,0.1-3.3-2.1c0.1-2,1.1-5.2,3.3-5.8
		C350.6,85.4,352,87.3,351.5,89.4z"/>
	<path class="st7" d="M419.9,367.3c0-1,0.1-1.9,0.5-2.2c0.2-0.1,0.4-0.2,0.8,0c0.2,0.1,0.3,0.3,0.4,0.6c0.3,1.2-1.1,3.9-1.2,4
		c0,0.1-0.1,0.1-0.2,0.1s-0.1-0.1-0.1-0.1C420,369.1,419.9,368.2,419.9,367.3z M421.4,366.1c0-0.1,0-0.2,0-0.3
		c0-0.2-0.1-0.3-0.3-0.3c-0.2-0.1-0.3-0.1-0.4,0c-0.5,0.4-0.5,2.2-0.3,3.6C420.8,368.3,421.4,366.9,421.4,366.1z"/>
	<path class="st7" d="M420.1,369.5C420.1,369.5,420.1,369.5,420.1,369.5c0.4-1,2-2.8,2.9-2.6c0.2,0,0.4,0.2,0.5,0.7
		c0,0.4-0.1,0.7-0.3,1c-0.8,1-2.8,1.2-2.9,1.2c-0.1,0-0.1,0-0.2-0.1C420.2,369.6,420.1,369.6,420.1,369.5z M423.2,367.7
		c0,0,0-0.1,0-0.1c0-0.3-0.2-0.3-0.2-0.3c-0.5-0.1-1.8,1.1-2.3,2.1c0.6-0.1,1.8-0.4,2.3-1C423.1,368.1,423.2,367.9,423.2,367.7z"/>
	<polygon class="st9" points="420.3,369.6 412.9,370.1 408.8,352.6 416.1,352.1 	"/>
	<path class="st8" d="M420.2,367.9l-8.1-0.7c-0.3,0-0.6,0.2-0.7,0.5l-2.1,6.5c-0.2,0.7,0.3,1.4,1,1.4c2.9,0.2,7.2,0.4,10.9,0.7
		c4.3,0.4,1.5,0.4,6.6,0.8c3.1,0.3,4.2-2.7,2.9-3.1c-5.7-1.8-6.8-3-8.7-5.3C421.6,368.1,420.9,368,420.2,367.9z"/>
	<g>
		<polygon class="st11" points="408.8,352.6 411,361.6 418.3,361.1 416.2,352.1 		"/>
	</g>
	<path class="st7" d="M348.5,179.1c0,0,17.2,57.5,23.7,78.8c7.2,23.4,34.4,100.9,34.4,100.9l13.2-2.9c0,0-18.6-66.6-26.4-99.2
		c-5.9-25-19.1-77.6-19.1-77.6H348.5z"/>
	<path class="st8" d="M404.3,354.7c-0.1,0,1.3,5.2,1.3,5.2l15.9-1.7l-0.1-4.7L404.3,354.7z"/>
	<path class="st14" d="M358,205.7c9.5,1.3,13.3,34.5,14.7,53.9c-0.2-0.6-0.4-1.2-0.5-1.8c-3.6-11.7-10.3-34.1-15.7-52.1
		C356.9,205.7,357.4,205.6,358,205.7z"/>
	<path class="st7" d="M334.3,179.1c0,0,5.8,56,8.3,78.8c2.6,23.7,12.3,101.5,12.3,101.5h12.7c0,0-1.5-76.4-2-99.7
		c-0.6-25.4-4.9-80.6-4.9-80.6H334.3z"/>
	<path class="st8" d="M352.8,354.3c-0.1,0,0.7,5.3,0.7,5.3H369l0.4-4.7L352.8,354.3z"/>
	<g>
		<path class="st8" d="M280.1,231.8c6.6,10.5,20.5,13.6,30.9,7c10.5-6.6,13.6-20.5,7-30.9c-6.6-10.5-20.5-13.6-30.9-7
			C276.6,207.4,273.5,221.3,280.1,231.8z M315.1,209.7c5.6,8.8,2.9,20.5-5.9,26c-8.8,5.6-20.5,2.9-26.1-5.9
			c-5.6-8.8-2.9-20.5,5.9-26.1C297.8,198.2,309.5,200.9,315.1,209.7z"/>
		<path class="st15" d="M316,223.6c-2.1,9.3-11.4,15.2-20.7,13.1c-9.3-2.1-15.2-11.4-13.1-20.7c2.1-9.3,11.4-15.2,20.7-13.1
			C312.2,205,318.1,214.3,316,223.6z"/>
		<path class="st8" d="M318.7,205.1l2.1,3.3c0.3,0.5,0.2,1.2-0.3,1.5l0,0c-0.5,0.3-1.2,0.2-1.5-0.3l-2.1-3.3
			c-0.3-0.5-0.2-1.2,0.3-1.5l0,0C317.7,204.4,318.4,204.6,318.7,205.1z"/>
		<path class="st8" d="M332.3,195.6c-2.4,1.7-4.8,3.4-7.2,5.1c-2.4,1.7-4.7,3.5-7,5.4c-0.5,0.4-0.7,1.2-0.4,1.8
			c0.3,0.7,1.2,1.1,2,0.7c2.7-1.3,5.3-2.6,7.9-4c2.6-1.4,5.2-2.8,7.7-4.3c2.2-1.3,4.3-2.5,6.5-3.9c0.6-0.4,0.8-1.2,0.4-1.8l-1.7-2.7
			c-0.4-0.6-1.2-0.8-1.8-0.4C336.4,192.8,334.4,194.2,332.3,195.6z"/>
	</g>
	<path class="st7" d="M343.4,124.3c-1.2,6-2.5,12-3.9,18l-4.1,17.9c-1.3,5.8-2.5,11.7-3.5,17.7l-3.1,18l0,0
		c-0.3,1.5-1.7,2.6-3.3,2.3c-1.3-0.2-2.3-1.4-2.3-2.7c-0.2-6.3-0.1-12.4,0.2-18.7c0.4-6.2,0.9-12.5,2-18.7c1-6.1,2.1-12.2,3.2-18.2
		c1.2-6,2.4-12.1,3.8-18c0.7-3.1,3.8-5,6.8-4.3C342.2,118.3,344,121.3,343.4,124.3z"/>
	<path class="st9" d="M327.8,194.2c-0.5-0.5-1.3-0.8-2-0.6l-1.6,0.4c-0.8,0.2-1.5,0.9-1.6,1.7l-0.5,3.6c-0.1,1,0.1,2.1,0.6,3
		l2.2,3.7c0.6,0.8,1.6,1.1,2.5,0.9c0,0,2.3-0.5,2.3-0.5c1.5-0.3,2.3-1.8,1.9-3.2l-0.6-1.9C331.2,201.4,331.1,197.7,327.8,194.2z"/>
	<path class="st8" d="M351.2,120.8c3.6,9.7-8.9,23.4-8.9,23.4l-15.9-5.3c0,0,1.2-13.2,6.7-20.6C339.9,109.2,348.5,113.5,351.2,120.8
		z"/>
</g>
</svg>
