<?xml version="1.0" encoding="utf-8"?>
<!-- Generator: Adobe Illustrator 23.0.2, SVG Export Plug-In . SVG Version: 6.00 Build 0)  -->
<svg version="1.1" id="Layer_1" xmlns="http://www.w3.org/2000/svg" xmlns:xlink="http://www.w3.org/1999/xlink" x="0px" y="0px"
	 viewBox="0 0 500 371.8" style="enable-background:new 0 0 500 371.8;" xml:space="preserve">
<style type="text/css">
	.st0{fill:#ECECEC;}
	.st1{fill:#FAFAFA;}
	.st2{fill:#E1E1E1;}
	.st3{fill:#F0F0F0;}
	.st4{opacity:0.1;fill:#FFFFFF;}
	.st5{opacity:0.3;}
	.st6{fill:#FFFFFF;}
	.st7{fill:#E7E7E7;}
	.st8{fill:#F5F5F5;}
	.st9{opacity:0.8;fill:#FFFFFF;}
	.st10{fill:#007CFF;}
	.st11{opacity:0.1;}
	.st12{opacity:0.7;fill:#FFFFFF;}
	.st13{opacity:0.5;fill:#FFFFFF;}
	.st14{fill:#1A2E35;}
	.st15{fill:#FFC3BD;}
	.st16{opacity:0.2;enable-background:new    ;}
	.st17{opacity:0.2;}
	.st18{opacity:0.6;}
	.st19{opacity:0.5;}
	.st20{opacity:0.3;enable-background:new    ;}
	.st21{fill:#FF847F;}
	.st22{fill:#263237;}
	.st23{fill:#FD5652;}
	.st24{opacity:0.9;fill:#FFFFFF;}
	.st25{opacity:0.8;}
	.st26{fill:none;stroke:#007CFF;stroke-miterlimit:10;}
	.st27{fill:#FFC01C;}
	.st28{fill:#F5BFBF;}
	.st29{opacity:0.3;fill:#FFFFFF;}
	.st30{opacity:0.2;fill:#FFFFFF;}
	.st31{opacity:0.6;fill:#FFFFFF;}
</style>
<rect x="416.8" y="343.3" class="st0" width="33.1" height="0.3"/>
<rect x="322.5" y="346" class="st0" width="8.7" height="0.3"/>
<rect x="396.6" y="334" class="st0" width="19.2" height="0.3"/>
<rect x="52.5" y="335.7" class="st0" width="43.2" height="0.3"/>
<rect x="104.6" y="335.7" class="st0" width="6.3" height="0.3"/>
<rect x="131.5" y="339.9" class="st0" width="93.7" height="0.3"/>
<path class="st0" d="M237,282.6H43.9c-3.1,0-5.7-2.6-5.7-5.7V5.5c0-3.1,2.6-5.7,5.7-5.7H237c3.1,0,5.7,2.6,5.7,5.7v271.4
	C242.7,280,240.2,282.6,237,282.6z M43.9,0c-3,0-5.5,2.4-5.5,5.5v271.4c0,3,2.4,5.5,5.5,5.5H237c3,0,5.5-2.4,5.5-5.5V5.5
	c0-3-2.4-5.5-5.5-5.5H43.9z"/>
<path class="st0" d="M453.3,282.6H260.2c-3.1,0-5.7-2.6-5.7-5.7V5.5c0-3.1,2.6-5.7,5.7-5.7h193.1c3.1,0,5.7,2.6,5.7,5.7v271.4
	C459,280,456.5,282.6,453.3,282.6z M260.2,0c-3,0-5.5,2.4-5.5,5.5v271.4c0,3,2.4,5.5,5.5,5.5h193.1c3,0,5.5-2.4,5.5-5.5V5.5
	c0-3-2.4-5.5-5.5-5.5H260.2z"/>
<rect y="327.2" class="st0" width="500" height="0.3"/>
<g>
	<g>
		<g>
			<rect x="384.4" y="16.2" class="st1" width="71.3" height="241.7"/>
			<g>
				<rect x="368.4" y="101.7" class="st2" width="89.1" height="154"/>
				<polygon class="st2" points="385.5,80.2 385.5,118.8 392.5,118.8 433.3,118.8 440.4,118.8 440.4,80.2 				"/>
				<rect x="374.1" y="107.4" class="st1" width="11.4" height="11.4"/>
				<rect x="396.2" y="107.4" class="st1" width="11.4" height="11.4"/>
				<rect x="418.3" y="107.4" class="st1" width="11.4" height="11.4"/>
				<rect x="440.4" y="107.4" class="st3" width="11.4" height="11.4"/>
				<rect x="374.1" y="128.2" class="st3" width="11.4" height="11.4"/>
				<rect x="396.2" y="128.2" class="st3" width="11.4" height="11.4"/>
				<rect x="418.3" y="128.2" class="st1" width="11.4" height="11.4"/>
				<rect x="440.4" y="128.2" class="st1" width="11.4" height="11.4"/>
				<rect x="374.1" y="148.9" class="st3" width="11.4" height="11.4"/>
				<rect x="396.2" y="148.9" class="st1" width="11.4" height="11.4"/>
				<rect x="418.3" y="148.9" class="st1" width="11.4" height="11.4"/>
				<rect x="396.2" y="89.5" class="st1" width="11.4" height="11.4"/>
				<rect x="418.3" y="89.5" class="st3" width="11.4" height="11.4"/>
				<rect x="440.4" y="148.9" class="st3" width="11.4" height="11.4"/>
				<rect x="374.1" y="169.6" class="st1" width="11.4" height="11.4"/>
				<rect x="396.2" y="169.6" class="st3" width="11.4" height="11.4"/>
				<rect x="418.3" y="169.6" class="st3" width="11.4" height="11.4"/>
				<rect x="440.4" y="169.6" class="st1" width="11.4" height="11.4"/>
				<rect x="374.1" y="190.3" class="st3" width="11.4" height="11.4"/>
				<rect x="396.2" y="190.3" class="st1" width="11.4" height="11.4"/>
				<rect x="418.3" y="190.3" class="st1" width="11.4" height="11.4"/>
				<rect x="440.4" y="190.3" class="st3" width="11.4" height="11.4"/>
				<rect x="374.1" y="211" class="st3" width="11.4" height="11.4"/>
				<rect x="396.2" y="211" class="st1" width="11.4" height="11.4"/>
				<rect x="418.3" y="211" class="st3" width="11.4" height="11.4"/>
				<rect x="440.4" y="211" class="st1" width="11.4" height="11.4"/>
				<rect x="374.1" y="231.8" class="st1" width="11.4" height="11.4"/>
				<rect x="396.2" y="231.8" class="st1" width="11.4" height="11.4"/>
				<rect x="418.3" y="231.8" class="st3" width="11.4" height="11.4"/>
				<rect x="440.4" y="231.8" class="st3" width="11.4" height="11.4"/>
			</g>
			<rect x="384.3" y="16.2" class="st4" width="71.3" height="241.7"/>
			<g class="st5">
				<polygon class="st6" points="448.5,16.2 425.8,16.2 401,257.9 423.7,257.9 				"/>
			</g>
			<rect x="383.8" y="13.1" class="st2" width="72.4" height="6.1"/>
			<rect x="383.8" y="255.8" class="st0" width="72.4" height="6.1"/>
			<g>
				<path class="st0" d="M459.1,267.1h-78.5V7.1h78.5V267.1z M386.5,261.1h66.6v-248h-66.6V261.1z"/>
			</g>
		</g>
		<g>
			<rect x="306.7" y="16.2" class="st1" width="71.3" height="241.7"/>
			<g>
				<rect x="311.6" y="181.8" class="st7" width="60.9" height="74.8"/>
				<polygon class="st7" points="367.2,190.1 353.1,190.1 349.2,190.1 345.3,190.1 345.3,197.9 349.2,197.9 353.1,197.9 
					367.2,197.9 				"/>
				<polygon class="st1" points="367.2,205.2 353.1,205.2 349.2,205.2 345.3,205.2 345.3,213 349.2,213 353.1,213 367.2,213 				"/>
				<polygon class="st7" points="367.2,220.3 353.1,220.3 349.2,220.3 345.3,220.3 345.3,228.1 349.2,228.1 353.1,228.1 
					367.2,228.1 				"/>
				<polygon class="st1" points="367.2,235.5 353.1,235.5 347,235.5 345.3,235.5 345.3,243.3 347,243.3 353.1,243.3 367.2,243.3 
									"/>
				<polygon class="st1" points="338.9,190.1 324.7,190.1 320.8,190.1 316.9,190.1 316.9,197.9 320.8,197.9 324.7,197.9 
					338.9,197.9 				"/>
				<polygon class="st1" points="338.9,205.2 324.7,205.2 319.2,205.2 316.9,205.2 316.9,213 319.2,213 324.7,213 338.9,213 				"/>
				<polygon class="st7" points="338.9,220.3 324.7,220.3 320.8,220.3 316.9,220.3 316.9,228.1 320.8,228.1 324.7,228.1 
					338.9,228.1 				"/>
				<polygon class="st1" points="338.9,235.5 324.7,235.5 320.8,235.5 316.9,235.5 316.9,243.3 320.8,243.3 324.7,243.3 
					338.9,243.3 				"/>
			</g>
			<rect x="306.5" y="16.2" class="st4" width="71.3" height="241.7"/>
			<g class="st5">
				<polygon class="st6" points="370.8,16.2 348.1,16.2 323.3,257.9 346,257.9 				"/>
			</g>
			<rect x="306.1" y="13.1" class="st2" width="72.4" height="6.1"/>
			<rect x="306.1" y="255.8" class="st0" width="72.4" height="6.1"/>
			<g>
				<path class="st0" d="M381.4,267.1h-78.5V7.1h78.5V267.1z M308.8,261.1h66.6v-248h-66.6V261.1z"/>
			</g>
		</g>
	</g>
	<g>
		<g>
			<rect x="120" y="16.2" class="st1" width="71.3" height="241.7"/>
			<rect x="119.9" y="16.2" class="st4" width="71.3" height="241.7"/>
			<g class="st5">
				<polygon class="st6" points="184.1,16.2 161.4,16.2 136.6,257.9 159.3,257.9 				"/>
			</g>
			<rect x="119.4" y="13.1" class="st2" width="72.4" height="6.1"/>
			<rect x="119.4" y="255.8" class="st0" width="72.4" height="6.1"/>
			<g>
				<path class="st0" d="M194.7,267.1h-78.5V7.1h78.5V267.1z M122.1,261.1h66.6v-248h-66.6V261.1z"/>
			</g>
		</g>
		<g>
			<rect x="42.4" y="16.2" class="st1" width="71.3" height="241.7"/>
			<g>
				<rect x="47.8" y="118.5" class="st7" width="55.1" height="46.3"/>
				<rect x="51.3" y="124.3" class="st1" width="7.1" height="7.1"/>
				<rect x="65" y="124.3" class="st1" width="7.1" height="7.1"/>
				<rect x="78.6" y="124.3" class="st1" width="7.1" height="7.1"/>
				<rect x="92.3" y="124.3" class="st1" width="7.1" height="7.1"/>
				<rect x="51.3" y="137.1" class="st1" width="7.1" height="7.1"/>
				<rect x="65" y="137.1" class="st1" width="7.1" height="7.1"/>
				<rect x="78.6" y="137.1" class="st1" width="7.1" height="7.1"/>
				<rect x="92.3" y="137.1" class="st7" width="7.1" height="7.1"/>
				<rect x="51.3" y="150" class="st7" width="7.1" height="7.1"/>
				<rect x="65" y="150" class="st7" width="7.1" height="7.1"/>
				<rect x="78.6" y="150" class="st1" width="7.1" height="7.1"/>
				<rect x="92.3" y="150" class="st7" width="7.1" height="7.1"/>
			</g>
			<g>
				<rect x="47.8" y="164.2" class="st7" width="55.1" height="46.3"/>
				<rect x="51.3" y="170" class="st1" width="7.1" height="7.1"/>
				<rect x="65" y="170" class="st1" width="7.1" height="7.1"/>
				<rect x="78.6" y="170" class="st1" width="7.1" height="7.1"/>
				<rect x="92.3" y="170" class="st1" width="7.1" height="7.1"/>
				<rect x="51.3" y="182.8" class="st1" width="7.1" height="7.1"/>
				<rect x="65" y="182.8" class="st1" width="7.1" height="7.1"/>
				<rect x="78.6" y="182.8" class="st1" width="7.1" height="7.1"/>
				<rect x="92.3" y="182.8" class="st7" width="7.1" height="7.1"/>
				<rect x="51.3" y="195.6" class="st7" width="7.1" height="7.1"/>
				<rect x="65" y="195.6" class="st7" width="7.1" height="7.1"/>
				<rect x="78.6" y="195.6" class="st1" width="7.1" height="7.1"/>
				<rect x="92.3" y="195.6" class="st7" width="7.1" height="7.1"/>
			</g>
			<g>
				<rect x="47.8" y="209.9" class="st7" width="55.1" height="46.3"/>
				<rect x="51.3" y="215.7" class="st1" width="7.1" height="7.1"/>
				<rect x="65" y="215.7" class="st1" width="7.1" height="7.1"/>
				<rect x="78.6" y="215.7" class="st1" width="7.1" height="7.1"/>
				<rect x="92.3" y="215.7" class="st1" width="7.1" height="7.1"/>
				<rect x="51.3" y="228.5" class="st1" width="7.1" height="7.1"/>
				<rect x="65" y="228.5" class="st1" width="7.1" height="7.1"/>
				<rect x="78.6" y="228.5" class="st1" width="7.1" height="7.1"/>
				<rect x="92.3" y="228.5" class="st7" width="7.1" height="7.1"/>
				<rect x="51.3" y="241.3" class="st7" width="7.1" height="7.1"/>
				<rect x="65" y="241.3" class="st7" width="7.1" height="7.1"/>
				<rect x="78.6" y="241.3" class="st1" width="7.1" height="7.1"/>
				<rect x="92.3" y="241.3" class="st7" width="7.1" height="7.1"/>
			</g>
			<rect x="41.4" y="16.2" class="st4" width="71.3" height="241.7"/>
			<g class="st5">
				<polygon class="st6" points="106.5,16.2 83.8,16.2 59,257.9 81.7,257.9 				"/>
			</g>
			<rect x="41.8" y="13.1" class="st2" width="72.4" height="6.1"/>
			<rect x="41.8" y="255.8" class="st0" width="72.4" height="6.1"/>
			<g>
				<path class="st0" d="M117.1,267.1H38.5V7.1h78.5V267.1z M44.5,261.1h66.6v-248H44.5V261.1z"/>
			</g>
		</g>
	</g>
</g>
<g>
	<g>
		<g>
			<g>
				<g>
					<path class="st2" d="M243.5,299.4l-0.8,0.1c-0.1-0.4-4.9-41.1,5.1-74.3c10-33,3.1-54.1,3-54.3l0.8-0.3c0.1,0.2,7,21.5-3,54.8
						C238.6,258.5,243.5,299,243.5,299.4z"/>
				</g>
				<g>
					<g>
						<path class="st2" d="M252.3,175.4c-1.7-2.1-4.1-3.5-6.8-4.2l0.2-0.8c2.8,0.7,5.3,2.2,7.2,4.4L252.3,175.4z"/>
					</g>
				</g>
				<g>
					
						<rect x="253.4" y="179.4" transform="matrix(0.8706 -0.4919 0.4919 0.8706 -55.4835 148.5941)" class="st2" width="2.7" height="0.8"/>
				</g>
				<g>
					<path class="st2" d="M251.4,197.5c-2-4.6-5.8-8.2-10.4-10.1l0.3-0.7c4.8,1.9,8.8,5.8,10.8,10.5L251.4,197.5z"/>
				</g>
				<g>
					<path class="st2" d="M249.3,222.9l-0.8,0c0-3.3-1.6-6.5-4.2-8.5l0.5-0.6C247.5,216,249.2,219.4,249.3,222.9z"/>
				</g>
				<g>
					<path class="st2" d="M247.5,229.4l-0.8-0.3c0.8-2.1,2.5-3.7,4.6-4.5l0.3,0.8C249.7,226.1,248.2,227.6,247.5,229.4z"/>
				</g>
				<g>
					<path class="st2" d="M242.2,270.7l-0.6-0.5c1-1.2,1.7-5.7,2.1-8.1c0.1-0.6,0.2-1.1,0.2-1.4l0.8,0.2c-0.1,0.4-0.1,0.8-0.2,1.4
						C243.9,265.8,243.3,269.4,242.2,270.7z"/>
				</g>
				<g>
					<path class="st2" d="M241.8,283.6c-1-3.2-4.4-5.5-7.7-5.3l0-0.8c3.7-0.2,7.4,2.4,8.5,5.9L241.8,283.6z"/>
				</g>
				<g>
					
						<rect x="241.1" y="295.1" transform="matrix(0.6663 -0.7456 0.7456 0.6663 -138.46 281.5746)" class="st2" width="8.5" height="0.8"/>
				</g>
			</g>
			<g>
				<path class="st3" d="M252,250.5c1.3,4.2-7.7,12.1-7.7,12.1s-11.9-1.5-13.2-5.7c-1.3-4.2,1.7-11,7.5-12.8
					C244.3,242.4,250.7,246.4,252,250.5z"/>
				<path class="st0" d="M261.9,199.9c-1.1,4.4-9.7,7.6-9.7,7.6s-5.9-6.9-4.8-11.3c1.1-4.4,5.8-9.3,9.8-8.3
					C261.3,188.9,263.1,195.5,261.9,199.9z"/>
				<path class="st8" d="M227.8,266.1c5.3,2.1,8.6,11.5,8.6,11.5s-8.8,4.8-14.2,2.7c-5.3-2.1-11-7.9-9.5-11.9
					C214.3,264.5,222.4,264,227.8,266.1z"/>
				<path class="st7" d="M239.5,214.1c1.1,0.8,2.3,1.7,3.7,2.1c1.4,0.4,3,0.1,3.9-0.9c1.1-1.3,0.8-3.4,0.1-4.9
					c-1.4-3.1-6.7-8.5-10.7-7C230.6,205.6,236.9,212.2,239.5,214.1z"/>
				<path class="st0" d="M251.4,222.1c-0.8,0.9-1.6,2.1-1.2,3.3c0.4,1,1.6,1.5,2.7,1.3c1.1-0.2,2-0.8,2.9-1.4
					c2.1-1.4,6.3-4.4,3.6-7.2C256.7,215.2,253.1,220.1,251.4,222.1z"/>
				<path class="st2" d="M234.2,182.1c-0.9,0.1-1.8,0.7-1.9,1.6c-0.2,1,0.7,1.9,1.5,2.6c2,1.6,8.2,5.8,9.6,1.7
					C244.6,184.1,236.9,181.8,234.2,182.1z"/>
				<g>
					<path class="st7" d="M245.5,168.6c-1.3,0.1-2.5-0.3-3.8-0.3c-1.3,0.1-2.7,1.1-2.4,2.3c0.3,1.1,1.7,1.5,2.9,1.6c2,0.1,4,0,6-0.4
						c0.5-0.1,1-0.2,1.2-0.6c0.5-0.8-0.3-1.8-1.2-2C247.4,169,246.4,169.1,245.5,168.6L245.5,168.6z"/>
				</g>
				<g>
					<path class="st3" d="M258,177.3c1.3,0,2.5-0.5,3.8-0.5c1.3,0,2.8,0.9,2.6,2.2c-0.2,1.2-1.6,1.6-2.8,1.8c-2,0.3-4,0.3-6,0
						c-0.5-0.1-1-0.2-1.3-0.5c-0.6-0.7,0.2-1.8,1-2.1C256.2,177.8,257.2,177.8,258,177.3L258,177.3z"/>
				</g>
				<g>
					<path class="st3" d="M256.7,271.3c0.3-0.3,0.7-0.5,1.1-0.5c0.5,0,1,0.5,1.1,1.1c0.1,0.5,0,1.1-0.2,1.6
						c-0.9,2.9-10.6,23.8-12.8,20.1c-1.3-2.2,1.9-9.6,2.9-11.7C250.6,277.8,253.3,274.2,256.7,271.3z"/>
				</g>
			</g>
		</g>
		<g>
			<path class="st7" d="M250.9,169.4c0.8-1.7,1.6-3.5,3.1-4.7c1.5-1.1,4-1.2,5.1,0.3c1.2,1.7,0,4.3-1.9,5.2
				c-1.9,0.9-4.1,0.6-6.2,0.3c0-0.3,0-0.6-0.1-0.9L250.9,169.4z"/>
		</g>
	</g>
	<g>
		<path class="st3" d="M257.7,327.4L257.7,327.4c-10.3,1.8-21.1,1.8-31.4,0l0,0l-12.2-36h55.8L257.7,327.4z"/>
	</g>
</g>
<g>
	<g>
		<circle class="st2" cx="250.6" cy="37" r="20.7"/>
		
			<ellipse transform="matrix(0.1602 -0.9871 0.9871 0.1602 173.565 276.3592)" class="st0" cx="249.2" cy="36.2" rx="20.7" ry="20.7"/>
		<path class="st9" d="M265.8,36.3c0,9.2-7.4,16.6-16.6,16.6c-9.2,0-16.6-7.4-16.6-16.6c0-9.2,7.4-16.6,16.6-16.6
			C258.4,19.7,265.8,27.1,265.8,36.3z"/>
	</g>
	<g>
		<g>
			<path class="st2" d="M248.3,37.9c-0.7-0.7-0.7-1.7,0-2.4c0.7-0.7,1.7-0.7,2.4,0c0.7,0.7,0.7,1.7,0,2.4
				C250,38.5,249,38.5,248.3,37.9z"/>
		</g>
		<g>
			<polygon class="st2" points="249.2,36.1 259,35.8 259,36.8 250.1,37.1 249.2,52.6 248.2,52.5 			"/>
		</g>
	</g>
</g>
<ellipse id="_x3C_Path_x3E__359_" class="st8" cx="250" cy="360.5" rx="193.9" ry="11.3"/>
<g>
	<g>
		<g>
			<path class="st10" d="M430.4,307.7l5.1-80.9c1.9-30-22-55.4-52.1-55.4h0c-27.7,0-50.5,21.6-52.1,49.2l-5.3,94.4h96.5
				C426.7,315.1,430.1,311.8,430.4,307.7z"/>
			<path class="st11" d="M430.5,304.8l4.9-77.9c1.9-30-22-55.4-52.1-55.4h0c-27.7,0-50.5,21.6-52.1,49.2l-5.3,94.4h93.6
				C425.4,315.1,430.2,310.6,430.5,304.8z"/>
		</g>
		<path class="st10" d="M414.7,315.1l5.5-88.2c1.9-30-22-55.4-52.1-55.4h0c-27.7,0-50.5,21.6-52.1,49.2l-5.3,94.4H414.7z"/>
	</g>
	<g>
		<path class="st10" d="M416.3,330.3l1.3,0c0.7,0,1.3-0.6,1.4-1.4l2-13.8H413l2,13.8C415,329.7,415.7,330.3,416.3,330.3z"/>
		<path class="st12" d="M416.3,330.3l1.3,0c0.7,0,1.3-0.6,1.4-1.4l2-13.8H413l2,13.8C415,329.7,415.7,330.3,416.3,330.3z"/>
	</g>
	<g>
		<path class="st10" d="M285.7,330.3l1.2,0c0.6,0,1.2-0.6,1.3-1.4l1.8-13.8h-7.4l1.8,13.8C284.5,329.7,285.1,330.3,285.7,330.3z"/>
		<path class="st13" d="M285.7,330.3l1.2,0c0.6,0,1.2-0.6,1.3-1.4l1.8-13.8h-7.4l1.8,13.8C284.5,329.7,285.1,330.3,285.7,330.3z"/>
	</g>
	<g>
		<path class="st10" d="M323.3,330.3l1.2,0c0.6,0,1.2-0.6,1.3-1.4l1.8-13.8h-7.4l1.8,13.8C322.1,329.7,322.7,330.3,323.3,330.3z"/>
		<path class="st12" d="M323.3,330.3l1.2,0c0.6,0,1.2-0.6,1.3-1.4l1.8-13.8h-7.4l1.8,13.8C322.1,329.7,322.7,330.3,323.3,330.3z"/>
	</g>
	<g>
		<path class="st10" d="M375.8,330.3l1.3,0c0.7,0,1.3-0.6,1.4-1.4l2-13.8h-8.1l2,13.8C374.5,329.7,375.2,330.3,375.8,330.3z"/>
		<path class="st13" d="M375.8,330.3l1.3,0c0.7,0,1.3-0.6,1.4-1.4l2-13.8h-8.1l2,13.8C374.5,329.7,375.2,330.3,375.8,330.3z"/>
	</g>
	<g>
		<g>
			<path class="st10" d="M331.8,281.8h-35.6l-2.4-34.3l-0.5-7.4v0l-0.2-3.4c-0.1-0.9-0.2-1.8-0.3-2.7c0-0.2-0.1-0.4-0.1-0.6
				c0-0.1-0.1-0.3-0.1-0.4c-1-3.6-2.9-6.8-5.4-9.2c-3-2.9-6.9-4.8-11.1-5h33.4c0.4,0,0.7,0,1.1,0c4.6,0,8.9,1.9,12.1,5
				c2.5,2.4,4.4,5.6,5.4,9.2c0,0.1,0.1,0.3,0.1,0.4c0.2,1,0.4,2.1,0.5,3.2l0.2,3.4v0L331.8,281.8z"/>
			<path class="st11" d="M331.8,281.8h-35.6l-2.4-34.3l-0.5-7.4v0l-0.2-3.4c-0.1-0.9-0.2-1.8-0.3-2.7c0-0.2-0.1-0.4-0.1-0.6
				c0-0.1-0.1-0.3-0.1-0.4c-1-3.6-2.9-6.8-5.4-9.2c-3-2.9-6.9-4.8-11.1-5h33.4c0.4,0,0.7,0,1.1,0c4.6,0,8.9,1.9,12.1,5
				c2.5,2.4,4.4,5.6,5.4,9.2c0,0.1,0.1,0.3,0.1,0.4c0.2,1,0.4,2.1,0.5,3.2l0.2,3.4v0L331.8,281.8z"/>
		</g>
	</g>
	<g class="st11">
		<path d="M360,263.5h14.3c3.5,0,6.3,2.2,6.3,4.9v8.4c0,2.7-2.8,4.9-6.3,4.9H360V263.5z"/>
	</g>
	<g>
		<path class="st10" d="M301.7,281.8h62.9c3,0,5.4-2.4,5.4-5.4v-7.4c0-3-2.4-5.4-5.4-5.4h-62.9c-3,0-5.4,2.4-5.4,5.4v7.4
			C296.3,279.3,298.7,281.8,301.7,281.8z"/>
	</g>
	<path class="st10" d="M450,239.1c0,10-7.3,18.3-16.8,20l-3.7,48.7c-0.3,4.1-3.3,7.3-6.9,7.3h-39.2c3.6,0,6.6-3.2,6.9-7.3l2-26
		L394,259c6.3-1.1,11.7-5.1,14.5-10.7c0.2-0.4,0.4-0.7,0.5-1.1c1.1-2.5,1.7-5.3,1.7-8.2c0-1.4-0.1-2.8-0.4-4.1
		c-0.1-0.5-0.2-1.1-0.4-1.6c-0.7-2.4-1.9-4.6-3.4-6.6l0,0c-1.9-2.4-4.3-4.4-7-5.8c-2.7-1.4-5.8-2.1-9.1-2.1h39.2
		c2.1,0,4.1,0.3,6,0.9c1.1,0.3,2.1,0.7,3.1,1.2c2.7,1.4,5.1,3.3,7,5.8l0,0C448.5,230.2,450,234.4,450,239.1z"/>
	<path class="st11" d="M450,239.1c0,10-7.3,18.3-16.8,20l-3.7,48.7c-0.3,4.1-3.3,7.3-6.9,7.3h-39.2c3.6,0,6.6-3.2,6.9-7.3l2-26
		L394,259c6.3-1.1,11.7-5.1,14.5-10.7c0.2-0.4,0.4-0.7,0.5-1.1c1.1-2.5,1.7-5.3,1.7-8.2c0-1.4-0.1-2.8-0.4-4.1
		c-0.1-0.5-0.2-1.1-0.4-1.6c-0.7-2.4-1.9-4.6-3.4-6.6l0,0c-1.9-2.4-4.3-4.4-7-5.8c-2.7-1.4-5.8-2.1-9.1-2.1h39.2
		c2.1,0,4.1,0.3,6,0.9c1.1,0.3,2.1,0.7,3.1,1.2c2.7,1.4,5.1,3.3,7,5.8l0,0C448.5,230.2,450,234.4,450,239.1z"/>
	<path class="st10" d="M410.8,239.1c0,10-6.6,18.3-15.2,20l-3.3,48.7c-0.3,4.1-3,7.3-6.3,7.3H281.2c-3.3,0-6-3.2-6.3-7.3l-3.3-48.8
		c-8.5-1.8-14.9-10-14.9-19.9c0-4.4,1.3-8.4,3.4-11.7c1.7-2.7,4.1-4.9,6.8-6.4c2.5-1.4,5.3-2.1,8.2-2.1c4.6,0,8.9,1.9,12.1,5
		c2.5,2.4,4.4,5.6,5.4,9.2c0,0.1,0.1,0.3,0.1,0.4c0.2,1,0.4,2.1,0.5,3.2l0.2,3.4v0l2.9,41.6h74.6l3.1-45c0.4-6.4,3.5-11.7,7.8-14.2
		c2.7-2.1,6-3.5,9.5-3.7c0.4,0,0.7,0,1.1,0c2.9,0,5.6,0.7,8,2c0.1,0,0.1,0.1,0.2,0.1c2.5,1.4,4.7,3.3,6.4,5.8l0,0
		C409.4,230.2,410.8,234.4,410.8,239.1z"/>
	<g>
		<path class="st4" d="M369.2,315.1h-88c-3.3,0-6-3.2-6.3-7.3l-3.3-48.8c-8.5-1.8-14.9-10-14.9-19.9c0-4.4,1.3-8.4,3.4-11.7
			c1.7-2.7,4.1-4.9,6.8-6.4c2.5-1.4,5.3-2.1,8.2-2.1c4.6,0,8.9,1.9,12.1,5c2.5,2.4,4.4,5.6,5.4,9.2c0,0.1,0.1,0.3,0.1,0.4
			c0.2,1,0.4,2.1,0.5,3.2l0.2,3.4v0l2.9,41.6h74.6L369.2,315.1z"/>
	</g>
	<g>
		<g>
			<g>
				<path class="st14" d="M357.8,176.5c-1.7,1-3.3,1.8-5,2.7c-1.6,0.8-3.3,1.6-5,2.4c-3.4,1.5-6.8,3-10.3,4.3
					c-3.5,1.3-7.1,2.5-10.8,3.4c-3.8,1-7.7,1.7-11.6,2.1l-0.8,0.1l-0.4,0c-3.5-0.4-6.7-1-9.8-1.7c-3.1-0.7-6.3-1.4-9.3-2.2
					c-3.1-0.8-6.1-1.6-9.2-2.5c-3.1-0.9-6.1-1.8-9.1-2.8l1.4-6.9c6.3,0.4,12.6,1,18.8,1.7l9.3,0.9c3.1,0.3,6.2,0.6,8.9,0.7l-1.2,0
					c3.1-0.6,6.2-1.3,9.3-2.3c3.1-1,6.3-2.1,9.4-3.5c3.1-1.3,6.2-2.7,9.3-4.2c1.6-0.7,3.1-1.5,4.6-2.2c1.5-0.7,3.1-1.5,4.5-2.3
					L357.8,176.5z"/>
				<path class="st11" d="M357.8,176.5c-1.7,1-3.3,1.8-5,2.7c-1.6,0.8-3.3,1.6-5,2.4c-3.4,1.5-6.8,3-10.3,4.3
					c-3.5,1.3-7.1,2.5-10.8,3.4c-3.8,1-7.7,1.7-11.6,2.1l-0.8,0.1l-0.4,0c-3.5-0.4-6.7-1-9.8-1.7c-3.1-0.7-6.3-1.4-9.3-2.2
					c-3.1-0.8-6.1-1.6-9.2-2.5c-3.1-0.9-6.1-1.8-9.1-2.8l1.4-6.9c6.3,0.4,12.6,1,18.8,1.7l9.3,0.9c3.1,0.3,6.2,0.6,8.9,0.7l-1.2,0
					c3.1-0.6,6.2-1.3,9.3-2.3c3.1-1,6.3-2.1,9.4-3.5c3.1-1.3,6.2-2.7,9.3-4.2c1.6-0.7,3.1-1.5,4.6-2.2c1.5-0.7,3.1-1.5,4.5-2.3
					L357.8,176.5z"/>
			</g>
			<path class="st15" d="M276.6,171.5c-2.3-1.7-4.8-2.4-4.8-2.4l-2.6,10.1l7.8,3.3l0.9-1.1C280.3,178.4,279.8,173.8,276.6,171.5z"/>
			<polygon class="st15" points="269.2,179.2 271.8,169.1 264.5,165.2 262.4,172.3 			"/>
			<path class="st16" d="M333.4,186.7l0.3,0l0.1,0c3.8-0.4,15-2.3,23.2-10.3c-1.2-2.3-2.9-4.2-4.9-4.6
				C346.5,170.9,339.6,174.9,333.4,186.7z"/>
			<path class="st10" d="M340,239.1c9.6-25.9,3.3-49.7,4.5-62.8c0.6-6.7,5.6-12.1,12.1-13.4c6.5-1.3,14.6-2.7,22.3-3.7
				c0.7-0.1,1.5-0.1,2.2-0.1c8.3,0.1,15,7,14.9,15.3c-0.7,39-13.2,64.7-13.2,64.7l-20.2-0.1L340,239.1z"/>
			<path class="st9" d="M340,239.1c9.6-25.9,3.3-49.7,4.5-62.8c0.6-6.7,5.6-12.1,12.1-13.4c6.5-1.3,14.6-2.7,22.3-3.7
				c0.7-0.1,1.5-0.1,2.2-0.1c8.3,0.1,15,7,14.9,15.3c-0.7,39-13.2,64.7-13.2,64.7l-20.2-0.1L340,239.1z"/>
			<g id="character-2--inject-102">
				<polygon class="st15" points="263.4,327.3 260.8,344.2 268.9,344.2 274.3,327.3 				"/>
				<path class="st14" d="M259.8,340.4l10.9-0.3c0.4,0,0.7,0.2,0.7,0.6l0,8c0,0.9-0.9,1.6-1.8,1.6c-3.8,0-5.6-0.1-10.4,0
					c-5.1,0-10.2-0.4-15.2-1c-3.9-0.7-2.8-4.3-1.1-4.4c7.9-0.3,12.3-1.9,15.2-4C258.6,340.6,259.2,340.4,259.8,340.4z"/>
				<polygon class="st17" points="262.3,334.1 263.4,327.3 274.3,327.3 271.6,335.8 				"/>
				<g>
					<path class="st10" d="M335,233c0,0-66.1,0.7-67.2,21.6c-1.5,30.1-6.6,76-6.6,76l12.5,3.4c0,0,17.8-45.5,18.5-69.1
						c18.6-3.7,66.4,0,72.1-12.2c2.8-6.4,3.5-13.2,2.1-19.8H335z"/>
					<path class="st18" d="M335,233c0,0-66.1,0.7-67.2,21.6c-1.5,30.1-6.6,76-6.6,76l12.5,3.4c0,0,17.8-45.5,18.5-69.1
						c18.6-3.7,66.4,0,72.1-12.2c2.8-6.4,3.5-13.2,2.1-19.8H335z"/>
				</g>
				<polygon class="st15" points="321.6,333.8 326,345.3 334.9,345.3 331.8,333.3 				"/>
				<polygon class="st17" points="332.6,336.5 330.9,327.7 319.7,329.1 322.5,336.7 				"/>
				<path class="st14" d="M323.6,341.5h11.4c0.4,0,0.7,0.3,0.8,0.6c0,0,0,0,0,0l0.6,8.5c0,0.9-0.8,1.7-1.8,1.7
					c-4-0.1-5.9-0.3-10.9-0.3c-3.1,0-9.3,0.3-13.5,0.3c-4.3,0-4.1-4-2.3-4.3c8.1-1.6,11.2-3.9,14.1-6
					C322.3,341.7,322.9,341.5,323.6,341.5z"/>
				<path class="st10" d="M352.8,233c0,0-60,4.1-58.5,25c1.6,22.9,25.6,76.1,25.6,76.1H332c0,0-8.1-48.2-11.7-71.6
					c16.9,0,56.1,2.6,61.8-9.7c2.8-6.4,3.5-13.2,2.1-19.8L352.8,233z"/>
				<path class="st19" d="M352.8,233c0,0-60,4.1-58.5,25c1.6,22.9,25.6,76.1,25.6,76.1H332c0,0-8.1-48.2-11.7-71.6
					c16.9,0,56.1,2.6,61.8-9.7c2.8-6.4,3.5-13.2,2.1-19.8L352.8,233z"/>
			</g>
			<path class="st15" d="M361.9,148.2c1.4,5.3,1.8,12-5.6,14.7c-2.1,3.3-3.1,6.8,4.9,5.5c6.3-0.8,12.1-4.1,16.1-9.1
				c-4.8-4.2-3.9-17-2.7-24.2L361.9,148.2z"/>
			<g>
				<path class="st14" d="M361,157.9c-6.8,1.2-12.5,6.5-15.5,12.7c-3,6.3-3.7,13.4-3.7,20.3c0.1,6.9,0.8,13.9,0.7,20.8
					c-0.2,8-2.1,13.7-4.9,21.2c0,1.8,2.7,2.8,5,3.3c4.8-10.4,7.9-20.4,7.6-31.9c-0.2-8.3-0.4-17.8,1-26c1.3-8.1,11.2-18.9,10.7-20.4
					L361,157.9z"/>
			</g>
			<path class="st20" d="M367.7,152.1c-1.6,1.1-3.5,1.6-5.1,1.2c0-1.3-0.1-2.6-0.3-3.9l8.3-6.8c0.2,0.9,0.3,1.8,0.4,2.7
				C371.1,148,369.9,150.7,367.7,152.1z"/>
			<g>
				<g>
					<path class="st15" d="M355.3,116.6c-8.8,4.9-8.8,18.9-6.1,27c0.8,2.4,2.3,4.5,4.3,6c5.4,4,13,2.9,17-2.4
						c4.3-5.4,3.7-10.9,3.5-20.3C373.6,117.6,364.1,111.7,355.3,116.6z"/>
					<path class="st16" d="M358.1,141.8c-2.8,1.2-5.9,2.8-8.8,2.4c0.8,2.2,2.2,4,4.1,5.4c5.4,4,13,2.9,17-2.4
						c3.5-4.4,4.6-7.4,3.6-15.5C368.5,138.1,364.2,139.2,358.1,141.8z"/>
					<path class="st14" d="M366.6,119.8c-1.9,2.9-1.5,7.1,0.9,9.6c0.8,0.8,1.8,1.5,2.5,2.3c1.2,1.3,1.8,3.1,1.7,4.9
						c0.3-2.3,2.4-4.2,4.7-4.2c-1.2,3.7-2.4,7.3-3.6,11c4.7-2.1,8.1-6.9,8.7-12C382.4,124.2,373.6,109,366.6,119.8z"/>
					<path class="st14" d="M346.2,120.3c-0.6,0.8-1.2,1.6-1.4,2.6c-0.2,1,0.2,2.1,1.1,2.6c0.7,0.4,1.6,0.3,2.4,0.1
						c2.7-0.5,5.3-0.9,8-1.4c4.6-0.8,9.2-1.6,13.7-2.7c2-0.5,4.3-1.2,5.1-3.2c2.6-6.2-8.5-7.1-12.2-6.9
						C356.5,111.8,350.1,115.4,346.2,120.3z"/>
					<path class="st15" d="M375.3,130.7c-2.6,0.6-3.7,4.4-3.7,6.8c0,2.7,2,4.5,4.3,2.9c1.7-1.3,2.9-3.2,3.3-5.3
						C379.7,132.5,377.9,130.1,375.3,130.7z"/>
					<path class="st21" d="M356.8,140.3c0,0-1.5,1-2.7,0.4c1-2.3,0.9-1.7,1.2-5.6L356.8,140.3z"/>
					<path class="st14" d="M361.4,127.8c-0.8-0.8-2.8-1.2-3.9-1l0,0c0,0,0,0,0,0c-0.2,0-0.5-0.1-0.5-0.4c0-0.2,0.1-0.5,0.4-0.5
						c1.4-0.2,3.7,0.2,4.7,1.3c0,0,0,0,0,0c0.2,0.2,0.1,0.5,0,0.6c-0.1,0.1-0.1,0.1-0.2,0.1C361.6,127.9,361.5,127.9,361.4,127.8z"
						/>
					<path class="st14" d="M348.4,129.7C348.4,129.7,348.4,129.7,348.4,129.7c-0.2-0.1-0.3-0.4-0.1-0.6c0.7-1.3,2-2.1,3.4-2.4
						c0,0,0,0,0,0c0.2,0,0.4,0.2,0.4,0.4c0,0.3-0.2,0.5-0.4,0.5c-1.1,0.2-2.1,0.9-2.7,1.9c-0.1,0.1-0.2,0.2-0.4,0.2
						C348.6,129.7,348.5,129.7,348.4,129.7z"/>
				</g>
				<g>
					<path class="st22" d="M356,144.3c1.1,1.3,2.6,3.8,2.6,3.8c0.2-0.1,0.4-0.2,0.6-0.3c2.8-1.2,3.6-2.9,3.7-4.4
						c0-0.8-0.2-1.6-0.5-2.2c-0.3-0.7-0.6-1.2-0.6-1.2c-1,1.7-3.5,3.1-4.9,3.8C356.4,144.2,356,144.3,356,144.3z"/>
					<path class="st6" d="M356.9,143.9l0.4,0.6c0.2,0.3,0.7,0.4,1,0.3c2.1-1,3.5-2,4-3.1c0.1-0.2,0.1-0.5,0-0.7
						c-0.2-0.5-0.5-0.8-0.5-0.8C360.8,141.8,358.3,143.2,356.9,143.9z"/>
					<path class="st23" d="M359.3,147.9c2.8-1.2,3.6-2.9,3.7-4.4c-0.9,0.5-2,1.1-2.8,2.1C359.5,146.3,359.3,147.2,359.3,147.9z"/>
				</g>
				<g>
					<path class="st14" d="M351.7,132.8c-0.5,0.1-0.8,0.8-0.6,1.5s0.7,1.3,1.2,1.2c0.5-0.1,0.8-0.8,0.6-1.5
						C352.7,133.3,352.1,132.8,351.7,132.8z"/>
				</g>
				<g>
					<path class="st14" d="M360.2,131.4c-0.5,0.1-0.8,0.8-0.6,1.5c0.1,0.8,0.7,1.3,1.2,1.2c0.5-0.1,0.8-0.8,0.6-1.5
						C361.3,131.9,360.7,131.3,360.2,131.4z"/>
				</g>
				<g>
					<polygon class="st24" points="347.9,136.9 354.2,135.4 354.3,138.1 348.4,139.5 					"/>
					<g class="st25">
						<polygon class="st24" points="356.1,135 356.9,137.5 364.9,135.7 364.5,132.9 						"/>
					</g>
					<g>
						<polygon class="st14" points="354.2,136.4 354.2,135.4 356.1,135 356.4,136 						"/>
					</g>
				</g>
			</g>
			<path class="st14" d="M351.9,237.9c0,0,11.4,4.4,14,5.3c3.1,1,6.2,2.1,9.4,2.2c3.2,0.1,6.6-0.8,8.9-3.3c2.7-2.9,3.6-7.3,4.3-11.4
				c2.1-12.1,4.2-24.3,6.3-36.4c1-6,3.6-15,3.4-18.4c-0.4-6.3-4.4-13.7-14.6-17.8c-4-1.6-7.9-1-11.2,3c-2,2.4-7.8,8.1-9.2,18.2
				c-1.1,8.1-2.9,18.6-2.8,26.8C360.3,216.9,356,230.5,351.9,237.9z"/>
			<g>
				<path class="st14" d="M397.5,172.5c1.2,10.5-4.7,37.1-5.8,38.7c-4.8,15.4-17.9,7.1-19.8,6.4c-3.3-1.2-6.7-3.6-9.8-5.2
					c-6.1-3-11.9-5.5-17.6-9.3l3.2-6.3c6.2,2.1,23.9,6.7,26.8,7.4c1.3,0.3,6.2,2.9,6.1-0.5c0.7-1.1,1.7-23.1,3.8-30.9
					c0.2-0.9,0.7-1.7,1.2-2.4l0.2-0.2C389.2,165.9,396,167.3,397.5,172.5L397.5,172.5z"/>
				<path class="st4" d="M397.5,172.5c1.2,10.5-4.7,37.1-5.8,38.7c-4.8,15.4-17.9,7.1-19.8,6.4c-3.3-1.2-6.7-3.6-9.8-5.2
					c-6.1-3-11.9-5.5-17.6-9.3l3.2-6.3c6.2,2.1,23.9,6.7,26.8,7.4c1.3,0.3,6.2,2.9,6.1-0.5c0.7-1.1,1.7-23.1,3.8-30.9
					c0.2-0.9,0.7-1.7,1.2-2.4l0.2-0.2C389.2,165.9,396,167.3,397.5,172.5L397.5,172.5z"/>
			</g>
			<g>
				<g>
					<g>
						<polygon class="st14" points="345.2,212.3 315.6,212.3 312.3,173.7 341.9,173.7 						"/>
						<polygon class="st13" points="345.2,212.3 315.6,212.3 312.3,173.7 341.9,173.7 						"/>
					</g>
					<polygon class="st10" points="344.2,212.1 314.6,212.1 311.2,173.5 340.8,173.5 					"/>
					<polygon class="st9" points="344.2,212.1 314.6,212.1 311.2,173.5 340.8,173.5 					"/>
					<polygon class="st10" points="332.4,175.9 320,175.9 319.6,171.1 332,171.1 					"/>
				</g>
				<g>
					<polygon class="st10" points="319.6,171.1 320.8,170.6 333.7,170.6 333.9,172.7 332.9,173.8 332.8,175.5 332.4,175.9 
						332,171.1 					"/>
					<polygon class="st19" points="319.6,171.1 320.8,170.6 333.7,170.6 333.9,172.7 332.9,173.8 332.8,175.5 332.4,175.9 
						332,171.1 					"/>
				</g>
			</g>
			<path class="st15" d="M350.1,198.9l0.7,3.6c-1.6,4.2-10.8,3.1-10.8,3.1l0-10.7l8.1,1.9C349.1,197.1,349.9,197.9,350.1,198.9z"/>
			<polygon class="st15" points="340,194.9 340,205.6 331.9,205.8 330,196.4 			"/>
		</g>
	</g>
	<g>
		<path class="st10" d="M370.9,281.8l3.1-45c0.4-6.4,3.5-11.7,7.8-14.2c2.7-2.1,6-3.5,9.5-3.7c0.4,0,0.7,0,1.1,0c2.9,0,5.6,0.7,8,2
			c0.1,0,0.1,0.1,0.2,0.1c2.5,1.4,4.7,3.3,6.4,5.8l0,0c2.4,3.4,3.8,7.7,3.8,12.3c0,10-6.6,18.3-15.2,20l-3.3,48.7
			c-0.3,4.1-3,7.3-6.3,7.3h-16.8L370.9,281.8z"/>
		<path class="st4" d="M370.9,281.8l3.1-45c0.4-6.4,3.5-11.7,7.8-14.2c2.7-2.1,6-3.5,9.5-3.7c0.4,0,0.7,0,1.1,0c2.9,0,5.6,0.7,8,2
			c0.1,0,0.1,0.1,0.2,0.1c2.5,1.4,4.7,3.3,6.4,5.8l0,0c2.4,3.4,3.8,7.7,3.8,12.3c0,10-6.6,18.3-15.2,20l-3.3,48.7
			c-0.3,4.1-3,7.3-6.3,7.3h-16.8L370.9,281.8z"/>
	</g>
</g>
<g>
	<g>
		<path class="st26" d="M218.3,72.4v41.8c0,2.2-1.8,4-3.9,4h-42.9L156.2,130c-0.5,0.4-1.1,0.6-1.8,0.6c-1.6,0-2.9-1.3-2.9-2.9v-9.5
			h-2.4c-2.2,0-3.9-1.8-3.9-4V72.4c0-2.2,1.8-3.9,3.9-3.9h65.3C216.5,68.5,218.3,70.2,218.3,72.4z"/>
	</g>
	<g>
		<rect x="170" y="62.6" class="st10" width="8.2" height="1"/>
		<path class="st10" d="M140,74.4h-1v-4.9c0-3.8,3.1-6.9,6.9-6.9h18.2v1h-18.2c-3.2,0-5.9,2.6-5.9,5.9V74.4z"/>
	</g>
	<g>
		<path class="st27" d="M197.8,99.1c-1.8,0-3.3-1.6-3.2-3.4c0,0,0,0,0,0c1.1-12.2,10.7-13.3,11.9-27.2c0.3-4-1.1-5.5-3.9-5.5
			c-2.8,0-4.5,1.5-4.9,5.5l-0.2,2.3c-0.2,2.1-2,3.8-4.1,3.8l0,0c-2.4,0-4.3-2.1-4.1-4.5l0.1-1c0.8-8.9,5.6-14,14.1-14
			c8.5,0,12.5,5.1,11.7,14C214,83.6,203.4,85.8,202.6,96c0,0,0,0.1,0,0.1c-0.1,1.7-1.5,3-3.2,3H197.8z M202.1,107.6L202.1,107.6
			c-0.2,2.2-2,3.9-4.2,3.9l0,0c-2.5,0-4.4-2.1-4.2-4.6l0,0c0.2-2.2,2-3.8,4.2-3.8h0C200.4,103,202.3,105.1,202.1,107.6z"/>
	</g>
	<g>
		<g>
			<path class="st10" d="M186.5,89.3h-23c-1.1,0-2-0.9-2-2c0-1.1,0.9-2,2-2h23c1.1,0,2,0.9,2,2C188.5,88.4,187.6,89.3,186.5,89.3z"
				/>
		</g>
		<g>
			<path class="st10" d="M183.3,97.2h-19.8c-1.1,0-2-0.9-2-2s0.9-2,2-2h19.8c1.1,0,2,0.9,2,2S184.4,97.2,183.3,97.2z"/>
		</g>
		<g>
			<path class="st10" d="M180.1,105.1h-16.6c-1.1,0-2-0.9-2-2c0-1.1,0.9-2,2-2h16.6c1.1,0,2,0.9,2,2
				C182.1,104.2,181.2,105.1,180.1,105.1z"/>
		</g>
	</g>
</g>
<g>
	<path class="st10" d="M133.1,268.3h-14.6c-3.6,0-6.4,2.2-6.4,5v8.6c0,2.8,2.9,5,6.4,5h14.6V268.3z"/>
</g>
<g>
	<g>
		<g>
			<path class="st10" d="M65.2,309l-5.1-80.9c-1.9-30,22-55.4,52.1-55.4h0c27.7,0,50.5,21.6,52.1,49.2l5.3,94.4H73
				C68.9,316.4,65.4,313.1,65.2,309z"/>
			<path class="st11" d="M65,306.1l-4.9-77.9c-1.9-30,22-55.4,52.1-55.4h0c27.7,0,50.5,21.6,52.1,49.2l5.3,94.4H76
				C70.2,316.4,65.4,311.9,65,306.1z"/>
		</g>
		<path class="st10" d="M80.8,316.4l-5.5-88.2c-1.9-30,22-55.4,52.1-55.4h0c27.7,0,50.5,21.6,52.1,49.2l5.3,94.4H80.8z"/>
	</g>
	<g>
		<path class="st10" d="M79.2,331.6l-1.3,0c-0.7,0-1.3-0.6-1.4-1.4l-2-13.8h8.1l-2,13.8C80.5,331,79.9,331.6,79.2,331.6z"/>
		<path class="st12" d="M79.2,331.6l-1.3,0c-0.7,0-1.3-0.6-1.4-1.4l-2-13.8h8.1l-2,13.8C80.5,331,79.9,331.6,79.2,331.6z"/>
	</g>
	<g>
		<path class="st10" d="M209.8,331.6l-1.2,0c-0.6,0-1.2-0.6-1.3-1.4l-1.8-13.8h7.4l-1.8,13.8C211,331,210.4,331.6,209.8,331.6z"/>
		<path class="st13" d="M209.8,331.6l-1.2,0c-0.6,0-1.2-0.6-1.3-1.4l-1.8-13.8h7.4l-1.8,13.8C211,331,210.4,331.6,209.8,331.6z"/>
	</g>
	<g>
		<path class="st10" d="M172.2,331.6l-1.2,0c-0.6,0-1.2-0.6-1.3-1.4l-1.8-13.8h7.4l-1.8,13.8C173.4,331,172.8,331.6,172.2,331.6z"/>
		<path class="st12" d="M172.2,331.6l-1.2,0c-0.6,0-1.2-0.6-1.3-1.4l-1.8-13.8h7.4l-1.8,13.8C173.4,331,172.8,331.6,172.2,331.6z"/>
	</g>
	<g>
		<path class="st10" d="M119.7,331.6l-1.3,0c-0.7,0-1.3-0.6-1.4-1.4l-2-13.8h8.1l-2,13.8C121,331,120.4,331.6,119.7,331.6z"/>
		<path class="st13" d="M119.7,331.6l-1.3,0c-0.7,0-1.3-0.6-1.4-1.4l-2-13.8h8.1l-2,13.8C121,331,120.4,331.6,119.7,331.6z"/>
	</g>
	<g>
		<g>
			<path class="st10" d="M163.7,283.1h35.6l2.4-34.3l0.5-7.4v0l0.2-3.4c0.1-0.9,0.2-1.8,0.3-2.7c0-0.2,0.1-0.4,0.1-0.6
				c0-0.1,0.1-0.3,0.1-0.4c1-3.6,2.9-6.8,5.4-9.2c3-2.9,6.9-4.8,11.1-5H186c-0.4,0-0.7,0-1.1,0c-4.6,0-8.9,1.9-12.1,5
				c-2.5,2.4-4.4,5.6-5.4,9.2c0,0.1-0.1,0.3-0.1,0.4c-0.2,1-0.4,2.1-0.5,3.2l-0.2,3.4v0L163.7,283.1z"/>
			<path class="st11" d="M163.7,283.1h35.6l2.4-34.3l0.5-7.4v0l0.2-3.4c0.1-0.9,0.2-1.8,0.3-2.7c0-0.2,0.1-0.4,0.1-0.6
				c0-0.1,0.1-0.3,0.1-0.4c1-3.6,2.9-6.8,5.4-9.2c3-2.9,6.9-4.8,11.1-5H186c-0.4,0-0.7,0-1.1,0c-4.6,0-8.9,1.9-12.1,5
				c-2.5,2.4-4.4,5.6-5.4,9.2c0,0.1-0.1,0.3-0.1,0.4c-0.2,1-0.4,2.1-0.5,3.2l-0.2,3.4v0L163.7,283.1z"/>
		</g>
	</g>
	<g class="st11">
		<path d="M135.5,264.8h-14.3c-3.5,0-6.3,2.2-6.3,4.9v8.4c0,2.7,2.8,4.9,6.3,4.9h14.3V264.8z"/>
	</g>
	<g>
		<path class="st10" d="M193.8,283.1h-62.9c-3,0-5.4-2.4-5.4-5.4v-7.4c0-3,2.4-5.4,5.4-5.4h62.9c3,0,5.4,2.4,5.4,5.4v7.4
			C199.3,280.6,196.8,283.1,193.8,283.1z"/>
	</g>
	<path class="st10" d="M45.5,240.4c0,10,7.3,18.3,16.8,20l3.7,48.7c0.3,4.1,3.3,7.3,6.9,7.3h39.2c-3.6,0-6.6-3.2-6.9-7.3l-2-26
		l-1.7-22.7c-6.3-1.1-11.7-5.1-14.5-10.7c-0.2-0.4-0.4-0.7-0.5-1.1c-1.1-2.5-1.7-5.3-1.7-8.2c0-1.4,0.1-2.8,0.4-4.1
		c0.1-0.5,0.2-1.1,0.4-1.6c0.7-2.4,1.9-4.6,3.4-6.6l0,0c1.9-2.4,4.3-4.4,7-5.8c2.7-1.4,5.8-2.1,9.1-2.1H65.8c-2.1,0-4.1,0.3-6,0.9
		c-1.1,0.3-2.1,0.7-3.1,1.2c-2.7,1.4-5.1,3.3-7,5.8l0,0C47.1,231.5,45.5,235.7,45.5,240.4z"/>
	<path class="st11" d="M45.5,240.4c0,10,7.3,18.3,16.8,20l3.7,48.7c0.3,4.1,3.3,7.3,6.9,7.3h39.2c-3.6,0-6.6-3.2-6.9-7.3l-2-26
		l-1.7-22.7c-6.3-1.1-11.7-5.1-14.5-10.7c-0.2-0.4-0.4-0.7-0.5-1.1c-1.1-2.5-1.7-5.3-1.7-8.2c0-1.4,0.1-2.8,0.4-4.1
		c0.1-0.5,0.2-1.1,0.4-1.6c0.7-2.4,1.9-4.6,3.4-6.6l0,0c1.9-2.4,4.3-4.4,7-5.8c2.7-1.4,5.8-2.1,9.1-2.1H65.8c-2.1,0-4.1,0.3-6,0.9
		c-1.1,0.3-2.1,0.7-3.1,1.2c-2.7,1.4-5.1,3.3-7,5.8l0,0C47.1,231.5,45.5,235.7,45.5,240.4z"/>
	<path class="st10" d="M84.7,240.4c0,10,6.6,18.3,15.2,20l3.3,48.7c0.3,4.1,3,7.3,6.3,7.3h104.7c3.3,0,6-3.2,6.3-7.3l3.3-48.8
		c8.5-1.8,14.9-10,14.9-19.9c0-4.4-1.3-8.4-3.4-11.7c-1.7-2.7-4.1-4.9-6.8-6.4c-2.5-1.4-5.3-2.1-8.2-2.1c-4.6,0-8.9,1.9-12.1,5
		c-2.5,2.4-4.4,5.6-5.4,9.2c0,0.1-0.1,0.3-0.1,0.4c-0.2,1-0.4,2.1-0.5,3.2l-0.2,3.4v0l-2.9,41.6h-74.6l-3.1-45
		c-0.4-6.4-3.5-11.7-7.8-14.2c-2.7-2.1-6-3.5-9.5-3.7c-0.4,0-0.7,0-1.1,0c-2.9,0-5.6,0.7-8,2c-0.1,0-0.1,0.1-0.2,0.1
		c-2.5,1.4-4.7,3.3-6.4,5.8l0,0C86.1,231.4,84.7,235.7,84.7,240.4z"/>
	<g>
		<path class="st4" d="M126.4,316.4h88c3.3,0,6-3.2,6.3-7.3l3.3-48.8c8.5-1.8,14.9-10,14.9-19.9c0-4.4-1.3-8.4-3.4-11.7
			c-1.7-2.7-4.1-4.9-6.8-6.4c-2.5-1.4-5.3-2.1-8.2-2.1c-4.6,0-8.9,1.9-12.1,5c-2.5,2.4-4.4,5.6-5.4,9.2c0,0.1-0.1,0.3-0.1,0.4
			c-0.2,1-0.4,2.1-0.5,3.2l-0.2,3.4v0l-2.9,41.6h-74.6L126.4,316.4z"/>
	</g>
	<g>
		<g>
			<g>
				<g>
					<g>
						<polygon class="st15" points="153.1,333.6 161.7,335.9 169.3,315.9 160.8,313.5 						"/>
						<path class="st14" d="M165.5,333.3c-0.7-0.9-1.7-1.5-2.7-1.7l-8.8-1.7c-0.4-0.1-0.8,0.1-0.9,0.5l-2.7,8
							c-0.3,0.9,0.2,1.9,1.1,2.2c0,0,0,0,0.1,0c3.2,1.3,5.4,0.8,10.5,1.8c3.1,0.6,9.7,2.7,14.1,2.5c4.4-0.2,4.4-4.5,2.5-4.8
							C172,339.2,167,335.3,165.5,333.3z"/>
						<g class="st17">
							<polygon points="169.3,315.9 165.4,326.2 156.8,323.9 160.8,313.5 							"/>
						</g>
						<g>
							<path class="st10" d="M140.9,239.8c0,0,51.4-0.3,49.8,16.9c-1.1,11.6-6.7,23.8-11,35.6c-6.3,17.1-11.8,32-11.8,32l-11.7-4
								c0,0,10.5-49.4,17.6-54.5h-43.4c-14.4,0-20.6-15.8-6.6-34.2C132.2,231.7,140.9,239.8,140.9,239.8z"/>
							<path class="st18" d="M140.9,239.8c0,0,51.4-0.3,49.8,16.9c0.8,10.7-22.8,67.6-22.8,67.6l-11.7-4c0,0,10.5-49.4,17.6-54.5
								h-43.4c-14.4,0-20.6-15.8-6.6-34.2C132.2,231.7,140.9,239.8,140.9,239.8z"/>
						</g>
					</g>
					<g>
						<g>
							<path class="st14" d="M177.1,208.6c-6.3,5.8-18.7-7.9-20.7-9.5c-4.3-3.5-16.9-15.2-16.2-19.3c2-12,21.7,5,27.4,16.7
								L177.1,208.6z"/>
						</g>
						<path class="st10" d="M121.8,172.5c-3.2,0.7-6.6-0.5-8.8,1.9c-2.2,2.3-3.2,5.7-3.5,8.9c-0.5,4.5,0.1,9,0.7,13.5
							c0.7,5.4,1.4,10.8,2.1,16.2c0.5,3.7,0.2,9.7-0.5,13.4l0,0c-0.2,0.9,0.4,2,1.2,2.3c0,0,24.6,0.8,31.7,0.6
							c3.8-0.1,1.2-10.1,2.4-16c0.3-1.3,2.8-6.6,3.2-8c1.8-6.5,0.6-10.9-1-17.4c-1.2-4.7-1.7-11.5-4.1-12
							C140.8,174.9,130.6,170.6,121.8,172.5z"/>
						<path class="st9" d="M121.8,172.5c-3.2,0.7-6.6-0.5-8.8,1.9c-2.2,2.3-3.2,5.7-3.5,8.9c-0.5,4.5,0.1,9,0.7,13.5
							c0.7,5.4,1.4,10.8,2.1,16.2c0.5,3.7,0.2,9.7-0.5,13.4l0,0c-0.2,0.9,0.4,2,1.2,2.3c0,0,24.6,0.8,31.7,0.6
							c3.8-0.1,1.2-10.1,2.4-16c0.3-1.3,2.8-6.6,3.2-8c1.8-6.5,0.6-10.9-1-17.4c-1.2-4.7-1.7-11.5-4.1-12
							C140.8,174.9,130.6,170.6,121.8,172.5z"/>
						<path class="st14" d="M118.2,177.1c-0.3-0.5-9-7.8-10.5,0.6c-2.2,11.7,2.3,23.2,2.3,23.2s1,12.7,4.7,13.9
							c3.7,1.3,7.2,1.6,8.4-0.6c1.2-2.2,1.2-5.4,1.2-5.4S124,185.8,118.2,177.1z"/>
						<path class="st28" d="M124.2,156.4c0.9,5.4,1.6,15.2-2.2,18.7c0,0,9.4,4.9,15.6,13.5c3.6-2.8,3.6-6.4,2.9-9.1
							c-0.6-2.1-2.1-3.7-4-4.8c-3.7-2-3.3-5.8-2.3-9.3L124.2,156.4z"/>
						<path class="st16" d="M125.5,165.5l3.5,1.3c1.5,0.6,3.1,0.8,4.7,0.8l0,0c-0.1,0.8-0.4,2.4,0,3.3c-2.2,0.8-5.6-0.3-7-2.2
							C126.2,168,125.7,166.5,125.5,165.5z"/>
						<polygon class="st15" points="212.6,316.3 222.2,316.3 212.1,292.4 205.7,303.4 						"/>
						<path class="st14" d="M221.4,314.1l-11.2-2.5c-0.4-0.1-0.8,0.1-0.9,0.5l-3.1,8.6c-0.3,0.9,0.3,1.9,1.2,2.1c0,0,0,0,0.1,0
							c3.9,0.8,5.9,1,10.8,2.1c3,0.7,10.7,2.7,14.9,3.7c4.2,1,5.3-3.2,3.6-3.9c-7.5-3.5-11.5-6.8-13.7-9.6
							C222.5,314.6,222,314.2,221.4,314.1z"/>
						<g class="st17">
							<polygon points="212.1,292.4 216.4,302.6 207.8,307.4 205.7,303.4 							"/>
						</g>
						<path class="st14" d="M111.5,228.7l-1,3.3c-0.1,0.3,0.2,0.5,0.6,0.5l37,1.1c0.3,0,0.6-0.1,0.6-0.4l0.4-3.3
							c0-0.2-0.3-0.4-0.6-0.4l-36.4-1.1C111.9,228.4,111.7,228.5,111.5,228.7z"/>
						<g>
							<g>
								<path class="st10" d="M157.8,255.5c-12.2,5.2-25.4,10.4-32.6,10.4c-14.4,0-27.1-10.4-13.5-34c8.6,0,23.4,0.2,23.4,0.2
									s28-8,48.4-5.6c9.9,1.1,17.9,8.6,19.9,18.4c5.2,26,13.1,54.1,13.1,54.1l-10.2,7c0,0-15.9-33.5-25.1-60.2
									C176.3,247.3,167.4,251.4,157.8,255.5z"/>
							</g>
							<path class="st19" d="M203.4,244.8c-1.9-9.8-10-17.2-19.9-18.4c-20.3-2.3-48.4,5.6-48.4,5.6s-14.9-0.3-23.4-0.2
								c-13.8,23.5-0.8,34,13.5,34c7.2,0,20.4-5.2,32.6-10.4c9.6-4.1,18.5-8.2,23.4-9.7c9.2,26.6,25.1,60.2,25.1,60.2l10.2-7
								C216.5,299,208.6,270.8,203.4,244.8z"/>
						</g>
						<g>
							<path class="st10" d="M190.6,256.8c-0.3,3.2-0.8,6.5-1.5,9.9c0-0.1-0.1-0.2-0.1-0.3c0,0,0-0.1,0-0.1c0-0.1-0.1-0.2-0.1-0.3
								c-2.7-6.8-5.4-13.7-7.6-20.2c0,0,0,0,0.1,0v0C187.1,248.3,191.1,251.8,190.6,256.8z"/>
							<path class="st18" d="M190.6,256.8c-0.3,3.2-0.8,6.5-1.5,9.9c0-0.1-0.1-0.2-0.1-0.3c0,0,0-0.1,0-0.1c0-0.1-0.1-0.2-0.1-0.3
								c-2.7-6.8-5.4-13.7-7.6-20.2c0,0,0,0,0.1,0v0C187.1,248.3,191.1,251.8,190.6,256.8z"/>
						</g>
						<g>
							<g>
								<path class="st28" d="M117.7,151.2c3,8.5,4.1,12.1,9.7,15.3c8.5,4.8,18.2-0.8,17.8-10c-0.4-8.3-5.2-20.7-14.6-21.7
									c-6.7-0.7-12.8,4.1-13.5,10.8C116.8,147.5,117,149.4,117.7,151.2z"/>
								<path class="st14" d="M132.9,150.1c0.2,0.7,0.7,1.2,1.2,1c0.5-0.1,0.6-0.8,0.5-1.5c-0.2-0.7-0.7-1.2-1.2-1
									C132.9,148.7,132.7,149.4,132.9,150.1z"/>
								<path class="st14" d="M140.7,147.6c0.2,0.7,0.7,1.2,1.2,1c0.5-0.1,0.6-0.8,0.5-1.5c-0.2-0.7-0.7-1.2-1.2-1
									C140.7,146.3,140.5,146.9,140.7,147.6z"/>
								<path class="st14" d="M141,146.2l1.5-1C142.5,145.3,142.1,146.8,141,146.2z"/>
								<path class="st21" d="M137.9,149.2c1.1,1.4,2.4,2.7,3.8,3.8c-0.7,1.1-2.4,1.2-2.4,1.2L137.9,149.2z"/>
								<path class="st14" d="M112.2,156.8c0.5,1.6,1.2,3.1,1.4,4.7c0.3,3.2-2.3,6.4-5.5,6.8c2.8,0.8,6-0.7,7.2-3.3
									c-0.8,2-2.3,3.7-4.3,4.6c2.8,0.1,5.6-1.3,7.3-3.5c-0.5,1.2-0.9,2.4-1.4,3.6c2.4-1.4,4.3-3.5,5.6-5.9c0.5-1,0.9-2.3,0.2-3.2
									c-0.6-0.8-1.8-0.8-2.8-0.8c-1,0-2.2-0.3-2.6-1.2c-0.4-0.9,0.3-1.9,1-2.6c0.7-0.7,1.6-1.2,1.9-2.2c0.2-0.7,0-1.4-0.1-2.1
									c-0.5-1.8-0.9-3.7-1.4-5.5c-0.2-0.6-0.3-1.3-0.7-1.9c-2-3-4.2,1.4-5,2.9C111.6,150.3,111.2,153.7,112.2,156.8z"/>
								<path class="st28" d="M117.1,159.5c1.1,1.5,2.8,2.4,4.6,2.7c2.4,0.3,3.3-2,2.3-4.1c-0.9-1.9-3.2-4.4-5.5-3.7
									C116.2,155,115.7,157.6,117.1,159.5z"/>
								<path class="st14" d="M133,144.1c0,0.2-0.2,0.3-0.4,0.4c-2,0.4-3.2,2.8-3.2,2.8c-0.1,0.2-0.4,0.3-0.6,0.2
									c-0.2-0.1-0.3-0.4-0.2-0.6c0.1-0.1,1.3-2.9,3.8-3.3c0.2,0,0.5,0.1,0.5,0.4C133,144,133,144,133,144.1z"/>
								<g>
									<path class="st14" d="M138.3,142.1c-0.2,0-0.3,0-0.4,0.1c-0.1,0.1-0.5,0.3-0.3,0.4c1.2,0.6,2.9,1.6,4.2,1.4
										c0.2,0,0.7-0.2,0.6-0.4c-0.1-0.2-0.4-0.2-0.6-0.2c-1,0.1-2.4-0.8-3.4-1.3C138.5,142.1,138.4,142.1,138.3,142.1z"/>
								</g>
								<path class="st14" d="M133.1,148.7l1.5-1C134.7,147.7,134.2,149.3,133.1,148.7z"/>
							</g>
							<g>
								<path class="st14" d="M133,131.1c-3.4-0.6-3.9-0.8-7.3-0.6c-3.5,0.2-7,1.2-9.7,3.4c-2.7,2.1-4.4,5.2-5.3,8.5
									c-0.8,3.3-0.8,6.7-0.3,10.1c0.3,1.6,0.7,3.2,1.9,4.2c0.2-1.8,0.4-3.6,0.9-5.3c0.6-1.7,1.5-3.3,3-4.4
									c0.6-0.4,1.3-0.8,1.6-1.4c0.3-0.6,0.3-1.2,0.4-1.8c0.2-1.4,1.2-2.6,2.3-3.4c1.1-0.8,2.5-1.4,3.8-1.9
									c4.2-1.8,8.8-2.9,12.7-5.3C136.1,132.1,133,131.1,133,131.1z"/>
							</g>
							<path class="st14" d="M115.6,144.5c0.9,1.1,2.2,1.9,3.6,2.2c1.7,0.4,5.8,0.3,6.1-0.1c0.3-0.5-1.2-5.1-2.9-5.4
								c1.2,1,2.5,2.1,4.1,2.5c1.5,0.4,4.2,0.2,5.2,0c0.9-0.2-1.1-3.8-2.5-4.9c4.3,0.9,8.9,1.9,12,5c3.3,3.1,4.5,7.9,4.3,12.5
								c1.5-1.2,2.4-3,2.3-4.9c1.5,4.7,1.1,10-1.3,14.3c4.6-3.8,6.3-10.3,5.1-16.1c-1.2-5.8-5-10.8-9.6-14.6
								c-4-3.2-8.8-5.5-13.8-5.7C121.4,129.1,109.1,136.6,115.6,144.5z"/>
						</g>
						<g>
							<g>
								<path class="st28" d="M120.9,171.2c0-0.3,0.1-0.8,0.1-1.2c0.2-2.2-1.3-4.2-3.5-4.6c0,0,0,0-0.1,0c-0.6-0.1-1.1-0.6-1.4-1.2
									c-0.8-2.2-1.1-2.9-1.8-5.1c-2-0.5-4.4,0.3-6.5,0.5c-0.6,2.5-0.6,5.1-0.1,7.6c0.1,0.6,0.3,1.1,0.6,1.6
									c0.4,0.4,4.5,3.3,6.2,3.8C116.5,173.2,119,171.4,120.9,171.2z"/>
							</g>
							<g>
								<path class="st28" d="M114.9,172.7c0,0-5.5,35.5,0.2,41c3.3,3.2,6.2,1.4,8-0.6c1.3-1.5,1.9-3.5,1.7-5.5l-3.9-36.4
									C120.9,171.2,117.1,169,114.9,172.7z"/>
							</g>
						</g>
						<g>
							<path class="st28" d="M174.1,204.8c2.2-1.7,4.2-5.2,4.7-7.5c0.2-0.7,0.2-1.8,0.2-3.1c-0.1-6.4-1.9-18.2-1.9-18.2l-5.2-1.7
								c0,0-1.6,9-2,13.9c-0.1,1-0.2,2.1-0.3,3.3c-0.2,2.2-0.5,4.6-0.8,6.6L174.1,204.8z"/>
							<g>
								<path class="st14" d="M177.1,208.6c1.6-1.5,1.9-3.2,2.7-7c0.8-3.6-0.1-8-0.8-7.3c-0.1,0.1-0.1,0.2-0.2,0.3
									c-1.3,3-6.2,0.4-7.6-1.1c-0.5-0.6-1.2-1.2-1.6-1.9c-0.3-0.6-0.4-1.2,0-1.8c-1.5-0.6-2.7,5.4-2,6.8l0.4,1.1
									c0.6,1.8,1.5,3.5,2.7,4.9l2.7,3.3L177.1,208.6z"/>
							</g>
							<path class="st28" d="M171.7,175l-0.6-9.1c0,0,1.1,0.6,5,1.9c2.5,0.9,6-0.7,5.2,1c-1.2,2.7-4.3,7.2-4.3,7.2L171.7,175z"/>
							<path class="st28" d="M171.1,165.9l3.9-9.2l5.1,3.1c1.4,3.1,1.2,9,1.2,9S174.2,169.1,171.1,165.9z"/>
						</g>
					</g>
				</g>
			</g>
		</g>
		<path class="st14" d="M137.3,158.8c0.1,0.7,0.6,1.1,1,1c0.4-0.1,0.7-0.7,0.5-1.3c-0.1-0.7-0.6-1.1-1-1
			C137.4,157.6,137.2,158.2,137.3,158.8z"/>
	</g>
	<g>
		<g>
			<path class="st10" d="M124.6,283l-3.1-45c-0.4-6.4-3.5-11.7-7.8-14.2c-2.7-2.1-6-3.5-9.5-3.7c-0.4,0-0.7,0-1.1,0
				c-2.9,0-5.6,0.7-8,2c-0.1,0-0.1,0.1-0.2,0.1c-2.5,1.4-4.7,3.3-6.4,5.8l0,0c-2.4,3.4-3.8,7.7-3.8,12.3c0,10,6.6,18.3,15.2,20
				l3.3,48.7c0.3,4.1,3,7.3,6.3,7.3h16.8L124.6,283z"/>
		</g>
		<path class="st4" d="M124.6,283l-3.1-45c-0.4-6.4-3.5-11.7-7.8-14.2c-2.7-2.1-6-3.5-9.5-3.7c-0.4,0-0.7,0-1.1,0
			c-2.9,0-5.6,0.7-8,2c-0.1,0-0.1,0.1-0.2,0.1c-2.5,1.4-4.7,3.3-6.4,5.8l0,0c-2.4,3.4-3.8,7.7-3.8,12.3c0,10,6.6,18.3,15.2,20
			l3.3,48.7c0.3,4.1,3,7.3,6.3,7.3h16.8L124.6,283z"/>
	</g>
</g>
<g>
	<g>
		<g>
			<ellipse class="st14" cx="244.2" cy="356.7" rx="33.5" ry="8.6"/>
			<ellipse class="st29" cx="244.2" cy="355.3" rx="33.5" ry="7.2"/>
		</g>
		<g>
			<polygon class="st14" points="246.9,355.2 241.4,355.2 235,286.2 253.3,286.2 			"/>
			<path class="st14" d="M253.3,286.2c0,2-4.1,3.6-9.2,3.6c-5.1,0-9.2-1.6-9.2-3.6c0-2,4.1-3.6,9.2-3.6
				C249.2,282.6,253.3,284.2,253.3,286.2z"/>
			<path class="st12" d="M253.3,286.2c0,2-4.1,3.6-9.2,3.6c-5.1,0-9.2-1.6-9.2-3.6c0-2,4.1-3.6,9.2-3.6
				C249.2,282.6,253.3,284.2,253.3,286.2z"/>
		</g>
		<g>
			<path class="st12" d="M132,287.3c0-0.7,0.4-1.4,1.1-2.2c7.8,7.8,56.9,13.8,116.4,13.8s108.7-6,116.4-13.8
				c0.7,0.7,1.1,1.4,1.1,2.2c0,8.8-52.6,16-117.5,16C184.6,303.3,132,296.1,132,287.3z"/>
			<g>
				<path class="st12" d="M133.1,289.3c7.8-7.8,56.9-13.8,116.4-13.8s108.7,6,116.4,13.8c-7.8,7.8-56.9,13.8-116.4,13.8
					S140.9,297.1,133.1,289.3z"/>
				<path class="st12" d="M132,287c0-8.8,52.6-16,117.5-16c64.9,0,117.5,7.1,117.5,16c0,0.7-0.4,1.4-1.1,2.1
					c-7.8-7.8-56.9-13.8-116.4-13.8s-108.7,6-116.4,13.8C132.4,288.4,132,287.7,132,287z"/>
			</g>
		</g>
	</g>
	<g>
		<g>
			<g>
				<g>
					<g>
						<path class="st14" d="M294.8,279.2l-49.2-0.9c-0.5,0-0.9-0.5-0.9-1.1l0,0c0-0.6,0.4-1.1,0.9-1.1l49.2,0.9
							c0.5,0,0.9,0.5,0.9,1.1l0,0C295.8,278.7,295.4,279.2,294.8,279.2z"/>
						<path class="st30" d="M294.8,279.2l-49.2-0.9c-0.5,0-0.9-0.5-0.9-1.1l0,0c0-0.6,0.4-1.1,0.9-1.1l49.2,0.9
							c0.5,0,0.9,0.5,0.9,1.1l0,0C295.8,278.7,295.4,279.2,294.8,279.2z"/>
						<path class="st14" d="M318.7,275.6l-23.5,3.6c-0.5,0.1-1-0.4-1-1l0,0c-0.1-0.6,0.3-1.2,0.8-1.2l23.5-3.6c0.5-0.1,1,0.4,1,1
							l0,0C319.6,275,319.2,275.6,318.7,275.6z"/>
						<g>
							<polygon class="st14" points="318.5,273.5 268.8,273.5 245.7,276.1 293.6,277 							"/>
							<polygon class="st31" points="318.5,273.5 268.8,273.5 245.7,276.1 293.6,277 							"/>
						</g>
						<path class="st13" d="M318.7,275.6l-23.5,3.6c-0.5,0.1-1-0.4-1-1l0,0c-0.1-0.6,0.3-1.2,0.8-1.2l23.5-3.6c0.5-0.1,1,0.4,1,1
							l0,0C319.6,275,319.2,275.6,318.7,275.6z"/>
					</g>
					<g>
						<path class="st10" d="M293.6,277l-45.8-0.9c-1.6,0-3-1.6-3.1-3.6l-1.4-27.7c-0.1-1.9,1.1-3.5,2.8-3.5l45.8,0.9
							c1.6,0,3,1.6,3.1,3.6l1.4,27.7C296.4,275.5,295.2,277,293.6,277z"/>
						<path class="st30" d="M293.6,277l-45.8-0.9c-1.6,0-3-1.6-3.1-3.6l-1.4-27.7c-0.1-1.9,1.1-3.5,2.8-3.5l45.8,0.9
							c1.6,0,3,1.6,3.1,3.6l1.4,27.7C296.4,275.5,295.2,277,293.6,277z"/>
					</g>
					<g>
						<path class="st10" d="M292.2,276.9l-45.8-0.9c-1.6,0-3-1.6-3.1-3.6l-1.4-27.7c-0.1-1.9,1.1-3.5,2.8-3.5l45.8,0.9
							c1.6,0,3,1.6,3.1,3.6l1.4,27.7C295.1,275.3,293.8,276.9,292.2,276.9z"/>
						<path class="st31" d="M292.2,276.9l-45.8-0.9c-1.6,0-3-1.6-3.1-3.6l-1.4-27.7c-0.1-1.9,1.1-3.5,2.8-3.5l45.8,0.9
							c1.6,0,3,1.6,3.1,3.6l1.4,27.7C295.1,275.3,293.8,276.9,292.2,276.9z"/>
					</g>
				</g>
			</g>
			<path class="st6" d="M262.4,258.6c0.2,2.7,2.6,4.9,5.3,4.9c2.7,0,4.7-2.2,4.4-4.9c-0.2-2.7-2.6-4.9-5.3-4.9
				C264.1,253.8,262.1,255.9,262.4,258.6z"/>
		</g>
	</g>
</g>
</svg>
