<?xml version="1.0" encoding="utf-8"?>
<!-- Generator: Adobe Illustrator 23.0.2, SVG Export Plug-In . SVG Version: 6.00 Build 0)  -->
<svg version="1.1" id="Layer_1" xmlns="http://www.w3.org/2000/svg" xmlns:xlink="http://www.w3.org/1999/xlink" x="0px" y="0px"
	 viewBox="0 0 401.9 379" style="enable-background:new 0 0 401.9 379;" xml:space="preserve">
<style type="text/css">
	.st0{fill:#6930C3;}
	.st1{fill:#231F20;}
	.st2{fill:none;stroke:#231F20;stroke-miterlimit:10;}
	.st3{fill:none;stroke:#000000;stroke-linecap:round;stroke-linejoin:round;}
	.st4{fill:none;stroke:#231F20;stroke-miterlimit:10;stroke-dasharray:2.9559;}
	.st5{fill:none;stroke:#000000;stroke-miterlimit:10;}
</style>
<g>
	<g id="XMLID_1_">
		<g>
			<polygon points="386.5,224 383.9,226.5 384.5,230.1 381.3,228.4 378.1,230.1 378.7,226.5 376.2,224 379.7,223.5 381.3,220.3 
				382.9,223.5 			"/>
			<path class="st0" d="M375.4,49.9H262.2c0-3.8,3.1-6.9,6.9-6.9h99.4C372.3,43,375.4,46.1,375.4,49.9z"/>
			<path class="st0" d="M254.5,285.8v41.9h-14.2c1-3.9,7.8-29.4,12.3-45.7l2.3,0.7c-0.1,0.3-0.2,0.6-0.3,1
				C254.6,284.4,254.5,285.1,254.5,285.8z"/>
			<polygon class="st1" points="240.1,200 235,209.6 232.4,203.4 			"/>
			<polygon class="st1" points="232.4,203.4 235,209.6 234.9,209.7 			"/>
			<path class="st0" d="M252.9,281.1c-9-9-18.6-17.9-30.4-22.7l0.2-1.3c0,0,2.3-27.3,14.7-41.7c4.1-4.8,9.4-8.2,16.1-8.6
				c3.3-0.2,6.5,0.6,9.5,2.4c21.4,12.1,35.3,66.1,35.3,66.1v0.2h-33.5c-4.6,0-8.6,3.1-9.9,7.3l-2.3-0.7
				C252.8,281.8,252.8,281.4,252.9,281.1z"/>
			<path class="st1" d="M206.7,167.6c1.5,0,2.8,1.2,2.8,2.8c0,1.5-1.2,2.8-2.8,2.8c-1.5,0-2.8-1.2-2.8-2.8
				C203.9,168.8,205.1,167.6,206.7,167.6z"/>
			<path d="M235.6,169.4c-5.3-5.4-8.9-12.4-10.2-19.7c0,0-6.2,2.6-17.5,1.7c-4.9-0.4-8.7-1.4-11.4-2.3l0,0.1
				c-0.8,3.5-0.9,7-0.6,10.6l-0.3,0c-6.3-0.9-11.9-5.6-13.8-11.7c-1.9-6.1,0-13.2,4.6-17.5c2.5-2.3,5.7-3.8,8.9-4.9
				c5.8-1.8,11.9-2.1,17.8-3.3c10.7-2.1,21.2-7,31.9-5.4c12.4,1.9,22.2,12.7,25.1,24.8c2.9,12.2-0.4,25.2-6.9,35.9
				c-2.8,4.7-5.9,8.7-7.1,14l-15.3-14.1l5.2-2.1c4.3-1.8,6.6-6.4,5.4-10.8c-1.3-5-6.4-7.9-11.3-6.6l-4.9,1.3
				C235.1,162.7,235.2,166,235.6,169.4z"/>
			<path class="st0" d="M344.6,101.4H65.2c0-6.9,5.6-12.4,12.4-12.4h184.5h70c4.9,0,9.1,2.8,11.2,7
				C344.2,97.6,344.6,99.5,344.6,101.4z"/>
			<polygon points="176.8,64.9 174.2,67.4 174.8,70.9 171.6,69.3 168.4,70.9 169,67.4 166.4,64.9 170,64.3 171.6,61.1 173.2,64.3 
							"/>
			<path class="st0" d="M152.2,245.3c1.9,0.5,13.6,2.8,13.6,2.8s-14.7-0.3-17.9,0.4s-11.4,2.8-11.2,4.5c0.2,1.7,13.8-0.9,16.6-0.3
				c2.8,0.5,11,1.9,11,1.9s-11.6,0.5-15.2,1.4c-3.6,0.9-7.9,2.1-7.4,3.3c0.5,1.2,23.1,0.5,23.1,0.5l13.8,5l-47.3,19.5l-34.9-79
				l55.5-26l5.7-2.7l22.6,56.3l2.2,5.5l0,0c-3.4-1.8-9.1-4.9-13.2-5c-5.9-0.2-30.1-0.7-30.6,2.4c-0.5,3.1,12.6,2.9,15.9,3.1
				c3.3,0.2,13.1,2.8,13.1,2.8s-15.9-1.9-20.4-1c-4.5,0.9-11,2.4-10.7,4C137,246,150.3,244.8,152.2,245.3z M168.7,213.2l-13.5-30.7
				l-52.8,24.7l12.6,28.6L168.7,213.2z"/>
			<path class="st0" d="M65.2,270.8c6.3-2.8,13.3-4.3,20.7-4.3c28.7,0,52,23.3,52,51.9c0,3.2-0.3,6.3-0.8,9.3
				c-4.4,24.2-25.6,42.6-51.1,42.6c-28.7,0-52-23.3-52-52c0-11.6,3.8-22.4,10.3-31.1C49.7,280.1,56.9,274.4,65.2,270.8z
				 M128.2,318.4c0-23.3-18.9-42.3-42.3-42.3s-42.3,18.9-42.3,42.3c0,23.3,18.9,42.3,42.3,42.3S128.2,341.8,128.2,318.4z"/>
			<path class="st1" d="M127.5,24.2c1.8,0,3.2,1.4,3.2,3.2c0,1.8-1.4,3.2-3.2,3.2s-3.2-1.4-3.2-3.2
				C124.3,25.7,125.7,24.2,127.5,24.2z"/>
			<path class="st1" d="M112.3,24.2c1.8,0,3.2,1.4,3.2,3.2c0,1.8-1.4,3.2-3.2,3.2c-1.8,0-3.2-1.4-3.2-3.2
				C109.1,25.7,110.5,24.2,112.3,24.2z"/>
			<polygon points="109.3,318.6 72.4,344 72.4,293.3 			"/>
			<path class="st1" d="M97.1,24.2c1.8,0,3.2,1.4,3.2,3.2c0,1.8-1.4,3.2-3.2,3.2c-1.8,0-3.2-1.4-3.2-3.2
				C93.9,25.7,95.3,24.2,97.1,24.2z"/>
			<polygon points="22.5,43.9 19.9,46.4 20.6,50 17.4,48.3 14.2,50 14.8,46.4 12.2,43.9 15.8,43.4 17.4,40.2 19,43.4 			"/>
		</g>
		<g>
			<line class="st2" x1="322" y1="333.7" x2="359.9" y2="333.7"/>
			<line class="st2" x1="322" y1="339.1" x2="359.9" y2="339.1"/>
			<path class="st2" d="M368.1,283.7c0.1,0.7,0.2,1.4,0.2,2.1v63.5c0,5.7-4.6,10.4-10.3,10.4h-93.1c-5.7,0-10.3-4.6-10.3-10.4v-21.6
				v-41.9c0-0.7,0.1-1.4,0.2-2.1c0.1-0.3,0.1-0.6,0.3-1c1.3-4.2,5.2-7.3,9.9-7.3h33.5h46.3h13.3C362.9,275.5,367.1,279,368.1,283.7z
				"/>
			<polyline class="st2" points="368.2,283.7 368.1,283.7 254.8,283.7 			"/>
			<line class="st2" x1="322" y1="296.4" x2="359.9" y2="296.4"/>
			<line class="st2" x1="322" y1="301.8" x2="359.9" y2="301.8"/>
			<line class="st2" x1="322" y1="307.2" x2="359.9" y2="307.2"/>
			<line class="st2" x1="322" y1="312.6" x2="359.9" y2="312.6"/>
			<line class="st2" x1="322" y1="318" x2="359.9" y2="318"/>
			<line class="st2" x1="322" y1="323.4" x2="359.9" y2="323.4"/>
			<line class="st2" x1="322" y1="328.8" x2="359.9" y2="328.8"/>
			<line class="st2" x1="322" y1="334.2" x2="359.9" y2="334.2"/>
			<path class="st2" d="M289.5,301c3.7,3,6,7.6,6,12.7c0,0.4,0,0.9-0.1,1.3c-0.3,4.6-2.6,8.7-5.9,11.4c-2.9,2.4-6.5,3.8-10.5,3.8
				c-1.6,0-3.2-0.2-4.7-0.7c-6.8-2-11.8-8.4-11.8-15.8c0-9.1,7.4-16.5,16.5-16.5C283,297.2,286.6,298.6,289.5,301z"/>
			<path class="st2" d="M289.5,301c2.9-2.4,6.5-3.8,10.5-3.8c9.1,0,16.5,7.4,16.5,16.5c0,6.6-3.9,12.3-9.5,14.9
				c-2.1,1-4.5,1.6-7,1.6c-4,0-7.7-1.4-10.5-3.8c-3.1-2.6-5.3-6.3-5.9-10.6c-0.1-0.7-0.1-1.4-0.1-2.2
				C283.5,308.6,285.8,304,289.5,301z"/>
			<path class="st2" d="M307.1,328.7c0.1,0.7,0.1,1.4,0.1,2.2c0,9.1-7.4,16.5-16.5,16.5c-9.1,0-16.5-7.4-16.5-16.5
				c0-0.4,0-0.9,0.1-1.3c0.5-6,4.2-11.2,9.4-13.6c2.1-1,4.5-1.6,7-1.6c1.7,0,3.3,0.2,4.8,0.7C301.6,316.9,306.2,322.2,307.1,328.7z"
				/>
			<path class="st3" d="M65.2,270.8c6.3-2.8,13.3-4.3,20.7-4.3c28.7,0,52,23.3,52,51.9c0,3.2-0.3,6.3-0.8,9.3
				c-4.4,24.2-25.6,42.6-51.1,42.6c-28.7,0-52-23.3-52-52c0-11.6,3.8-22.4,10.3-31.1C49.7,280.1,56.9,274.4,65.2,270.8z"/>
			<circle class="st3" cx="85.9" cy="318.4" r="42.3"/>
			<polygon class="st3" points="109.3,318.6 72.4,344 72.4,293.3 			"/>
			<path class="st3" d="M65.2,271.6v-0.8V101.4c0-6.9,5.6-12.4,12.4-12.4h184.5h70c4.9,0,9.1,2.8,11.2,7c0.8,1.6,1.3,3.5,1.3,5.5
				v0.9v6.4v6.4v6.4v6.4v9.8v137.8"/>
			<polyline class="st3" points="137.2,327.8 206.2,327.8 240.4,327.8 254.5,327.8 254.6,327.8 			"/>
			<line class="st3" x1="65.2" y1="101.4" x2="344.6" y2="101.4"/>
			<path class="st3" d="M262.2,88.9V65.5V49.9c0-3.8,3.1-6.9,6.9-6.9h99.4c3.8,0,6.9,3.1,6.9,6.9v80.8c0,3.8-3.1,6.9-6.9,6.9h-23.8
				h-0.5"/>
			<line class="st3" x1="375.4" y1="49.9" x2="262.2" y2="49.9"/>
			<line class="st3" x1="269.9" y1="57.7" x2="366.5" y2="57.7"/>
			<line class="st3" x1="269.9" y1="64.1" x2="366.5" y2="64.1"/>
			<line class="st3" x1="269.9" y1="70.5" x2="366.5" y2="70.5"/>
			<line class="st3" x1="269.9" y1="76.9" x2="366.5" y2="76.9"/>
			<line class="st3" x1="269.9" y1="83.2" x2="366.5" y2="83.2"/>
			<line class="st3" x1="330.6" y1="89" x2="366.4" y2="89"/>
			<polyline class="st3" points="343.3,96 343.4,96 366.5,96 			"/>
			<polyline class="st3" points="344.6,102.3 344.6,102.3 366.5,102.3 			"/>
			<polyline class="st3" points="344.6,108.7 344.6,108.7 366.5,108.7 			"/>
			<polyline class="st3" points="344.6,115.1 344.6,115.1 366.5,115.1 			"/>
			<polyline class="st3" points="344.6,121.4 344.6,121.4 366.5,121.4 			"/>
			<polyline class="st3" points="344.6,127.8 344.6,127.8 366.5,127.8 			"/>
			<path class="st3" d="M142,25.4v-9.7c0-4.4-3.6-8-8-8H90.6c-4.4,0-8,3.6-8,8v14.4v7.6c0,4.4,3.6,8,8,8h7.5c0,4.5,0,11.5,0,11.5
				l11.5-11.5h0.2H134c4.4,0,8-3.6,8-8V25.4z"/>
			<path class="st3" d="M109.7,45.8v14.4c0,4.4-3.6,8-8,8h-7.5c0,4.4,0,11.5,0,11.5L82.7,68.2H58.3c-4.4,0-8-3.6-8-8V47.7v-9.5
				c0-4.4,3.6-8,8-8h24.2h0.1"/>
			<path class="st4" d="M262,65.5c-13.2,6.2-29,4.5-42.6-0.9c-13.6-5.4-25.6-14-37.9-21.9c-12.2-7.8-25.2-15-39.5-17.2
				c-0.1,0-0.3,0-0.4-0.1"/>
			<path class="st4" d="M50.3,47.7C39,56.1,29.5,67,23.7,79.8c-5.8,12.8-7.6,27.6-3.9,41.2c4.7,17.1,17.7,31.3,20.6,48.7
				c4.6,27.3-16.5,53.3-15,81c0.7,13.9,7.5,27.4,18.2,36.3"/>
			<polyline class="st2" points="235,209.6 237.4,215.5 237.5,215.8 			"/>
			<path class="st2" d="M196.5,149c-0.8,3.5-0.9,7-0.6,10.6c0.1,0.9,0.2,1.9,0.3,2.8c0.5,3.6,1.3,7.2,2.2,10.7
				c-2.1,4.4-4.2,9.1-6.3,13.5c3.5,0.3,6.7,0.7,10.2,0.8c1.6,5.2,3.4,10.4,5.9,15.2c0.7,1.2,1.4,2.4,2.4,3.3
				c2.8,2.6,7.2,2.3,10.9,1.4c3.8-0.9,7.5-2.3,10.9-4"/>
			<path class="st2" d="M195.6,159.6c-6.3-0.9-11.9-5.6-13.8-11.7c-1.9-6.1,0-13.2,4.6-17.5c2.5-2.3,5.7-3.8,8.9-4.9
				c5.8-1.8,11.9-2.1,17.8-3.3c10.7-2.1,21.2-7,31.9-5.4c12.4,1.9,22.2,12.7,25.1,24.8c2.9,12.2-0.4,25.2-6.9,35.9
				c-2.8,4.7-5.9,8.7-7.1,14l-15.3-14.1l5.2-2.1c4.3-1.8,6.6-6.4,5.4-10.8c-1.3-5-6.4-7.9-11.3-6.6l-4.9,1.3
				c-0.3,3.4-0.2,6.7,0.2,10.1c-5.3-5.4-8.9-12.4-10.2-19.7c0,0-6.2,2.6-17.5,1.7c-4.9-0.4-8.7-1.4-11.4-2.3
				c-3.4-1.2-5.1-2.4-5.1-2.4"/>
			<path class="st2" d="M298.4,275.3c0,0-13.9-53.9-35.3-66.1c-3-1.7-6.2-2.6-9.5-2.4c-6.7,0.5-12,3.8-16.1,8.6
				c-12.4,14.4-14.7,41.7-14.7,41.7l-0.2,1.3l-4.1,33.8l0,0.3"/>
			<path class="st2" d="M264,259.6c0,0-4.9,1.1-7.9,10.3c-0.7,2.1-1.8,6.2-3.3,11.3c-0.1,0.3-0.2,0.6-0.3,1
				c-4.5,16.3-11.3,41.8-12.3,45.7c-0.1,0.3-0.1,0.5-0.1,0.5"/>
			<path class="st2" d="M231,311.5c0,0-6.1-9-12.7-19.3c-5.1-8-10.4-16.7-13.3-22.4c-4.2-8.3-7.2-14.7-8.9-18.1
				c-0.9-2-2.1-3.9-3.3-5.7l-1.6-2.3c-3-4.3-6.7-8-11-10.9c-0.4-0.3-0.8-0.5-1.2-0.8"/>
			<path class="st3" d="M185.2,239.6c-0.2,0-1.2-0.6-2.7-1.3c-3.4-1.8-9.1-4.9-13.2-5c-5.9-0.2-30.1-0.7-30.6,2.4
				c-0.5,3.1,12.6,2.9,15.9,3.1c3.3,0.2,13.1,2.8,13.1,2.8s-15.9-1.9-20.4-1c-4.5,0.9-11,2.4-10.7,4c0.3,1.6,13.6,0.3,15.5,0.9
				c1.9,0.5,13.6,2.8,13.6,2.8s-14.7-0.3-17.9,0.4s-11.4,2.8-11.2,4.5c0.2,1.7,13.8-0.9,16.6-0.3c2.8,0.5,11,1.9,11,1.9
				s-11.6,0.5-15.2,1.4c-3.6,0.9-7.9,2.1-7.4,3.3c0.5,1.2,23.1,0.5,23.1,0.5l13.8,5l7.6,2.8l20,60.3"/>
			<polyline class="st3" points="182.5,238.3 180.3,232.8 157.7,176.5 152,179.2 96.4,205.1 131.3,284.2 178.6,264.7 			"/>
			<polyline class="st3" points="96.4,205.1 148.4,171.7 152,179.2 152,179.3 			"/>
			<polygon class="st3" points="155.3,182.5 102.5,207.2 115.1,235.8 168.7,213.2 			"/>
			<line class="st2" x1="256.3" y1="191.7" x2="263.1" y2="209.1"/>
			<polygon class="st2" points="235,209.6 240.1,200 232.4,203.4 234.9,209.7 			"/>
			<path class="st2" d="M205.4,196.5c1.7-1.1,3-2.6,3.9-4.4c0.9-1.7,1.6-3.6,2-5.6"/>
			<path class="st2" d="M196.1,162.5c0.1,0,0.1-0.1,0.2-0.1c2.6-1.5,5.8-2.1,8.8-1.7c3.1,0.4,6,1.9,8.1,4.2"/>
			<path class="st2" d="M222.4,258.4C222.5,258.4,222.5,258.4,222.4,258.4c11.9,4.8,21.5,13.7,30.5,22.7c0,0,0,0,0.1,0.1"/>
			<path class="st2" d="M100.3,27.4c0,1.8-1.4,3.2-3.2,3.2c-1.8,0-3.2-1.4-3.2-3.2c0-1.8,1.4-3.2,3.2-3.2
				C98.9,24.2,100.3,25.7,100.3,27.4z"/>
			<path class="st2" d="M115.5,27.4c0,1.8-1.4,3.2-3.2,3.2c-1.8,0-3.2-1.4-3.2-3.2c0-1.8,1.4-3.2,3.2-3.2
				C114.1,24.2,115.5,25.7,115.5,27.4z"/>
			<path class="st2" d="M130.7,27.4c0,1.8-1.4,3.2-3.2,3.2s-3.2-1.4-3.2-3.2c0-1.8,1.4-3.2,3.2-3.2S130.7,25.7,130.7,27.4z"/>
			<polyline class="st5" points="25,165.4 25,175.8 25,186.1 			"/>
			<polyline class="st5" points="14.7,175.8 25,175.8 35.4,175.8 			"/>
			<polyline class="st5" points="32.3,168.4 25,175.8 17.7,183.1 			"/>
			<polyline class="st5" points="17.7,168.4 25,175.8 32.3,183.1 			"/>
			<polyline class="st5" points="221.8,34 221.8,44.4 221.8,54.7 			"/>
			<polyline class="st5" points="211.4,44.4 221.8,44.4 232.1,44.4 			"/>
			<polyline class="st5" points="229.1,37.1 221.8,44.4 214.4,51.7 			"/>
			<polyline class="st5" points="214.4,37.1 221.8,44.4 229.1,51.7 			"/>
			<circle class="st3" cx="40.6" cy="100.4" r="3.5"/>
			<polyline class="st5" points="324.6,212.4 324.6,222.7 324.6,233.1 			"/>
			<polyline class="st5" points="314.2,222.7 324.6,222.7 334.9,222.7 			"/>
			<polyline class="st5" points="331.9,215.4 324.6,222.7 317.2,230 			"/>
			<polyline class="st5" points="317.2,215.4 324.6,222.7 331.9,230 			"/>
			<circle class="st3" cx="363.7" cy="200.9" r="4.4"/>
			<path class="st3" d="M359.8,238.5c0,2-1.6,3.5-3.6,3.5c-2,0-3.5-1.6-3.5-3.5c0-2,1.6-3.6,3.5-3.6
				C358.2,234.9,359.8,236.5,359.8,238.5z"/>
			<polygon class="st3" points="381.3,220.3 382.9,223.5 386.5,224 383.9,226.5 384.5,230.1 381.3,228.4 378.1,230.1 378.7,226.5 
				376.2,224 379.7,223.5 			"/>
			<polygon class="st3" points="17.4,40.2 19,43.4 22.5,43.9 19.9,46.4 20.6,50 17.4,48.3 14.2,50 14.8,46.4 12.2,43.9 15.8,43.4 
							"/>
			<polygon class="st3" points="171.6,61.1 173.2,64.3 176.8,64.9 174.2,67.4 174.8,70.9 171.6,69.3 168.4,70.9 169,67.4 
				166.4,64.9 170,64.3 			"/>
		</g>
	</g>
</g>
</svg>
