<?xml version="1.0" encoding="utf-8"?>
<!-- Generator: Adobe Illustrator 23.0.2, SVG Export Plug-In . SVG Version: 6.00 Build 0)  -->
<svg version="1.1" id="Layer_1" xmlns="http://www.w3.org/2000/svg" xmlns:xlink="http://www.w3.org/1999/xlink" x="0px" y="0px"
	 viewBox="0 0 500 382" style="enable-background:new 0 0 500 382;" xml:space="preserve">
<style type="text/css">
	.st0{fill:#ECECEC;}
	.st1{fill:#F5F5F5;}
	.st2{fill:#E1E1E1;}
	.st3{opacity:0.7;fill:#E1E1E1;}
	.st4{fill:#E7E7E7;}
	.st5{fill:#F0F0F0;}
	.st6{fill:#FAFAFA;}
	.st7{fill:#1A2E35;}
	.st8{opacity:0.7;}
	.st9{fill:#007CFF;}
	.st10{opacity:0.2;fill:#FFFFFF;}
	.st11{opacity:0.8;fill:#FFFFFF;}
	.st12{opacity:0.7;fill:#FFFFFF;}
	.st13{opacity:0.3;fill:#FFFFFF;}
	.st14{fill:#FFFFFF;}
	.st15{fill:#CD5B51;}
	.st16{fill:#BA221F;}
	.st17{opacity:0.1;}
	.st18{opacity:0.4;}
	.st19{fill:#FFB570;}
	.st20{opacity:0.2;enable-background:new    ;}
	.st21{fill:#FF8935;}
	.st22{fill:#263237;}
	.st23{opacity:0.2;}
	.st24{opacity:0.5;}
	.st25{opacity:0.3;}
	.st26{opacity:0.5;fill:#FFFFFF;}
	.st27{fill:#FD5652;}
</style>
<g>
	<rect x="416.8" y="349.9" class="st0" width="33.1" height="0.3"/>
	<rect x="322.5" y="352.6" class="st0" width="8.7" height="0.3"/>
	<rect x="396.6" y="340.6" class="st0" width="19.2" height="0.3"/>
	<rect x="52.5" y="342.3" class="st0" width="43.2" height="0.3"/>
	<rect x="104.6" y="342.3" class="st0" width="6.3" height="0.3"/>
	<rect x="131.5" y="346.5" class="st0" width="93.7" height="0.3"/>
	<g>
		<path class="st0" d="M238.4,289.2H45.3c-3.1,0-5.7-2.6-5.7-5.7V12.1c0-3.1,2.6-5.7,5.7-5.7h193.1c3.1,0,5.7,2.6,5.7,5.7v271.4
			C244.1,286.6,241.5,289.2,238.4,289.2z M45.3,6.6c-3,0-5.5,2.4-5.5,5.5v271.4c0,3,2.4,5.5,5.5,5.5h193.1c3,0,5.5-2.4,5.5-5.5V12.1
			c0-3-2.4-5.5-5.5-5.5H45.3z"/>
		<path class="st0" d="M454.7,289.2H261.6c-3.1,0-5.7-2.6-5.7-5.7V12.1c0-3.1,2.6-5.7,5.7-5.7h193.1c3.1,0,5.7,2.6,5.7,5.7v271.4
			C460.4,286.6,457.8,289.2,454.7,289.2z M261.6,6.6c-3,0-5.5,2.4-5.5,5.5v271.4c0,3,2.4,5.5,5.5,5.5h193.1c3,0,5.5-2.4,5.5-5.5
			V12.1c0-3-2.4-5.5-5.5-5.5H261.6z"/>
	</g>
	<rect y="333.8" class="st0" width="500" height="0.3"/>
</g>
<g>
	<g>
		
			<rect x="346" y="275" transform="matrix(-1 -1.224647e-16 1.224647e-16 -1 751.7861 609.7519)" class="st1" width="59.8" height="59.8"/>
		
			<rect x="309.2" y="275" transform="matrix(-1 -1.224647e-16 1.224647e-16 -1 655.2023 609.7519)" class="st0" width="36.8" height="59.8"/>
		<g>
			<polygon class="st2" points="331.3,275 331.3,297.6 330.3,296.7 328.6,297.8 327.2,296.7 325.3,297.8 323.3,296.7 322,297.8 
				320.6,297 320.6,275 			"/>
			<polygon class="st3" points="331.3,275 331.3,297.6 330.3,296.7 328.6,297.8 327.2,296.7 325.3,297.8 323.3,296.7 322,297.8 
				320.6,297 320.6,275 			"/>
		</g>
	</g>
	<g>
		
			<rect x="290.1" y="299.2" transform="matrix(-1 -1.224647e-16 1.224647e-16 -1 615.8259 633.9566)" class="st1" width="35.6" height="35.6"/>
		
			<rect x="268.2" y="299.2" transform="matrix(-1 -1.224647e-16 1.224647e-16 -1 558.3147 633.9566)" class="st4" width="21.9" height="35.6"/>
		<polygon class="st4" points="296.9,309.2 332.5,309.2 325.7,299.2 290.1,299.2 		"/>
		<polygon class="st1" points="283.7,309.2 261.8,309.2 268.2,299.2 290.1,299.2 		"/>
	</g>
	<g>
		
			<rect x="406.6" y="299.2" transform="matrix(-1 -1.224647e-16 1.224647e-16 -1 848.9065 633.9566)" class="st1" width="35.6" height="35.6"/>
		
			<rect x="384.8" y="299.2" transform="matrix(-1 -1.224647e-16 1.224647e-16 -1 791.3953 633.9566)" class="st4" width="21.9" height="35.6"/>
		<polygon class="st4" points="413.4,290.2 449.1,290.2 442.3,299.2 406.6,299.2 		"/>
		<polygon class="st0" points="400.2,290.2 378.3,290.2 384.8,299.2 406.6,299.2 		"/>
	</g>
</g>
<g>
	<g>
		<path class="st2" d="M115.3,333l-26-26l-26,26c-0.8,0.8-2,0.8-2.8,0l0,0c-0.8-0.8-0.8-2,0-2.8l28.9-28.9l28.9,28.9
			c0.8,0.8,0.8,2,0,2.8v0C117.4,333.8,116.1,333.8,115.3,333z"/>
	</g>
	<g>
		<g>
			<path class="st4" d="M89.3,334.8L89.3,334.8c-1.1,0-2-0.9-2-2V109.6h4v223.2C91.3,333.9,90.4,334.8,89.3,334.8z"/>
		</g>
		<g>
			<path class="st1" d="M107.2,123.5c5.3,2.2,13.1-4.6,17.5-15.2c4.4-10.6,3.6-20.9-1.6-23.1L90.1,71.4c-5.3-2.2-13.1,4.6-17.5,15.2
				c-4.4,10.6-3.6,20.9,1.6,23.1L107.2,123.5z"/>
			<path class="st2" d="M105.6,100.3c-4.4,10.6-3.6,20.9,1.6,23.1c5.3,2.2,13.1-4.6,17.5-15.2c4.4-10.6,3.6-20.9-1.6-23.1
				C117.8,82.9,110,89.7,105.6,100.3z"/>
			<path class="st5" d="M106.8,100.8c-3.8,9.3-3.2,18.3,1.4,20.2c4.6,1.9,11.5-4,15.3-13.3c3.8-9.3,3.2-18.3-1.4-20.2
				C117.5,85.6,110.6,91.6,106.8,100.8z"/>
			
				<ellipse transform="matrix(0.3827 -0.9239 0.9239 0.3827 -25.2603 170.7869)" class="st6" cx="115.2" cy="104.3" rx="12.6" ry="6.3"/>
			<g>
				<polygon class="st0" points="99.9,105.4 100.5,113.5 101.9,112.4 102.3,118.9 101,120.1 101.5,128.3 90.5,145.9 89.3,128.3 				
					"/>
				<polygon class="st0" points="130.4,103.2 129.9,95 128.5,96.2 128,89.7 129.4,88.5 128.8,80.3 156.8,69.8 158.1,87.3 				"/>
				<polygon class="st0" points="107.8,130.9 114,125.5 113.9,123.7 118.9,119.4 119,121.2 125.2,115.8 133.5,146.7 120.2,158.2 
									"/>
				<polygon class="st0" points="122.5,77.7 116.3,83.1 116.4,84.9 111.5,89.2 111.3,87.4 105.1,92.8 113.9,69 127.1,57.5 				"/>
			</g>
		</g>
	</g>
</g>
<g>
	<path class="st0" d="M206.4,63h20.1c0.7,0,1.3,0.6,1.3,1.3v3.5c0,0.7-0.6,1.3-1.3,1.3h-20.1c-0.7,0-1.3-0.6-1.3-1.3v-3.5
		C205.1,63.6,205.7,63,206.4,63z"/>
	<g>
		<path class="st1" d="M182.6,63h20.1c0.7,0,1.3,0.6,1.3,1.3v3.5c0,0.7-0.6,1.3-1.3,1.3h-20.1c-0.7,0-1.3-0.6-1.3-1.3v-3.5
			C181.3,63.6,181.9,63,182.6,63z"/>
		<path class="st1" d="M193.2,55.4h20.1c0.7,0,1.3,0.6,1.3,1.3v3.5c0,0.7-0.6,1.3-1.3,1.3h-20.1c-0.7,0-1.3-0.6-1.3-1.3v-3.5
			C191.9,56,192.5,55.4,193.2,55.4z"/>
		<path class="st5" d="M169.4,55.4h20.1c0.7,0,1.3,0.6,1.3,1.3v3.5c0,0.7-0.6,1.3-1.3,1.3h-20.1c-0.7,0-1.3-0.6-1.3-1.3v-3.5
			C168.1,56,168.7,55.4,169.4,55.4z"/>
	</g>
</g>
<g>
	<g>
		<path class="st1" d="M344.1,59.2h20.1c0.7,0,1.3,0.6,1.3,1.3V64c0,0.7-0.6,1.3-1.3,1.3h-20.1c-0.7,0-1.3-0.6-1.3-1.3v-3.5
			C342.8,59.8,343.4,59.2,344.1,59.2z"/>
		<path class="st1" d="M354.8,51.6h20.1c0.7,0,1.3,0.6,1.3,1.3v3.5c0,0.7-0.6,1.3-1.3,1.3h-20.1c-0.7,0-1.3-0.6-1.3-1.3V53
			C353.4,52.2,354,51.6,354.8,51.6z"/>
		<path class="st5" d="M331,51.6h20.1c0.7,0,1.3,0.6,1.3,1.3v3.5c0,0.7-0.6,1.3-1.3,1.3H331c-0.7,0-1.3-0.6-1.3-1.3V53
			C329.7,52.2,330.3,51.6,331,51.6z"/>
	</g>
</g>
<g>
	<g>
		<path class="st1" d="M397.4,239.3h20.1c0.7,0,1.3,0.6,1.3,1.3v3.5c0,0.7-0.6,1.3-1.3,1.3h-20.1c-0.7,0-1.3-0.6-1.3-1.3v-3.5
			C396.1,239.9,396.7,239.3,397.4,239.3z"/>
		<path class="st1" d="M408,231.8h20.1c0.7,0,1.3,0.6,1.3,1.3v3.5c0,0.7-0.6,1.3-1.3,1.3H408c-0.7,0-1.3-0.6-1.3-1.3v-3.5
			C406.7,232.4,407.3,231.8,408,231.8z"/>
		<path class="st5" d="M384.3,231.8h20.1c0.7,0,1.3,0.6,1.3,1.3v3.5c0,0.7-0.6,1.3-1.3,1.3h-20.1c-0.7,0-1.3-0.6-1.3-1.3v-3.5
			C382.9,232.4,383.5,231.8,384.3,231.8z"/>
	</g>
</g>
<g>
	<g>
		<path class="st1" d="M96.4,212.5h20.1c0.7,0,1.3,0.6,1.3,1.3v3.5c0,0.7-0.6,1.3-1.3,1.3H96.4c-0.7,0-1.3-0.6-1.3-1.3v-3.5
			C95,213.1,95.6,212.5,96.4,212.5z"/>
		<path class="st1" d="M107,205h20.1c0.7,0,1.3,0.6,1.3,1.3v3.5c0,0.7-0.6,1.3-1.3,1.3H107c-0.7,0-1.3-0.6-1.3-1.3v-3.5
			C105.7,205.5,106.2,205,107,205z"/>
	</g>
</g>
<g>
	<g>
		<path class="st5" d="M242.3,292c1.6-9.9,4.9-18.2,11-26.2c-4.6,1.7-11.4,2.1-7.3-4.8c4.9-8.4,4.3-1,8.1-3.3
			c3.1-1.9,0.8-6.9,5.1-9.4c4.9-2.8,3.2,6.7,7.1,4.3c2.7-1.7,7.3-3.2,9,0.7c-2,2.6-4.6,5.1-7.7,6.1c-4.5,1.4,4.1,4.5,1.3,6.9
			c-2.8,2.4-6.9,4.2-6.7,1.1c0.2-3.1-3.9,1.2-2.4,3.3c1.5,2.2-5.3,6.7-5.3,3c0-3.7-0.1-7.5-0.1-7.5c-6,8.6-9.1,17.3-10.2,27.7
			C243.3,293.2,243,292.8,242.3,292z"/>
	</g>
	<g>
		<path class="st2" d="M236,292.8c-3.3-9.5-8.1-17-15.5-23.8c4.9,0.9,11.6,0.1,6.3-6c-6.3-7.4-4.4-0.2-8.5-1.8
			c-3.4-1.3-2-6.7-6.7-8.3c-5.3-1.9-2,7.2-6.2,5.5c-2.9-1.2-7.7-1.8-8.8,2.3c2.5,2.2,5.4,4.2,8.7,4.6c4.7,0.6-3.2,5.2,0,7.1
			c3.2,1.9,7.6,2.9,6.8-0.1c-0.8-3,4,0.4,3,2.9c-1,2.4,6.4,5.6,5.8,2c-0.7-3.7-1.2-7.4-1.2-7.4c7.5,7.4,12,15.4,14.9,25.5
			C235.2,294.2,235.5,293.7,236,292.8z"/>
	</g>
	<g>
		<path class="st4" d="M238.4,292.4c2.5-12.5,2.1-23.8-1.5-36c4.7,4.1,12.5,7.5,10.8-2.5c-2.1-12.1-4.6-3-8.2-7.4
			c-2.9-3.6,2.1-8.6-1.9-13.4c-4.6-5.5-6.8,6.6-10.3,2c-2.4-3.2-7.3-6.9-11.1-3.1c1.2,4,3.2,8.1,6.5,10.6c4.7,3.7-6.8,3.6-4.6,7.7
			c2.3,4.1,6.4,8,7.5,4.2c1.1-3.8,4.1,3.1,1.4,5c-2.7,2,3.4,10.3,5,5.8c1.7-4.4,3.5-8.9,3.5-8.9c3.4,12.8,3.2,24.5-0.1,37.4
			C236.7,293.3,237.3,293,238.4,292.4z"/>
	</g>
	<path class="st0" d="M249.4,334.8h-23.1c-1.6,0-2.9-1.3-3-2.9l-2.4-39.8c-0.1-1.8,34.1-1.8,34,0l-2.4,39.8
		C252.3,333.5,251,334.8,249.4,334.8z"/>
</g>
<ellipse id="_x3C_Path_x3E__1_" class="st1" cx="245.2" cy="363.8" rx="193.9" ry="11.3"/>
<g>
	<g>
		<polygon class="st7" points="360.8,362.6 307.9,114.6 255.1,362.6 259,362.6 305,155.8 306.1,362.6 309.8,362.6 310.9,155.8 
			356.9,362.6 		"/>
		<g class="st8">
			<polygon points="288.2,231.4 296.9,192.2 291.4,192.2 283.1,231.4 			"/>
			<polygon points="310.7,192.2 305.2,192.2 305.4,231.4 310.5,231.4 			"/>
			<polygon points="324.5,192.2 319,192.2 327.7,231.4 332.8,231.4 			"/>
		</g>
	</g>
	<path class="st9" d="M396,222.8H219.9c-4.3,0-7.8-3.5-7.8-7.8V100c0-4.3,3.5-7.8,7.8-7.8H396c4.3,0,7.8,3.5,7.8,7.8v115
		C403.8,219.3,400.3,222.8,396,222.8z"/>
	<g>
		<path class="st7" d="M394.2,224.6H221.7c-6.3,0-11.4-5.1-11.4-11.4V101.8c0-6.3,5.1-11.4,11.4-11.4h172.6
			c6.3,0,11.4,5.1,11.4,11.4v111.5C405.6,219.5,400.5,224.6,394.2,224.6z M221.7,94.1c-4.3,0-7.7,3.5-7.7,7.7v111.5
			c0,4.3,3.5,7.7,7.7,7.7h172.6c4.3,0,7.7-3.5,7.7-7.7V101.8c0-4.3-3.5-7.7-7.7-7.7H221.7z"/>
	</g>
	<path class="st10" d="M401.9,101.8v111.5c0,4.3-3.5,7.7-7.7,7.7H221.7c-1.3,0-2.6-0.3-3.7-0.9l-3.3,2.2c1.9,1.5,4.3,2.4,6.9,2.4
		h172.6c6.3,0,11.4-5.1,11.4-11.4V101.8c0-2.9-1.1-5.6-2.9-7.6l-3.1,2.1C401.1,97.7,401.9,99.6,401.9,101.8z"/>
</g>
<g>
	<g>
		<g>
			<g>
				<rect x="223" y="106" class="st9" width="54.6" height="46"/>
				<rect x="223" y="106" class="st11" width="54.6" height="46"/>
			</g>
			<rect x="225.4" y="108" class="st7" width="50" height="28.2"/>
			<rect x="225.4" y="108" class="st12" width="50" height="28.2"/>
			<rect x="225.4" y="108" class="st9" width="7.5" height="7.5"/>
			<g>
				<g>
					<path class="st7" d="M262.5,140.5c2.7,0,5.3,0,8,0c0.7,0,0.7-1.1,0-1.1c-2.7,0-5.3,0-8,0C261.8,139.4,261.8,140.5,262.5,140.5
						L262.5,140.5z"/>
				</g>
				<g>
					<path class="st7" d="M245.3,140.5c4.8,0,9.5,0,14.3,0c0.7,0,0.7-1.1,0-1.1c-4.8,0-9.5,0-14.3,0
						C244.6,139.4,244.6,140.5,245.3,140.5L245.3,140.5z"/>
				</g>
				<g>
					<path class="st7" d="M230.2,140.5c3.9,0,7.8,0,11.8,0c0.7,0,0.7-1.1,0-1.1c-3.9,0-7.8,0-11.8,0
						C229.5,139.4,229.5,140.5,230.2,140.5L230.2,140.5z"/>
				</g>
				<g>
					<path class="st7" d="M257.9,144.5c2.8,0,5.6,0,8.4,0c0.7,0,0.7-1.1,0-1.1c-2.8,0-5.6,0-8.4,0
						C257.1,143.4,257.1,144.5,257.9,144.5L257.9,144.5z"/>
				</g>
				<g>
					<path class="st7" d="M242.5,144.5c4,0,7.9,0,11.9,0c0.7,0,0.7-1.1,0-1.1c-4,0-7.9,0-11.9,0
						C241.8,143.4,241.8,144.5,242.5,144.5L242.5,144.5z"/>
				</g>
				<g>
					<path class="st7" d="M234.5,144.5c1.6,0,3.3,0,4.9,0c0.7,0,0.7-1.1,0-1.1c-1.6,0-3.3,0-4.9,0
						C233.8,143.4,233.8,144.5,234.5,144.5L234.5,144.5z"/>
				</g>
				<g>
					<path class="st7" d="M261.6,148.5c2.1,0,4.3,0,6.4,0c0.7,0,0.7-1.1,0-1.1c-2.1,0-4.3,0-6.4,0
						C260.9,147.4,260.9,148.5,261.6,148.5L261.6,148.5z"/>
				</g>
				<g>
					<path class="st7" d="M247.9,148.5c3.6,0,7.1,0,10.7,0c0.7,0,0.7-1.1,0-1.1c-3.6,0-7.1,0-10.7,0
						C247.2,147.4,247.2,148.5,247.9,148.5L247.9,148.5z"/>
				</g>
				<g>
					<path class="st7" d="M232.6,148.5c3.9,0,7.8,0,11.7,0c0.7,0,0.7-1.1,0-1.1c-3.9,0-7.8,0-11.7,0
						C231.9,147.4,231.9,148.5,232.6,148.5L232.6,148.5z"/>
				</g>
			</g>
			<g>
				<path class="st7" d="M254.9,104c-0.7,0-1.1,0-1.8,0c-1.6,0-2.9,1.3-2.9,2.9c0,1.6,1.3,2.9,2.9,2.9c0.7,0,1.1,0,1.8,0
					c1.6,0,2.9-1.3,2.9-2.9C257.8,105.3,256.5,104,254.9,104z"/>
				<path class="st13" d="M257.8,106.9c0,1.6-1.3,2.9-2.9,2.9s-2.9-1.3-2.9-2.9c0-1.6,1.3-2.9,2.9-2.9S257.8,105.3,257.8,106.9z"/>
			</g>
		</g>
		<g>
			<g>
				<path class="st7" d="M241.7,118.5v17.9h6v-20.8L241.7,118.5z M243.9,130.8h-1.1v-1.1h1.1V130.8z M243.9,124.7h-1.1v-1.1h1.1
					V124.7z M243.9,120.7h-1.1v-1.1h1.1V120.7z M246.3,134.9h-1.1v-1.1h1.1V134.9z M246.3,128.8h-1.1v-1.1h1.1V128.8z M246.3,126.8
					h-1.1v-1.1h1.1V126.8z M246.3,122.7h-1.1v-1.1h1.1V122.7z"/>
				<path class="st7" d="M255.4,121.6v14.8h4.3v-12.8L255.4,121.6z M258.1,131.6h0.8v0.8h-0.8V131.6z M258.1,127.3h0.8v0.8h-0.8
					V127.3z M258.1,124.4h0.8v0.8h-0.8V124.4z M256.4,134.5h0.8v0.8h-0.8V134.5z M256.4,130.2h0.8v0.8h-0.8V130.2z M256.4,128.8h0.8
					v0.8h-0.8V128.8z M256.4,125.9h0.8v0.8h-0.8V125.9z"/>
				<path class="st7" d="M253.8,120.4v-2.7h-0.7v-3h-0.5v-1.4l-1.1-1.6l-1.1,1.6v1.4h-0.5v3h-0.7v2.7h-0.7v15.9h5.9v-15.9H253.8z
					 M250.2,131.1h-0.8v-0.8h0.8V131.1z M250.2,128.1h-0.8v-0.8h0.8V128.1z M250.2,125.1h-0.8v-0.8h0.8V125.1z M252,132.6h-0.8v-0.8
					h0.8V132.6z M252,128.1h-0.8v-0.8h0.8V128.1z M252,126.6h-0.8v-0.8h0.8V126.6z M252,122.1h-0.8v-0.8h0.8V122.1z M253.7,132.6
					h-0.8v-0.8h0.8V132.6z M253.7,129.6h-0.8v-0.8h0.8V129.6z M253.7,125.1h-0.8v-0.8h0.8V125.1z M253.7,122.1h-0.8v-0.8h0.8V122.1z
					"/>
				<path class="st7" d="M240.2,123.4h-3.8h-0.5v13h4.8v-13H240.2z M237.2,132h-0.7v-0.7h0.7V132z M237.2,129.6h-0.7v-0.7h0.7V129.6
					z M237.2,127.2h-0.7v-0.7h0.7V127.2z M238.6,133.2H238v-0.7h0.7V133.2z M238.6,129.6H238v-0.7h0.7V129.6z M238.6,128.4H238v-0.7
					h0.7V128.4z M238.6,124.7H238V124h0.7V124.7z M240.1,133.2h-0.7v-0.7h0.7V133.2z M240.1,130.8h-0.7v-0.7h0.7V130.8z
					 M240.1,127.2h-0.7v-0.7h0.7V127.2z M240.1,124.7h-0.7V124h0.7V124.7z"/>
				<path class="st7" d="M264.8,123.4H261h-0.5v13h4.8v-13H264.8z M261.8,132h-0.7v-0.7h0.7V132z M261.8,129.6h-0.7v-0.7h0.7V129.6z
					 M261.8,127.2h-0.7v-0.7h0.7V127.2z M263.2,133.2h-0.7v-0.7h0.7V133.2z M263.2,129.6h-0.7v-0.7h0.7V129.6z M263.2,128.4h-0.7
					v-0.7h0.7V128.4z M263.2,124.7h-0.7V124h0.7V124.7z M264.7,133.2H264v-0.7h0.7V133.2z M264.7,130.8H264v-0.7h0.7V130.8z
					 M264.7,127.2H264v-0.7h0.7V127.2z M264.7,124.7H264V124h0.7V124.7z"/>
			</g>
		</g>
		<path class="st14" d="M229.8,109.5v4.4h-1v-3.6h-0.9v-0.8H229.8z"/>
	</g>
	<g>
		<g>
			<g>
				<rect x="282.4" y="106" class="st9" width="54.6" height="46"/>
				<rect x="282.4" y="106" class="st11" width="54.6" height="46"/>
			</g>
			<rect x="284.8" y="108" class="st7" width="50" height="28.2"/>
			<rect x="284.8" y="108" class="st12" width="50" height="28.2"/>
			<rect x="284.8" y="108" class="st9" width="7.5" height="7.5"/>
			<g>
				<g>
					<path class="st7" d="M321.9,140.5c2.7,0,5.3,0,8,0c0.7,0,0.7-1.1,0-1.1c-2.7,0-5.3,0-8,0C321.2,139.4,321.2,140.5,321.9,140.5
						L321.9,140.5z"/>
				</g>
				<g>
					<path class="st7" d="M304.7,140.5c4.8,0,9.5,0,14.3,0c0.7,0,0.7-1.1,0-1.1c-4.8,0-9.5,0-14.3,0
						C304,139.4,304,140.5,304.7,140.5L304.7,140.5z"/>
				</g>
				<g>
					<path class="st7" d="M289.6,140.5c3.9,0,7.8,0,11.8,0c0.7,0,0.7-1.1,0-1.1c-3.9,0-7.8,0-11.8,0
						C288.9,139.4,288.9,140.5,289.6,140.5L289.6,140.5z"/>
				</g>
				<g>
					<path class="st7" d="M317.3,144.5c2.8,0,5.6,0,8.4,0c0.7,0,0.7-1.1,0-1.1c-2.8,0-5.6,0-8.4,0
						C316.6,143.4,316.5,144.5,317.3,144.5L317.3,144.5z"/>
				</g>
				<g>
					<path class="st7" d="M301.9,144.5c4,0,7.9,0,11.9,0c0.7,0,0.7-1.1,0-1.1c-4,0-7.9,0-11.9,0
						C301.2,143.4,301.2,144.5,301.9,144.5L301.9,144.5z"/>
				</g>
				<g>
					<path class="st7" d="M293.9,144.5c1.6,0,3.3,0,4.9,0c0.7,0,0.7-1.1,0-1.1c-1.6,0-3.3,0-4.9,0
						C293.2,143.4,293.2,144.5,293.9,144.5L293.9,144.5z"/>
				</g>
				<g>
					<path class="st7" d="M321,148.5c2.1,0,4.3,0,6.4,0c0.7,0,0.7-1.1,0-1.1c-2.1,0-4.3,0-6.4,0C320.3,147.4,320.3,148.5,321,148.5
						L321,148.5z"/>
				</g>
				<g>
					<path class="st7" d="M307.3,148.5c3.6,0,7.1,0,10.7,0c0.7,0,0.7-1.1,0-1.1c-3.6,0-7.1,0-10.7,0
						C306.6,147.4,306.6,148.5,307.3,148.5L307.3,148.5z"/>
				</g>
				<g>
					<path class="st7" d="M292,148.5c3.9,0,7.8,0,11.7,0c0.7,0,0.7-1.1,0-1.1c-3.9,0-7.8,0-11.7,0
						C291.3,147.4,291.3,148.5,292,148.5L292,148.5z"/>
				</g>
			</g>
			<g>
				<path class="st7" d="M314.3,104c-0.7,0-1.1,0-1.8,0c-1.6,0-2.9,1.3-2.9,2.9c0,1.6,1.3,2.9,2.9,2.9c0.7,0,1.1,0,1.8,0
					c1.6,0,2.9-1.3,2.9-2.9C317.2,105.3,315.9,104,314.3,104z"/>
				<path class="st13" d="M317.2,106.9c0,1.6-1.3,2.9-2.9,2.9c-1.6,0-2.9-1.3-2.9-2.9c0-1.6,1.3-2.9,2.9-2.9
					C315.9,104,317.2,105.3,317.2,106.9z"/>
			</g>
			<g>
				<polygon class="st15" points="302.1,125.5 301.5,128.1 304.4,128.8 304.4,126.8 				"/>
				<path class="st7" d="M309.5,115.6c1.2,1,2.5,5.2,0.8,6.9C307.7,119.6,307.4,115.2,309.5,115.6z"/>
				<path class="st15" d="M300.7,120.5c0.5,3.6,0.5,5.8,2.5,7.5c3,2.6,7.3,0.6,8-3.1c0.6-3.3-0.3-8.7-3.9-9.9
					c-2.6-0.9-5.5,0.6-6.3,3.2C300.7,119,300.6,119.8,300.7,120.5z"/>
				<path class="st7" d="M300.8,123.6c1.7,0.1,2.3-4,1.2-6.4c0.7,0.3,2.9,0,3.5-1c3.4,1,4.7,1,5.1-0.4c0.4-1.4-5-2.7-8.1-2
					c-3.1,0.7-2.2,2.9-2.2,2.9S295.1,118.5,300.8,123.6z"/>
				<path class="st15" d="M299.5,123.9c0.5,0.7,1.2,1.3,2,1.5c1.1,0.3,1.4-0.8,1-1.9c-0.4-1-1.4-2.3-2.4-2
					C299.2,121.8,298.9,123,299.5,123.9z"/>
				<path class="st7" d="M305.5,121.1c0,0.3,0.2,0.5,0.4,0.5c0.2,0,0.3-0.3,0.3-0.6c0-0.3-0.2-0.5-0.4-0.5
					C305.7,120.6,305.5,120.8,305.5,121.1z"/>
				<path class="st7" d="M309.6,120.8c0,0.3,0.2,0.5,0.4,0.5c0.2,0,0.3-0.3,0.3-0.6c0-0.3-0.2-0.5-0.4-0.5
					C309.7,120.2,309.5,120.5,309.6,120.8z"/>
				<path class="st16" d="M308.9,121.1c0.4,0.9,0.9,1.7,1.6,2.4c-0.4,0.3-0.9,0.5-1.4,0.4L308.9,121.1z"/>
				<path class="st7" d="M307.1,118.8C307.1,118.8,307.1,118.8,307.1,118.8c0.1,0.2,0,0.3-0.1,0.3c-0.5,0.1-1.1,0-1.6-0.3
					c-0.1-0.1-0.1-0.2,0-0.2c0,0,0,0,0,0c0.1-0.1,0.2-0.1,0.3,0l0,0c0.3,0.3,0.8,0.4,1.2,0.3C307,118.7,307,118.7,307.1,118.8z"/>
				<path class="st7" d="M310.7,119c-0.1,0-0.1,0-0.2,0c-0.3-0.3-0.8-0.4-1.2-0.3c-0.1,0-0.2,0-0.2-0.1c0-0.1,0-0.2,0.1-0.2
					c0.5-0.1,1.1,0,1.5,0.4C310.8,118.8,310.8,118.9,310.7,119C310.7,119,310.7,119,310.7,119z"/>
				<path class="st7" d="M306.2,125.1L306.2,125.1c0.9-0.6,2-0.7,3-0.3c0.1,0,0.1,0.1,0.1,0.2c0,0,0,0,0,0c0,0.1-0.1,0.1-0.2,0.1
					c-0.9-0.4-2-0.2-2.8,0.3c-0.1,0-0.1,0-0.2,0C306.1,125.2,306.1,125.1,306.2,125.1C306.2,125.1,306.2,125.1,306.2,125.1z"/>
				<path class="st9" d="M295.2,136.1c0,0-0.2-7.8,7.3-7.8c7.5,0,12.6,7.8,12.6,7.8H295.2z"/>
				<path class="st9" d="M301,128.6c0,0-0.7-1.9,2.9-1.6c3.6,0.2,6,1.6,6,1.6s-1.9,0.3-2.2,1.5L301,128.6z"/>
			</g>
			<g>
				<path class="st7" d="M316.1,120.7c0,0,7.2,4.8-0.7,7.6l-0.2-1.2l-2.9,2.5l5.5,1.5l-1.7-1.3c0,0,11.4-2.8,2.8-9.7L316.1,120.7z"
					/>
				<polygon class="st7" points="315.4,120.2 318.2,119.8 317.2,119 314.5,119.6 				"/>
			</g>
		</g>
		<path class="st14" d="M290.3,113.1v0.8h-3.3v-0.7l1.7-1.6c0.2-0.2,0.3-0.3,0.4-0.4c0.1-0.1,0.1-0.2,0.1-0.4c0-0.2-0.1-0.3-0.2-0.4
			c-0.1-0.1-0.3-0.1-0.5-0.1c-0.2,0-0.4,0-0.5,0.1c-0.2,0.1-0.3,0.2-0.4,0.3l-0.7-0.5c0.2-0.3,0.4-0.5,0.7-0.6
			c0.3-0.1,0.7-0.2,1-0.2c0.3,0,0.6,0.1,0.9,0.2c0.2,0.1,0.4,0.3,0.6,0.5c0.1,0.2,0.2,0.4,0.2,0.7c0,0.2-0.1,0.5-0.2,0.7
			c-0.1,0.2-0.3,0.5-0.6,0.7l-1,1H290.3z"/>
	</g>
	<g>
		<g>
			<rect x="341.5" y="106" class="st9" width="54.6" height="46"/>
			<rect x="341.5" y="106" class="st11" width="54.6" height="46"/>
		</g>
		<rect x="343.9" y="108" class="st7" width="50" height="28.2"/>
		<rect x="343.9" y="108" class="st12" width="50" height="28.2"/>
		<rect x="343.9" y="108" class="st9" width="7.5" height="7.5"/>
		<g>
			<g>
				<path class="st7" d="M381,140.5c2.7,0,5.3,0,8,0c0.7,0,0.7-1.1,0-1.1c-2.7,0-5.3,0-8,0C380.3,139.4,380.3,140.5,381,140.5
					L381,140.5z"/>
			</g>
			<g>
				<path class="st7" d="M363.8,140.5c4.8,0,9.5,0,14.3,0c0.7,0,0.7-1.1,0-1.1c-4.8,0-9.5,0-14.3,0
					C363.1,139.4,363.1,140.5,363.8,140.5L363.8,140.5z"/>
			</g>
			<g>
				<path class="st7" d="M348.7,140.5c3.9,0,7.8,0,11.8,0c0.7,0,0.7-1.1,0-1.1c-3.9,0-7.8,0-11.8,0C348,139.4,348,140.5,348.7,140.5
					L348.7,140.5z"/>
			</g>
			<g>
				<path class="st7" d="M376.4,144.5c2.8,0,5.6,0,8.4,0c0.7,0,0.7-1.1,0-1.1c-2.8,0-5.6,0-8.4,0
					C375.7,143.4,375.6,144.5,376.4,144.5L376.4,144.5z"/>
			</g>
			<g>
				<path class="st7" d="M361,144.5c4,0,7.9,0,11.9,0c0.7,0,0.7-1.1,0-1.1c-4,0-7.9,0-11.9,0C360.3,143.4,360.3,144.5,361,144.5
					L361,144.5z"/>
			</g>
			<g>
				<path class="st7" d="M353,144.5c1.6,0,3.3,0,4.9,0c0.7,0,0.7-1.1,0-1.1c-1.6,0-3.3,0-4.9,0C352.3,143.4,352.3,144.5,353,144.5
					L353,144.5z"/>
			</g>
			<g>
				<path class="st7" d="M380.1,148.5c2.1,0,4.3,0,6.4,0c0.7,0,0.7-1.1,0-1.1c-2.1,0-4.3,0-6.4,0
					C379.4,147.4,379.4,148.5,380.1,148.5L380.1,148.5z"/>
			</g>
			<g>
				<path class="st7" d="M366.4,148.5c3.6,0,7.1,0,10.7,0c0.7,0,0.7-1.1,0-1.1c-3.6,0-7.1,0-10.7,0
					C365.7,147.4,365.7,148.5,366.4,148.5L366.4,148.5z"/>
			</g>
			<g>
				<path class="st7" d="M351.1,148.5c3.9,0,7.8,0,11.7,0c0.7,0,0.7-1.1,0-1.1c-3.9,0-7.8,0-11.7,0
					C350.4,147.4,350.4,148.5,351.1,148.5L351.1,148.5z"/>
			</g>
		</g>
		<g>
			<path class="st7" d="M373.4,104c-0.7,0-1.1,0-1.8,0c-1.6,0-2.9,1.3-2.9,2.9c0,1.6,1.3,2.9,2.9,2.9c0.7,0,1.1,0,1.8,0
				c1.6,0,2.9-1.3,2.9-2.9C376.3,105.3,375,104,373.4,104z"/>
			<path class="st13" d="M376.3,106.9c0,1.6-1.3,2.9-2.9,2.9s-2.9-1.3-2.9-2.9c0-1.6,1.3-2.9,2.9-2.9S376.3,105.3,376.3,106.9z"/>
		</g>
		<g>
			<path class="st9" d="M373.1,119.5c-0.2-0.9-2.2-3.2-2.2-3.2l-1.6,0.1l-0.1-0.7c0,0,0.2-0.9,0.4-1.4s-0.8-0.9-1.3-1
				c-0.5-0.1-0.5-0.8-0.9-0.3c-0.4,0.5,0.1,0.8,0.1,0.8l-0.3,1.5l0.4,0.5h0.5l-0.2,0.5l-1.6,0.1c0,0-1.7,2.1-1.9,2.9
				c0,0.1,0,0.5,0.1,0.6c0.2,0.3,1.3,1.1,1.3,1.1l0.5,0.2l0,1.4l-1.7,13.1l-1.1,0.4c-0.1,0-0.1,0.1-0.1,0.2l2.2,0c0,0,0,0,0,0l0-0.5
				c0,0,1.2-4.2,1.3-5.7c0-0.3,0-1.2,0-1.2l1.2-4.9l1.6,11.7l-1.1,0.4c-0.1,0-0.1,0.1-0.1,0.2c0,0,0,0,0,0l2.3,0c0,0,0,0,0,0
				l-0.1-0.6c0,0,0.1-4.3-0.1-5.7c-0.1-0.3-0.4-1.3-0.4-1.3s0.3-3.4,0.2-4.6c0-0.5-0.2-1.6-0.2-1.6l0.2-1.4l0.3-0.1
				c0,0,2-0.4,2.3-0.9C373.1,119.9,373.2,119.6,373.1,119.5z M366.2,120.5c0,0-0.5-0.8-0.5-1.1c0-0.3,0.5-0.8,0.8-1.1l0,2.2
				L366.2,120.5z M371.9,119.5c-0.1,0.4-1.2,1-1.2,1l-0.2,0l0.3-2.5C371.2,118.3,371.9,119.1,371.9,119.5z"/>
		</g>
		<g>
			<polygon class="st7" points="359.7,125.8 353,130.3 352.9,128.9 350.6,132.4 354.6,132.4 353.7,131.5 360.7,127.8 			"/>
			<polygon class="st7" points="360.1,125.5 361.1,127.6 362,127.1 360.9,125 			"/>
		</g>
		<g>
			<polygon class="st7" points="359.1,118.6 351,118.7 351.7,117.4 347.8,119.1 351.1,121.3 350.9,120 358.8,120.8 			"/>
			<polygon class="st7" points="359.5,118.6 359.3,120.8 360.2,120.9 360.4,118.5 			"/>
		</g>
		<g>
			<polygon class="st7" points="377.1,118.6 385.2,118.7 384.5,117.4 388.4,119.1 385.1,121.3 385.3,120 377.4,120.8 			"/>
			<polygon class="st7" points="376.7,118.6 376.9,120.8 376,120.9 375.8,118.5 			"/>
		</g>
		<g>
			<polygon class="st7" points="377.1,125.8 383.8,130.3 383.9,128.9 386.2,132.4 382.2,132.4 383.1,131.5 376.1,127.8 			"/>
			<polygon class="st7" points="376.7,125.5 375.7,127.6 374.9,127.1 376,125 			"/>
		</g>
		<path class="st14" d="M349,111.7c0.2,0.2,0.3,0.5,0.3,0.8c0,0.3-0.1,0.5-0.2,0.7c-0.1,0.2-0.3,0.4-0.6,0.5c-0.3,0.1-0.6,0.2-1,0.2
			c-0.3,0-0.6,0-0.9-0.1c-0.3-0.1-0.6-0.2-0.8-0.4l0.4-0.8c0.2,0.1,0.4,0.2,0.6,0.3c0.2,0.1,0.4,0.1,0.7,0.1c0.3,0,0.5,0,0.6-0.1
			c0.1-0.1,0.2-0.2,0.2-0.4c0-0.4-0.3-0.5-0.8-0.5H347v-0.7l0.9-1h-1.9v-0.8h3.1v0.7l-1,1.1C348.5,111.3,348.8,111.5,349,111.7z"/>
	</g>
	<g>
		<g>
			<g>
				<rect x="252.5" y="160.5" class="st9" width="54.6" height="46"/>
				<rect x="252.5" y="160.5" class="st11" width="54.6" height="46"/>
			</g>
			<rect x="254.8" y="162.5" class="st7" width="50" height="28.2"/>
			<rect x="254.8" y="162.5" class="st12" width="50" height="28.2"/>
			<rect x="254.8" y="162.5" class="st9" width="7.5" height="7.5"/>
			<g>
				<g>
					<path class="st7" d="M292,195c2.7,0,5.3,0,8,0c0.7,0,0.7-1.1,0-1.1c-2.7,0-5.3,0-8,0C291.3,193.9,291.3,195,292,195L292,195z"
						/>
				</g>
				<g>
					<path class="st7" d="M274.7,195c4.8,0,9.5,0,14.3,0c0.7,0,0.7-1.1,0-1.1c-4.8,0-9.5,0-14.3,0C274,193.9,274,195,274.7,195
						L274.7,195z"/>
				</g>
				<g>
					<path class="st7" d="M259.6,195c3.9,0,7.8,0,11.8,0c0.7,0,0.7-1.1,0-1.1c-3.9,0-7.8,0-11.8,0C258.9,193.9,258.9,195,259.6,195
						L259.6,195z"/>
				</g>
				<g>
					<path class="st7" d="M287.3,199c2.8,0,5.6,0,8.4,0c0.7,0,0.7-1.1,0-1.1c-2.8,0-5.6,0-8.4,0C286.6,197.9,286.6,199,287.3,199
						L287.3,199z"/>
				</g>
				<g>
					<path class="st7" d="M271.9,199c4,0,7.9,0,11.9,0c0.7,0,0.7-1.1,0-1.1c-4,0-7.9,0-11.9,0C271.2,197.9,271.2,199,271.9,199
						L271.9,199z"/>
				</g>
				<g>
					<path class="st7" d="M263.9,199c1.6,0,3.3,0,4.9,0c0.7,0,0.7-1.1,0-1.1c-1.6,0-3.3,0-4.9,0C263.2,197.9,263.2,199,263.9,199
						L263.9,199z"/>
				</g>
				<g>
					<path class="st7" d="M291,203c2.1,0,4.3,0,6.4,0c0.7,0,0.7-1.1,0-1.1c-2.1,0-4.3,0-6.4,0C290.3,201.9,290.3,203,291,203
						L291,203z"/>
				</g>
				<g>
					<path class="st7" d="M277.3,203c3.6,0,7.1,0,10.7,0c0.7,0,0.7-1.1,0-1.1c-3.6,0-7.1,0-10.7,0C276.6,201.9,276.6,203,277.3,203
						L277.3,203z"/>
				</g>
				<g>
					<path class="st7" d="M262,203c3.9,0,7.8,0,11.7,0c0.7,0,0.7-1.1,0-1.1c-3.9,0-7.8,0-11.7,0C261.3,201.9,261.3,203,262,203
						L262,203z"/>
				</g>
			</g>
			<g>
				<path class="st7" d="M284.3,158.5c-0.7,0-1.1,0-1.8,0c-1.6,0-2.9,1.3-2.9,2.9c0,1.6,1.3,2.9,2.9,2.9c0.7,0,1.1,0,1.8,0
					c1.6,0,2.9-1.3,2.9-2.9C287.2,159.8,285.9,158.5,284.3,158.5z"/>
				<path class="st13" d="M287.2,161.4c0,1.6-1.3,2.9-2.9,2.9s-2.9-1.3-2.9-2.9c0-1.6,1.3-2.9,2.9-2.9S287.2,159.8,287.2,161.4z"/>
			</g>
		</g>
		<path class="st15" d="M276.8,170.8l0.8-1.6v-1.9l1.1-2.2h2.4c0,0,3-0.1,2.8,0.5s-1.8,0.7-1.8,0.7l0,1.5l0.4,1H282
			c0,0-0.4,2.4-2,1.3l-0.2,1.9L276.8,170.8z"/>
		<path class="st9" d="M272.5,180.6l0.7-8.6c0,0-4.3-0.5-4.7,0.5c-0.5,1,1.6,3.7,1.6,3.7l1.3-0.4l0.6,1.7l-1.2,1l-0.8-0.9
			c0,0-3.1-1.8-3.5-5c-0.4-3.1,7.9-3.4,7.9-3.4l8,2.6c7,6.5,6-0.9,6-0.9l-1.8-0.5l0.8-1.5l2.1,1c0,0,1.5,3,0,5.7
			c-1.5,2.7-7.4-0.8-7.4-0.8l-3.3,8l4,7.9h-2.9l-4.9-5.1l-3.5,5.1h-3l2.3-6.1l0.7-2L272.5,180.6z"/>
		<g>
			<path class="st7" d="M287.8,180.6l-4.5-1.3l-1.5,2.9l1.9-0.7c0,0,1.1,3.1-8.4,3.1c-3.7,0-5.8-0.7-7-1.5l-2.6,1.2
				c1.6,1.4,4.4,2.6,9.4,2.6c12,0,10.6-5.7,10.6-5.7L287.8,180.6z"/>
			<g>
				<path class="st7" d="M267.1,181.7l-3,0.2c0.2,0.5,0.5,1,0.8,1.5l2.8-0.9C267.4,182.1,267.2,181.9,267.1,181.7z"/>
				<path class="st7" d="M266.9,181.2c0-0.1-0.1-0.2-0.1-0.3l-3.1-0.7c0,0.2,0.1,0.5,0.1,0.9L266.9,181.2z"/>
			</g>
		</g>
		<path class="st14" d="M260.6,167.5h-0.7v0.9h-1v-0.9h-2.4v-0.7l2.1-2.8h1.1l-1.9,2.7h1.2v-0.8h1v0.8h0.7V167.5z"/>
	</g>
	<g>
		<g>
			<g>
				<rect x="311.9" y="160.3" class="st9" width="54.6" height="46"/>
				<rect x="311.9" y="160.3" class="st11" width="54.6" height="46"/>
			</g>
			<rect x="314.2" y="162.3" class="st7" width="50" height="28.2"/>
			<rect x="314.2" y="162.3" class="st12" width="50" height="28.2"/>
			<rect x="314.2" y="162.3" class="st9" width="7.5" height="7.5"/>
			<g>
				<g>
					<path class="st7" d="M351.4,194.8c2.7,0,5.3,0,8,0c0.7,0,0.7-1.1,0-1.1c-2.7,0-5.3,0-8,0C350.7,193.7,350.7,194.8,351.4,194.8
						L351.4,194.8z"/>
				</g>
				<g>
					<path class="st7" d="M334.1,194.8c4.8,0,9.5,0,14.3,0c0.7,0,0.7-1.1,0-1.1c-4.8,0-9.5,0-14.3,0
						C333.4,193.7,333.4,194.8,334.1,194.8L334.1,194.8z"/>
				</g>
				<g>
					<path class="st7" d="M319,194.8c3.9,0,7.8,0,11.8,0c0.7,0,0.7-1.1,0-1.1c-3.9,0-7.8,0-11.8,0
						C318.3,193.7,318.3,194.8,319,194.8L319,194.8z"/>
				</g>
				<g>
					<path class="st7" d="M346.7,198.8c2.8,0,5.6,0,8.4,0c0.7,0,0.7-1.1,0-1.1c-2.8,0-5.6,0-8.4,0C346,197.7,346,198.8,346.7,198.8
						L346.7,198.8z"/>
				</g>
				<g>
					<path class="st7" d="M331.3,198.8c4,0,7.9,0,11.9,0c0.7,0,0.7-1.1,0-1.1c-4,0-7.9,0-11.9,0
						C330.6,197.7,330.6,198.8,331.3,198.8L331.3,198.8z"/>
				</g>
				<g>
					<path class="st7" d="M323.3,198.8c1.6,0,3.3,0,4.9,0c0.7,0,0.7-1.1,0-1.1c-1.6,0-3.3,0-4.9,0
						C322.6,197.7,322.6,198.8,323.3,198.8L323.3,198.8z"/>
				</g>
				<g>
					<path class="st7" d="M350.4,202.7c2.1,0,4.3,0,6.4,0c0.7,0,0.7-1.1,0-1.1c-2.1,0-4.3,0-6.4,0
						C349.7,201.6,349.7,202.7,350.4,202.7L350.4,202.7z"/>
				</g>
				<g>
					<path class="st7" d="M336.7,202.7c3.6,0,7.1,0,10.7,0c0.7,0,0.7-1.1,0-1.1c-3.6,0-7.1,0-10.7,0
						C336,201.6,336,202.7,336.7,202.7L336.7,202.7z"/>
				</g>
				<g>
					<path class="st7" d="M321.4,202.7c3.9,0,7.8,0,11.7,0c0.7,0,0.7-1.1,0-1.1c-3.9,0-7.8,0-11.7,0
						C320.7,201.6,320.7,202.7,321.4,202.7L321.4,202.7z"/>
				</g>
			</g>
			<g>
				<path class="st7" d="M343.7,158.3c-0.7,0-1.1,0-1.8,0c-1.6,0-2.9,1.3-2.9,2.9c0,1.6,1.3,2.9,2.9,2.9c0.7,0,1.1,0,1.8,0
					c1.6,0,2.9-1.3,2.9-2.9C346.6,159.6,345.3,158.3,343.7,158.3z"/>
				<path class="st13" d="M346.6,161.2c0,1.6-1.3,2.9-2.9,2.9c-1.6,0-2.9-1.3-2.9-2.9c0-1.6,1.3-2.9,2.9-2.9
					C345.3,158.3,346.6,159.6,346.6,161.2z"/>
			</g>
		</g>
		<polygon class="st9" points="345.2,172.7 335.7,175.5 314.2,179.8 314.2,189.1 320.8,186.9 336.1,179.6 340,180.3 341.5,179.6 
			342.8,180.8 348.1,180.5 349.1,174.7 		"/>
		<g>
			<polygon class="st7" points="318.5,174.1 316.7,174.3 317.3,176.4 319,176.1 			"/>
			<polygon class="st7" points="330.4,172.4 330.7,173.3 319.3,174.1 319.8,176 331.1,174.4 331.4,175.2 333.9,173.4 			"/>
		</g>
		<g>
			<polygon class="st7" points="324,186.9 322.3,187.5 323.4,189.4 325,188.7 			"/>
			<polygon class="st7" points="335,182 335.5,182.8 324.8,186.6 325.8,188.4 336.2,183.7 336.7,184.4 338.5,182 			"/>
		</g>
		<path class="st7" d="M342.8,190.5c0,0,2.3-9,9.8-8.5c7.5,0.5,11.5,1.3,11.5,1.3v7.2H342.8z"/>
		<path class="st15" d="M359.9,178.5c0,0-0.4,2.9,0.5,4.2c0,0-5.5,2-6.2-0.6c0,0,1.2-0.8,1.5-2.6
			C355.9,177.6,359.9,178.5,359.9,178.5z"/>
		<path class="st17" d="M355.2,182.2c3.9,0.1,4.5-2.7,4.6-3.7c-0.5-0.1-4-0.7-4.2,1c-0.2,1.6-1.1,2.4-1.4,2.6
			C354.5,182.1,354.8,182.2,355.2,182.2z"/>
		<g>
			<path class="st15" d="M361.5,172.8c-0.5,3.6-0.5,5.8-2.5,7.5c-3,2.6-7.3,0.6-8-3.1c-0.6-3.3,0.3-8.7,3.9-9.9
				c2.6-0.9,5.5,0.6,6.3,3.2C361.5,171.3,361.6,172,361.5,172.8z"/>
			<path class="st15" d="M362.6,176.2c-0.5,0.7-1.2,1.3-2,1.5c-1.1,0.3-1.4-0.8-1-1.9c0.4-1,1.4-2.3,2.4-2
				C363,174.1,363.2,175.3,362.6,176.2z"/>
			<path class="st7" d="M356.6,173.4c0,0.3-0.2,0.5-0.4,0.5c-0.2,0-0.3-0.3-0.3-0.6c0-0.3,0.2-0.5,0.4-0.5
				C356.5,172.9,356.6,173.1,356.6,173.4z"/>
			<path class="st7" d="M352.6,173.1c0,0.3-0.2,0.5-0.4,0.5c-0.2,0-0.3-0.3-0.3-0.6c0-0.3,0.2-0.5,0.4-0.5
				C352.5,172.5,352.6,172.8,352.6,173.1z"/>
			<path class="st16" d="M353.3,173.4c-0.4,0.9-0.9,1.7-1.6,2.4c0.4,0.3,0.9,0.5,1.4,0.4L353.3,173.4z"/>
			<path class="st7" d="M356.3,170.1C356.3,170.1,356.3,170.1,356.3,170.1c-0.1,0.2,0,0.3,0.1,0.3c0.5,0.1,1.1,0,1.6-0.3
				c0.1-0.1,0.1-0.2,0-0.2c0,0,0,0,0,0c-0.1-0.1-0.2-0.1-0.3,0l0,0c-0.3,0.3-0.8,0.4-1.2,0.3C356.5,170,356.4,170,356.3,170.1z"/>
			<path class="st7" d="M351.7,170.5c0.1,0,0.1,0,0.2,0c0.3-0.3,0.8-0.4,1.2-0.3c0.1,0,0.2,0,0.2-0.1c0-0.1,0-0.2-0.1-0.2
				c-0.5-0.1-1.1,0-1.5,0.4C351.6,170.2,351.6,170.3,351.7,170.5C351.7,170.4,351.7,170.4,351.7,170.5z"/>
			<path class="st7" d="M356,177.4L356,177.4c-0.9-0.6-2-0.7-3-0.3c-0.1,0-0.1,0.1-0.1,0.2c0,0,0,0,0,0c0,0.1,0.1,0.1,0.2,0.1
				c0.9-0.4,2-0.2,2.8,0.3c0.1,0,0.1,0,0.2,0C356.1,177.5,356,177.4,356,177.4C356,177.4,356,177.4,356,177.4z"/>
			<path class="st7" d="M352,171.2c-0.8,0-1.4,0.6-1.4,1.4s0.6,1.4,1.4,1.4c0.8,0,1.4-0.6,1.4-1.4S352.8,171.2,352,171.2z
				 M352,173.6c-0.5,0-0.9-0.4-0.9-0.9s0.4-0.9,0.9-0.9c0.5,0,0.9,0.4,0.9,0.9S352.5,173.6,352,173.6z"/>
			<path class="st7" d="M356.6,171.6c-0.8,0-1.4,0.6-1.4,1.4c0,0.8,0.6,1.4,1.4,1.4c0.8,0,1.4-0.6,1.4-1.4
				C358.1,172.3,357.4,171.6,356.6,171.6z M356.6,173.9c-0.5,0-0.9-0.4-0.9-0.9c0-0.5,0.4-0.9,0.9-0.9c0.5,0,0.9,0.4,0.9,0.9
				C357.5,173.5,357.1,173.9,356.6,173.9z"/>
			<path class="st7" d="M352.7,173.6c0,0,0.5-0.8,2.9,0.2c0,0-0.6-0.9,0.3-1.7c0,0-2.1,0.6-3-0.1C352.9,172,353.5,172.7,352.7,173.6
				z"/>
		</g>
		<g class="st18">
			<path class="st14" d="M364.1,188c-9.3,1-16.3-1.4-18.9-2.5c-0.3,0.4-0.7,0.9-0.9,1.3c1.4,0.7,3.9,1.6,7.7,2.1
				c5.9,0.9,10.9,0.2,12.1,0V188z"/>
			<path class="st14" d="M343.3,189.1c-0.3,0.8-0.5,1.4-0.5,1.4h5.3C346,190,344.4,189.5,343.3,189.1z"/>
			<path class="st14" d="M347.8,183.2c-0.4,0.3-0.8,0.6-1.2,0.9c0.5,0.6,2,1.6,6.2,2.2c4.9,0.7,9.3,0.4,11.2,0.2v-1.1
				C354.5,186.1,349.1,183.8,347.8,183.2z"/>
		</g>
		<path class="st14" d="M319.2,165.8c0.3,0.2,0.4,0.6,0.4,1c0,0.3-0.1,0.5-0.2,0.7c-0.1,0.2-0.3,0.4-0.6,0.5c-0.3,0.1-0.6,0.2-1,0.2
			c-0.3,0-0.6,0-0.9-0.1c-0.3-0.1-0.6-0.2-0.8-0.4l0.4-0.8c0.2,0.1,0.4,0.2,0.6,0.3c0.2,0.1,0.4,0.1,0.7,0.1c0.3,0,0.5-0.1,0.6-0.2
			c0.1-0.1,0.2-0.2,0.2-0.4c0-0.2-0.1-0.3-0.2-0.4c-0.2-0.1-0.4-0.1-0.8-0.1h-1.1l0.2-2.5h2.7v0.8h-1.8l-0.1,0.8h0.4
			C318.4,165.4,318.9,165.5,319.2,165.8z"/>
	</g>
</g>
<g>
	<path class="st7" d="M168.2,90.8c0,0,6.8-1.9,7.3,0.7c0.5,2.6-2,2.9-2,2.9v5.7l-7.3-7.4l0.4-1.3L168.2,90.8z"/>
	<path class="st19" d="M187.7,148.4c-1.1,1.5-0.5,3.6,1.1,4.4c3.6,1.8,9.6,4.4,13.3,3.8c5.2-0.8,18.6-18,20.6-20.6
		c0.2-0.2,0.4-0.4,0.6-0.6l4.9-3.6c0.5-0.3,0.8-0.8,1-1.3l1.1-2.7c0.6-1.5-0.1-3.3-1.7-3.9l-1.3-0.5c-1.4-0.5-2.9,0-3.7,1.3
		l-3.7,6.3c-0.1,0.2-0.3,0.5-0.5,0.7c-2.2,2.1-15.6,14.8-18.9,14.8c-2,0-4.5-1.4-6.3-2.6c-1.4-0.9-3.2-0.6-4.2,0.8L187.7,148.4z"/>
	<path class="st9" d="M181.5,132c0,0,5.9,2.6,10.2,6.7c3.9,3.7,5.2,3.7,5.2,3.7s-2,6.8-7.3,11.7C189.7,154.1,172.3,149.6,181.5,132z
		"/>
	<path class="st9" d="M186.7,154.1c0,0,5.5-5.3,8.3-13.6l3.5,2c0,0-2.1,6.9-8.2,12.7L186.7,154.1z"/>
	<path class="st13" d="M186.7,154.1c0,0,5.5-5.3,8.3-13.6l3.5,2c0,0-2.1,6.9-8.2,12.7L186.7,154.1z"/>
	<polygon class="st19" points="185,339.7 188.9,356.5 196.9,355.1 195.2,337.8 	"/>
	<g>
		<path class="st9" d="M198.3,353.4c-0.1,0-0.2-0.1-0.2-0.1c0-0.1,0-0.2,0.1-0.2c0.1-0.1,2.9-2.5,4.4-2.4c0.3,0,0.6,0.1,0.8,0.4
			c0.3,0.2,0.3,0.6,0.2,0.9c-0.3,0.5-1.4,1-2.5,1.2C200.1,353.3,199.2,353.4,198.3,353.4z M198.9,353c1.7-0.1,3.9-0.6,4.2-1.3
			c0-0.1,0.1-0.2-0.1-0.5c-0.1-0.1-0.3-0.2-0.5-0.2c-0.1,0-0.3,0-0.4,0C200.9,351.5,199.8,352.2,198.9,353z"/>
		<path class="st9" d="M198.2,353.5c-0.1,0-0.1-0.1-0.1-0.2c0-0.1-0.3-2.6,0.7-3.7c0.3-0.3,0.7-0.6,1.1-0.6c0.6-0.1,0.8,0.2,0.9,0.4
			c0.4,1-1.4,3.3-2.3,4c0,0-0.1,0-0.1,0C198.3,353.5,198.2,353.5,198.2,353.5z M199.8,349.4c-0.3,0.1-0.5,0.2-0.7,0.4
			c-0.5,0.9-0.7,1.9-0.6,3c1-0.9,2.1-2.7,1.9-3.3c0-0.1-0.1-0.2-0.5-0.2L199.8,349.4L199.8,349.4z"/>
		<path class="st7" d="M197.1,352.4l-9.7,2c-0.4,0.1-0.6,0.4-0.6,0.8l-0.2,8.3c0,0.7,0.6,1.3,1.3,1.4c0.1,0,0.2,0,0.3,0
			c3.5-0.8,6.6-1.6,10.9-2.5c5.1-1,4-0.2,10-1.3c3.7-0.7,3.5-5,1.9-4.9c-7.3,0.5-8.4-1.4-11.7-3.4
			C198.7,352.3,197.9,352.2,197.1,352.4z"/>
	</g>
	<path class="st9" d="M184.5,197l12.5,150.6l-10.5,1.5c0,0-13.4-51.2-12.1-67.8l-14.1-54.7c0,0-5.3-11.5-1.5-30.2L184.5,197z"/>
	<path class="st13" d="M184.5,197l12.5,150.6l-10.5,1.5c0,0-13.4-51.2-12.1-67.8l-14.1-54.7c0,0-5.3-11.5-1.5-30.2L184.5,197z"/>
	<path class="st17" d="M160.3,226.7l5.9,22.9c3.5-20.1,3.3-43.7,3.3-43.7l-4.8,5.5h-5.7l-1.5,2C158,221.8,160.3,226.7,160.3,226.7z"
		/>
	<polygon class="st9" points="185.9,350.7 198,348.9 197.8,343.9 184.5,345.8 	"/>
	<polygon class="st19" points="130.4,338.3 128.8,355.5 136.6,356.7 140.6,339.7 	"/>
	<g>
		<path class="st9" d="M138.4,354.4c-0.1,0-0.1-0.1-0.2-0.2c0-0.1,0-0.2,0.1-0.2c0.1-0.1,3.5-1.6,4.9-1.1c0.3,0.1,0.5,0.3,0.6,0.6
			c0.2,0.3,0.2,0.7-0.1,0.9c-0.4,0.5-1.6,0.6-2.7,0.5C140.2,354.8,139.3,354.6,138.4,354.4z M139.1,354.2c1.7,0.3,3.9,0.5,4.4,0
			c0.1-0.1,0.1-0.2,0-0.5c-0.1-0.2-0.2-0.3-0.4-0.3c-0.1,0-0.3-0.1-0.4-0.1C141.5,353.3,140.3,353.6,139.1,354.2z"/>
		<path class="st9" d="M138.3,354.4c-0.1,0-0.1-0.1-0.1-0.2c0-0.1,0.5-2.5,1.7-3.4c0.4-0.3,0.8-0.3,1.2-0.3c0.6,0.1,0.7,0.4,0.7,0.7
			c0.1,1-2.2,2.8-3.4,3.2c0,0-0.1,0-0.1,0C138.4,354.4,138.3,354.4,138.3,354.4z M141,350.9c-0.3,0-0.5,0-0.8,0.2
			c-0.7,0.7-1.2,1.7-1.4,2.7c1.2-0.6,2.7-2,2.7-2.6c0-0.1,0-0.2-0.4-0.3L141,350.9L141,350.9z"/>
		<path class="st7" d="M137.6,353l-9.9-0.8c-0.4,0-0.7,0.2-0.8,0.6l-2.5,7.9c-0.2,0.7,0.2,1.4,0.9,1.7c0.1,0,0.2,0,0.3,0.1
			c3.6,0.2,6.7,0.3,11.2,0.7c5.2,0.4,3.9,1,10,1.6c3.7,0.4,4.7-3.8,3.2-4.1c-7.1-1.5-7.7-3.7-10.2-6.5
			C139.1,353.4,138.4,353.1,137.6,353z"/>
	</g>
	<path class="st9" d="M171.6,197.8c0,0-3,32.7-32.7,151.2l-9.5-1.3c0,0,3.1-59.5,8.9-69l2.5-53.5c0,0-2.7-12.6,3.2-30.2L171.6,197.8
		z"/>
	<path class="st13" d="M171.6,197.8c0,0-3,32.7-32.7,151.2l-9.5-1.3c0,0,3.1-59.5,8.9-69l2.5-53.5c0,0-2.7-12.6,3.2-30.2
		L171.6,197.8z"/>
	<polygon class="st9" points="128,348.9 140.1,350.8 141.3,345.9 128,343.9 	"/>
	<g>
		<path class="st9" d="M156,278.2c0,0-1.3-0.1-1.5-2.2c0,0-2.2,1-3.4-1c0,0-2.6,0.7-3.7-0.2c0,0-1.7,2.6-3,2.3c0,0,1.9,0.7,2.2,1.7
			c0,0,2.4-1,3.1,0.1c0,0,2.4-0.6,3.4,0.5c0,0,2.7-0.2,3.4,0.5C156.5,280.1,155.8,278.9,156,278.2z"/>
		<path class="st12" d="M156,278.2c0,0-1.3-0.1-1.5-2.2c0,0-2.2,1-3.4-1c0,0-2.6,0.7-3.7-0.2c0,0-1.7,2.6-3,2.3c0,0,1.9,0.7,2.2,1.7
			c0,0,2.4-1,3.1,0.1c0,0,2.4-0.6,3.4,0.5c0,0,2.7-0.2,3.4,0.5C156.5,280.1,155.8,278.9,156,278.2z"/>
		<path class="st19" d="M155.6,279.3c0,0-4.2-6.4-10.2-2L155.6,279.3z"/>
	</g>
	<path class="st7" d="M142.2,197.2c0,0,0.2-32.3-2.7-63.5c-0.2-1.6,0.9-3.1,2.5-3.5c5.8-1.3,20.1-3.6,38.3,1.3
		c2.6,0.7,4.5,3.1,4.6,5.8c0.4,10.8,1.3,39,1.8,61.7C186.7,199,170.3,202.1,142.2,197.2z"/>
	<path class="st19" d="M137.9,192c-1.3-1.7-1-5.2-1-5.2s-8.3-9.8-8.7-19.3c-0.4-9.5,7.1-26.9,7.1-26.9l11.6,6c0,0-8.6,14-9.8,19.6
		c-1.3,5.6,4.6,17.8,4.6,17.8c3.4,0.9,4.7,1.2,5.8,2.3c0.6,0.6,1.2,1.8,1.7,3.1c0.9,2.3-0.2,4.8-2.4,5.8l-0.4,0.2
		c-0.9,0.4-2,0.5-2.9,0.3l-3.2-0.8C140.2,194.6,138.4,192.7,137.9,192z"/>
	<path class="st9" d="M143.5,154l-11.9-7.3c0,0,3.9-21.7,15.7-15C157.4,137.2,143.5,154,143.5,154z"/>
	<polygon class="st9" points="130.6,147.3 143.5,155.3 147,151.6 131.6,142.4 	"/>
	<polygon class="st13" points="130.6,147.3 143.5,155.3 147,151.6 131.6,142.4 	"/>
	<path class="st19" d="M174.5,129.9l-1.3-0.1c-1-0.1-1.9-0.6-2.4-1.4c-1.8-2.6-1.6-6.4-0.9-9.5l-13.2-9.2c1.2,4.7,2.4,12.2,1.1,17.6
		c-0.3,1.3-1.2,1-1.2,1c-0.2,2.2-4.1,6.8,6.9,7.2C174.2,135.7,177.3,132.7,174.5,129.9z"/>
	<path class="st20" d="M162.1,113.4l7.8,5.4c-0.3,1.1-0.4,2.3-0.5,3.5c-2.8,0.6-7-2.1-7.5-4.8C161.7,116.1,161.8,114.7,162.1,113.4z
		"/>
	<path class="st19" d="M154.9,104.1c1.8,7.4,2.4,11.8,6.9,15c6.7,4.7,15.3-0.4,15.8-8.2c0.4-7-2.5-17.9-10.4-19.6
		c-5.7-1.2-11.2,2.5-12.4,8.1C154.5,101,154.6,102.6,154.9,104.1z"/>
	<path class="st21" d="M171.1,102.1c0,0,2,3.3,3.8,4.7c-0.9,1.2-2.8,1.1-2.8,1.1L171.1,102.1z"/>
	<path class="st22" d="M166.3,103c0.1,0.6,0.5,1,0.8,0.9c0.4-0.1,0.6-0.6,0.5-1.1c-0.1-0.6-0.5-1-0.9-0.9
		C166.5,101.9,166.2,102.4,166.3,103z"/>
	<path class="st22" d="M172.8,102.1c0.1,0.6,0.5,1,0.8,0.9c0.4-0.1,0.6-0.6,0.5-1.1c-0.1-0.6-0.5-1-0.9-0.9
		C172.9,101.1,172.7,101.5,172.8,102.1z"/>
	<path class="st22" d="M164,101.2c-0.1,0-0.1,0-0.2,0c-0.2-0.1-0.2-0.3-0.2-0.4c0,0,0,0,0,0c0.5-1,1.4-1.7,2.5-1.8
		c0.2,0,0.3,0.1,0.4,0.3c0,0,0,0,0,0c0,0.2-0.1,0.3-0.3,0.4c0,0,0,0,0,0c-0.8,0.1-1.6,0.6-2,1.4C164.2,101.1,164.1,101.2,164,101.2z
		"/>
	<path class="st22" d="M175.2,99.5c-0.1,0-0.2-0.1-0.3-0.1c-0.5-0.7-1.3-1.2-2.2-1.3c-0.2,0-0.3-0.2-0.3-0.4c0-0.1,0.1-0.3,0.3-0.3
		l0,0c1.1,0.1,2.1,0.6,2.7,1.6c0.1,0.1,0.1,0.4-0.1,0.5c0,0,0,0,0,0C175.3,99.5,175.3,99.5,175.2,99.5z"/>
	<g>
		<g>
			<path class="st9" d="M172.2,132.2c0,0,3.6,1,2.6,10.8c-1,9.9,2,23.4,2,23.4s-4.2-2.1-7.7,0.4c-3.4,2.5-5.3-1.4-5.3-1.4
				s6.3-23.2,1.9-27.1C161.5,134.6,172.2,132.2,172.2,132.2z"/>
			<path class="st18" d="M172.2,132.2c0,0,3.6,1,2.6,10.8c-1,9.9,2,23.4,2,23.4s-4.2-2.1-7.7,0.4c-3.4,2.5-5.3-1.4-5.3-1.4
				s6.3-23.2,1.9-27.1C161.5,134.6,172.2,132.2,172.2,132.2z"/>
			<path class="st23" d="M171.4,141.1c0,0,1.9,1.7,0.9,7c-1.1,5.3,1.9,12.8-0.3,16.2c-0.3,0.4-1.8,0.7-1.8,0.7
				c-0.6,0.2-1.2-0.2-1.1-0.8c0.2-3.5,0.9-13.3,1.7-16.5C171.7,143.4,171.4,141.1,171.4,141.1z"/>
		</g>
		<g>
			<path class="st9" d="M170.8,129.9c0,0-6.4,1-13.1-3.8c-0.4-0.3-0.9-0.4-1.4-0.3c-0.7,0.2-1.6,0.7-2,2.1c0,0-1.3-0.5-2.3,0
				c-0.3,0.2-0.5,0.6-0.4,0.9c0.4,1.8,2.3,7.9,8.9,8.6C168.4,138.3,170.8,129.9,170.8,129.9z"/>
			<path class="st24" d="M170.8,129.9c0,0-6.4,1-13.1-3.8c-0.4-0.3-0.9-0.4-1.4-0.3c-0.7,0.2-1.6,0.7-2,2.1c0,0-1.3-0.5-2.3,0
				c-0.3,0.2-0.5,0.6-0.4,0.9c0.4,1.8,2.3,7.9,8.9,8.6C168.4,138.3,170.8,129.9,170.8,129.9z"/>
			<path class="st23" d="M158.2,131c0,0-1.9-0.9-3.2-2.1C155,128.9,154.6,132.1,158.2,131z"/>
		</g>
		<g>
			<path class="st9" d="M172.2,128.3c-4.1,2.3-13.2,5.9-17.9,5.4c-4.7-0.5,7,7.1,7,7.1s1.8,3.8,4.7,2.2c2.9-1.6,15.5-14,9.6-14.1
				C175.6,129,174.7,126.9,172.2,128.3z"/>
			<path class="st25" d="M172.2,128.3c-4.1,2.3-13.2,5.9-17.9,5.4c-4.7-0.5,7,7.1,7,7.1s1.8,3.8,4.7,2.2c2.9-1.6,15.5-14,9.6-14.1
				C175.6,129,174.7,126.9,172.2,128.3z"/>
			<path class="st23" d="M174.1,130.2c0,0-1.9,5-10.3,8.6c-0.7,0.3-1.6,0.2-2.2-0.4l-1.2-1.1C160.6,137.4,165.8,137.7,174.1,130.2z"
				/>
		</g>
	</g>
	<path class="st7" d="M172.1,109.3c0,0-4.6-1.4-5.8,0.7c-1.1,2.1,1.2,8.3,1.9,5.9c0,0,1.6,4.2,2.5,0.5c0,0,1.2,3.6,2.4-0.5
		c0,0,0.6,1.2,1.3-1.5C175.1,111.8,175.7,108.3,172.1,109.3z"/>
	<path class="st26" d="M172.1,109.3c0,0-4.6-1.4-5.8,0.7c-1.1,2.1,1.2,8.3,1.9,5.9c0,0,1.6,4.2,2.5,0.5c0,0,1.2,3.6,2.4-0.5
		c0,0,0.6,1.2,1.3-1.5C175.1,111.8,175.7,108.3,172.1,109.3z"/>
	<g>
		<path class="st22" d="M173.9,110.7c0,0-1.7-0.2-6.3,0.2c0.7,1.2,1.8,2.1,4.2,1.9C174.1,112.6,173.9,110.7,173.9,110.7z"/>
		<path class="st27" d="M170.5,111.9c0.9-0.1,1.8,0,2.7,0.4c-0.4,0.3-0.9,0.5-1.4,0.5c-0.9,0.1-1.8,0-2.7-0.4
			C169.5,112.1,170,111.9,170.5,111.9z"/>
		<path class="st14" d="M173.7,110.6c-0.1,0.3-0.3,0.6-0.6,0.7c-1.4,0.1-2.8,0.1-4.1,0c-0.4,0-0.8-0.2-1.1-0.5
			C169.7,110.6,171.7,110.6,173.7,110.6z"/>
	</g>
	<path class="st7" d="M151.9,101.4l4.2,10c0,0,3.2-1.5,2.2-5.8c-1.1-4.3,2.8-6.3,3-10.4c0.2-4.1,6-3.9,6-3.9l-7.3-2.1l-9,6.3
		L151.9,101.4z"/>
	<g>
		<path class="st9" d="M152,103.2c0,0-8.6-4.5,0-12c8.6-7.6,22.9-4.7,20-1.7c-1.2,1.2-8.9,2.3-12.7,4.9
			C153.9,98.1,152,103.2,152,103.2z"/>
		<path class="st26" d="M152,103.2c0,0-8.6-4.5,0-12c8.6-7.6,22.9-4.7,20-1.7c-1.2,1.2-8.9,2.3-12.7,4.9
			C153.9,98.1,152,103.2,152,103.2z"/>
		<path class="st9" d="M151,94.1c-3.5,3.9-1,7.3,0.7,8.9c0.2,0.1,0.3,0.2,0.3,0.2s1.8-5.1,7.3-8.8c0.8-0.6,1.8-1,2.9-1.5
			C159.5,91.5,154.7,90,151,94.1z"/>
		<g>
			<path class="st9" d="M171.8,89c-1.8,1.4-4.6,1.7-6.7,2.3c-2.5,0.8-4.9,1.7-7,3.3c-2.8,2.1-5.3,5.1-6.5,8.4
				c-0.2,0.6,0.8,0.9,1,0.3c1.5-3.9,4.9-7.6,8.6-9.4c3.4-1.7,8.1-1.7,11.1-4C172.8,89.5,172.3,88.6,171.8,89L171.8,89z"/>
		</g>
		<g class="st25">
			<path class="st14" d="M171.8,89c-1.8,1.4-4.6,1.7-6.7,2.3c-2.5,0.8-4.9,1.7-7,3.3c-2.8,2.1-5.3,5.1-6.5,8.4
				c-0.2,0.6,0.8,0.9,1,0.3c1.5-3.9,4.9-7.6,8.6-9.4c3.4-1.7,8.1-1.7,11.1-4C172.8,89.5,172.3,88.6,171.8,89L171.8,89z"/>
		</g>
	</g>
	<g>
		<path class="st9" d="M176.3,99l-13.1,2.2l-6.6,6.3l0.6,1l6.3-5.2l1.7,2.6l5.1-0.2l1.3-2.9l2.1,2.1l3.9-2.2L176.3,99z M169.5,104.8
			l-4,0.2l-1.6-3.3l6.4-1l0.5,1.4L169.5,104.8z M171.8,101.8l-0.4-1.3l4.4-0.9l0.9,2.8l-3,1.7L171.8,101.8z"/>
		<path class="st11" d="M176.3,99l-13.1,2.2l-6.6,6.3l0.6,1l6.3-5.2l1.7,2.6l5.1-0.2l1.3-2.9l2.1,2.1l3.9-2.2L176.3,99z
			 M169.5,104.8l-4,0.2l-1.6-3.3l6.4-1l0.5,1.4L169.5,104.8z M171.8,101.8l-0.4-1.3l4.4-0.9l0.9,2.8l-3,1.7L171.8,101.8z"/>
	</g>
	<path class="st19" d="M152.7,112.1c1.2,1.5,2.9,2.5,4.8,2.7c2.5,0.3,3.4-2.1,2.4-4.3c-0.9-2-3.4-4.4-5.7-3.7
		C151.7,107.6,151.2,110.3,152.7,112.1z"/>
</g>
</svg>
